G04 ================== begin FILE IDENTIFICATION RECORD ==================*
G04 Layout Name:  tms570_hdk_reve.brd*
G04 Film Name:    BOTTOM*
G04 File Format:  Gerber RS274X*
G04 File Origin:  Cadence Allegro 16.3-p003*
G04 Origin Date:  Sun Jan 22 16:28:01 2012*
G04 *
G04 Layer:  VIA CLASS/BOTTOM*
G04 Layer:  PIN/BOTTOM*
G04 Layer:  ETCH/BOTTOM*
G04 Layer:  BOARD GEOMETRY/OUTLINE*
G04 Layer:  BOARD GEOMETRY/TOOLING_CORNERS*
G04 *
G04 Offset:    (0.00 0.00)*
G04 Mirror:    No*
G04 Mode:      Positive*
G04 Rotation:  0*
G04 FullContactRelief:  No*
G04 UndefLineWidth:     5.00*
G04 ================== end FILE IDENTIFICATION RECORD ====================*
%FSLAX55Y55*MOIN*%
%IR0*IPPOS*OFA0.00000B0.00000*MIA0B0*SFA1.00000B1.00000*%
%ADD46O,.14X.06*%
%ADD43O,.06X.14*%
%ADD45O,.16X.06*%
%ADD21C,.01*%
%ADD11C,.02*%
%ADD32R,.106X.056*%
%ADD16C,.04*%
%ADD44R,.056X.106*%
%ADD42R,.066X.114*%
%ADD13C,.05*%
%ADD40R,.065X.125*%
%ADD12C,.06*%
%ADD25C,.07*%
%ADD23C,.016*%
%ADD15C,.025*%
%ADD35C,.08*%
%ADD27C,.026*%
%ADD31C,.054*%
%ADD17R,.02X.02*%
%ADD34C,.056*%
%ADD20C,.065*%
%ADD28C,.075*%
%ADD14R,.05X.05*%
%ADD39R,.06X.06*%
%ADD22R,.07X.07*%
%ADD19R,.01X.02*%
%ADD18R,.02X.01*%
%ADD38O,.07X.04*%
%ADD41O,.04X.07*%
%ADD37O,.06X.035*%
%ADD30R,.02X.017*%
%ADD33O,.035X.06*%
%ADD29C,.13*%
%ADD36O,.045X.035*%
%ADD26O,.035X.045*%
%ADD24R,.035X.016*%
%ADD10C,.25*%
%ADD47C,.012*%
%ADD48C,.03*%
%ADD49C,.014*%
%ADD50C,.015*%
%ADD51C,.004*%
%ADD52C,.005*%
%ADD53C,.00501*%
%ADD55C,.04004*%
%ADD54C,.07004*%
G75*
%LPD*%
G75*
G36*
G01X162700Y10600D02*
X162700Y3900D01*
X155500Y3900D01*
X155500Y10600D01*
X162700Y10600D01*
G37*
G36*
G01X238323Y178738D02*
X237794Y178206D01*
X238500Y177438D01*
X239206Y178206D01*
X238677Y178738D01*
G03X238323Y178738I-177J-177D01*
G37*
G36*
G01X227000Y378500D02*
X227000Y380415D01*
G03X227000Y380585I-2000J85D01*
G01X227000Y382498D01*
X228099Y382498D01*
G03X230303Y382828I902J1502D01*
G02X231000Y382561I297J-267D01*
G01X231000Y380585D01*
G03X231000Y380415I2000J-85D01*
G01X231000Y378500D01*
X227000Y378500D01*
G37*
G36*
G01X230303Y385172D02*
G03X228099Y385502I-1302J-1172D01*
G01X227000Y385502D01*
X227000Y391000D01*
X227500Y391500D01*
X227500Y401498D01*
G03X228993Y404834I0J2002D01*
G02X229291Y405500I299J266D01*
G01X271500Y405500D01*
X271500Y388500D01*
X252883Y388500D01*
G02X252486Y388950I0J400D01*
G03X251955Y390575I-1986J250D01*
G02X251955Y391125I291J275D01*
G03X252233Y391498I-1455J1375D01*
G01X253062Y391498D01*
G03X256002Y393401I1438J1001D01*
G01X256002Y395599D01*
G03X252998Y395599I-1502J901D01*
G01X252998Y393502D01*
X252233Y393502D01*
G03X249045Y391125I-1733J-1002D01*
G02X249045Y390575I-291J-275D01*
G03X248514Y388950I1455J-1375D01*
G02X248117Y388500I-397J-50D01*
G01X245500Y388500D01*
X245500Y393000D01*
X244000Y394500D01*
X232000Y394500D01*
X231000Y393500D01*
X231000Y385439D01*
G02X230303Y385172I-400J0D01*
G37*
G36*
G01X268748Y337000D02*
X268748Y336436D01*
G03X271252Y336077I1032J-1716D01*
G01X271252Y337000D01*
X277915Y337000D01*
G03X278085Y337000I85J2000D01*
G01X279500Y337000D01*
X280500Y336000D01*
X280500Y334034D01*
G03X280248Y333000I2000J-1035D01*
G01X280248Y332000D01*
G03X280479Y331007I2252J0D01*
G01X280500Y330965D01*
X280500Y330500D01*
X279500Y329500D01*
X253000Y329500D01*
X252000Y330500D01*
X252000Y335500D01*
X253500Y337000D01*
X268748Y337000D01*
G37*
G36*
G01X314500Y185000D02*
X314000Y185500D01*
X314000Y197500D01*
X314500Y198000D01*
X315498Y198000D01*
X315498Y194998D01*
X315572Y194998D01*
X315572Y194773D01*
X315566Y194749D01*
G03X317750Y191948I2184J-549D01*
G01X320250Y191948D01*
G03X322434Y194749I0J2252D01*
G01X322428Y194773D01*
X322428Y194998D01*
X322502Y194998D01*
X322502Y198000D01*
X324500Y198000D01*
X326500Y200000D01*
X332500Y200000D01*
X333863Y198637D01*
X333827Y198521D01*
G03X334000Y197095I1673J-521D01*
G01X334000Y187126D01*
G03X333737Y186749I1500J-1326D01*
G01X333723Y186723D01*
X332000Y185000D01*
X314500Y185000D01*
G37*
G36*
G01X332500Y262500D02*
X331500Y263500D01*
X331500Y278500D01*
X330000Y280000D01*
X323000Y280000D01*
X322500Y280500D01*
X322500Y293538D01*
G03X322500Y297542I0J2002D01*
G01X322500Y298500D01*
X327500Y303500D01*
X327500Y310000D01*
X328500Y311000D01*
X337000Y311000D01*
X340000Y308000D01*
X340000Y303585D01*
G03X340000Y303415I2000J-85D01*
G01X340000Y284000D01*
X341000Y283000D01*
X341924Y283000D01*
G03X344576Y283000I1326J1500D01*
G01X347000Y283000D01*
X348000Y282000D01*
X348000Y273000D01*
X347000Y272000D01*
X341500Y272000D01*
X341000Y271500D01*
X341000Y269985D01*
G03X341000Y269815I2000J-85D01*
G01X341000Y265000D01*
X338500Y262500D01*
X332500Y262500D01*
G37*
G36*
G01X360500Y303000D02*
X357500Y306000D01*
X357500Y317500D01*
X357000Y318000D01*
X350000Y318000D01*
X348500Y319500D01*
X344083Y319500D01*
G03X343917Y319500I-83J-2500D01*
G01X337000Y319500D01*
X336500Y320000D01*
X336500Y324000D01*
X337000Y324500D01*
X371000Y324500D01*
X374500Y321000D01*
X374500Y309518D01*
G03X374500Y309348I2000J-85D01*
G01X374500Y308827D01*
G02X374000Y308440I-400J0D01*
G03X372815Y304620I-501J-1938D01*
G02X372961Y303961I-137J-376D01*
G01X372000Y303000D01*
X360500Y303000D01*
G37*
G36*
G01X339500Y326000D02*
X339500Y343500D01*
X342498Y346498D01*
X343002Y346498D01*
X343002Y347002D01*
X350498Y354498D01*
X352011Y354498D01*
G02X352493Y354806I391J-81D01*
G03X355252Y357000I507J2194D01*
G01X355252Y358000D01*
G03X352493Y360194I-2252J0D01*
G02X352011Y360502I-91J389D01*
G01X351500Y360502D01*
X351500Y371000D01*
X353000Y372500D01*
X354998Y372500D01*
X354998Y371903D01*
X354972Y371857D01*
G03X358028Y371857I1528J-857D01*
G01X358002Y371903D01*
X358002Y372500D01*
X387500Y372500D01*
X395000Y365000D01*
X395000Y355000D01*
X393000Y353000D01*
X373500Y353000D01*
X369000Y348500D01*
X369000Y326500D01*
X368500Y326000D01*
X339500Y326000D01*
G37*
G36*
G01X330733Y388733D02*
X332500Y390500D01*
X354500Y390500D01*
X355500Y389500D01*
X355500Y384500D01*
X349500Y378500D01*
X350000Y378000D01*
X350000Y371623D01*
X349998Y371622D01*
X349998Y365500D01*
X321500Y365500D01*
X321500Y379500D01*
X325585Y383585D01*
X325630Y383600D01*
G03X326900Y384870I-630J1900D01*
G01X326915Y384915D01*
X329267Y387267D01*
X329328Y387279D01*
G03X330721Y388672I-328J1721D01*
G01X330733Y388733D01*
G37*
G36*
G01X333500Y427000D02*
X333500Y419000D01*
X326000Y419000D01*
X325000Y420000D01*
X325000Y427000D01*
X325500Y427500D01*
X333000Y427500D01*
X333500Y427000D01*
G37*
G36*
G01X369000Y226000D02*
X359000Y236000D01*
X359000Y243500D01*
X361000Y245500D01*
X365312Y245500D01*
X365340Y245492D01*
G03X367899Y247310I560J1922D01*
G01X367909Y247500D01*
X383500Y247500D01*
X384000Y247000D01*
X384000Y227000D01*
X383000Y226000D01*
X369000Y226000D01*
G37*
G36*
G01X389800Y11200D02*
X389800Y4300D01*
X382400Y4300D01*
X382400Y11200D01*
X389800Y11200D01*
G37*
%LPC*%
G75*
G36*
G01X267062Y393998D02*
X264233Y393998D01*
G02X264233Y396002I-1733J1002D01*
G01X266998Y396002D01*
X266998Y398099D01*
G02X270002Y398099I1502J901D01*
G01X270002Y395901D01*
G02X267062Y393998I-1502J-902D01*
G37*
G54D55*
X334250Y277080D03*
X343000Y277250D03*
X340500Y381500D03*
X373600Y237050D03*
X379950Y234550D03*
X376618Y231129D03*
G54D54*
X327500Y194000D03*
X366000Y308000D03*
%LPD*%
G75*
G36*
G01X127900Y4000D02*
X127900Y10000D01*
X135100Y10000D01*
X135100Y4000D01*
X127900Y4000D01*
G37*
G36*
G01X310000Y348000D02*
X310000Y363500D01*
X341500Y363500D01*
X341500Y348000D01*
X310000Y348000D01*
G37*
G36*
G01X354800Y4100D02*
X354800Y10700D01*
X361800Y10700D01*
X361800Y4100D01*
X354800Y4100D01*
G37*
G54D10*
X20000Y20000D03*
X20000Y340000D03*
X20000Y472100D03*
X413100Y20000D03*
X413100Y340000D03*
X413100Y472100D03*
G54D20*
X81000Y115500D03*
X81000Y135500D03*
X81000Y125500D03*
X81000Y155500D03*
X81000Y145500D03*
X81500Y235000D03*
X81500Y225000D03*
X81500Y255000D03*
X81500Y245000D03*
X81500Y265000D03*
G54D11*
G01X23500Y427000D02*
X21500Y427000D01*
X20200Y428300D01*
X20000Y428300D01*
G01X46000Y381500D02*
X46000Y385500D01*
X45750Y385750D01*
G01X46000Y388500D02*
X46000Y386000D01*
X45750Y385750D01*
G01X34020Y416500D02*
X37500Y416500D01*
G01X37500Y425000D02*
X35017Y425000D01*
X34500Y424483D01*
X34088Y424483D01*
G01X50000Y411000D02*
X53964Y411000D01*
X54714Y410250D01*
X72750Y410250D01*
X75500Y413000D01*
G01X75500Y413000D02*
X66000Y413000D01*
G01X70900Y471900D02*
X70900Y468665D01*
X68835Y466600D01*
G01X95500Y379000D02*
X91500Y379000D01*
G01X113800Y261500D02*
X113800Y257800D01*
X113500Y257500D01*
G01X111500Y351000D02*
X111560Y351060D01*
X114440Y351060D01*
G01X114000Y392550D02*
X114000Y389000D01*
G01X126050Y260000D02*
X122500Y260000D01*
G01X129500Y288500D02*
X133000Y288500D01*
G01X117000Y379200D02*
X117000Y383400D01*
G01X126500Y424000D02*
X123500Y424000D01*
X122500Y423000D01*
G01X131000Y434050D02*
X131000Y430500D01*
G01X145500Y243800D02*
X145500Y243385D01*
X146585Y242300D01*
X146700Y242300D01*
X147563Y241437D01*
G01X143000Y240800D02*
X142700Y240800D01*
X140563Y242937D01*
G01X137000Y274950D02*
X137000Y278500D01*
G01X148500Y270000D02*
X148500Y266280D01*
X148640Y266140D01*
G01X142500Y315500D02*
X142500Y311890D01*
X142750Y311640D01*
G01X150500Y339500D02*
X150500Y336000D01*
G01X145000Y339500D02*
X145000Y335500D01*
G01X140000Y339500D02*
X140000Y335500D01*
G01X151500Y384000D02*
X151500Y382040D01*
X150480Y381020D01*
G01X152000Y395000D02*
X152000Y398500D01*
G01X159660Y447370D02*
X150500Y438210D01*
X150500Y438000D01*
G01X194630Y450900D02*
X194100Y450900D01*
X188500Y456500D01*
X152830Y456500D01*
X147230Y450900D01*
G01X169000Y278000D02*
X169000Y274000D01*
G01X173000Y278000D02*
X173000Y274000D01*
G01X173500Y282500D02*
X178000Y282500D01*
G01X171500Y311500D02*
X171500Y315500D01*
G01X158500Y308500D02*
X158500Y311620D01*
X158480Y311640D01*
G01X174500Y310000D02*
X178000Y310000D01*
G01X171000Y338000D02*
X171000Y340000D01*
X172500Y341500D01*
G01X169500Y370000D02*
X166500Y370000D01*
X165500Y369000D01*
G01X159660Y419810D02*
X159660Y447370D01*
G01X159660Y447370D02*
X163373Y451083D01*
X178627Y451083D01*
X182340Y447370D01*
G01X185000Y12000D02*
X185000Y16000D01*
G01X190000Y34500D02*
X190000Y38500D01*
G01X195000Y81000D02*
X197000Y79000D01*
X199500Y79000D01*
G01X192000Y186600D02*
X189100Y186600D01*
X187500Y185000D01*
X187500Y181500D01*
G01X201050Y186500D02*
X200950Y186600D01*
X192000Y186600D01*
G01X178000Y275500D02*
X178000Y279000D01*
G01X180500Y369000D02*
X183000Y369000D01*
X184000Y370000D01*
G01X193500Y394000D02*
X197000Y394000D01*
X200000Y397000D01*
G01X187000Y394000D02*
X183000Y394000D01*
G01X182340Y419810D02*
X182340Y447370D01*
G01X194000Y434500D02*
X194000Y450270D01*
X194630Y450900D01*
G01X190000Y434500D02*
X194000Y434500D01*
G01X200000Y8000D02*
X204000Y8000D01*
X205500Y9500D01*
X205500Y12000D01*
G01X214000Y174500D02*
X216500Y177000D01*
X216500Y178000D01*
G01X217300Y201500D02*
X224000Y201500D01*
G01X217300Y201500D02*
X217300Y204300D01*
X218500Y205500D01*
X224000Y205500D01*
G01X224000Y197500D02*
X223500Y198000D01*
X219000Y198000D01*
X217300Y199700D01*
X217300Y201500D01*
G01X207500Y234500D02*
X207500Y229100D01*
X207400Y229000D01*
G01X198500Y341950D02*
X198500Y345500D01*
G01X220000Y365500D02*
X215500Y365500D01*
G01X214000Y375000D02*
X210000Y375000D01*
X209000Y374000D01*
G01X226000Y437000D02*
X207700Y437000D01*
G01X236500Y168050D02*
X235900Y167450D01*
X235900Y164500D01*
G01X227500Y194500D02*
X227500Y191500D01*
G01X221850Y228500D02*
X225000Y228500D01*
G01X229000Y384000D02*
X229000Y380500D01*
G01X223000Y365500D02*
X223000Y368680D01*
X222940Y368740D01*
G01X230000Y365500D02*
X230000Y368680D01*
X229940Y368740D01*
G01X226500Y365500D02*
X226500Y368680D01*
X226440Y368740D01*
G01X229000Y387000D02*
X229000Y384000D01*
G01X236000Y424000D02*
X236000Y419000D01*
X241000Y414000D01*
G01X226000Y424000D02*
X221000Y419000D01*
X221000Y414000D01*
G01X226000Y424000D02*
X226000Y437000D01*
G01X269200Y437000D02*
X226000Y437000D01*
G01X256330Y112170D02*
X254030Y112170D01*
X253700Y112500D01*
X248500Y112500D01*
G01X253440Y178440D02*
X251000Y176000D01*
G01X244500Y168050D02*
X243951Y167501D01*
X243900Y167200D01*
X243900Y164500D01*
G01X240500Y168050D02*
X239910Y167460D01*
X239900Y167400D01*
X239900Y164500D01*
G01X253500Y203000D02*
X250850Y203000D01*
X250830Y202980D01*
G01X256500Y225000D02*
X256500Y227540D01*
X257130Y228170D01*
G01X253500Y225000D02*
X250850Y225000D01*
X250830Y225020D01*
G01X257050Y260000D02*
X260599Y256451D01*
X262951Y256451D01*
X264900Y258400D01*
G01X253800Y260000D02*
X253800Y261800D01*
X255000Y263000D01*
X257150Y263000D01*
X258150Y264000D01*
X262000Y264000D01*
G01X257050Y260000D02*
X262000Y260000D01*
G01X253800Y260000D02*
X257050Y260000D01*
G01X258000Y316000D02*
X254500Y316000D01*
G01X242000Y355000D02*
X242000Y358330D01*
X241830Y358500D01*
G01X240500Y404000D02*
X241000Y404500D01*
G01X241000Y404500D02*
X241000Y414000D01*
G01X262500Y99500D02*
X262500Y96560D01*
G01X270500Y146500D02*
X273000Y146500D01*
X274000Y147500D01*
G01X279500Y169500D02*
X276000Y169500D01*
G01X274000Y277050D02*
X274000Y273500D01*
G01X278000Y277050D02*
X278000Y273500D01*
G01X279500Y316000D02*
X276000Y316000D01*
G01X282500Y332500D02*
X278000Y332500D01*
G01X297700Y117500D02*
X297700Y117300D01*
X299000Y116000D01*
X299000Y113000D01*
G01X304000Y214500D02*
X301500Y214500D01*
X300500Y215500D01*
G01X285500Y250500D02*
X285500Y254000D01*
G01X282000Y277050D02*
X282000Y273500D01*
G01X292500Y391000D02*
X288500Y391000D01*
G01X320500Y12000D02*
X320500Y16000D01*
G01X309500Y90000D02*
X314000Y94500D01*
X314000Y95000D01*
G01X305500Y193800D02*
X302800Y193800D01*
X302500Y193500D01*
X302500Y193440D01*
X301960Y193440D01*
G01X304000Y225000D02*
X304000Y227350D01*
X305080Y228430D01*
G01X322000Y317500D02*
X321000Y317500D01*
X320000Y318500D01*
X320000Y321500D01*
G01X335500Y8000D02*
X338250Y8000D01*
X340500Y10250D01*
X340500Y13000D01*
G01X325500Y38050D02*
X325500Y34500D01*
G01X330906Y170389D02*
X331517Y171000D01*
X334500Y171000D01*
X336750Y173250D01*
X336750Y175000D01*
G01X330804Y179662D02*
X330938Y179662D01*
X331600Y179000D01*
X335000Y179000D01*
X336750Y177250D01*
X336750Y175000D01*
G01X328500Y175000D02*
X336750Y175000D01*
G01X330790Y197790D02*
X331000Y198000D01*
G01X331000Y198000D02*
X335500Y198000D01*
G01X338000Y214000D02*
X338500Y214500D01*
G01X327000Y264500D02*
X333000Y264500D01*
G01X332000Y315500D02*
X331732Y315232D01*
X331732Y309768D01*
G01X331732Y309768D02*
X333500Y308000D01*
G01X324000Y321500D02*
X324000Y318500D01*
X323000Y317500D01*
X322000Y317500D01*
G01X327000Y422000D02*
X327800Y421200D01*
G01X327800Y421200D02*
X336700Y421200D01*
X337500Y422000D01*
G01X337500Y422000D02*
X338700Y423200D01*
X338700Y424000D01*
X337700Y425000D01*
X329500Y425000D01*
G01X332000Y422000D02*
X337500Y422000D01*
G01X338100Y422200D02*
X326600Y422200D01*
G01X326300Y445300D02*
X326300Y438600D01*
G01X329500Y425000D02*
X329500Y427800D01*
X326300Y431000D01*
G01X368218Y179673D02*
X365295Y176750D01*
X362250Y176750D01*
X362250Y175000D01*
G01X367800Y170100D02*
X365150Y172750D01*
X362250Y172750D01*
X362250Y175000D01*
G01X362250Y175000D02*
X370500Y175000D01*
G01X361900Y194000D02*
X361900Y196900D01*
X363000Y198000D01*
X367500Y198000D01*
X368500Y199000D01*
G01X368500Y189500D02*
X363500Y189500D01*
X361900Y191100D01*
X361900Y194000D01*
G01X371000Y194000D02*
X361900Y194000D01*
G01X359900Y223900D02*
X359900Y214500D01*
G01X359900Y214500D02*
X363635Y214500D01*
X366597Y217462D01*
X366597Y217508D01*
G01X352250Y249500D02*
X352250Y245750D01*
X351500Y245000D01*
X347000Y245000D01*
G01X347000Y254000D02*
X351500Y254000D01*
X352250Y253250D01*
X352250Y249500D01*
G01X352250Y249500D02*
X347000Y249500D01*
G01X350500Y274500D02*
X347000Y274500D01*
G01X344000Y315500D02*
X344000Y320500D01*
G01X351500Y315500D02*
X351500Y321500D01*
G01X344000Y320500D02*
X343000Y321500D01*
G01X351500Y321500D02*
X350500Y322500D01*
G01X360200Y432700D02*
X360200Y427200D01*
X357300Y424300D01*
X356900Y424300D01*
G01X356900Y424300D02*
X356900Y432700D01*
G01X353600Y432700D02*
X353600Y427000D01*
X356300Y424300D01*
X356900Y424300D01*
G01X425000Y428500D02*
X425000Y427000D01*
X423000Y425000D01*
X403500Y425000D01*
X402085Y423585D01*
X402085Y413415D01*
X405500Y410000D01*
X411000Y410000D01*
X414000Y407000D01*
G01X417000Y407000D02*
X414000Y407000D01*
G01X424000Y408500D02*
X418500Y408500D01*
X417000Y407000D01*
G01X408500Y422500D02*
X408500Y418500D01*
G01X425500Y418500D02*
X425500Y414500D01*
G01X427500Y443000D02*
X427500Y438500D01*
X3500Y378500D03*
X3500Y416000D03*
X16031Y36999D03*
X16000Y361500D03*
X22500Y360000D03*
X30000Y362000D03*
X21500Y378000D03*
X25000Y378000D03*
X14000Y369500D03*
X22000Y402000D03*
X32000Y397000D03*
X26000Y401000D03*
X33000Y404000D03*
X20500Y424000D03*
X24400Y433498D03*
X30200Y441450D03*
X20000Y428300D03*
X27500Y430450D03*
X53000Y128000D03*
X48500Y138000D03*
X48500Y152000D03*
X53000Y148000D03*
X45250Y142749D03*
X48500Y141000D03*
X52000Y209000D03*
X52000Y225000D03*
X53122Y218878D03*
X51000Y221000D03*
X42619Y277500D03*
X51900Y297250D03*
X51892Y314538D03*
X44000Y316250D03*
X50500Y339500D03*
X44000Y333500D03*
X39500Y327000D03*
X44000Y323000D03*
X39500Y323000D03*
X40700Y352800D03*
X48300Y352300D03*
X33500Y381500D03*
X49500Y381500D03*
X45750Y385750D03*
X49000Y393000D03*
X40500Y404170D03*
X37000Y404000D03*
X42000Y386000D03*
X46000Y403700D03*
X34020Y416500D03*
X34088Y424483D03*
X41500Y409500D03*
X33950Y421000D03*
X53300Y424300D03*
X37750Y408750D03*
X63000Y10000D03*
X70290Y10210D03*
X63000Y25000D03*
X63000Y20000D03*
X63000Y15000D03*
X74000Y15000D03*
X74000Y20000D03*
X70290Y24210D03*
X71500Y32500D03*
X66500Y32500D03*
X67290Y39790D03*
X71500Y43090D03*
X64870Y65309D03*
X61755Y69235D03*
X62000Y98000D03*
X58500Y128000D03*
X58500Y133000D03*
X62000Y123000D03*
X62000Y118000D03*
X73500Y122500D03*
X58500Y123000D03*
X62000Y133000D03*
X62000Y128000D03*
X62000Y143000D03*
X58500Y138000D03*
X62000Y138000D03*
X54500Y139500D03*
X62000Y164500D03*
X62000Y158000D03*
X58500Y170897D03*
X64000Y196670D03*
X62000Y182500D03*
X67500Y190000D03*
X55500Y211048D03*
X62500Y222500D03*
X59000Y227500D03*
X62500Y237500D03*
X73000Y237000D03*
X59000Y237500D03*
X73000Y233500D03*
X62500Y232500D03*
X73000Y226500D03*
X55500Y232500D03*
X62500Y227500D03*
X59000Y257500D03*
X59000Y247500D03*
X59000Y242500D03*
X62500Y242500D03*
X59000Y252500D03*
X62500Y247500D03*
X62500Y252500D03*
X62500Y257500D03*
X62500Y267500D03*
X62500Y262500D03*
X74000Y275750D03*
X59000Y262500D03*
X59000Y267500D03*
X61500Y273500D03*
X67328Y292518D03*
X62853Y283500D03*
X54750Y284351D03*
X63957Y317750D03*
X60750Y304360D03*
X67000Y309000D03*
X57200Y311300D03*
X69500Y318000D03*
X59000Y338550D03*
X74000Y358000D03*
X73000Y348000D03*
X55500Y358000D03*
X55500Y343000D03*
X55500Y348000D03*
X55100Y379700D03*
X55500Y383000D03*
X55500Y373000D03*
X56000Y368000D03*
X55500Y403000D03*
X55500Y393000D03*
X56000Y388000D03*
X56000Y398000D03*
X54000Y418000D03*
X58500Y419900D03*
X55500Y413000D03*
X73165Y464800D03*
X64504Y465200D03*
X60173Y464400D03*
X68835Y466600D03*
X81500Y32500D03*
X76000Y32000D03*
X88750Y40749D03*
X88750Y33213D03*
X74990Y43090D03*
X81290Y39790D03*
X92000Y77000D03*
X75517Y154000D03*
X86251Y173897D03*
X91750Y176000D03*
X85000Y168000D03*
X78500Y176023D03*
X90500Y189000D03*
X92768Y185274D03*
X94312Y189438D03*
X92500Y205000D03*
X82000Y216750D03*
X93500Y210750D03*
X76000Y219000D03*
X88750Y233750D03*
X90500Y242750D03*
X87750Y254250D03*
X75700Y260500D03*
X77500Y273500D03*
X87900Y270838D03*
X86465Y294550D03*
X79050Y327450D03*
X74500Y328000D03*
X75000Y398000D03*
X75000Y390000D03*
X94200Y403000D03*
X75122Y385500D03*
X94500Y413000D03*
X75500Y413000D03*
X81827Y465300D03*
X77496Y466600D03*
X114490Y36100D03*
X103500Y66120D03*
X101000Y63500D03*
X105500Y128000D03*
X108500Y119000D03*
X100500Y118000D03*
X104500Y133000D03*
X100500Y133000D03*
X109000Y126500D03*
X100500Y138000D03*
X104500Y143000D03*
X104500Y138000D03*
X100500Y143000D03*
X105400Y158000D03*
X100500Y158000D03*
X99751Y183500D03*
X98500Y198000D03*
X114000Y205750D03*
X104000Y200500D03*
X98750Y218250D03*
X103500Y209750D03*
X101000Y232500D03*
X105000Y232500D03*
X105000Y227500D03*
X101100Y222500D03*
X105000Y237500D03*
X101000Y227500D03*
X105000Y257500D03*
X112238Y239962D03*
X105000Y247500D03*
X105000Y242500D03*
X101000Y242500D03*
X105000Y252500D03*
X101000Y252500D03*
X101000Y257500D03*
X104750Y274500D03*
X110500Y261500D03*
X113800Y261500D03*
X103000Y279901D03*
X101000Y262500D03*
X101000Y267500D03*
X105000Y262500D03*
X105000Y267500D03*
X115189Y268115D03*
X113000Y295000D03*
X104000Y284000D03*
X102262Y337000D03*
X99300Y333100D03*
X95500Y323000D03*
X95500Y333000D03*
X111000Y339500D03*
X115000Y340500D03*
X114440Y351060D03*
X114440Y345940D03*
X107500Y355000D03*
X95500Y343000D03*
X95500Y353000D03*
X95500Y363000D03*
X99500Y344500D03*
X98500Y348500D03*
X113000Y382500D03*
X95500Y379000D03*
X95500Y373000D03*
X111300Y369000D03*
X100500Y365000D03*
X95500Y383000D03*
X111000Y374600D03*
X112000Y395500D03*
X114000Y392550D03*
X113400Y403798D03*
X110000Y392550D03*
X95500Y393000D03*
X97891Y403799D03*
X105800Y403600D03*
X101600Y403500D03*
X109900Y404000D03*
X109500Y417950D03*
X106000Y418490D03*
X112800Y418000D03*
X96300Y417500D03*
X113000Y436500D03*
X102800Y441000D03*
X111970Y431800D03*
X108030Y431970D03*
X125000Y93500D03*
X135500Y77000D03*
X133650Y113200D03*
X134000Y118500D03*
X116400Y134600D03*
X115951Y118500D03*
X136000Y135047D03*
X136000Y141000D03*
X136000Y144500D03*
X127000Y149000D03*
X127000Y142500D03*
X136000Y168000D03*
X123530Y167530D03*
X136000Y171500D03*
X118000Y175500D03*
X132155Y164155D03*
X130000Y174500D03*
X136000Y162047D03*
X135000Y192000D03*
X136000Y196000D03*
X118939Y195498D03*
X122362Y195498D03*
X136000Y181500D03*
X129000Y191500D03*
X133650Y208350D03*
X117162Y208138D03*
X135210Y202395D03*
X119712Y210688D03*
X136000Y199500D03*
X129900Y208600D03*
X131900Y199900D03*
X119500Y232000D03*
X117539Y221629D03*
X119500Y236000D03*
X131259Y221884D03*
X134541Y221884D03*
X123798Y225000D03*
X120150Y224800D03*
X126050Y260000D03*
X119500Y244500D03*
X116920Y246500D03*
X119000Y259800D03*
X131000Y258700D03*
X127500Y255500D03*
X123500Y272500D03*
X130150Y275050D03*
X119000Y280500D03*
X129500Y280500D03*
X118612Y268115D03*
X121001Y291800D03*
X129500Y288500D03*
X125500Y289000D03*
X121000Y288500D03*
X129500Y284500D03*
X129500Y298000D03*
X129500Y295000D03*
X124000Y317000D03*
X129500Y310500D03*
X129640Y303360D03*
X132800Y333800D03*
X123000Y341500D03*
X121000Y326000D03*
X133600Y326200D03*
X126500Y358500D03*
X131940Y345940D03*
X116510Y353510D03*
X121936Y359714D03*
X116500Y348500D03*
X131940Y351060D03*
X128768Y356535D03*
X117000Y383400D03*
X126516Y382815D03*
X129749Y382751D03*
X122500Y386000D03*
X123000Y389500D03*
X122600Y404500D03*
X129500Y392000D03*
X129500Y396500D03*
X122500Y423000D03*
X130100Y411600D03*
X134500Y424000D03*
X117400Y417900D03*
X123200Y408700D03*
X122500Y427000D03*
X131000Y434050D03*
X125920Y433630D03*
X125000Y436000D03*
X120682Y453500D03*
X117500Y453500D03*
X154760Y73500D03*
X139000Y73500D03*
X142940Y73500D03*
X146880Y73500D03*
X150820Y73500D03*
X154660Y77000D03*
X138900Y77100D03*
X142840Y77000D03*
X146780Y77000D03*
X150720Y77000D03*
X142840Y113400D03*
X138689Y114848D03*
X154660Y113400D03*
X150720Y113400D03*
X146780Y113400D03*
X142940Y117000D03*
X154760Y117000D03*
X147000Y126500D03*
X150820Y117000D03*
X146602Y118500D03*
X143500Y126500D03*
X155000Y131500D03*
X140000Y126500D03*
X150500Y126500D03*
X148750Y149000D03*
X147000Y153500D03*
X155000Y155500D03*
X137000Y153750D03*
X150500Y153500D03*
X155000Y158500D03*
X145500Y176000D03*
X147000Y181500D03*
X155000Y186500D03*
X143500Y181500D03*
X155000Y183500D03*
X140000Y181500D03*
X150500Y181500D03*
X138000Y203500D03*
X152410Y207794D03*
X149000Y203641D03*
X155500Y213000D03*
X155500Y200000D03*
X145500Y203592D03*
X153000Y203500D03*
X141500Y203500D03*
X153500Y227500D03*
X155137Y224150D03*
X137500Y226500D03*
X142000Y255500D03*
X137000Y274950D03*
X148640Y266140D03*
X142000Y260500D03*
X148500Y278000D03*
X146670Y260170D03*
X144700Y266200D03*
X153500Y278000D03*
X152800Y260749D03*
X140500Y287500D03*
X140500Y295500D03*
X140420Y299420D03*
X140450Y291550D03*
X156500Y299500D03*
X140500Y283670D03*
X154000Y281500D03*
X154000Y285500D03*
X142750Y311640D03*
X148000Y309500D03*
X156500Y304000D03*
X140500Y308500D03*
X144000Y308500D03*
X139500Y311590D03*
X152500Y311000D03*
X140480Y303250D03*
X152580Y322500D03*
X150500Y339500D03*
X145000Y339500D03*
X140000Y339500D03*
X140000Y327550D03*
X150000Y327550D03*
X145000Y327550D03*
X155000Y327550D03*
X144000Y362000D03*
X150000Y348500D03*
X140000Y348500D03*
X155000Y348500D03*
X140400Y363100D03*
X150480Y381020D03*
X154500Y368000D03*
X146500Y374788D03*
X150000Y368000D03*
X152000Y398500D03*
X148520Y401980D03*
X137000Y400500D03*
X146000Y399000D03*
X155500Y395500D03*
X136500Y420000D03*
X140316Y416500D03*
X144500Y424000D03*
X144500Y412000D03*
X147000Y434000D03*
X143500Y475500D03*
X174810Y38000D03*
X174460Y73500D03*
X170520Y73500D03*
X166580Y73500D03*
X162640Y73500D03*
X158700Y73500D03*
X166500Y67000D03*
X174360Y77000D03*
X170420Y77000D03*
X166480Y77000D03*
X162540Y77000D03*
X158600Y77000D03*
X158600Y113400D03*
X174360Y113400D03*
X170420Y113400D03*
X166480Y113400D03*
X162540Y113400D03*
X165500Y96500D03*
X174000Y123000D03*
X168670Y122500D03*
X158700Y117000D03*
X174460Y117000D03*
X170520Y117000D03*
X166580Y117000D03*
X162640Y117000D03*
X162500Y142500D03*
X165000Y150000D03*
X170500Y155000D03*
X159000Y158000D03*
X164500Y167953D03*
X177524Y167477D03*
X177000Y198000D03*
X162000Y185000D03*
X165293Y190596D03*
X164500Y198000D03*
X164500Y193490D03*
X161000Y180000D03*
X172500Y190988D03*
X166000Y213000D03*
X160000Y200000D03*
X170750Y213000D03*
X159000Y213000D03*
X162500Y213000D03*
X175500Y224000D03*
X160800Y223597D03*
X172500Y254500D03*
X175912Y243413D03*
X173000Y278000D03*
X169000Y278000D03*
X171500Y260500D03*
X158480Y277980D03*
X168500Y266500D03*
X166500Y280250D03*
X165000Y260500D03*
X172500Y266000D03*
X158750Y283500D03*
X166000Y294500D03*
X174000Y297450D03*
X173500Y282500D03*
X174000Y289000D03*
X174000Y292500D03*
X160000Y288000D03*
X160500Y300000D03*
X170000Y294500D03*
X170500Y289000D03*
X166000Y299500D03*
X159250Y291500D03*
X174000Y300700D03*
X159400Y295250D03*
X170400Y282442D03*
X166250Y289500D03*
X158480Y311640D03*
X171500Y311500D03*
X174500Y310000D03*
X161500Y305500D03*
X168000Y311500D03*
X166900Y306361D03*
X172500Y341500D03*
X173540Y322602D03*
X167000Y327702D03*
X171500Y329000D03*
X165000Y341500D03*
X177000Y322500D03*
X170510Y359000D03*
X167500Y347500D03*
X159500Y345000D03*
X165500Y369000D03*
X165500Y374000D03*
X159000Y373500D03*
X162000Y374500D03*
X169500Y373500D03*
X171615Y378288D03*
X171615Y381711D03*
X164000Y401000D03*
X171270Y389230D03*
X167520Y389520D03*
X158000Y389500D03*
X175020Y389500D03*
X167500Y408500D03*
X172500Y408500D03*
X195000Y3950D03*
X185000Y3950D03*
X185000Y16000D03*
X193500Y16000D03*
X197000Y16000D03*
X190000Y16000D03*
X195000Y38500D03*
X190000Y38500D03*
X185000Y38000D03*
X178300Y73500D03*
X194000Y73500D03*
X182240Y73500D03*
X186180Y73500D03*
X190000Y73500D03*
X184220Y76500D03*
X180280Y76500D03*
X190120Y77000D03*
X194060Y77000D03*
X194060Y113440D03*
X180280Y113500D03*
X190500Y96500D03*
X190120Y113400D03*
X186180Y113400D03*
X182240Y117000D03*
X197500Y133500D03*
X190000Y117000D03*
X178300Y117000D03*
X194000Y117000D03*
X186000Y117000D03*
X197104Y153104D03*
X186888Y153500D03*
X190311Y153500D03*
X187688Y168000D03*
X191111Y168000D03*
X195000Y162500D03*
X189500Y161000D03*
X197000Y170000D03*
X182500Y176500D03*
X182500Y168500D03*
X182500Y173500D03*
X187500Y181500D03*
X182500Y180000D03*
X181750Y188500D03*
X178470Y192000D03*
X182500Y183000D03*
X178000Y211058D03*
X195751Y205950D03*
X184000Y201000D03*
X196000Y217500D03*
X188800Y217300D03*
X197500Y226000D03*
X192000Y232000D03*
X180000Y230000D03*
X190500Y229000D03*
X198000Y232500D03*
X193500Y237500D03*
X179300Y235400D03*
X185500Y244000D03*
X180000Y247500D03*
X190000Y251000D03*
X193250Y244700D03*
X189585Y246085D03*
X180000Y252000D03*
X193500Y256250D03*
X194666Y248259D03*
X193700Y251100D03*
X178000Y275500D03*
X181000Y261000D03*
X194000Y276000D03*
X193500Y267500D03*
X193000Y280360D03*
X185500Y275500D03*
X186000Y279500D03*
X181999Y267500D03*
X183000Y273500D03*
X185390Y287610D03*
X190293Y284491D03*
X194800Y297000D03*
X185687Y282790D03*
X185490Y296430D03*
X185500Y292500D03*
X192000Y289000D03*
X180961Y322000D03*
X196000Y312500D03*
X185200Y306300D03*
X188000Y322000D03*
X198000Y306500D03*
X194000Y339500D03*
X187500Y327500D03*
X196349Y328600D03*
X187700Y339300D03*
X192500Y324500D03*
X196900Y324500D03*
X186500Y359000D03*
X177789Y346984D03*
X181212Y346984D03*
X192300Y364700D03*
X196000Y372500D03*
X184000Y370000D03*
X185500Y378811D03*
X185500Y375388D03*
X188000Y371500D03*
X184500Y363500D03*
X194500Y402000D03*
X188500Y389500D03*
X187000Y394000D03*
X183000Y402000D03*
X194000Y427000D03*
X190000Y427000D03*
X205500Y12000D03*
X200000Y16000D03*
X200000Y38000D03*
X206000Y63000D03*
X199500Y79000D03*
X214000Y74500D03*
X217000Y77500D03*
X208000Y111500D03*
X205000Y112000D03*
X210000Y127500D03*
X217500Y131000D03*
X214500Y145500D03*
X214500Y141500D03*
X215000Y151800D03*
X203450Y149527D03*
X203000Y152500D03*
X211000Y168012D03*
X214000Y174500D03*
X210500Y160000D03*
X205500Y174000D03*
X205500Y177510D03*
X210500Y173000D03*
X205502Y159481D03*
X205500Y166000D03*
X201050Y186500D03*
X210000Y180000D03*
X211000Y192500D03*
X215000Y192500D03*
X206000Y187500D03*
X205000Y195500D03*
X201000Y193500D03*
X214800Y187500D03*
X206000Y192500D03*
X202300Y212200D03*
X205147Y211251D03*
X205900Y205800D03*
X203000Y201500D03*
X201000Y226000D03*
X204500Y232500D03*
X211000Y232500D03*
X211000Y237500D03*
X211000Y229000D03*
X207400Y229000D03*
X204000Y239000D03*
X202400Y221200D03*
X201000Y254500D03*
X215000Y247500D03*
X207500Y251000D03*
X214500Y258000D03*
X201000Y247500D03*
X204750Y247500D03*
X211500Y246000D03*
X212500Y279500D03*
X199000Y279000D03*
X201000Y265000D03*
X201000Y272000D03*
X213950Y273000D03*
X204500Y261500D03*
X207000Y277500D03*
X211500Y268000D03*
X216500Y279500D03*
X198297Y296250D03*
X205000Y296500D03*
X208710Y296420D03*
X216500Y296000D03*
X216500Y283500D03*
X198870Y283500D03*
X202800Y283500D03*
X212640Y283500D03*
X213500Y307500D03*
X204770Y312350D03*
X218000Y311500D03*
X214800Y311750D03*
X208710Y311500D03*
X204770Y309350D03*
X218200Y307250D03*
X211000Y342000D03*
X208500Y325000D03*
X202000Y328500D03*
X198500Y341950D03*
X218550Y324500D03*
X203250Y324500D03*
X214750Y339000D03*
X201000Y337500D03*
X202500Y342000D03*
X210500Y331500D03*
X201500Y332500D03*
X209000Y358670D03*
X204000Y358500D03*
X212000Y354500D03*
X203000Y353500D03*
X207000Y352000D03*
X212500Y351000D03*
X209000Y364580D03*
X204000Y365500D03*
X209000Y370480D03*
X209000Y374000D03*
X214460Y383960D03*
X200000Y397000D03*
X200500Y420500D03*
X206000Y460000D03*
X225000Y11000D03*
X231980Y29500D03*
X228970Y18030D03*
X236000Y30500D03*
X225488Y65750D03*
X221500Y65500D03*
X237000Y93250D03*
X235750Y90500D03*
X239000Y89500D03*
X223500Y81000D03*
X237500Y79000D03*
X236500Y100500D03*
X236500Y97000D03*
X235500Y115000D03*
X238073Y113456D03*
X219500Y104500D03*
X223000Y104500D03*
X235000Y119500D03*
X222500Y126000D03*
X219530Y134000D03*
X222500Y131000D03*
X224500Y134000D03*
X229500Y135000D03*
X222480Y147480D03*
X222500Y151500D03*
X229500Y155000D03*
X225470Y155000D03*
X229500Y151500D03*
X229550Y143500D03*
X229500Y140000D03*
X229549Y147387D03*
X236500Y157050D03*
X236500Y168050D03*
X221500Y162500D03*
X229250Y158651D03*
X238500Y177500D03*
X224000Y197500D03*
X227500Y194500D03*
X232000Y181500D03*
X220000Y192500D03*
X220500Y181500D03*
X220000Y189000D03*
X224000Y201500D03*
X224000Y205500D03*
X226200Y211058D03*
X221850Y228500D03*
X221450Y232500D03*
X228300Y228500D03*
X221000Y222000D03*
X226227Y235456D03*
X219000Y239500D03*
X238350Y260000D03*
X234000Y257500D03*
X225500Y260050D03*
X229000Y260050D03*
X236000Y279500D03*
X226000Y279500D03*
X229000Y271050D03*
X238350Y264000D03*
X232000Y279500D03*
X234000Y271500D03*
X221500Y264500D03*
X236500Y299500D03*
X222700Y296250D03*
X229500Y283500D03*
X231500Y295889D03*
X224450Y283500D03*
X236750Y295900D03*
X227000Y296000D03*
X237000Y304500D03*
X232500Y304430D03*
X227000Y306000D03*
X227500Y301500D03*
X234290Y311500D03*
X230360Y311500D03*
X238230Y311500D03*
X223000Y311250D03*
X238500Y332500D03*
X233000Y325000D03*
X236472Y326039D03*
X228000Y324500D03*
X232500Y332500D03*
X223000Y338000D03*
X220170Y347500D03*
X226500Y358000D03*
X226080Y347500D03*
X227500Y344000D03*
X238500Y358500D03*
X219827Y360590D03*
X234000Y344500D03*
X230000Y358000D03*
X233950Y347500D03*
X237000Y347500D03*
X220120Y344500D03*
X233500Y358000D03*
X223000Y358000D03*
X231500Y372000D03*
X229000Y380500D03*
X220000Y372000D03*
X231500Y375500D03*
X220000Y365500D03*
X229940Y368740D03*
X226440Y368740D03*
X222940Y368740D03*
X220000Y375500D03*
X225000Y380500D03*
X233000Y380500D03*
X236500Y380500D03*
X238500Y363500D03*
X225000Y392500D03*
X220000Y395500D03*
X220000Y392500D03*
X236100Y392300D03*
X231500Y403000D03*
X235500Y403000D03*
X233090Y392300D03*
X227500Y403500D03*
X249650Y29575D03*
X251772Y25750D03*
X246550Y29000D03*
X251222Y36750D03*
X249100Y39250D03*
X242600Y37750D03*
X243500Y71500D03*
X247000Y71500D03*
X249500Y74000D03*
X253500Y71000D03*
X255500Y66500D03*
X249500Y68500D03*
X247000Y76500D03*
X250500Y90000D03*
X252500Y95238D03*
X240000Y96500D03*
X257000Y135480D03*
X247000Y134000D03*
X253500Y118500D03*
X254500Y146250D03*
X254500Y142500D03*
X258500Y146500D03*
X258490Y142490D03*
X246500Y142500D03*
X250500Y149000D03*
X246500Y149000D03*
X245977Y153204D03*
X241168Y154579D03*
X240480Y157500D03*
X245500Y171500D03*
X240500Y168050D03*
X244500Y168050D03*
X254450Y172000D03*
X253440Y178440D03*
X255300Y251050D03*
X250600Y251050D03*
X244500Y268000D03*
X244000Y271000D03*
X254500Y278500D03*
X248000Y268000D03*
X251500Y268000D03*
X258000Y271000D03*
X240500Y271000D03*
X247500Y271000D03*
X251000Y278500D03*
X255000Y268000D03*
X259547Y299047D03*
X254000Y294000D03*
X246000Y283000D03*
X242160Y296420D03*
X246100Y296420D03*
X249500Y308000D03*
X246500Y302000D03*
X241000Y305000D03*
X254500Y316000D03*
X259500Y307500D03*
X259500Y312000D03*
X246500Y305000D03*
X253500Y304000D03*
X257500Y332000D03*
X259500Y335000D03*
X255000Y335000D03*
X249000Y334000D03*
X242750Y325500D03*
X258500Y349000D03*
X253000Y359500D03*
X246000Y347050D03*
X255000Y362500D03*
X241830Y358500D03*
X259000Y345000D03*
X242000Y348010D03*
X247500Y355500D03*
X256000Y374500D03*
X253000Y382500D03*
X252920Y374420D03*
X256000Y378500D03*
X253000Y378500D03*
X240000Y368000D03*
X241000Y371500D03*
X252980Y370480D03*
X240000Y380500D03*
X253000Y367000D03*
X258500Y364500D03*
X240090Y392090D03*
X239500Y403000D03*
X243500Y402500D03*
X248000Y402000D03*
X256000Y400500D03*
X250500Y389200D03*
X250500Y392500D03*
X247000Y384000D03*
X243100Y392300D03*
X275400Y29250D03*
X261600Y29500D03*
X275000Y18000D03*
X270970Y39250D03*
X275000Y34000D03*
X261000Y70500D03*
X276000Y75250D03*
X273500Y77500D03*
X269500Y78000D03*
X263500Y79000D03*
X266500Y78500D03*
X271000Y89000D03*
X267000Y114000D03*
X267000Y109000D03*
X272500Y135000D03*
X269000Y132000D03*
X279500Y119000D03*
X266500Y126500D03*
X262500Y142500D03*
X266000Y142500D03*
X267752Y136515D03*
X280250Y146500D03*
X272400Y139000D03*
X274500Y143500D03*
X274000Y147500D03*
X266500Y170000D03*
X262500Y168500D03*
X279500Y169500D03*
X266550Y158000D03*
X266782Y163218D03*
X270500Y166500D03*
X276000Y177500D03*
X264900Y258400D03*
X262000Y260000D03*
X268600Y258050D03*
X262000Y264000D03*
X260500Y268500D03*
X278000Y277050D03*
X274000Y277050D03*
X274000Y265500D03*
X267000Y271500D03*
X278000Y265500D03*
X271000Y292000D03*
X263484Y299016D03*
X261000Y296000D03*
X275500Y299000D03*
X271000Y297000D03*
X280000Y281000D03*
X269000Y320500D03*
X261516Y320484D03*
X265453Y320641D03*
X270276Y310276D03*
X276000Y316000D03*
X266000Y312000D03*
X266000Y307500D03*
X275500Y304500D03*
X271000Y324500D03*
X267000Y324500D03*
X272500Y331500D03*
X274500Y334000D03*
X262000Y332000D03*
X264661Y334661D03*
X278000Y332500D03*
X278000Y339000D03*
X269780Y334720D03*
X261500Y349500D03*
X279000Y348500D03*
X279000Y355500D03*
X272500Y353500D03*
X269500Y359500D03*
X264661Y354161D03*
X260500Y354500D03*
X264000Y370500D03*
X275000Y383500D03*
X264000Y367000D03*
X269100Y383000D03*
X270500Y363500D03*
X274500Y363500D03*
X276000Y402500D03*
X262500Y395000D03*
X276500Y391000D03*
X276000Y405500D03*
X276500Y419000D03*
X276000Y460000D03*
X274000Y453500D03*
X286500Y12000D03*
X293700Y18751D03*
X301000Y33000D03*
X287000Y18500D03*
X297000Y26500D03*
X287000Y22500D03*
X297000Y39500D03*
X291500Y89000D03*
X295500Y74500D03*
X298000Y76500D03*
X294000Y79000D03*
X291900Y93000D03*
X287500Y89000D03*
X291900Y97000D03*
X291900Y100500D03*
X291900Y107500D03*
X291900Y104000D03*
X297700Y117500D03*
X288400Y135480D03*
X294300Y117500D03*
X288000Y119000D03*
X295500Y138625D03*
X288500Y144500D03*
X292000Y143000D03*
X283490Y142500D03*
X283750Y146250D03*
X301000Y144000D03*
X296500Y167500D03*
X284500Y170000D03*
X297500Y160000D03*
X300500Y215500D03*
X285500Y250500D03*
X295500Y258000D03*
X288990Y250480D03*
X301228Y241650D03*
X295000Y277000D03*
X282000Y265500D03*
X297500Y265000D03*
X300500Y276500D03*
X301000Y265000D03*
X294000Y265000D03*
X282000Y277050D03*
X290000Y265500D03*
X293000Y300000D03*
X281047Y299547D03*
X284984Y299516D03*
X295000Y295000D03*
X297000Y285500D03*
X283016Y296516D03*
X293500Y289000D03*
X288921Y299579D03*
X286953Y296547D03*
X301000Y320500D03*
X297224Y315724D03*
X281000Y312000D03*
X281000Y307500D03*
X287500Y307500D03*
X287500Y312000D03*
X296500Y304500D03*
X288500Y338000D03*
X299500Y332500D03*
X283500Y339000D03*
X284830Y380000D03*
X288580Y380080D03*
X281080Y380080D03*
X292500Y398500D03*
X288580Y398500D03*
X284830Y398500D03*
X292500Y391000D03*
X281080Y398500D03*
X281000Y406500D03*
X292500Y406500D03*
X316841Y12125D03*
X320500Y3950D03*
X309000Y18500D03*
X320500Y16000D03*
X303000Y28500D03*
X311000Y28200D03*
X305470Y41000D03*
X320500Y38000D03*
X303000Y77500D03*
X307000Y77500D03*
X309500Y90000D03*
X307000Y85500D03*
X307000Y82000D03*
X310000Y76000D03*
X303000Y93000D03*
X303000Y97079D03*
X303000Y100500D03*
X302700Y104000D03*
X302700Y107500D03*
X308000Y126000D03*
X314250Y118250D03*
X303000Y141000D03*
X314250Y149500D03*
X308750Y154500D03*
X302750Y162000D03*
X310500Y171000D03*
X308750Y160000D03*
X318500Y160000D03*
X307500Y163000D03*
X316000Y187000D03*
X301960Y193440D03*
X309000Y188000D03*
X301950Y190060D03*
X307000Y184000D03*
X308750Y191000D03*
X313500Y209300D03*
X311000Y216600D03*
X316500Y209000D03*
X305080Y228430D03*
X317200Y220200D03*
X308700Y228490D03*
X321300Y221600D03*
X313000Y233500D03*
X313000Y227500D03*
X308500Y260000D03*
X320500Y240550D03*
X310909Y250000D03*
X316500Y256500D03*
X311100Y253750D03*
X305000Y240873D03*
X310000Y241000D03*
X313000Y275000D03*
X308000Y278500D03*
X316500Y273500D03*
X321000Y276500D03*
X319000Y267500D03*
X309250Y272500D03*
X312000Y300030D03*
X302047Y300047D03*
X307953Y300047D03*
X309500Y296000D03*
X316000Y283500D03*
X320500Y301000D03*
X308000Y288500D03*
X302250Y281500D03*
X305984Y320484D03*
X313000Y310500D03*
X302000Y312000D03*
X302000Y307500D03*
X308000Y307500D03*
X308000Y312000D03*
X309921Y320421D03*
X320000Y321500D03*
X302500Y323500D03*
X306500Y323500D03*
X316000Y337500D03*
X302286Y331385D03*
X310500Y335000D03*
X321850Y324500D03*
X314500Y329000D03*
X321000Y359000D03*
X312000Y350000D03*
X311500Y362000D03*
X318500Y362000D03*
X318000Y350000D03*
X321000Y353000D03*
X311000Y425000D03*
X316762Y472000D03*
X330500Y3950D03*
X338700Y30749D03*
X329000Y16000D03*
X340500Y13000D03*
X332500Y16000D03*
X335500Y16000D03*
X325500Y16000D03*
X330901Y45000D03*
X330500Y38050D03*
X325500Y38050D03*
X335500Y38000D03*
X324500Y76000D03*
X325000Y95000D03*
X327000Y104000D03*
X325000Y98579D03*
X331143Y102500D03*
X328500Y114500D03*
X331000Y99500D03*
X325000Y106500D03*
X325000Y113000D03*
X327025Y125000D03*
X334238Y132238D03*
X330500Y128000D03*
X342500Y117500D03*
X323259Y126750D03*
X326250Y148000D03*
X330500Y148000D03*
X330906Y170389D03*
X333000Y157500D03*
X326250Y164750D03*
X342000Y164750D03*
X322500Y187000D03*
X330790Y197790D03*
X331000Y189500D03*
X327000Y198000D03*
X330804Y179662D03*
X335500Y185800D03*
X325863Y179483D03*
X342500Y204900D03*
X335500Y205000D03*
X322320Y208680D03*
X338500Y214500D03*
X338500Y223100D03*
X324100Y230400D03*
X324000Y233500D03*
X333000Y223000D03*
X334757Y229058D03*
X341900Y232100D03*
X336000Y225000D03*
X338500Y219000D03*
X336250Y252733D03*
X325000Y240000D03*
X334250Y277080D03*
X322500Y295540D03*
X325500Y295500D03*
X331500Y295500D03*
X337000Y295500D03*
X337000Y284000D03*
X325500Y284000D03*
X331500Y284000D03*
X329500Y308000D03*
X333500Y308000D03*
X342000Y303500D03*
X338500Y321500D03*
X324000Y321500D03*
X328850Y326000D03*
X335000Y350000D03*
X331500Y359000D03*
X340000Y350000D03*
X326000Y362000D03*
X326000Y350000D03*
X340000Y362500D03*
X331500Y353000D03*
X325000Y367000D03*
X333000Y367000D03*
X340500Y367500D03*
X340500Y381500D03*
X323780Y397720D03*
X323540Y390040D03*
X323500Y402000D03*
X325000Y385500D03*
X327000Y422000D03*
X329500Y425000D03*
X332000Y422000D03*
X326300Y445300D03*
X360340Y44250D03*
X345000Y67500D03*
X355000Y63500D03*
X348500Y71000D03*
X360840Y84401D03*
X350000Y91500D03*
X354750Y102499D03*
X358500Y98500D03*
X343000Y109000D03*
X362000Y97500D03*
X352000Y109000D03*
X346500Y105000D03*
X358122Y104621D03*
X349500Y95500D03*
X350750Y129500D03*
X361000Y136750D03*
X346500Y146250D03*
X351000Y160000D03*
X343500Y172000D03*
X345000Y191500D03*
X345000Y197000D03*
X343500Y178000D03*
X343000Y211000D03*
X343000Y218000D03*
X347000Y227200D03*
X359900Y223900D03*
X347000Y249500D03*
X347000Y254000D03*
X347000Y245000D03*
X362000Y258000D03*
X358200Y255000D03*
X342761Y254483D03*
X355300Y279000D03*
X347000Y274500D03*
X343000Y277250D03*
X343000Y269900D03*
X362000Y261500D03*
X358901Y265100D03*
X353951Y283350D03*
X348750Y296000D03*
X350500Y281500D03*
X348500Y292000D03*
X343250Y292750D03*
X343250Y284500D03*
X346000Y307500D03*
X343000Y321500D03*
X360000Y340000D03*
X360000Y333000D03*
X360500Y327500D03*
X354000Y327500D03*
X347000Y327500D03*
X350500Y322500D03*
X347000Y347500D03*
X354000Y347500D03*
X360000Y347500D03*
X353500Y365000D03*
X359000Y365000D03*
X348000Y367500D03*
X360500Y375000D03*
X352500Y387000D03*
X363000Y393500D03*
X360200Y432700D03*
X353600Y432700D03*
X356900Y432700D03*
X374340Y40750D03*
X368750Y88991D03*
X371250Y112750D03*
X377000Y95500D03*
X377000Y106000D03*
X377000Y113000D03*
X377000Y99000D03*
X377000Y102500D03*
X377000Y109500D03*
X371250Y124749D03*
X377500Y132000D03*
X377500Y135500D03*
X377000Y116500D03*
X377000Y120000D03*
X377500Y156500D03*
X377500Y153000D03*
X377500Y146000D03*
X377500Y149500D03*
X377500Y139000D03*
X377500Y142500D03*
X367800Y170100D03*
X369500Y166750D03*
X377000Y176500D03*
X377000Y173000D03*
X368218Y179673D03*
X377000Y190500D03*
X377000Y187000D03*
X372000Y180500D03*
X377000Y180000D03*
X377000Y194000D03*
X377000Y197500D03*
X368500Y189500D03*
X377000Y183500D03*
X370074Y217269D03*
X368500Y199000D03*
X366597Y217508D03*
X369800Y222600D03*
X373600Y237050D03*
X370500Y227000D03*
X370500Y230500D03*
X366000Y231000D03*
X369000Y235000D03*
X365500Y235000D03*
X363500Y233000D03*
X379950Y234550D03*
X376618Y231129D03*
X364500Y225750D03*
X366000Y251950D03*
X368500Y257500D03*
X382500Y245500D03*
X379000Y245500D03*
X375500Y245500D03*
X370100Y245500D03*
X370000Y251500D03*
X365900Y247414D03*
X382000Y261000D03*
X379000Y261000D03*
X366500Y261500D03*
X382500Y265000D03*
X379839Y281839D03*
X382600Y287700D03*
X370000Y285000D03*
X373000Y287000D03*
X372000Y282000D03*
X367500Y282000D03*
X364500Y282000D03*
X377500Y291500D03*
X376500Y309433D03*
X373500Y306501D03*
X367500Y340000D03*
X367500Y333000D03*
X367500Y327500D03*
X365000Y357500D03*
X367500Y347500D03*
X380000Y350500D03*
X375000Y350500D03*
X365000Y365000D03*
X372000Y421400D03*
X366000Y429500D03*
X395300Y72410D03*
X390850Y90741D03*
X388500Y104500D03*
X388500Y111500D03*
X388500Y97500D03*
X389000Y134000D03*
X388500Y118500D03*
X389000Y141000D03*
X389000Y148000D03*
X389000Y155000D03*
X388500Y175000D03*
X388601Y163891D03*
X397000Y167714D03*
X388500Y196000D03*
X388500Y182000D03*
X388500Y189000D03*
X387750Y218100D03*
X387750Y225850D03*
X395500Y222000D03*
X389000Y257500D03*
X384000Y251500D03*
X388500Y246000D03*
X385851Y264250D03*
X391500Y267500D03*
X386000Y284000D03*
X388000Y295000D03*
X395952Y329500D03*
X386000Y350500D03*
X391000Y350500D03*
X390000Y430000D03*
X418000Y104650D03*
X413500Y318800D03*
X412500Y422500D03*
X417500Y418500D03*
X404700Y422500D03*
X414000Y407000D03*
X417000Y407000D03*
X408500Y422500D03*
X417000Y428500D03*
X417500Y438500D03*
X428000Y403700D03*
X425500Y414500D03*
X426500Y423000D03*
X427500Y434000D03*
X427500Y443000D03*
G54D30*
X172530Y170700D03*
X172530Y185300D03*
X178470Y170700D03*
X178470Y185300D03*
X225470Y151800D03*
X219530Y151800D03*
X225470Y137200D03*
X219530Y137200D03*
X236530Y151800D03*
X236530Y137200D03*
X242470Y151800D03*
X242470Y137200D03*
G54D12*
X22500Y47500D03*
X40000Y359500D03*
X113500Y217000D03*
X113500Y226000D03*
X190500Y177000D03*
X192500Y220500D03*
X212500Y396500D03*
X250000Y156500D03*
X250000Y164000D03*
X319500Y82500D03*
X322500Y169000D03*
X318500Y249500D03*
X318000Y477500D03*
X328500Y175000D03*
X327500Y194000D03*
X327000Y224000D03*
X326000Y357000D03*
X360500Y249500D03*
X370500Y175000D03*
X371000Y194000D03*
X368000Y212500D03*
X366000Y308000D03*
X386000Y471500D03*
X412500Y47000D03*
G54D21*
G01X25000Y378000D02*
X25000Y381500D01*
G01X25000Y404500D02*
X25000Y402000D01*
X26000Y401000D01*
G01X46000Y392500D02*
X48500Y392500D01*
X49000Y393000D01*
G01X33950Y421000D02*
X37500Y421000D01*
G01X70290Y10210D02*
X70290Y14020D01*
G01X74000Y15000D02*
X72490Y16510D01*
X70290Y16510D01*
G01X74000Y20000D02*
X72490Y18490D01*
X70290Y18490D01*
G01X70290Y24210D02*
X70290Y20980D01*
G01X71500Y43090D02*
X72600Y41990D01*
X73010Y41990D01*
X73010Y39790D01*
G01X74990Y43090D02*
X74990Y39790D01*
G01X91500Y391000D02*
X93500Y391000D01*
X95500Y393000D01*
G01X74900Y471900D02*
X75000Y471900D01*
X77496Y469404D01*
X77496Y466600D01*
G01X113500Y250500D02*
X113500Y249920D01*
X116920Y246500D01*
G01X113500Y254000D02*
X113500Y250500D01*
G01X107500Y355000D02*
X107500Y351000D01*
G01X110000Y392550D02*
X110000Y389000D01*
G01X116920Y246500D02*
X117420Y247000D01*
X122500Y247000D01*
G01X129500Y284500D02*
X133000Y284500D01*
G01X119000Y280500D02*
X123500Y280500D01*
G01X121000Y326000D02*
X125000Y326000D01*
G01X120060Y351060D02*
X118440Y351060D01*
X116510Y352990D01*
X116510Y353510D01*
G01X134500Y424000D02*
X130500Y424000D01*
G01X127000Y430500D02*
X127000Y428500D01*
X126000Y427500D01*
X123000Y427500D01*
X122500Y427000D01*
G01X139500Y144500D02*
X136000Y144500D01*
G01X139500Y172000D02*
X136500Y172000D01*
X136000Y171500D01*
G01X140000Y199500D02*
X136000Y199500D01*
G01X143000Y236800D02*
X142585Y236800D01*
X141500Y237885D01*
X141500Y238000D01*
X140563Y238937D01*
G01X149500Y243800D02*
X149500Y243874D01*
X151563Y245937D01*
G01X148500Y278000D02*
X148500Y274000D01*
G01X156500Y299500D02*
X152000Y299500D01*
G01X136500Y291500D02*
X140400Y291500D01*
X140450Y291550D01*
G01X138500Y315500D02*
X138500Y312500D01*
X139500Y311500D01*
X139500Y311590D01*
G01X137000Y302500D02*
X139730Y302500D01*
X140480Y303250D01*
G01X154500Y308500D02*
X152500Y310500D01*
X152500Y311000D01*
G01X147500Y384000D02*
X147500Y387000D01*
X149500Y389000D01*
G01X148000Y395000D02*
X148000Y390500D01*
X149500Y389000D01*
G01X140316Y416500D02*
X144500Y416500D01*
G01X147000Y434000D02*
X150500Y434000D01*
G01X167500Y315500D02*
X167500Y312000D01*
X168000Y311500D01*
G01X162000Y382000D02*
X162000Y378000D01*
G01X162000Y378000D02*
X162000Y374500D01*
G01X169500Y366000D02*
X173500Y366000D01*
X175000Y367500D01*
G01X180500Y365000D02*
X177500Y365000D01*
X175000Y367500D01*
G01X172500Y401000D02*
X167500Y401000D01*
G01X167500Y401000D02*
X164000Y401000D01*
G01X167500Y405000D02*
X167500Y408500D01*
G01X172500Y405000D02*
X172500Y408500D01*
G01X195000Y3950D02*
X195000Y8000D01*
G01X185000Y3950D02*
X185000Y8000D01*
G01X193500Y16000D02*
X193500Y19500D01*
G01X194000Y34500D02*
X194000Y37500D01*
X195000Y38500D01*
G01X203000Y201500D02*
X199900Y198400D01*
X192000Y198400D01*
G01X192000Y198400D02*
X186600Y198400D01*
X184000Y201000D01*
G01X185200Y306300D02*
X182700Y306300D01*
X182400Y306000D01*
X178000Y306000D01*
G01X187500Y327500D02*
X187500Y331500D01*
G01X183000Y398000D02*
X183000Y402000D01*
G01X194000Y427000D02*
X194000Y430500D01*
G01X190000Y427000D02*
X190000Y430500D01*
G01X209700Y201500D02*
X203000Y201500D01*
G01X209700Y201500D02*
X209700Y202750D01*
X207755Y204695D01*
X207755Y204745D01*
X206700Y205800D01*
X205900Y205800D01*
G01X218500Y292000D02*
X216500Y294000D01*
X216500Y296000D01*
G01X215500Y361500D02*
X219000Y361500D01*
X219827Y360673D01*
X219827Y360590D01*
G01X223500Y191500D02*
X221000Y191500D01*
X220000Y192500D01*
G01X225000Y232500D02*
X226000Y232500D01*
X228300Y230200D01*
X228300Y228500D01*
G01X234000Y257500D02*
X236500Y257500D01*
X237549Y256451D01*
X243901Y256451D01*
X246200Y258750D01*
X246200Y260000D01*
G01X246200Y260000D02*
X238350Y260000D01*
G01X238350Y264000D02*
X241000Y264000D01*
X242000Y263000D01*
X245500Y263000D01*
X246200Y262300D01*
X246200Y260000D01*
G01X232000Y292000D02*
X232000Y286000D01*
X229500Y283500D01*
G01X238000Y355000D02*
X238000Y358000D01*
X238500Y358500D01*
G01X225000Y380500D02*
X225000Y384000D01*
G01X233000Y380500D02*
X233000Y384000D01*
G01X236500Y380500D02*
X236500Y384000D01*
G01X258500Y99500D02*
X258500Y97410D01*
X262630Y93280D01*
G01X248500Y118500D02*
X253500Y118500D01*
G01X254450Y172000D02*
X251000Y172000D01*
G01X257500Y203000D02*
X257500Y205760D01*
X257130Y206130D01*
G01X246500Y215000D02*
X241960Y215000D01*
X241380Y215580D01*
G01X253500Y210500D02*
X255800Y210500D01*
X256170Y210130D01*
X256280Y210130D01*
X257130Y209280D01*
G01X253500Y214000D02*
X253500Y210500D01*
G01X253500Y221000D02*
X256260Y221000D01*
X257130Y221870D01*
G01X240000Y380500D02*
X240000Y384000D01*
G01X250500Y392500D02*
X254500Y392500D01*
G01X247000Y384000D02*
X243500Y384000D01*
G01X279000Y93300D02*
X279000Y90760D01*
X278370Y90130D01*
G01X278370Y90130D02*
X278370Y89130D01*
X279000Y88500D01*
X279000Y86800D01*
G01X265900Y87500D02*
X263150Y87500D01*
X262630Y86980D01*
G01X262630Y86980D02*
X260500Y84850D01*
X260500Y81000D01*
G01X262630Y93280D02*
X264680Y93280D01*
X265900Y94500D01*
G01X278370Y96430D02*
X278800Y96860D01*
X278800Y99500D01*
G01X266500Y195000D02*
X266500Y190460D01*
X266580Y190380D01*
G01X276100Y206700D02*
X273440Y206700D01*
X272870Y206130D01*
G01X276100Y214000D02*
X276100Y217500D01*
G01X262000Y215500D02*
X262000Y217000D01*
X260280Y218720D01*
G01X266500Y210000D02*
X264150Y210000D01*
X263430Y209280D01*
G01X266000Y217500D02*
X264650Y217500D01*
X263430Y218720D01*
G01X269100Y215000D02*
X269100Y213050D01*
X269720Y212430D01*
G01X276100Y217500D02*
X274090Y217500D01*
X272870Y218720D01*
G01X268500Y202500D02*
X268500Y203000D01*
X269720Y204220D01*
X269720Y206130D01*
G01X265000Y202500D02*
X268500Y202500D01*
G01X260500Y225000D02*
X260500Y222090D01*
X260280Y221870D01*
G01X267500Y225000D02*
X267500Y224090D01*
X269720Y221870D01*
G01X274500Y225000D02*
X274500Y223500D01*
X272870Y221870D01*
G01X266000Y232500D02*
X266000Y237040D01*
X266580Y237620D01*
G01X263500Y225000D02*
X262750Y225750D01*
X262750Y225940D01*
X261440Y227250D01*
X261200Y227250D01*
X260280Y228170D01*
G01X262000Y316000D02*
X262000Y314500D01*
X259500Y312000D01*
G01X266000Y339500D02*
X266000Y341500D01*
X268500Y344000D01*
G01X268500Y395000D02*
X262500Y395000D01*
G01X280500Y391000D02*
X276500Y391000D01*
G01X294300Y117500D02*
X294500Y117500D01*
X293000Y116000D01*
X293000Y113000D01*
G01X291700Y190300D02*
X293370Y188630D01*
X293520Y188630D01*
X294920Y187230D01*
G01X283500Y215400D02*
X288440Y215400D01*
X288620Y215580D01*
G01X302000Y235000D02*
X301500Y234500D01*
X301080Y234500D01*
X301050Y234470D01*
X298070Y234470D01*
G01X289500Y254000D02*
X289000Y253500D01*
X289000Y250490D01*
X288990Y250480D01*
G01X301000Y316500D02*
X298000Y316500D01*
X297224Y315724D01*
G01X283500Y316000D02*
X283500Y314500D01*
X281000Y312000D01*
G01X288500Y332500D02*
X288500Y338000D01*
G01X284500Y402500D02*
X289000Y402500D01*
G01X285000Y391000D02*
X280500Y391000D01*
G01X289000Y402500D02*
X289000Y402000D01*
X292500Y398500D01*
G01X320500Y3950D02*
X320500Y8000D01*
G01X314000Y99000D02*
X314000Y103500D01*
G01X305500Y189800D02*
X302080Y189800D01*
X302000Y189880D01*
X302000Y190060D01*
X301950Y190060D01*
G01X303200Y185500D02*
X305500Y185500D01*
X307000Y184000D01*
G01X319000Y201800D02*
X321300Y201800D01*
X322500Y203000D01*
X322500Y205140D01*
X322320Y205320D01*
X322320Y208680D01*
G01X316500Y209000D02*
X315500Y208000D01*
X315500Y203000D01*
X316700Y201800D01*
X319000Y201800D01*
G01X320500Y233500D02*
X320500Y237000D01*
G01X308000Y225000D02*
X308000Y227790D01*
X308700Y228490D01*
G01X320500Y237000D02*
X320500Y240550D01*
G01X320500Y229500D02*
X320500Y226000D01*
G01X320500Y226000D02*
X320500Y222500D01*
X321300Y221700D01*
X321300Y221600D01*
G01X321000Y276500D02*
X327000Y276500D01*
G01X322000Y305500D02*
X322000Y302500D01*
X320500Y301000D01*
G01X305000Y316500D02*
X305000Y315000D01*
X302000Y312000D01*
G01X330500Y3950D02*
X330500Y8000D01*
G01X329000Y16000D02*
X329000Y19500D01*
G01X329500Y34500D02*
X329500Y37000D01*
X330500Y38000D01*
X330500Y38050D01*
G01X335500Y205000D02*
X335500Y202000D01*
G01X333000Y218000D02*
X333000Y219000D01*
X333000Y223000D01*
G01X329000Y401500D02*
X335550Y401500D01*
X338050Y399000D01*
G01X345000Y191500D02*
X349000Y191500D01*
X350100Y192600D01*
X350100Y194000D01*
G01X350100Y194000D02*
X350100Y195900D01*
X349000Y197000D01*
X345000Y197000D01*
G01X343000Y211000D02*
X347000Y211000D01*
X348100Y212100D01*
X348100Y214500D01*
G01X348100Y214500D02*
X348100Y216900D01*
X347000Y218000D01*
X343000Y218000D01*
G01X350500Y281500D02*
X350500Y278500D01*
G01X351500Y309500D02*
X348000Y309500D01*
X346000Y307500D01*
G01X360500Y375000D02*
X356500Y375000D01*
G01X377500Y288000D02*
X377500Y291500D01*
G01X385000Y102500D02*
X386500Y102500D01*
X388500Y104500D01*
G01X385000Y109500D02*
X386500Y109500D01*
X388500Y111500D01*
G01X385000Y95500D02*
X386500Y95500D01*
X388500Y97500D01*
G01X385000Y113000D02*
X387000Y113000D01*
X388500Y111500D01*
G01X385000Y106000D02*
X387000Y106000D01*
X388500Y104500D01*
G01X385000Y99000D02*
X387000Y99000D01*
X388500Y97500D01*
G01X385500Y132000D02*
X387000Y132000D01*
X389000Y134000D01*
G01X385000Y116500D02*
X386500Y116500D01*
X388500Y118500D01*
G01X385000Y120000D02*
X387000Y120000D01*
X388500Y118500D01*
G01X385500Y135500D02*
X387500Y135500D01*
X389000Y134000D01*
G01X385500Y139000D02*
X387000Y139000D01*
X389000Y141000D01*
G01X385500Y146000D02*
X387000Y146000D01*
X389000Y148000D01*
G01X385500Y153000D02*
X387000Y153000D01*
X389000Y155000D01*
G01X385500Y149500D02*
X387500Y149500D01*
X389000Y148000D01*
G01X385500Y142500D02*
X387500Y142500D01*
X389000Y141000D01*
G01X385500Y156500D02*
X387500Y156500D01*
X389000Y155000D01*
G01X385000Y173000D02*
X386500Y173000D01*
X388500Y175000D01*
G01X385000Y176500D02*
X387000Y176500D01*
X388500Y175000D01*
G01X385000Y194000D02*
X386500Y194000D01*
X388500Y196000D01*
G01X385000Y180000D02*
X386500Y180000D01*
X388500Y182000D01*
G01X385000Y187000D02*
X386500Y187000D01*
X388500Y189000D01*
G01X385000Y183500D02*
X387000Y183500D01*
X388500Y182000D01*
G01X385000Y197500D02*
X387000Y197500D01*
X388500Y196000D01*
G01X385000Y190500D02*
X387000Y190500D01*
X388500Y189000D01*
X108840Y471540D03*
X125860Y84500D03*
X126160Y471540D03*
X205140Y84500D03*
X238150Y249350D03*
X281860Y175650D03*
G54D22*
X131500Y16000D03*
X358000Y16000D03*
G54D31*
X171000Y420880D03*
X171000Y444500D03*
X171000Y436630D03*
X171000Y428750D03*
X166000Y432500D03*
X175850Y432500D03*
X166000Y440370D03*
X175850Y440320D03*
X294500Y426750D03*
X294500Y418880D03*
X294500Y442500D03*
X294500Y434630D03*
G54D40*
X336750Y175000D03*
X326750Y249500D03*
X362250Y175000D03*
X352250Y249500D03*
G54D13*
X33500Y61030D03*
X25630Y61030D03*
X33500Y68910D03*
X25630Y68910D03*
X33500Y76780D03*
X25630Y76780D03*
X33500Y84650D03*
X25630Y84650D03*
X33500Y92530D03*
X25630Y92530D03*
X33500Y100400D03*
X25630Y100400D03*
X33500Y108280D03*
X25630Y108280D03*
X33500Y116150D03*
X25630Y116150D03*
X33500Y124020D03*
X25630Y124020D03*
X33500Y131900D03*
X25630Y131900D03*
X33500Y139770D03*
X25630Y139770D03*
X33500Y147650D03*
X25630Y147650D03*
X33500Y155520D03*
X25630Y155520D03*
X33500Y163390D03*
X25630Y163390D03*
X33500Y171270D03*
X25630Y171270D03*
X33500Y179140D03*
X25630Y179140D03*
X33500Y187020D03*
X25630Y187020D03*
X33500Y194890D03*
X25630Y194890D03*
X33500Y202760D03*
X25630Y202760D03*
X33500Y210640D03*
X25630Y210640D03*
X33500Y218510D03*
X25630Y218510D03*
X33500Y226390D03*
X25630Y226390D03*
X33500Y234260D03*
X25630Y234260D03*
X33500Y242130D03*
X33500Y250010D03*
X33500Y257880D03*
X25630Y242130D03*
X25630Y250010D03*
X25630Y257880D03*
X33500Y265760D03*
X33500Y273630D03*
X33500Y281500D03*
X25630Y265760D03*
X25630Y273630D03*
X25630Y281500D03*
X33500Y289380D03*
X33500Y297250D03*
X25630Y289380D03*
X25630Y297250D03*
X33500Y305130D03*
X33500Y313000D03*
X25630Y305130D03*
X70870Y50130D03*
X70870Y58000D03*
X63000Y58000D03*
X94500Y50130D03*
X86620Y50130D03*
X78750Y50130D03*
X94500Y58000D03*
X86620Y58000D03*
X78750Y58000D03*
X110240Y50130D03*
X102370Y50130D03*
X110240Y58000D03*
X102370Y58000D03*
X133870Y50130D03*
X125990Y50130D03*
X118120Y50130D03*
X133870Y58000D03*
X125990Y58000D03*
X118120Y58000D03*
X157490Y50130D03*
X149610Y50130D03*
X141740Y50130D03*
X157490Y58000D03*
X149610Y58000D03*
X141740Y58000D03*
X173240Y50130D03*
X165360Y50130D03*
X173240Y58000D03*
X165360Y58000D03*
X196860Y50130D03*
X188980Y50130D03*
X181110Y50130D03*
X196860Y58000D03*
X188980Y58000D03*
X181110Y58000D03*
X220480Y50130D03*
X212610Y50130D03*
X204730Y50130D03*
X220480Y58000D03*
X212610Y58000D03*
X204730Y58000D03*
X236230Y50130D03*
X228350Y50130D03*
X236230Y58000D03*
X228350Y58000D03*
X259850Y50130D03*
X251980Y50130D03*
X244100Y50130D03*
X259850Y58000D03*
X251980Y58000D03*
X244100Y58000D03*
X275600Y50130D03*
X267720Y50130D03*
X275600Y58000D03*
X267720Y58000D03*
X299220Y50130D03*
X291350Y50130D03*
X283470Y50130D03*
X299220Y58000D03*
X291350Y58000D03*
X283470Y58000D03*
X322840Y50130D03*
X314970Y50130D03*
X307090Y50130D03*
X322840Y58000D03*
X314970Y58000D03*
X307090Y58000D03*
X338590Y50130D03*
X330720Y50130D03*
X338590Y58000D03*
X330720Y58000D03*
X362210Y50130D03*
X354340Y50130D03*
X346460Y50130D03*
X362210Y58000D03*
X354340Y58000D03*
X346460Y58000D03*
X370090Y50130D03*
X370090Y58000D03*
X400630Y61030D03*
X400630Y68910D03*
X400630Y76780D03*
X400630Y84650D03*
X400630Y92530D03*
X400630Y100400D03*
X400630Y108280D03*
X400630Y116150D03*
X400630Y124020D03*
X400630Y131900D03*
X400630Y139770D03*
X400630Y147650D03*
X400630Y155520D03*
X400630Y163390D03*
X400630Y171270D03*
X400630Y179140D03*
X400630Y187020D03*
X400630Y194890D03*
X400630Y202760D03*
X400630Y210640D03*
X400630Y218510D03*
X400630Y226390D03*
X400630Y234260D03*
X400630Y242130D03*
X400630Y250010D03*
X400630Y257880D03*
X400630Y265760D03*
X400630Y273630D03*
X400630Y281500D03*
X400630Y289380D03*
X400630Y297250D03*
X400630Y305130D03*
X408500Y61030D03*
X408500Y68910D03*
X408500Y76780D03*
X408500Y84650D03*
X408500Y92530D03*
X408500Y100400D03*
X408500Y108280D03*
X408500Y116150D03*
X408500Y124020D03*
X408500Y131900D03*
X408500Y139770D03*
X408500Y147650D03*
X408500Y155520D03*
X408500Y163390D03*
X408500Y171270D03*
X408500Y179140D03*
X408500Y187020D03*
X408500Y194890D03*
X408500Y202760D03*
X408500Y210640D03*
X408500Y218510D03*
X408500Y226390D03*
X408500Y234260D03*
X408500Y242130D03*
X408500Y250010D03*
X408500Y257880D03*
X408500Y265760D03*
X408500Y273630D03*
X408500Y281500D03*
X408500Y289380D03*
X408500Y297250D03*
X408500Y305130D03*
X408500Y313000D03*
G54D50*
G01X67290Y39790D02*
X70520Y39790D01*
G01X81290Y39790D02*
X77480Y39790D01*
G01X131940Y345940D02*
X127940Y345940D01*
G01X139500Y140500D02*
X136500Y140500D01*
X136000Y141000D01*
G01X139500Y168000D02*
X136000Y168000D01*
G01X140000Y195500D02*
X136500Y195500D01*
X136000Y196000D01*
G01X258000Y215500D02*
X258000Y213300D01*
X257130Y212430D01*
G01X250500Y215000D02*
X250500Y212760D01*
X250830Y212430D01*
G01X253500Y218000D02*
X251550Y218000D01*
X250830Y218720D01*
G01X253500Y206500D02*
X251200Y206500D01*
X250830Y206130D01*
G01X254500Y396500D02*
X254500Y398452D01*
G01X252548Y396500D02*
X254500Y396500D01*
G01X254500Y396500D02*
X256452Y396500D01*
G01X266500Y206000D02*
X263560Y206000D01*
X263430Y206130D01*
G01X273100Y215000D02*
X273100Y212660D01*
X272870Y212430D01*
G01X266500Y199000D02*
X264260Y199000D01*
X263430Y199830D01*
G01X279500Y215400D02*
X279500Y212760D01*
X279170Y212430D01*
G01X261000Y202500D02*
X261000Y200550D01*
X260280Y199830D01*
G01X276100Y202700D02*
X278890Y202700D01*
X279170Y202980D01*
G01X272500Y202500D02*
X272500Y200200D01*
X272870Y199830D01*
G01X276100Y210000D02*
X278450Y210000D01*
X279170Y209280D01*
G01X266000Y221500D02*
X263800Y221500D01*
X263430Y221870D01*
G01X266000Y228500D02*
X263760Y228500D01*
X263430Y228170D01*
G01X276100Y221500D02*
X278800Y221500D01*
X279170Y221870D01*
G01X270500Y225000D02*
X270500Y227390D01*
X269720Y228170D01*
G01X270000Y339500D02*
X270000Y334940D01*
X269780Y334720D01*
G01X268500Y399000D02*
X268500Y400952D01*
G01X266548Y399000D02*
X268500Y399000D01*
G01X268500Y399000D02*
X270452Y399000D01*
G01X319000Y191748D02*
X319000Y194200D01*
G01X315298Y194200D02*
X319000Y194200D01*
G01X319000Y194200D02*
X322702Y194200D01*
G01X302000Y231000D02*
X302420Y230580D01*
X304050Y230580D01*
X305500Y232030D01*
G01X327500Y190298D02*
X327500Y194000D01*
G01X327500Y194000D02*
X327500Y197702D01*
G01X323798Y194000D02*
X327500Y194000D01*
G01X327500Y194000D02*
X331202Y194000D01*
G01X333000Y214000D02*
X338000Y214000D01*
G01X323780Y397720D02*
X326280Y397720D01*
X326500Y397500D01*
X329000Y397500D01*
G01X329000Y393000D02*
X326500Y393000D01*
X323540Y390040D01*
G01X329000Y389000D02*
X325500Y385500D01*
X325000Y385500D01*
G01X362298Y308000D02*
X366000Y308000D01*
G01X353000Y354548D02*
X353000Y357500D01*
G01X353000Y357500D02*
X353000Y360452D01*
G01X353000Y357500D02*
X355452Y357500D01*
G01X347000Y357500D02*
X346409Y358091D01*
X346409Y365909D01*
G01X356500Y369048D02*
X356500Y371000D01*
G01X354548Y371000D02*
X356500Y371000D01*
G01X356500Y371000D02*
X358452Y371000D01*
G01X346409Y365909D02*
X348000Y367500D01*
G01X376000Y257500D02*
X376000Y258000D01*
X379000Y261000D01*
G01X368500Y257500D02*
X372000Y257500D01*
G01X377500Y284000D02*
X377678Y284000D01*
X379839Y281839D01*
G01X366000Y304298D02*
X366000Y308000D01*
G01X366000Y308000D02*
X366000Y311702D01*
G01X366000Y308000D02*
X369702Y308000D01*
G01X412500Y418500D02*
X412500Y422500D01*
G54D41*
X344000Y315500D03*
X332000Y315500D03*
G54D14*
X25630Y313000D03*
X63000Y50130D03*
X400630Y313000D03*
G54D23*
X136000Y234079D03*
X136000Y238016D03*
X136063Y247858D03*
X136063Y243921D03*
X132563Y247937D03*
X154400Y235100D03*
X143600Y232200D03*
X140563Y238937D03*
X146563Y227437D03*
X150063Y238937D03*
X154400Y238900D03*
X145563Y238937D03*
X140740Y232240D03*
X151500Y232100D03*
X150563Y223937D03*
X142563Y223937D03*
X146563Y223937D03*
X150563Y227437D03*
X142579Y227437D03*
X147300Y232200D03*
X147563Y241437D03*
X140563Y242937D03*
X151563Y245937D03*
X154563Y250937D03*
X147563Y245937D03*
X140900Y245700D03*
X140563Y250937D03*
X154400Y242900D03*
X150563Y254437D03*
X154563Y254437D03*
X154200Y245600D03*
X143600Y245900D03*
X146563Y254437D03*
X146563Y250937D03*
X150563Y250937D03*
X163063Y233937D03*
X159563Y233937D03*
X163063Y247937D03*
X159563Y241937D03*
X159563Y247937D03*
X223597Y187403D03*
X235080Y190380D03*
X231930Y193530D03*
X238230Y187230D03*
X235080Y193530D03*
X233700Y184029D03*
X232500Y187000D03*
X235080Y196680D03*
X235080Y218720D03*
X231930Y209280D03*
X231930Y215800D03*
X232889Y198429D03*
X235080Y206130D03*
X231930Y206130D03*
X235080Y209280D03*
X235080Y212430D03*
X231930Y212430D03*
X235080Y199830D03*
X231930Y218400D03*
X235080Y202980D03*
X231930Y202980D03*
X235080Y237620D03*
X235080Y225020D03*
X231930Y225020D03*
X231930Y228170D03*
X235080Y234470D03*
X231930Y231320D03*
X235080Y231320D03*
X235080Y228170D03*
X229900Y238200D03*
X231930Y234470D03*
X232400Y240300D03*
X234000Y245000D03*
X238230Y243920D03*
X238230Y240770D03*
X259480Y93280D03*
X259480Y90130D03*
X256330Y83830D03*
X259480Y86980D03*
X259480Y109020D03*
X259500Y115000D03*
X256330Y109020D03*
X259480Y105870D03*
X256330Y102720D03*
X256330Y112170D03*
X256330Y105870D03*
X247680Y196680D03*
X250830Y196680D03*
X253980Y196680D03*
X253980Y190380D03*
X257130Y193530D03*
X241380Y190380D03*
X244530Y190380D03*
X257130Y190380D03*
X250830Y184080D03*
X247680Y190380D03*
X253980Y184080D03*
X250830Y190380D03*
X257130Y196680D03*
X257130Y180930D03*
X257130Y184080D03*
X241380Y180930D03*
X244530Y196680D03*
X244530Y193530D03*
X241380Y193530D03*
X241380Y196680D03*
X247680Y184080D03*
X247680Y193530D03*
X250830Y193530D03*
X253980Y193530D03*
X257130Y212430D03*
X250830Y209280D03*
X250830Y212430D03*
X253980Y199830D03*
X257130Y199830D03*
X250830Y199830D03*
X250830Y218720D03*
X250830Y202980D03*
X257130Y206130D03*
X257130Y209280D03*
X257130Y218720D03*
X241380Y215580D03*
X241380Y212430D03*
X241380Y218720D03*
X241380Y209280D03*
X241380Y202980D03*
X241380Y199830D03*
X241380Y206130D03*
X250830Y206130D03*
X247680Y218720D03*
X247680Y212430D03*
X247680Y199830D03*
X247680Y202980D03*
X247680Y206130D03*
X247680Y209280D03*
X244530Y206130D03*
X244530Y202980D03*
X244530Y209280D03*
X244530Y199830D03*
X244530Y212430D03*
X244530Y218720D03*
X253980Y228170D03*
X257130Y228170D03*
X250830Y221870D03*
X250830Y225020D03*
X250830Y228170D03*
X253980Y234470D03*
X257130Y237620D03*
X244530Y237620D03*
X247680Y234470D03*
X257130Y234470D03*
X253980Y237620D03*
X247680Y237620D03*
X257130Y231320D03*
X253980Y231320D03*
X250830Y231320D03*
X247680Y231320D03*
X247680Y228170D03*
X250830Y237620D03*
X250830Y234470D03*
X257130Y221870D03*
X244530Y234470D03*
X241380Y228170D03*
X241380Y225020D03*
X244530Y231320D03*
X241380Y234470D03*
X241380Y237620D03*
X244530Y228170D03*
X241380Y231320D03*
X241380Y221870D03*
X247680Y225020D03*
X247680Y221870D03*
X244530Y225020D03*
X244530Y221870D03*
X247680Y247070D03*
X247680Y243920D03*
X241363Y243937D03*
X241363Y240787D03*
X244530Y243920D03*
X262630Y90130D03*
X262630Y83830D03*
X275000Y90000D03*
X262630Y93280D03*
X262630Y86980D03*
X278370Y90130D03*
X275000Y83500D03*
X262630Y109020D03*
X264200Y115000D03*
X278370Y112170D03*
X278370Y105870D03*
X262630Y105870D03*
X262630Y96430D03*
X275000Y96500D03*
X278370Y109020D03*
X278370Y96430D03*
X266000Y99500D03*
X278370Y102720D03*
X279170Y190380D03*
X263430Y190380D03*
X263430Y196680D03*
X269720Y196680D03*
X272870Y196680D03*
X269720Y190380D03*
X272870Y190380D03*
X276020Y196680D03*
X279170Y196680D03*
X279170Y180930D03*
X260280Y193530D03*
X279170Y184080D03*
X260280Y180930D03*
X276020Y190380D03*
X260280Y190380D03*
X272870Y180930D03*
X276020Y184080D03*
X276020Y180930D03*
X260280Y184080D03*
X272870Y184080D03*
X266580Y190380D03*
X263430Y184080D03*
X269720Y184080D03*
X260280Y196680D03*
X263430Y193530D03*
X269720Y193530D03*
X272870Y193530D03*
X276020Y193530D03*
X279170Y193530D03*
X263430Y199830D03*
X263430Y206130D03*
X269720Y199830D03*
X272870Y212430D03*
X279170Y212430D03*
X260280Y199830D03*
X272870Y199830D03*
X276020Y199830D03*
X279170Y199830D03*
X279170Y202980D03*
X279170Y206130D03*
X279170Y209280D03*
X260280Y206130D03*
X260280Y209280D03*
X260280Y212430D03*
X260280Y218720D03*
X263430Y209280D03*
X263430Y212430D03*
X263430Y218720D03*
X269720Y209280D03*
X269720Y212430D03*
X269720Y218720D03*
X272870Y206130D03*
X272870Y209280D03*
X272870Y218720D03*
X269720Y206130D03*
X279170Y218720D03*
X279170Y237620D03*
X279170Y234470D03*
X279170Y231320D03*
X263430Y221870D03*
X263430Y228170D03*
X269720Y228170D03*
X272870Y228170D03*
X276020Y228170D03*
X279170Y221870D03*
X279170Y225020D03*
X279170Y228170D03*
X263430Y237620D03*
X269720Y237620D03*
X272870Y237620D03*
X263430Y231320D03*
X269720Y231320D03*
X276020Y237620D03*
X272870Y231320D03*
X276020Y231320D03*
X260280Y231320D03*
X260280Y234470D03*
X260280Y221870D03*
X269720Y221870D03*
X272870Y221870D03*
X266580Y237620D03*
X260280Y237620D03*
X260280Y228170D03*
X263430Y234470D03*
X269720Y234470D03*
X272870Y234470D03*
X276020Y234470D03*
X276020Y243920D03*
X269720Y243920D03*
X269720Y247070D03*
X263430Y247070D03*
X260280Y243920D03*
X263430Y243920D03*
X260280Y247070D03*
X276020Y247070D03*
X260575Y249654D03*
X279170Y247070D03*
X279170Y243920D03*
X272870Y247070D03*
X272870Y243920D03*
X284670Y83830D03*
X284670Y86980D03*
X284670Y93280D03*
X281520Y96430D03*
X281520Y102720D03*
X284670Y96430D03*
X281520Y112170D03*
X281520Y105870D03*
X284670Y105870D03*
X281520Y109020D03*
X284670Y109020D03*
X284670Y112170D03*
X285124Y99377D03*
X288620Y196680D03*
X288620Y193530D03*
X285470Y193530D03*
X294920Y190380D03*
X288620Y190380D03*
X285470Y190380D03*
X285470Y184080D03*
X298070Y193530D03*
X282320Y180930D03*
X282320Y184080D03*
X282320Y196680D03*
X282320Y193530D03*
X282320Y190380D03*
X294920Y196680D03*
X291770Y187230D03*
X298070Y196680D03*
X288620Y180930D03*
X298070Y190380D03*
X291770Y184080D03*
X294920Y184080D03*
X294920Y187230D03*
X288620Y184080D03*
X285470Y180930D03*
X294920Y193530D03*
X285470Y196680D03*
X294920Y218720D03*
X285470Y218720D03*
X288620Y218720D03*
X285470Y212430D03*
X288620Y212430D03*
X285470Y209280D03*
X288620Y209280D03*
X288620Y206130D03*
X288620Y202980D03*
X288620Y199830D03*
X282320Y212430D03*
X298070Y199830D03*
X282320Y199830D03*
X282320Y202980D03*
X282320Y206130D03*
X294920Y206130D03*
X298070Y206130D03*
X294920Y199830D03*
X294920Y202980D03*
X288620Y215580D03*
X282320Y218720D03*
X282320Y209280D03*
X298070Y202980D03*
X298070Y212430D03*
X285470Y199830D03*
X285470Y202980D03*
X285470Y206130D03*
X298070Y225020D03*
X288620Y221870D03*
X282320Y231320D03*
X282320Y228170D03*
X285470Y228170D03*
X285470Y225020D03*
X294920Y221870D03*
X298070Y221870D03*
X282320Y221870D03*
X282320Y225020D03*
X285470Y221870D03*
X298070Y234470D03*
X294920Y225020D03*
X288620Y225020D03*
X288620Y228170D03*
X288620Y234470D03*
X285470Y237620D03*
X288620Y231320D03*
X285470Y231320D03*
X282320Y237620D03*
X282320Y234470D03*
X294920Y237620D03*
X301000Y225000D03*
X285470Y234470D03*
X288620Y237620D03*
X298070Y237620D03*
X298000Y228170D03*
X291770Y243920D03*
X294920Y243920D03*
X294920Y240770D03*
X291770Y240770D03*
X282320Y247070D03*
X285470Y247070D03*
X282320Y243920D03*
X285470Y243920D03*
X288620Y247070D03*
X288620Y243920D03*
X301427Y219544D03*
X305500Y232030D03*
G54D32*
X192000Y198400D03*
X192000Y186600D03*
G54D51*
G01X171000Y436630D02*
X175150Y436630D01*
X175850Y435930D01*
X175850Y432500D01*
G01X175850Y440320D02*
X175850Y440150D01*
X179500Y436500D01*
X179500Y430000D01*
X178250Y428750D01*
X171000Y428750D01*
G01X257275Y269249D02*
X257550Y269249D01*
G54D24*
X127940Y351060D03*
X127940Y345940D03*
X120060Y351060D03*
X120060Y348500D03*
X120060Y345940D03*
G54D33*
X209700Y201500D03*
X217300Y201500D03*
X246200Y260000D03*
X253800Y260000D03*
G54D15*
X25000Y381500D03*
X29000Y381500D03*
X25000Y404500D03*
X29000Y404500D03*
X27500Y427000D03*
X23500Y427000D03*
X42500Y339500D03*
X46500Y339500D03*
X46000Y381500D03*
X42000Y381500D03*
X46000Y388500D03*
X46000Y392500D03*
X50000Y407000D03*
X50000Y411000D03*
X37500Y412500D03*
X37500Y416500D03*
X46000Y411000D03*
X46000Y407000D03*
X37500Y425000D03*
X37500Y421000D03*
X66500Y137000D03*
X66500Y133000D03*
X66000Y343000D03*
X62000Y343000D03*
X66000Y358000D03*
X62000Y358000D03*
X66000Y348000D03*
X62000Y348000D03*
X66000Y378000D03*
X62000Y378000D03*
X66000Y368000D03*
X62000Y368000D03*
X66000Y373000D03*
X62000Y373000D03*
X66000Y383000D03*
X62000Y383000D03*
X66000Y398000D03*
X62000Y398000D03*
X66000Y388000D03*
X62000Y388000D03*
X66000Y393000D03*
X62000Y393000D03*
X66000Y403000D03*
X62000Y403000D03*
X62000Y413000D03*
X66000Y413000D03*
X70900Y471900D03*
X74900Y471900D03*
X91500Y383000D03*
X91500Y379000D03*
X91500Y387000D03*
X91500Y391000D03*
X109500Y257500D03*
X113500Y257500D03*
X113500Y254000D03*
X109500Y254000D03*
X109500Y250500D03*
X113500Y250500D03*
X111000Y342500D03*
X103500Y342500D03*
X111000Y346500D03*
X103500Y346500D03*
X111500Y351000D03*
X107500Y351000D03*
X113000Y379200D03*
X110000Y389000D03*
X114000Y389000D03*
X97100Y408000D03*
X101100Y408000D03*
X104600Y408000D03*
X108600Y408000D03*
X122500Y256000D03*
X122500Y260000D03*
X122500Y247000D03*
X122500Y251000D03*
X137000Y278500D03*
X123500Y280500D03*
X137000Y282500D03*
X123500Y284500D03*
X136500Y295500D03*
X136500Y291500D03*
X133000Y288500D03*
X133000Y284500D03*
X133000Y302500D03*
X137000Y302500D03*
X129000Y326000D03*
X125000Y326000D03*
X117000Y379200D03*
X137000Y396500D03*
X133000Y396500D03*
X126500Y424000D03*
X130500Y424000D03*
X131000Y430500D03*
X127000Y430500D03*
X139500Y144500D03*
X139500Y140500D03*
X147500Y138000D03*
X139500Y172000D03*
X139500Y168000D03*
X147500Y165000D03*
X140000Y195500D03*
X147500Y193000D03*
X140000Y199500D03*
X143000Y236800D03*
X143000Y240800D03*
X145500Y243800D03*
X149500Y243800D03*
X148500Y270000D03*
X148500Y274000D03*
X154500Y308500D03*
X142500Y315500D03*
X138500Y315500D03*
X154500Y331500D03*
X150500Y331500D03*
X154500Y336000D03*
X150500Y336000D03*
X145000Y331500D03*
X145000Y335500D03*
X140000Y331500D03*
X140000Y335500D03*
X151500Y384000D03*
X147500Y384000D03*
X152000Y395000D03*
X148000Y395000D03*
X144500Y420500D03*
X144500Y416500D03*
X150500Y434000D03*
X150500Y438000D03*
X178000Y279000D03*
X173000Y270000D03*
X173000Y274000D03*
X169000Y270000D03*
X169000Y274000D03*
X178000Y282500D03*
X158500Y308500D03*
X171500Y315500D03*
X167500Y315500D03*
X178000Y310000D03*
X178000Y306000D03*
X171000Y338000D03*
X167000Y338000D03*
X166000Y378000D03*
X162000Y378000D03*
X166000Y382000D03*
X162000Y382000D03*
X169500Y370000D03*
X169500Y366000D03*
X162000Y386000D03*
X166000Y386000D03*
X172500Y405000D03*
X172500Y401000D03*
X167500Y405000D03*
X167500Y401000D03*
X195000Y12000D03*
X195000Y8000D03*
X185000Y12000D03*
X185000Y8000D03*
X190000Y23500D03*
X190000Y19500D03*
X197000Y19500D03*
X197000Y23500D03*
X193500Y23500D03*
X193500Y19500D03*
X190000Y34500D03*
X194000Y34500D03*
X191000Y81000D03*
X195000Y81000D03*
X197500Y177500D03*
X197500Y174000D03*
X182000Y279000D03*
X182000Y282500D03*
X181500Y296500D03*
X181500Y292500D03*
X195000Y287500D03*
X198000Y319500D03*
X187500Y335500D03*
X187500Y331500D03*
X198500Y361500D03*
X194500Y361500D03*
X198500Y345500D03*
X180500Y369000D03*
X180500Y365000D03*
X183000Y394000D03*
X183000Y398000D03*
X193500Y398000D03*
X193500Y394000D03*
X190000Y430500D03*
X190000Y434500D03*
X194000Y430500D03*
X194000Y434500D03*
X200000Y8000D03*
X200000Y12000D03*
X215936Y168384D03*
X218764Y165556D03*
X212500Y178000D03*
X216500Y178000D03*
X201500Y177500D03*
X201500Y174000D03*
X214000Y229000D03*
X218000Y229000D03*
X214000Y236000D03*
X218000Y236000D03*
X214000Y232500D03*
X218000Y232500D03*
X207500Y238500D03*
X207500Y234500D03*
X216646Y259816D03*
X219474Y262644D03*
X199000Y287500D03*
X219000Y286500D03*
X218500Y292000D03*
X202000Y319500D03*
X202500Y345500D03*
X215500Y361500D03*
X214000Y375000D03*
X214000Y371000D03*
X215500Y365500D03*
X228150Y175650D03*
X239900Y160500D03*
X239900Y164500D03*
X235900Y160500D03*
X235900Y164500D03*
X227500Y191500D03*
X223500Y191500D03*
X224500Y218000D03*
X228500Y218000D03*
X224500Y214000D03*
X228500Y214000D03*
X222500Y239500D03*
X226500Y239500D03*
X228500Y222000D03*
X224500Y222000D03*
X225000Y228500D03*
X225000Y232500D03*
X228150Y249350D03*
X234000Y263000D03*
X234000Y267000D03*
X223000Y286500D03*
X222500Y292000D03*
X228000Y292000D03*
X232000Y292000D03*
X223000Y361500D03*
X230000Y361500D03*
X226500Y361500D03*
X238000Y355000D03*
X223000Y365500D03*
X230000Y365500D03*
X226500Y365500D03*
X223500Y375500D03*
X227500Y375500D03*
X223500Y372000D03*
X227500Y372000D03*
X240000Y384000D03*
X236500Y384000D03*
X233000Y384000D03*
X229000Y384000D03*
X225000Y384000D03*
X240000Y388000D03*
X236500Y388000D03*
X233000Y388000D03*
X256500Y81000D03*
X260500Y81000D03*
X258500Y99500D03*
X243900Y160500D03*
X243900Y164500D03*
X251000Y176000D03*
X251000Y172000D03*
X253500Y206500D03*
X253500Y210500D03*
X253500Y203000D03*
X257500Y203000D03*
X253500Y218000D03*
X253500Y214000D03*
X258000Y215500D03*
X250500Y215000D03*
X246500Y215000D03*
X256500Y225000D03*
X260500Y225000D03*
X253500Y225000D03*
X253500Y221000D03*
X250600Y247600D03*
X250600Y243600D03*
X255300Y247600D03*
X255300Y243600D03*
X258000Y316000D03*
X242000Y355000D03*
X243500Y384000D03*
X243500Y388000D03*
X254500Y396500D03*
X254500Y392500D03*
X275000Y93300D03*
X279000Y93300D03*
X275000Y86800D03*
X279000Y86800D03*
X265900Y90500D03*
X265900Y94500D03*
X265900Y83500D03*
X265900Y87500D03*
X274800Y99500D03*
X278800Y99500D03*
X262500Y99500D03*
X270500Y142500D03*
X270500Y146500D03*
X268000Y173500D03*
X268000Y177500D03*
X264000Y173500D03*
X264000Y177500D03*
X272500Y173500D03*
X272500Y177500D03*
X261100Y165600D03*
X265100Y165600D03*
X276000Y173500D03*
X276000Y169500D03*
X279500Y161500D03*
X279500Y165500D03*
X266500Y195000D03*
X276100Y202700D03*
X276100Y206700D03*
X272500Y202500D03*
X268500Y202500D03*
X261000Y202500D03*
X265000Y202500D03*
X276100Y217500D03*
X276100Y210000D03*
X276100Y214000D03*
X262000Y215500D03*
X266500Y206000D03*
X266500Y210000D03*
X266000Y217500D03*
X273100Y215000D03*
X269100Y215000D03*
X266500Y199000D03*
X279500Y215400D03*
X263500Y225000D03*
X267500Y225000D03*
X276100Y221500D03*
X270500Y225000D03*
X274500Y225000D03*
X266000Y221500D03*
X266000Y228500D03*
X266000Y232500D03*
X278000Y258000D03*
X274000Y258000D03*
X278000Y262000D03*
X274000Y262000D03*
X269000Y262000D03*
X265000Y262000D03*
X278000Y269500D03*
X278000Y273500D03*
X274000Y269500D03*
X274000Y273500D03*
X262500Y310000D03*
X262000Y316000D03*
X279500Y316000D03*
X266000Y339500D03*
X270000Y339500D03*
X272500Y360500D03*
X272500Y356500D03*
X268500Y344000D03*
X268500Y399000D03*
X268500Y395000D03*
X280500Y395000D03*
X280500Y391000D03*
X301860Y175650D03*
X292000Y171500D03*
X292000Y175500D03*
X288500Y171500D03*
X288500Y175500D03*
X284500Y165500D03*
X284500Y161500D03*
X291700Y194300D03*
X291700Y190300D03*
X299200Y185500D03*
X283500Y215400D03*
X302000Y231000D03*
X302000Y235000D03*
X301860Y249350D03*
X282000Y258000D03*
X286000Y258000D03*
X290000Y258000D03*
X285500Y254000D03*
X289500Y254000D03*
X282000Y262000D03*
X286000Y262000D03*
X282000Y269500D03*
X282000Y273500D03*
X290000Y262000D03*
X284000Y310000D03*
X301000Y316500D03*
X283500Y316000D03*
X299000Y372600D03*
X284500Y402500D03*
X289000Y402500D03*
X285000Y395000D03*
X285000Y391000D03*
X288500Y391000D03*
X288500Y395000D03*
X299000Y397400D03*
X284500Y406500D03*
X289000Y406500D03*
X320500Y12000D03*
X320500Y8000D03*
X314000Y95000D03*
X314000Y99000D03*
X314000Y103500D03*
X312944Y168474D03*
X310116Y165646D03*
X303200Y185500D03*
X305500Y193800D03*
X305500Y189800D03*
X308000Y214500D03*
X304000Y214500D03*
X305500Y207000D03*
X305500Y203000D03*
X320500Y226000D03*
X316500Y226000D03*
X316500Y237000D03*
X320500Y237000D03*
X304000Y225000D03*
X308000Y225000D03*
X316500Y233500D03*
X320500Y233500D03*
X316500Y229500D03*
X320500Y229500D03*
X313854Y259286D03*
X311026Y262114D03*
X305000Y310000D03*
X305000Y316500D03*
X317000Y372600D03*
X308000Y382500D03*
X317000Y397400D03*
X308000Y387000D03*
X335500Y8000D03*
X335500Y12000D03*
X330500Y12000D03*
X330500Y8000D03*
X325500Y23500D03*
X325500Y19500D03*
X333000Y19500D03*
X333000Y23500D03*
X329000Y23500D03*
X329000Y19500D03*
X325500Y34500D03*
X329500Y34500D03*
X335500Y198000D03*
X333000Y214000D03*
X333000Y218000D03*
X335500Y202000D03*
X340000Y336000D03*
X325600Y327000D03*
X335500Y336000D03*
X325600Y345000D03*
X329000Y401500D03*
X329000Y397500D03*
X329000Y393000D03*
X329000Y389000D03*
X338050Y393090D03*
X338050Y399000D03*
X338050Y404910D03*
X350500Y278500D03*
X350500Y274500D03*
X350400Y327000D03*
X350400Y345000D03*
X356500Y371000D03*
X356500Y375000D03*
X343950Y399000D03*
X343950Y393090D03*
X343950Y404910D03*
X381000Y95500D03*
X381000Y113000D03*
X381000Y109500D03*
X381000Y106000D03*
X381000Y102500D03*
X381000Y99000D03*
X381500Y132000D03*
X381000Y120000D03*
X381000Y116500D03*
X381500Y135500D03*
X381500Y149500D03*
X381500Y139000D03*
X381500Y142500D03*
X381500Y156500D03*
X381500Y153000D03*
X381500Y146000D03*
X381000Y176500D03*
X381000Y173000D03*
X381000Y183500D03*
X381000Y180000D03*
X381000Y197500D03*
X381000Y194000D03*
X381000Y190500D03*
X381000Y187000D03*
X372000Y257500D03*
X376000Y257500D03*
X376000Y272500D03*
X377500Y284000D03*
X377500Y288000D03*
X385000Y95500D03*
X385000Y113000D03*
X385000Y109500D03*
X385000Y106000D03*
X385000Y102500D03*
X385000Y99000D03*
X385500Y132000D03*
X385000Y120000D03*
X385000Y116500D03*
X385500Y135500D03*
X385500Y149500D03*
X385500Y139000D03*
X385500Y142500D03*
X385500Y156500D03*
X385500Y153000D03*
X385500Y146000D03*
X385000Y176500D03*
X385000Y173000D03*
X385000Y183500D03*
X385000Y180000D03*
X385000Y197500D03*
X385000Y194000D03*
X385000Y190500D03*
X385000Y187000D03*
X408500Y418500D03*
X412500Y418500D03*
X424000Y408500D03*
X425500Y418500D03*
X421500Y418500D03*
X425000Y428500D03*
X421000Y428500D03*
X428000Y408500D03*
G54D42*
X338100Y422200D03*
X356900Y422200D03*
G54D52*
G01X33400Y381500D02*
X6750Y354850D01*
X6750Y316700D01*
X25630Y297820D01*
X25630Y297250D01*
G01X33500Y84650D02*
X28880Y80030D01*
X24153Y80030D01*
X20500Y76377D01*
X20500Y58575D01*
X29075Y50000D01*
X52000Y50000D01*
X58000Y44000D01*
X58000Y33500D01*
X64750Y26750D01*
X212700Y26750D01*
X224450Y15000D01*
X297800Y15000D01*
X311000Y28200D01*
G01X33500Y210640D02*
X29640Y214500D01*
X23000Y214500D01*
X16000Y207500D01*
X16000Y94500D01*
X22000Y88500D01*
X38400Y88500D01*
X51900Y75000D01*
X64000Y75000D01*
X69000Y70000D01*
X203000Y70000D01*
X212500Y79500D01*
X212500Y93000D01*
X210000Y95500D01*
X210000Y109500D01*
X208000Y111500D01*
G01X25630Y210640D02*
X17500Y202510D01*
X17500Y137000D01*
X21000Y133500D01*
X21000Y100000D01*
X25000Y96000D01*
X37200Y96000D01*
X52300Y80900D01*
X60600Y80900D01*
X70500Y71000D01*
X201500Y71000D01*
X211500Y81000D01*
X211500Y91500D01*
X207000Y96000D01*
X207000Y110000D01*
X205000Y112000D01*
G01X25630Y108280D02*
X29350Y112000D01*
X37200Y112000D01*
X60200Y89000D01*
X66100Y89000D01*
X72000Y83100D01*
X105100Y83100D01*
X111200Y89200D01*
X136100Y89200D01*
X142200Y83100D01*
X156000Y83100D01*
X158600Y80500D01*
X158600Y77000D01*
G01X25630Y100400D02*
X28880Y103650D01*
X34847Y103650D01*
X36997Y101500D01*
X39100Y101500D01*
X55300Y85300D01*
X64200Y85300D01*
X69300Y80200D01*
X103700Y80200D01*
X105800Y78100D01*
X131200Y78100D01*
X133300Y80200D01*
X153900Y80200D01*
X154660Y79440D01*
X154660Y77000D01*
G01X25630Y131900D02*
X28930Y128600D01*
X36000Y128600D01*
X60400Y104200D01*
X150100Y104200D01*
X168900Y85400D01*
X168900Y77955D01*
X169855Y77000D01*
X170420Y77000D01*
G01X25630Y124020D02*
X29110Y127500D01*
X35400Y127500D01*
X59800Y103100D01*
X148900Y103100D01*
X166480Y85520D01*
X166480Y77000D01*
G01X25630Y116150D02*
X28880Y119400D01*
X36500Y119400D01*
X55100Y100800D01*
X146700Y100800D01*
X162540Y84960D01*
X162540Y77000D01*
G01X142840Y113400D02*
X141439Y114801D01*
X141439Y116076D01*
X139815Y117700D01*
X136200Y117700D01*
X135250Y116750D01*
X130950Y116750D01*
X129000Y114800D01*
X96515Y114800D01*
X90815Y120500D01*
X72700Y120500D01*
X72200Y121000D01*
X57525Y121000D01*
X46750Y131775D01*
X46750Y141725D01*
X47000Y141975D01*
X47000Y143474D01*
X38204Y152270D01*
X32153Y152270D01*
X28903Y155520D01*
X25630Y155520D01*
G01X25630Y147650D02*
X29980Y143300D01*
X35900Y143300D01*
X42300Y136900D01*
X42300Y130000D01*
X63500Y108800D01*
X161500Y108800D01*
X178300Y92000D01*
X178300Y73500D01*
G01X25630Y139770D02*
X29800Y135600D01*
X35600Y135600D01*
X39399Y131801D01*
X39399Y129586D01*
X62585Y106400D01*
X151500Y106400D01*
X174360Y83540D01*
X174360Y77000D01*
G01X25630Y187020D02*
X20610Y182000D01*
X20110Y182000D01*
X19500Y181390D01*
X19500Y162000D01*
X19600Y161900D01*
X19600Y153900D01*
X22301Y151199D01*
X28101Y151199D01*
X29800Y149500D01*
X29800Y146200D01*
X31600Y144400D01*
X36600Y144400D01*
X43300Y137700D01*
X43300Y130500D01*
X64000Y109800D01*
X147120Y109800D01*
X150720Y113400D01*
G01X33500Y171270D02*
X29830Y167600D01*
X25243Y167600D01*
X22380Y164737D01*
X22380Y154173D01*
X24353Y152200D01*
X30300Y152200D01*
X31600Y150900D01*
X34847Y150900D01*
X40500Y145247D01*
X40500Y144400D01*
X45750Y139150D01*
X45750Y131360D01*
X57210Y119900D01*
X70600Y119900D01*
X71000Y119500D01*
X90400Y119500D01*
X96100Y113800D01*
X130600Y113800D01*
X132200Y115400D01*
X136300Y115400D01*
X137498Y116598D01*
X139414Y116598D01*
X140439Y115573D01*
X140439Y113326D01*
X142115Y111650D01*
X145030Y111650D01*
X146780Y113400D01*
G01X25630Y171270D02*
X28880Y174520D01*
X34847Y174520D01*
X40500Y168867D01*
X40500Y155400D01*
X51500Y144400D01*
X51500Y134885D01*
X56635Y129750D01*
X86450Y129750D01*
X94950Y121250D01*
X141165Y121250D01*
X145665Y116750D01*
X148820Y116750D01*
X149070Y117000D01*
X150820Y117000D01*
G01X25630Y218510D02*
X28880Y221760D01*
X34847Y221760D01*
X43500Y213107D01*
X43500Y166300D01*
X54400Y155400D01*
X62500Y155400D01*
X76800Y141100D01*
X83500Y141100D01*
X99900Y124700D01*
X147060Y124700D01*
X154760Y117000D01*
G01X25630Y226390D02*
X28880Y229640D01*
X34847Y229640D01*
X45500Y218987D01*
X45500Y170800D01*
X54000Y162300D01*
X63100Y162300D01*
X74500Y150900D01*
X86100Y150900D01*
X88900Y148100D01*
X88900Y140100D01*
X98000Y131000D01*
X149890Y131000D01*
X158700Y122190D01*
X158700Y117000D01*
G01X42619Y277500D02*
X42619Y292728D01*
X34096Y301251D01*
X29509Y301251D01*
X25630Y305130D01*
G01X33400Y381500D02*
X29000Y381500D01*
G01X29000Y404500D02*
X31500Y404500D01*
X32000Y404000D01*
X33000Y404000D01*
G01X27500Y427000D02*
X27500Y430450D01*
G01X33500Y108280D02*
X37600Y108280D01*
X58480Y87400D01*
X64900Y87400D01*
X70700Y81600D01*
X105700Y81600D01*
X108000Y79300D01*
X130900Y79300D01*
X133200Y81600D01*
X155000Y81600D01*
X156500Y80100D01*
X156500Y75700D01*
X158700Y73500D01*
G01X33500Y100400D02*
X37600Y100400D01*
X55600Y82400D01*
X61900Y82400D01*
X70300Y74000D01*
X129800Y74000D01*
X134900Y79100D01*
X151800Y79100D01*
X152500Y78400D01*
X152500Y75760D01*
X154760Y73500D01*
G01X33500Y76780D02*
X41700Y76780D01*
X44990Y73490D01*
X62290Y73490D01*
X67531Y68249D01*
X88848Y68249D01*
X98750Y58347D01*
X98750Y49153D01*
X107653Y40250D01*
X242575Y40250D01*
X243575Y39250D01*
X249100Y39250D01*
G01X33500Y131900D02*
X35800Y129600D01*
X37100Y129600D01*
X61400Y105300D01*
X150700Y105300D01*
X172400Y83600D01*
X172400Y75380D01*
X170520Y73500D01*
G01X33500Y124020D02*
X55420Y102100D01*
X147400Y102100D01*
X164290Y85210D01*
X164290Y75789D01*
X166580Y73500D01*
G01X33500Y116150D02*
X37750Y116150D01*
X54200Y99700D01*
X61225Y99700D01*
X61275Y99750D01*
X62725Y99750D01*
X62775Y99700D01*
X145300Y99700D01*
X160500Y84500D01*
X160500Y75640D01*
X162640Y73500D01*
G01X33500Y155520D02*
X38380Y155520D01*
X50400Y143500D01*
X50400Y133625D01*
X57775Y126250D01*
X57850Y126250D01*
X57900Y126200D01*
X72800Y126200D01*
X77500Y121500D01*
X91500Y121500D01*
X97200Y115800D01*
X127500Y115800D01*
X131950Y120250D01*
X139690Y120250D01*
X142940Y117000D01*
G01X33500Y147650D02*
X35150Y147650D01*
X44400Y138400D01*
X44400Y131000D01*
X63950Y111450D01*
X135291Y111450D01*
X138689Y114848D01*
G01X33500Y139770D02*
X40400Y132870D01*
X40400Y130000D01*
X62900Y107500D01*
X159800Y107500D01*
X176400Y90900D01*
X176400Y75440D01*
X174460Y73500D01*
G01X33500Y218510D02*
X42500Y209510D01*
X42500Y164800D01*
X56200Y151100D01*
X63200Y151100D01*
X74600Y139700D01*
X83000Y139700D01*
X99200Y123500D01*
X146795Y123500D01*
X153000Y117295D01*
X153000Y115060D01*
X154660Y113400D01*
G01X33500Y179140D02*
X41500Y171140D01*
X41500Y156000D01*
X52600Y144900D01*
X52600Y135200D01*
X56900Y130900D01*
X87300Y130900D01*
X95900Y122300D01*
X142802Y122300D01*
X146602Y118500D01*
G01X33500Y226390D02*
X44500Y215390D01*
X44500Y168600D01*
X52300Y160800D01*
X61700Y160800D01*
X72700Y149800D01*
X84600Y149800D01*
X87350Y147050D01*
X87350Y139650D01*
X97000Y130000D01*
X149475Y130000D01*
X156510Y122965D01*
X156510Y115490D01*
X158600Y113400D01*
G01X62000Y182500D02*
X49250Y195250D01*
X49250Y282766D01*
X60750Y294266D01*
X60750Y304360D01*
G01X57200Y311300D02*
X57200Y293200D01*
X48250Y284250D01*
X48250Y181147D01*
X58500Y170897D01*
G01X46500Y339500D02*
X50500Y339500D01*
G01X42500Y339500D02*
X42500Y335000D01*
X44000Y333500D01*
G01X33500Y381500D02*
X33400Y381500D01*
G01X42000Y381500D02*
X42000Y386000D01*
G01X96300Y417500D02*
X92150Y421650D01*
X55175Y421650D01*
X49300Y415775D01*
X49300Y414300D01*
X46000Y411000D01*
G01X37000Y404000D02*
X37000Y406250D01*
X37750Y407000D01*
X37750Y408750D01*
G01X37500Y412500D02*
X37500Y409000D01*
X37750Y408750D01*
G01X46000Y407000D02*
X50000Y407000D01*
G01X46000Y407000D02*
X46000Y403700D01*
G01X66710Y14020D02*
X64520Y14020D01*
X63000Y12500D01*
X63000Y10000D01*
G01X66710Y20980D02*
X64520Y20980D01*
X63000Y22500D01*
X63000Y25000D01*
G01X66710Y18490D02*
X64510Y18490D01*
X63000Y20000D01*
G01X66710Y16510D02*
X64510Y16510D01*
X63000Y15000D01*
G01X73010Y36210D02*
X73010Y34010D01*
X71500Y32500D01*
G01X70520Y36210D02*
X70520Y34020D01*
X69000Y32500D01*
X66500Y32500D01*
G01X66500Y133000D02*
X62000Y133000D01*
G01X54500Y139500D02*
X58500Y135500D01*
X65000Y135500D01*
X66500Y137000D01*
G01X78500Y176023D02*
X78500Y174273D01*
X79000Y173773D01*
X79000Y164200D01*
X78300Y163500D01*
X76700Y163500D01*
X76000Y164200D01*
X76000Y173300D01*
X75300Y174000D01*
X72700Y174000D01*
X72000Y173300D01*
X72000Y164200D01*
X71300Y163500D01*
X70200Y163500D01*
X69500Y164200D01*
X69500Y176000D01*
X68500Y177000D01*
X67500Y177000D01*
X66500Y176000D01*
X66500Y162000D01*
X67500Y161000D01*
X81000Y161000D01*
X82000Y162000D01*
X82000Y164500D01*
X82990Y165490D01*
X85951Y165490D01*
X90951Y160490D01*
X90951Y142549D01*
X100500Y133000D01*
G01X55500Y211048D02*
X57200Y209348D01*
X57200Y196300D01*
X73603Y179897D01*
X78103Y179897D01*
X81500Y176500D01*
X87000Y176500D01*
X90000Y173500D01*
X90000Y167500D01*
X96000Y161500D01*
X96000Y147500D01*
X100500Y143000D01*
G01X172530Y173040D02*
X165697Y173040D01*
X151954Y159297D01*
X128203Y159297D01*
X107500Y180000D01*
X86294Y180000D01*
X60750Y205544D01*
X60750Y235750D01*
X62500Y237500D01*
G01X75700Y260500D02*
X75700Y257700D01*
X68250Y250250D01*
X68250Y199459D01*
X86709Y181000D01*
X108000Y181000D01*
X118025Y170975D01*
X122560Y170975D01*
X129405Y164130D01*
X129405Y163015D01*
X132123Y160297D01*
X151539Y160297D01*
X166262Y175020D01*
X172530Y175020D01*
G01X73000Y237000D02*
X72610Y237000D01*
X69250Y233640D01*
X69250Y199874D01*
X82100Y187024D01*
X108951Y187024D01*
X130405Y165570D01*
X130405Y163430D01*
X131430Y162405D01*
X132880Y162405D01*
X134272Y163797D01*
X144703Y163797D01*
X145500Y163000D01*
X152827Y163000D01*
X166837Y177010D01*
X172530Y177010D01*
G01X126516Y382815D02*
X126516Y381741D01*
X105775Y361000D01*
X98195Y361000D01*
X85000Y347805D01*
X85000Y307715D01*
X65285Y288000D01*
X63463Y288000D01*
X60103Y284640D01*
X60103Y278397D01*
X64250Y274250D01*
X64250Y261775D01*
X63225Y260750D01*
X58360Y260750D01*
X52750Y255140D01*
X52750Y228250D01*
X58500Y222500D01*
X58500Y199695D01*
X64195Y194000D01*
X67500Y194000D01*
X83750Y177750D01*
X103250Y177750D01*
X127250Y153750D01*
X137000Y153750D01*
G01X150500Y153500D02*
X147000Y157000D01*
X128000Y157000D01*
X106000Y179000D01*
X85879Y179000D01*
X59500Y205379D01*
X59500Y223500D01*
X53750Y229250D01*
X53750Y254725D01*
X58275Y259250D01*
X63140Y259250D01*
X65250Y261360D01*
X65250Y275250D01*
X61103Y279397D01*
X61103Y284225D01*
X63878Y287000D01*
X65700Y287000D01*
X89500Y310800D01*
X89500Y350890D01*
X98610Y360000D01*
X106998Y360000D01*
X129749Y382751D01*
G01X105000Y237500D02*
X97500Y237500D01*
X96000Y239000D01*
X79500Y239000D01*
X75750Y235250D01*
X72275Y235250D01*
X70250Y233225D01*
X70250Y200289D01*
X79351Y191188D01*
X108962Y191188D01*
X127400Y172750D01*
X132250Y172750D01*
X133500Y174000D01*
X140500Y174000D01*
X142250Y172250D01*
X160662Y172250D01*
X167402Y178990D01*
X172530Y178990D01*
G01X172530Y180980D02*
X167780Y180980D01*
X160050Y173250D01*
X142750Y173250D01*
X139700Y176300D01*
X125265Y176300D01*
X108315Y193250D01*
X78704Y193250D01*
X71250Y200704D01*
X71250Y231750D01*
X73000Y233500D01*
G01X62853Y283500D02*
X67500Y278853D01*
X67500Y259500D01*
X63500Y255500D01*
X57500Y255500D01*
X55500Y253500D01*
X55500Y232500D01*
G01X172530Y182960D02*
X168360Y182960D01*
X167380Y181980D01*
X167365Y181980D01*
X159635Y174250D01*
X143165Y174250D01*
X140115Y177300D01*
X126700Y177300D01*
X108600Y195400D01*
X104600Y195400D01*
X93000Y207000D01*
X85525Y207000D01*
X73000Y219525D01*
X73000Y226500D01*
G01X77500Y273500D02*
X71400Y267400D01*
X71400Y254900D01*
X66000Y249500D01*
X66000Y244000D01*
X64500Y242500D01*
X62500Y242500D01*
G01X86465Y294550D02*
X86465Y292965D01*
X69250Y275750D01*
X69250Y259250D01*
X62500Y252500D01*
G01X74000Y358000D02*
X74000Y354500D01*
X74750Y353750D01*
X74750Y331018D01*
X62207Y318475D01*
X62207Y306793D01*
X62500Y306500D01*
X62500Y291500D01*
X57250Y286250D01*
X57250Y264250D01*
X59000Y262500D01*
G01X63957Y317750D02*
X66207Y320000D01*
X74075Y320000D01*
X81000Y326925D01*
X81000Y350975D01*
X112525Y382500D01*
X113000Y382500D01*
G01X66000Y358000D02*
X74000Y358000D01*
G01X66000Y348000D02*
X73000Y348000D01*
G01X62000Y358000D02*
X55500Y358000D01*
G01X122600Y404500D02*
X117100Y410000D01*
X74976Y410000D01*
X73476Y408500D01*
X58525Y408500D01*
X53350Y403325D01*
X53350Y347675D01*
X55025Y346000D01*
X63000Y346000D01*
X66000Y343000D01*
G01X62000Y343000D02*
X55500Y343000D01*
G01X62000Y348000D02*
X55500Y348000D01*
G01X66000Y378000D02*
X70097Y378000D01*
X78500Y386403D01*
X78500Y386915D01*
X90085Y398500D01*
X126000Y398500D01*
X132300Y404800D01*
X139870Y404800D01*
X142250Y402420D01*
X142250Y372750D01*
X135500Y366000D01*
X135500Y345585D01*
X121915Y332000D01*
X119255Y332000D01*
X99250Y311995D01*
X99250Y269250D01*
X101000Y267500D01*
G01X66000Y368000D02*
X79500Y381500D01*
X79500Y381829D01*
X95171Y397500D01*
X127100Y397500D01*
X132850Y403250D01*
X138140Y403250D01*
X140000Y401390D01*
X140000Y372500D01*
X134500Y367000D01*
X134500Y346025D01*
X121975Y333500D01*
X119340Y333500D01*
X98250Y312410D01*
X98250Y267775D01*
X101025Y265000D01*
X102500Y265000D01*
X105000Y262500D01*
G01X62000Y373000D02*
X55500Y373000D01*
G01X66000Y373000D02*
X64000Y371000D01*
X64000Y370000D01*
X62000Y368000D01*
G01X62000Y368000D02*
X56000Y368000D01*
G01X62000Y378000D02*
X64000Y380000D01*
X64000Y381000D01*
X66000Y383000D01*
G01X66000Y398000D02*
X75000Y398000D01*
G01X66000Y388000D02*
X73000Y388000D01*
X75000Y390000D01*
G01X62000Y403000D02*
X55500Y403000D01*
G01X62000Y393000D02*
X55500Y393000D01*
G01X62000Y383000D02*
X55500Y383000D01*
G01X66000Y393000D02*
X64000Y391000D01*
X64000Y390000D01*
X62000Y388000D01*
G01X62000Y388000D02*
X56000Y388000D01*
G01X66000Y383000D02*
X72622Y383000D01*
X75122Y385500D01*
G01X62000Y398000D02*
X56000Y398000D01*
G01X66000Y403000D02*
X64000Y401000D01*
X64000Y400000D01*
X62000Y398000D01*
G01X62000Y413000D02*
X55500Y413000D01*
G01X74990Y36210D02*
X74990Y33010D01*
X76000Y32000D01*
G01X88750Y33213D02*
X88750Y40749D01*
G01X77480Y36210D02*
X77480Y34020D01*
X79000Y32500D01*
X81500Y32500D01*
G01X86251Y173897D02*
X87500Y172648D01*
X87500Y167000D01*
X93750Y160750D01*
X93750Y147250D01*
X101250Y139750D01*
X102750Y139750D01*
X104500Y138000D01*
G01X129500Y392000D02*
X129500Y387000D01*
X131499Y385001D01*
X131499Y382026D01*
X108223Y358750D01*
X98775Y358750D01*
X91750Y351725D01*
X91750Y256445D01*
X103945Y244250D01*
X105725Y244250D01*
X107750Y242225D01*
X107750Y204212D01*
X130462Y181500D01*
X136000Y181500D01*
G01X133000Y396500D02*
X133000Y382112D01*
X108638Y357750D01*
X103860Y357750D01*
X92750Y346640D01*
X92750Y256860D01*
X104110Y245500D01*
X105890Y245500D01*
X108750Y242640D01*
X108750Y207110D01*
X118360Y197500D01*
X122835Y197500D01*
X125000Y195335D01*
X125000Y191610D01*
X132610Y184000D01*
X137500Y184000D01*
X140000Y181500D01*
G01X129500Y396500D02*
X135250Y402250D01*
X137725Y402250D01*
X139000Y400975D01*
X139000Y386697D01*
X109053Y356750D01*
X104275Y356750D01*
X93750Y346225D01*
X93750Y257275D01*
X101025Y250000D01*
X104975Y250000D01*
X109750Y245225D01*
X109750Y207525D01*
X118275Y199000D01*
X122750Y199000D01*
X126500Y195250D01*
X126500Y191525D01*
X128275Y189750D01*
X139250Y189750D01*
X149250Y199750D01*
X155250Y199750D01*
X155500Y200000D01*
G01X75000Y398000D02*
X77500Y400500D01*
X124100Y400500D01*
X131000Y407400D01*
X140100Y407400D01*
X144250Y403250D01*
X144250Y370250D01*
X137750Y363750D01*
X137750Y344835D01*
X122415Y329500D01*
X119585Y329500D01*
X101250Y311165D01*
X101250Y274750D01*
X106750Y269250D01*
X106750Y261775D01*
X105725Y260750D01*
X102750Y260750D01*
X101000Y262500D01*
G01X105000Y267500D02*
X100250Y272250D01*
X100250Y311580D01*
X119670Y331000D01*
X122415Y331000D01*
X136500Y345085D01*
X136500Y365000D01*
X143250Y371750D01*
X143250Y402835D01*
X139985Y406100D01*
X131600Y406100D01*
X125000Y399500D01*
X84500Y399500D01*
X75000Y390000D01*
G01X91500Y383000D02*
X95500Y383000D01*
G01X91500Y387000D02*
X91500Y383000D01*
G01X150500Y126500D02*
X148600Y128400D01*
X110900Y128400D01*
X109000Y126500D01*
G01X105000Y242500D02*
X106750Y240750D01*
X106750Y236775D01*
X105725Y235750D01*
X105600Y235750D01*
X103100Y233250D01*
X103100Y214700D01*
X106750Y211050D01*
X106750Y203797D01*
X130797Y179750D01*
X158275Y179750D01*
X160275Y181750D01*
X161750Y181750D01*
X166900Y186900D01*
X173841Y186900D01*
X174700Y186041D01*
X174700Y170700D01*
X172530Y170700D01*
G01X172530Y185300D02*
X168775Y185300D01*
X161725Y178250D01*
X140580Y178250D01*
X140330Y178500D01*
X128800Y178500D01*
X97000Y210300D01*
X97000Y223500D01*
X101000Y227500D01*
G01X114000Y205750D02*
X123160Y205750D01*
X128760Y211350D01*
X129550Y211350D01*
X136969Y218769D01*
X154920Y218769D01*
X159150Y222999D01*
X159150Y224281D01*
X160619Y225750D01*
X161435Y225750D01*
X177685Y242000D01*
X183500Y242000D01*
X185500Y244000D01*
G01X113500Y217000D02*
X123000Y217000D01*
X136000Y230000D01*
X136000Y234079D01*
G01X113500Y226000D02*
X113500Y223193D01*
X116814Y219879D01*
X122567Y219879D01*
X131500Y228812D01*
X131500Y231630D01*
X135399Y235529D01*
X136601Y235529D01*
X137330Y234800D01*
X143829Y234800D01*
X145563Y236534D01*
X145563Y238937D01*
G01X109500Y257500D02*
X109500Y260500D01*
X110500Y261500D01*
G01X109500Y254000D02*
X109500Y257500D01*
G01X109500Y250500D02*
X109500Y254000D01*
G01X104750Y274500D02*
X114702Y274500D01*
X129250Y259952D01*
X129250Y249199D01*
X132041Y246408D01*
X138085Y246408D01*
X142013Y250336D01*
X142013Y252487D01*
X140250Y254250D01*
X140250Y261225D01*
X143414Y264389D01*
X149364Y264389D01*
X161500Y276525D01*
X161500Y285750D01*
X164500Y288750D01*
X164500Y290225D01*
X165525Y291250D01*
X166975Y291250D01*
X167475Y290750D01*
X174725Y290750D01*
X179000Y295025D01*
X179000Y296829D01*
X180671Y298500D01*
X189500Y298500D01*
X193500Y294500D01*
X199500Y294500D01*
X203250Y298250D01*
X209355Y298250D01*
X210460Y297145D01*
X210460Y283205D01*
X211915Y281750D01*
X230225Y281750D01*
X233475Y285000D01*
X268000Y285000D01*
X273750Y290750D01*
X295250Y290750D01*
X297500Y288500D01*
X300475Y288500D01*
X311070Y277905D01*
X311070Y276930D01*
X313000Y275000D01*
G01X130150Y275050D02*
X127949Y277251D01*
X105650Y277251D01*
X103000Y279901D01*
G01X146500Y374788D02*
X146500Y347000D01*
X144000Y344500D01*
X141500Y344500D01*
X136000Y339000D01*
X136000Y331000D01*
X133500Y328500D01*
X120000Y328500D01*
X104000Y312500D01*
X104000Y284000D01*
G01X103500Y342500D02*
X103500Y338238D01*
X102262Y337000D01*
G01X111000Y342500D02*
X111000Y339500D01*
G01X114440Y345940D02*
X111560Y345940D01*
X111000Y346500D01*
G01X103500Y346500D02*
X100500Y346500D01*
X98500Y348500D01*
G01X113000Y382500D02*
X113000Y379200D01*
G01X100500Y365000D02*
X104500Y369000D01*
X111300Y369000D01*
G01X97100Y408000D02*
X97100Y404800D01*
X97891Y404009D01*
X97891Y403799D01*
G01X104600Y408000D02*
X104600Y404800D01*
X105800Y403600D01*
G01X101100Y408000D02*
X101600Y407500D01*
X101600Y403500D01*
G01X108600Y408000D02*
X108600Y405300D01*
X109900Y404000D01*
G01X131500Y7000D02*
X130500Y6000D01*
G01X131500Y16000D02*
X131500Y7000D01*
G01X190000Y117000D02*
X173500Y133500D01*
X148100Y133500D01*
X147600Y133000D01*
X118000Y133000D01*
X116400Y134600D01*
G01X215000Y247500D02*
X213300Y245800D01*
X213300Y245325D01*
X209475Y241500D01*
X202600Y241500D01*
X194900Y233800D01*
X181325Y233800D01*
X168900Y221375D01*
X168900Y213425D01*
X165175Y209700D01*
X154394Y209700D01*
X153550Y210544D01*
X140884Y210544D01*
X133460Y203120D01*
X133460Y201670D01*
X133762Y201368D01*
X133762Y193238D01*
X135000Y192000D01*
G01X162500Y213000D02*
X162400Y213000D01*
X160650Y214750D01*
X135250Y214750D01*
X130850Y210350D01*
X129175Y210350D01*
X128150Y209325D01*
X128150Y194100D01*
X129000Y193250D01*
X129000Y191500D01*
G01X117162Y208138D02*
X124133Y208138D01*
X128345Y212350D01*
X128897Y212350D01*
X136523Y219976D01*
X154712Y219976D01*
X158150Y223414D01*
X158150Y225699D01*
X165900Y233449D01*
X165900Y235876D01*
X180024Y250000D01*
X185000Y250000D01*
X186000Y251000D01*
X190000Y251000D01*
G01X201000Y247500D02*
X194750Y253750D01*
X179275Y253750D01*
X164513Y238988D01*
X164513Y233335D01*
X157150Y225972D01*
X157150Y223829D01*
X154480Y221159D01*
X136291Y221159D01*
X129732Y214600D01*
X123624Y214600D01*
X119712Y210688D01*
G01X129900Y208600D02*
X130650Y209350D01*
X131265Y209350D01*
X134915Y213000D01*
X155500Y213000D01*
G01X131900Y199900D02*
X131900Y203300D01*
X140498Y211898D01*
X149902Y211898D01*
X150256Y211544D01*
X153965Y211544D01*
X154809Y210700D01*
X157200Y210700D01*
X157700Y211200D01*
X157700Y211700D01*
X159000Y213000D01*
G01X117539Y221629D02*
X122902Y221629D01*
X130000Y228727D01*
X130000Y234500D01*
X138000Y242500D01*
X138000Y244851D01*
X146136Y252987D01*
X147164Y252987D01*
X148500Y254323D01*
X148500Y257500D01*
X151050Y260050D01*
X151050Y261474D01*
X164750Y275174D01*
X164750Y280975D01*
X168025Y284250D01*
X175970Y284250D01*
X176220Y284500D01*
X179745Y284500D01*
X179785Y284540D01*
X186412Y284540D01*
X187437Y283515D01*
X187437Y283148D01*
X188000Y282585D01*
X188000Y278110D01*
X194110Y272000D01*
X201000Y272000D01*
G01X127500Y255500D02*
X127500Y228702D01*
X123798Y225000D01*
G01X122500Y256000D02*
X122500Y251000D01*
G01X122500Y251000D02*
X124500Y251000D01*
X125500Y250000D01*
X125500Y245500D01*
X124500Y244500D01*
X119500Y244500D01*
G01X132563Y247937D02*
X132563Y256200D01*
X134300Y257937D01*
X134300Y264300D01*
X142500Y272500D01*
X142500Y278640D01*
X159110Y295250D01*
X159400Y295250D01*
G01X158750Y283500D02*
X157250Y285000D01*
X157250Y291975D01*
X158775Y293500D01*
X160125Y293500D01*
X161150Y294525D01*
X161150Y295975D01*
X160125Y297000D01*
X155125Y297000D01*
X154625Y296500D01*
X143625Y296500D01*
X142625Y297500D01*
X135375Y297500D01*
X133125Y299750D01*
X128775Y299750D01*
X121001Y291976D01*
X121001Y291800D01*
G01X123500Y284500D02*
X123500Y287000D01*
X125500Y289000D01*
G01X129640Y303360D02*
X132140Y303360D01*
X133000Y302500D01*
G01X133600Y326200D02*
X127500Y317500D01*
X127500Y307500D01*
X129640Y305360D01*
X129640Y303360D01*
G01X129000Y326000D02*
X131650Y326000D01*
X131850Y326200D01*
X133600Y326200D01*
G01X120060Y348500D02*
X116500Y348500D01*
G01X127940Y351060D02*
X131940Y351060D01*
G01X210000Y127500D02*
X203500Y121000D01*
X203500Y120405D01*
X194745Y111650D01*
X153935Y111650D01*
X152910Y112675D01*
X152910Y113686D01*
X150820Y115776D01*
X150820Y117000D01*
G01X253500Y71000D02*
X253500Y70025D01*
X250225Y66750D01*
X245775Y66750D01*
X240250Y72275D01*
X240250Y80140D01*
X236890Y83500D01*
X236610Y83500D01*
X214750Y105360D01*
X214750Y126640D01*
X197890Y143500D01*
X167000Y143500D01*
X161500Y149000D01*
X148750Y149000D01*
G01X143500Y181500D02*
X145500Y183500D01*
X152500Y183500D01*
X154250Y181750D01*
X156250Y181750D01*
X157710Y183210D01*
X157710Y189020D01*
G01X155000Y183500D02*
X153000Y185500D01*
X153000Y190000D01*
X154510Y191510D01*
X157710Y191510D01*
G01X224500Y214000D02*
X200500Y214000D01*
X198000Y211500D01*
X184500Y211500D01*
X179000Y206000D01*
X140500Y206000D01*
X138000Y203500D01*
G01X135210Y202395D02*
X136000Y203185D01*
X136000Y203975D01*
X141569Y209544D01*
X153135Y209544D01*
X153979Y208700D01*
X179200Y208700D01*
X184000Y213500D01*
X196000Y213500D01*
X200500Y218000D01*
X224500Y218000D01*
G01X157710Y195980D02*
X157710Y197790D01*
X155500Y200000D01*
G01X145500Y203592D02*
X147342Y201750D01*
X156225Y201750D01*
X158000Y199975D01*
X158000Y199500D01*
X159460Y198040D01*
X159460Y193960D01*
X158990Y193490D01*
X157710Y193490D01*
G01X163063Y233937D02*
X160450Y236550D01*
X150399Y236550D01*
X148613Y238336D01*
X148613Y239538D01*
X150525Y241450D01*
X155127Y241450D01*
X157600Y243923D01*
X157600Y258100D01*
X166500Y267000D01*
X166500Y280250D01*
G01X153500Y227500D02*
X154738Y228738D01*
X154738Y229112D01*
X159563Y233937D01*
G01X155137Y224150D02*
X153437Y225850D01*
X150099Y225850D01*
X149000Y226949D01*
X149000Y229600D01*
X151500Y232100D01*
G01X137500Y226500D02*
X139591Y226500D01*
X141978Y228887D01*
X145537Y228887D01*
X147300Y230650D01*
X147300Y232200D01*
G01X274000Y269500D02*
X266000Y269500D01*
X262750Y266250D01*
X242750Y266250D01*
X235500Y273500D01*
X229500Y273500D01*
X227250Y275750D01*
X211250Y275750D01*
X209750Y274250D01*
X193275Y274250D01*
X189000Y278525D01*
X189000Y283000D01*
X188437Y283563D01*
X188437Y283930D01*
X186827Y285540D01*
X179370Y285540D01*
X179330Y285500D01*
X175805Y285500D01*
X175555Y285250D01*
X167610Y285250D01*
X163750Y281390D01*
X163750Y275750D01*
X150000Y262000D01*
X150000Y261025D01*
X145713Y256738D01*
X143238Y256738D01*
X142000Y255500D01*
G01X136063Y247858D02*
X136063Y263478D01*
X144500Y271915D01*
X144500Y277890D01*
X149860Y283250D01*
X155250Y283250D01*
X156750Y281750D01*
X159475Y281750D01*
X160500Y282775D01*
X160500Y284500D01*
X158250Y286750D01*
X158250Y288725D01*
X159275Y289750D01*
X159975Y289750D01*
X163000Y292775D01*
X163000Y302461D01*
X166900Y306361D01*
G01X140563Y250937D02*
X139250Y252250D01*
X139250Y265250D01*
X145500Y271500D01*
X145500Y277475D01*
X148025Y280000D01*
X152500Y280000D01*
X154000Y281500D01*
G01X165000Y260500D02*
X165000Y245323D01*
X160164Y240487D01*
X151613Y240487D01*
X150063Y238937D01*
G01X172500Y266000D02*
X169600Y263100D01*
X169600Y248650D01*
X159850Y238900D01*
X154400Y238900D01*
G01X152800Y260749D02*
X152800Y247034D01*
X153103Y246731D01*
X153103Y246697D01*
X154200Y245600D01*
G01X142000Y260500D02*
X144525Y260500D01*
X145945Y261920D01*
X148310Y261920D01*
X162500Y276110D01*
X162500Y281555D01*
X167195Y286250D01*
X175140Y286250D01*
X175390Y286500D01*
X178915Y286500D01*
X181775Y289360D01*
X187899Y289360D01*
X194750Y282509D01*
X194750Y280775D01*
X199775Y275750D01*
X209250Y275750D01*
X210500Y277000D01*
X227000Y277000D01*
X231250Y281250D01*
X260250Y281250D01*
X262500Y279000D01*
X282525Y279000D01*
X284000Y277525D01*
X284000Y271500D01*
X282000Y269500D01*
G01X136500Y295500D02*
X140500Y295500D01*
G01X140420Y299420D02*
X143420Y299420D01*
X143500Y299500D01*
X146000Y299500D01*
G01X137000Y282500D02*
X137068Y282432D01*
X139262Y282432D01*
X140500Y283670D01*
G01X227500Y301500D02*
X225500Y303500D01*
X172236Y303500D01*
X167625Y308111D01*
X161636Y308111D01*
X160025Y306500D01*
X146000Y306500D01*
X144000Y308500D01*
G01X140000Y327550D02*
X140000Y331500D01*
G01X150500Y331500D02*
X150500Y328050D01*
X150000Y327550D01*
G01X145000Y327550D02*
X145000Y331500D01*
G01X154500Y331500D02*
X154500Y328050D01*
X155000Y327550D01*
G01X154500Y336000D02*
X154500Y331500D01*
G01X148520Y401980D02*
X151495Y401980D01*
X162000Y391475D01*
X162000Y386000D01*
G01X137000Y396500D02*
X137000Y400500D01*
G01X144500Y424000D02*
X144500Y420500D01*
G01X198117Y480000D02*
X198117Y483100D01*
X197197Y483100D01*
X196890Y482945D01*
X196660Y482583D01*
X196583Y482170D01*
X196660Y481757D01*
X196852Y481447D01*
X197197Y481292D01*
X198117Y481292D01*
G01X193407Y482842D02*
X193637Y482997D01*
X193905Y483100D01*
X194212Y483100D01*
X194557Y482945D01*
X194825Y482687D01*
X195017Y482377D01*
X195170Y481860D01*
X195208Y481395D01*
X195132Y480930D01*
X195017Y480620D01*
X194787Y480310D01*
X194518Y480103D01*
X194250Y480000D01*
X193982Y480000D01*
X193713Y480103D01*
X193483Y480258D01*
X193292Y480465D01*
G01X190843Y481653D02*
X190690Y481808D01*
X190575Y482067D01*
X190498Y482428D01*
X190575Y482738D01*
X190728Y482945D01*
X190997Y483100D01*
X192032Y483100D01*
X192032Y480000D01*
X190767Y480000D01*
X190498Y480207D01*
X190345Y480517D01*
X190268Y480878D01*
X190345Y481240D01*
X190575Y481550D01*
X190843Y481653D01*
X192032Y481653D01*
G01X184490Y480000D02*
X184490Y483100D01*
X185908Y480878D01*
X183992Y480878D01*
G01X181850Y480000D02*
X181850Y483100D01*
X182310Y482480D01*
G01X182310Y480000D02*
X181390Y480000D01*
G01X179402Y480362D02*
X179133Y480103D01*
X178827Y480000D01*
X178520Y480103D01*
X178252Y480413D01*
X178060Y480878D01*
X177983Y481343D01*
X177983Y481912D01*
X178060Y482377D01*
X178252Y482790D01*
X178482Y482997D01*
X178750Y483100D01*
X179057Y482997D01*
X179287Y482790D01*
X179440Y482480D01*
X179517Y482067D01*
X179440Y481705D01*
X179248Y481343D01*
X179018Y481137D01*
X178750Y481085D01*
X178443Y481188D01*
X178213Y481447D01*
X177983Y481912D01*
G01X175727Y480000D02*
X175650Y480672D01*
X175535Y481240D01*
X175382Y481757D01*
X175190Y482325D01*
X174883Y483100D01*
X176417Y483100D01*
G01X173278Y482583D02*
X173048Y482893D01*
X172780Y483048D01*
X172473Y483100D01*
X172090Y482997D01*
X171822Y482738D01*
X171745Y482428D01*
X171783Y482118D01*
X171937Y481860D01*
X172703Y481343D01*
X173048Y480982D01*
X173278Y480465D01*
X173355Y480000D01*
X171745Y480000D01*
G01X169450Y480000D02*
X169182Y480052D01*
X168875Y480207D01*
X168683Y480465D01*
X168607Y480827D01*
X168683Y481188D01*
X168913Y481498D01*
X169258Y481653D01*
X169642Y481653D01*
X169872Y481757D01*
X170063Y482015D01*
X170140Y482377D01*
X170025Y482738D01*
X169757Y482997D01*
X169450Y483100D01*
X169143Y482997D01*
X168875Y482738D01*
X168760Y482377D01*
X168837Y482015D01*
X169028Y481757D01*
X169258Y481653D01*
X169642Y481653D01*
X169987Y481498D01*
X170217Y481188D01*
X170293Y480827D01*
X170217Y480465D01*
X170025Y480207D01*
X169718Y480052D01*
X169450Y480000D01*
G01X166350Y480000D02*
X166350Y483100D01*
X166810Y482480D01*
G01X166810Y480000D02*
X165890Y480000D01*
G01X160917Y480000D02*
X160917Y483100D01*
X159958Y483100D01*
X159652Y482945D01*
X159460Y482738D01*
X159383Y482325D01*
X159460Y481912D01*
X159690Y481653D01*
X159958Y481498D01*
X160917Y481498D01*
G01X159958Y481498D02*
X159383Y480000D01*
G01X156283Y480000D02*
X157817Y480000D01*
X157817Y483100D01*
X156283Y483100D01*
G01X156897Y481602D02*
X157817Y481602D01*
G01X154908Y483100D02*
X153950Y480000D01*
X152992Y483100D01*
G01X146983Y480000D02*
X148517Y480000D01*
X148517Y483100D01*
X146983Y483100D01*
G01X147597Y481602D02*
X148517Y481602D01*
G01X158400Y6400D02*
X159060Y7060D01*
G01X159060Y7060D02*
X159060Y16000D01*
G01X157490Y58000D02*
X161000Y54490D01*
X161000Y49893D01*
X169643Y41250D01*
X251250Y41250D01*
X255000Y37500D01*
X275500Y37500D01*
X280750Y42750D01*
X358840Y42750D01*
X360340Y44250D01*
G01X173240Y50130D02*
X169000Y54370D01*
X169000Y61500D01*
X166500Y64000D01*
X166500Y67000D01*
G01X255500Y66500D02*
X253750Y66500D01*
X253000Y65750D01*
X245360Y65750D01*
X239250Y71860D01*
X239250Y79725D01*
X237475Y81500D01*
X237195Y81500D01*
X211750Y106945D01*
X211750Y128225D01*
X197475Y142500D01*
X162500Y142500D01*
G01X222500Y126000D02*
X218000Y126000D01*
X198500Y145500D01*
X171500Y145500D01*
X167000Y150000D01*
X165000Y150000D01*
G01X170500Y155000D02*
X185913Y155000D01*
X186163Y155250D01*
X202725Y155250D01*
X209500Y148475D01*
X209500Y136525D01*
X218025Y128000D01*
X222975Y128000D01*
X224250Y126725D01*
X224250Y114750D01*
X217750Y108250D01*
X217750Y103775D01*
X235025Y86500D01*
X235305Y86500D01*
X242000Y79805D01*
X242000Y78975D01*
X249500Y71475D01*
X249500Y68500D01*
G01X159000Y158000D02*
X162750Y161750D01*
X162750Y168678D01*
X163775Y169703D01*
X166297Y169703D01*
X176750Y159250D01*
X194225Y159250D01*
X205975Y171000D01*
X212000Y171000D01*
X212500Y171500D01*
X217415Y171500D01*
X222000Y176085D01*
X222000Y178551D01*
X233829Y190380D01*
X235080Y190380D01*
G01X164500Y167953D02*
X164500Y162406D01*
X169906Y157000D01*
X227500Y157000D01*
X229151Y158651D01*
X229250Y158651D01*
G01X162000Y185000D02*
X162000Y186790D01*
X161290Y187500D01*
X161290Y189020D01*
G01X165293Y190596D02*
X165000Y190596D01*
X164096Y191500D01*
X164000Y191500D01*
X163990Y191510D01*
X161290Y191510D01*
G01X164500Y198000D02*
X164500Y196500D01*
X163980Y195980D01*
X161290Y195980D01*
G01X164500Y193490D02*
X161290Y193490D01*
G01X170750Y213000D02*
X182000Y224250D01*
X195750Y224250D01*
X198800Y221200D01*
X202400Y221200D01*
G01X194666Y248259D02*
X194666Y246509D01*
X195000Y246175D01*
X195000Y243975D01*
X189625Y238600D01*
X180025Y238600D01*
X164250Y222825D01*
X164250Y212275D01*
X163225Y211250D01*
X160750Y211250D01*
X159000Y213000D01*
G01X175500Y224000D02*
X178600Y227100D01*
X191400Y227100D01*
X192100Y227800D01*
X204300Y227800D01*
X205600Y226500D01*
X208500Y226500D01*
X211000Y229000D01*
G01X160800Y223597D02*
X161582Y223597D01*
X177585Y239600D01*
X185575Y239600D01*
X191500Y245525D01*
X191500Y248900D01*
X193700Y251100D01*
G01X169000Y270000D02*
X169000Y267000D01*
X168500Y266500D01*
G01X173000Y270000D02*
X173000Y266500D01*
X172500Y266000D01*
G01X181999Y267500D02*
X175250Y274249D01*
X175250Y278225D01*
X173625Y279850D01*
X172992Y279850D01*
X170400Y282442D01*
G01X166000Y294500D02*
X167750Y296250D01*
X172725Y296250D01*
X173275Y295700D01*
X174725Y295700D01*
X180725Y301700D01*
X224500Y301700D01*
X226450Y299750D01*
X230295Y299750D01*
X235250Y304705D01*
X235250Y305225D01*
X236787Y306762D01*
X248262Y306762D01*
X249500Y308000D01*
G01X160000Y288000D02*
X160860Y288000D01*
X165110Y292250D01*
X170750Y292250D01*
X173000Y294500D01*
X175300Y294500D01*
X178000Y297200D01*
X178000Y297244D01*
X180256Y299500D01*
X180300Y299500D01*
X181050Y300250D01*
X223165Y300250D01*
X224665Y298750D01*
X231750Y298750D01*
X235000Y302000D01*
X246500Y302000D01*
G01X205000Y296500D02*
X200500Y292000D01*
X190500Y292000D01*
X189000Y290500D01*
X181500Y290500D01*
X178500Y287500D01*
X174975Y287500D01*
X174725Y287250D01*
X173275Y287250D01*
X171525Y289000D01*
X170500Y289000D01*
G01X184500Y363500D02*
X182500Y361500D01*
X167000Y361500D01*
X162000Y356500D01*
X162000Y337000D01*
X165500Y333500D01*
X176000Y333500D01*
X185000Y324500D01*
X185000Y315500D01*
X186000Y314500D01*
X212050Y314500D01*
X214800Y311750D01*
G01X165000Y341500D02*
X165000Y340000D01*
X167000Y338000D01*
G01X203250Y324500D02*
X190975Y336775D01*
X190975Y338500D01*
X184475Y345000D01*
X167525Y345000D01*
X165750Y346775D01*
X165750Y354240D01*
X170510Y359000D01*
G01X227500Y344000D02*
X225500Y344000D01*
X218750Y337250D01*
X213275Y337250D01*
X208750Y341775D01*
X208750Y342079D01*
X202095Y348734D01*
X177064Y348734D01*
X175830Y347500D01*
X167500Y347500D01*
G01X214750Y339000D02*
X214750Y356250D01*
X213000Y358000D01*
X213000Y364470D01*
X208740Y368730D01*
X208275Y368730D01*
X202755Y374250D01*
X195275Y374250D01*
X194663Y373638D01*
X183862Y373638D01*
X182250Y375250D01*
X166750Y375250D01*
X165500Y374000D01*
G01X207000Y352000D02*
X207000Y357975D01*
X195975Y369000D01*
X187500Y369000D01*
X184001Y372499D01*
X183586Y372499D01*
X182585Y373500D01*
X169500Y373500D01*
G01X197000Y23500D02*
X193500Y23500D01*
G01X190000Y23500D02*
X193500Y23500D01*
G01X195000Y12000D02*
X200000Y12000D01*
G01X190000Y19500D02*
X190000Y16000D01*
G01X181110Y50130D02*
X187390Y43850D01*
X266370Y43850D01*
X270970Y39250D01*
G01X188980Y58000D02*
X193230Y53750D01*
X193230Y49000D01*
X197230Y45000D01*
X330901Y45000D01*
G01X191000Y81000D02*
X191000Y77880D01*
X190120Y77000D01*
G01X205147Y211251D02*
X203885Y209989D01*
X190514Y209989D01*
X182250Y201725D01*
X182250Y195750D01*
X185550Y192450D01*
X185550Y164950D01*
X189500Y161000D01*
G01X197000Y170000D02*
X199000Y172000D01*
X205975Y172000D01*
X208000Y174025D01*
X208000Y180475D01*
X209275Y181750D01*
X210725Y181750D01*
X210975Y181500D01*
X220500Y181500D01*
G01X178470Y173040D02*
X180210Y173040D01*
X180750Y172500D01*
X180750Y170250D01*
X182500Y168500D01*
G01X182500Y173500D02*
X182000Y174000D01*
X181760Y174000D01*
X180740Y175020D01*
X178470Y175020D01*
G01X177524Y167477D02*
X177524Y167524D01*
X178470Y168470D01*
X178470Y170700D01*
G01X182500Y176500D02*
X182000Y176500D01*
X181490Y177010D01*
X178470Y177010D01*
G01X178470Y178990D02*
X181490Y178990D01*
X182500Y180000D01*
G01X181750Y188500D02*
X181750Y184730D01*
X179980Y182960D01*
X178470Y182960D01*
G01X178470Y185300D02*
X178470Y192000D01*
G01X178470Y180980D02*
X180500Y180980D01*
X182500Y182980D01*
X182500Y183000D01*
G01X238230Y240770D02*
X235324Y240770D01*
X233294Y242800D01*
X222550Y242800D01*
X216100Y249250D01*
X212150Y249250D01*
X205700Y242800D01*
X201600Y242800D01*
X194200Y235400D01*
X179300Y235400D01*
G01X182000Y279000D02*
X184000Y279000D01*
X185500Y277500D01*
X185500Y275500D01*
G01X182000Y282500D02*
X183762Y280738D01*
X184762Y280738D01*
X186000Y279500D01*
G01X313000Y310500D02*
X313750Y309750D01*
X313750Y299305D01*
X312445Y298000D01*
X293000Y298000D01*
X288750Y293750D01*
X268750Y293750D01*
X267250Y292250D01*
X237614Y292250D01*
X232114Y297750D01*
X224250Y297750D01*
X222750Y299250D01*
X197050Y299250D01*
X194800Y297000D01*
G01X181500Y296500D02*
X185420Y296500D01*
X185490Y296430D01*
G01X181500Y292500D02*
X185500Y292500D01*
G01X195000Y287500D02*
X193500Y289000D01*
X192000Y289000D01*
G01X204770Y312350D02*
X202000Y312350D01*
X200250Y310600D01*
X187900Y310600D01*
X180961Y317539D01*
X180961Y322000D01*
G01X192500Y324500D02*
X192500Y319500D01*
X194500Y317500D01*
X209000Y317500D01*
X212000Y320500D01*
X212000Y328500D01*
X218000Y334500D01*
X233000Y334500D01*
X236309Y331191D01*
X236309Y328351D01*
X234722Y326764D01*
X234722Y325314D01*
X237500Y322536D01*
X237500Y319500D01*
X241500Y315500D01*
X246500Y315500D01*
X253500Y308500D01*
X253500Y304000D01*
G01X187500Y335500D02*
X188000Y336000D01*
X188000Y337500D01*
X187700Y337800D01*
X187700Y339300D01*
G01X198000Y319500D02*
X198138Y319638D01*
X198138Y323262D01*
X196900Y324500D01*
G01X186500Y359000D02*
X192000Y359000D01*
X194500Y361500D01*
G01X194500Y361500D02*
X194500Y362500D01*
X192300Y364700D01*
G01X212000Y354500D02*
X212000Y364055D01*
X208325Y367730D01*
X207860Y367730D01*
X205590Y370000D01*
X194000Y370000D01*
X192500Y371500D01*
X188000Y371500D01*
G01X193500Y398000D02*
X194500Y399000D01*
X194500Y402000D01*
G01X197000Y16000D02*
X197000Y19500D01*
G01X200000Y12000D02*
X200000Y16000D01*
G01X204730Y50130D02*
X208500Y53900D01*
X208500Y65500D01*
X212762Y69762D01*
X212762Y73262D01*
X214000Y74500D01*
G01X212610Y50130D02*
X217000Y54520D01*
X217000Y77500D01*
G01X219530Y141520D02*
X218020Y141520D01*
X217500Y141000D01*
X217500Y131000D01*
G01X219530Y145490D02*
X217780Y145490D01*
X217770Y145500D01*
X214500Y145500D01*
G01X214500Y141500D02*
X216510Y143510D01*
X219530Y143510D01*
G01X219530Y151800D02*
X215000Y151800D01*
G01X211000Y168012D02*
X213564Y168012D01*
X213936Y168384D01*
X215936Y168384D01*
G01X241380Y202980D02*
X238480Y202980D01*
X237000Y201500D01*
X237000Y193000D01*
X236000Y192000D01*
X232000Y192000D01*
X227500Y187500D01*
X227500Y185500D01*
X225500Y183500D01*
X225085Y183500D01*
X221000Y179415D01*
X221000Y176500D01*
X219000Y174500D01*
X218000Y174500D01*
X216000Y172500D01*
X211000Y172500D01*
X210500Y173000D01*
G01X205502Y159481D02*
X203750Y161233D01*
X203750Y166725D01*
X207025Y170000D01*
X213000Y170000D01*
X213384Y170384D01*
X216765Y170384D01*
X216886Y170263D01*
X230763Y170263D01*
X236000Y175500D01*
X238975Y175500D01*
X240250Y176775D01*
X240250Y178225D01*
X239930Y178545D01*
X239930Y190981D01*
X241380Y192431D01*
X241380Y193530D01*
G01X247680Y184080D02*
X247680Y182790D01*
X225640Y160750D01*
X215250Y160750D01*
X210000Y166000D01*
X205500Y166000D01*
G01X212500Y178000D02*
X212262Y177762D01*
X210238Y177762D01*
X210000Y178000D01*
G01X210000Y178000D02*
X212500Y178000D01*
G01X210000Y178000D02*
X210000Y180000D01*
G01X214000Y232500D02*
X211000Y232500D01*
G01X211000Y237500D02*
X212500Y237500D01*
X214000Y236000D01*
G01X211000Y229000D02*
X214000Y229000D01*
G01X207500Y238500D02*
X207000Y238000D01*
X204700Y238000D01*
X204000Y238700D01*
X204000Y239000D01*
G01X215000Y247500D02*
X220750Y241750D01*
X233001Y241750D01*
X233850Y240901D01*
X233850Y240377D01*
X235127Y239100D01*
X251600Y239100D01*
X252900Y240400D01*
X252900Y251500D01*
X254200Y252800D01*
X256100Y252800D01*
X257800Y251100D01*
X257800Y246400D01*
X260280Y243920D01*
G01X216646Y259816D02*
X216650Y259820D01*
X216320Y259820D01*
X214500Y258000D01*
G01X212500Y279500D02*
X210750Y279500D01*
X210012Y280238D01*
X200238Y280238D01*
X199000Y279000D01*
G01X260280Y247070D02*
X259183Y248167D01*
X259183Y248853D01*
X259025Y249011D01*
X259025Y251575D01*
X256500Y254100D01*
X248415Y254100D01*
X247940Y253625D01*
X237810Y253625D01*
X237687Y253600D01*
X233485Y253600D01*
X230085Y257000D01*
X224000Y257000D01*
X223000Y258000D01*
X223000Y263525D01*
X223250Y263775D01*
X223250Y265225D01*
X222225Y266250D01*
X214750Y266250D01*
X214500Y266000D01*
X203750Y266000D01*
X202750Y265000D01*
X201000Y265000D01*
G01X260575Y249654D02*
X260575Y251440D01*
X256915Y255100D01*
X233400Y255100D01*
X230300Y258200D01*
X228375Y258200D01*
X227250Y259325D01*
X227250Y262640D01*
X215140Y274750D01*
X212750Y274750D01*
X210000Y272000D01*
X201000Y272000D01*
G01X219000Y286500D02*
X216500Y284000D01*
X216500Y283500D01*
G01X199000Y287500D02*
X199000Y283630D01*
X198870Y283500D01*
G01X201500Y332500D02*
X205000Y329000D01*
X205000Y322500D01*
X202000Y319500D01*
G01X208500Y325000D02*
X208500Y333500D01*
X209500Y334500D01*
X214000Y334500D01*
X215750Y336250D01*
X236250Y336250D01*
X240000Y340000D01*
X240000Y343000D01*
X244050Y347050D01*
X246000Y347050D01*
G01X198500Y361500D02*
X201000Y361500D01*
X204000Y358500D01*
G01X202500Y342000D02*
X202500Y345500D01*
G01X209000Y370480D02*
X211480Y370480D01*
X212000Y371000D01*
X214000Y371000D01*
G01X223500Y81000D02*
X223500Y63000D01*
X224500Y62000D01*
X224500Y53980D01*
X228350Y50130D01*
G01X244100Y50130D02*
X240500Y53730D01*
X240500Y61500D01*
X237500Y64500D01*
X237500Y79000D01*
G01X259480Y105870D02*
X258870Y105870D01*
X257420Y104420D01*
X228080Y104420D01*
X226250Y106250D01*
X221250Y106250D01*
X219500Y104500D01*
G01X256330Y102720D02*
X224780Y102720D01*
X223000Y104500D01*
G01X262630Y109020D02*
X262630Y118370D01*
X257500Y123500D01*
X240000Y123500D01*
X234500Y129000D01*
X234500Y140500D01*
X235520Y141520D01*
X236530Y141520D01*
G01X236530Y143510D02*
X234510Y143510D01*
X233500Y142500D01*
X233500Y128500D01*
X239500Y122500D01*
X255500Y122500D01*
X260950Y117050D01*
X260950Y110490D01*
X259480Y109020D01*
G01X259500Y115000D02*
X253000Y121500D01*
X239085Y121500D01*
X232500Y128085D01*
X232500Y144500D01*
X233490Y145490D01*
X236530Y145490D01*
G01X219530Y137200D02*
X219530Y134000D01*
G01X222500Y131000D02*
X222500Y132750D01*
X222000Y133250D01*
X222000Y135390D01*
X222500Y135890D01*
X222500Y138500D01*
X221460Y139540D01*
X219530Y139540D01*
G01X225470Y137200D02*
X225470Y134970D01*
X224500Y134000D01*
G01X229500Y135000D02*
X229500Y137260D01*
X227220Y139540D01*
X225470Y139540D01*
G01X264200Y115000D02*
X264200Y120300D01*
X259500Y125000D01*
X242000Y125000D01*
X238500Y128500D01*
X238500Y146500D01*
X237520Y147480D01*
X236530Y147480D01*
G01X278370Y112170D02*
X265790Y124750D01*
X265775Y124750D01*
X263025Y127500D01*
X247844Y127500D01*
X239500Y135844D01*
X239500Y148240D01*
X238280Y149460D01*
X236530Y149460D01*
G01X236530Y151800D02*
X239200Y151800D01*
X240500Y150500D01*
X240500Y136259D01*
X248259Y128500D01*
X266975Y128500D01*
X275500Y119975D01*
X275500Y118190D01*
X281520Y112170D01*
G01X219530Y147480D02*
X222480Y147480D01*
G01X219530Y149460D02*
X221500Y149460D01*
X222500Y150460D01*
X222500Y151500D01*
G01X229500Y155000D02*
X227500Y153000D01*
X227500Y150000D01*
X226960Y149460D01*
X225470Y149460D01*
G01X225470Y151800D02*
X225470Y155000D01*
G01X229500Y151500D02*
X229500Y149813D01*
X227167Y147480D01*
X225470Y147480D01*
G01X225470Y143510D02*
X227790Y143510D01*
X227800Y143500D01*
X229550Y143500D01*
G01X225470Y141520D02*
X227980Y141520D01*
X229500Y140000D01*
G01X225470Y145490D02*
X227652Y145490D01*
X229549Y147387D01*
G01X235900Y160500D02*
X235900Y157650D01*
X236500Y157050D01*
G01X218764Y165556D02*
X218764Y165236D01*
X221500Y162500D01*
G01X226200Y211058D02*
X226200Y209308D01*
X226250Y209258D01*
X226250Y199253D01*
X227112Y198391D01*
X229680Y198391D01*
X230587Y197484D01*
X230587Y194912D01*
X230833Y194666D01*
X230833Y194627D01*
X231930Y193530D01*
G01X241380Y199830D02*
X241330Y199830D01*
X238500Y197000D01*
X238500Y189500D01*
X237680Y188680D01*
X237629Y188680D01*
X236500Y187551D01*
X236500Y182500D01*
X238500Y180500D01*
X238500Y177500D01*
G01X247680Y218720D02*
X246130Y220270D01*
X240730Y220270D01*
X239830Y219370D01*
X239830Y218070D01*
X236110Y214350D01*
X231329Y214350D01*
X230480Y215199D01*
X230480Y216020D01*
X228500Y218000D01*
G01X247680Y212430D02*
X246230Y210980D01*
X231329Y210980D01*
X230480Y211829D01*
X230480Y212020D01*
X228500Y214000D01*
G01X244530Y237620D02*
X243730Y236820D01*
X243556Y236820D01*
X242906Y236170D01*
X229737Y236170D01*
X228350Y237557D01*
X228350Y237650D01*
X226500Y239500D01*
G01X224500Y222000D02*
X221000Y222000D01*
G01X228500Y222000D02*
X228650Y222000D01*
X231930Y218720D01*
X231930Y218400D01*
G01X235080Y228170D02*
X234280Y228970D01*
X234106Y228970D01*
X233326Y229750D01*
X231250Y229750D01*
X230000Y231000D01*
X230000Y231700D01*
X227482Y234218D01*
X227465Y234218D01*
X226227Y235456D01*
G01X218000Y236000D02*
X219415Y237415D01*
X226743Y237415D01*
X228959Y235199D01*
X229001Y235199D01*
X231180Y233020D01*
X232680Y233020D01*
X233630Y232070D01*
X233630Y230719D01*
X234479Y229870D01*
X242170Y229870D01*
X243020Y230720D01*
X243020Y232786D01*
X243980Y233746D01*
X243980Y233920D01*
X244530Y234470D01*
G01X247680Y225020D02*
X246130Y226570D01*
X231280Y226570D01*
X230710Y226000D01*
X221000Y226000D01*
X220000Y227000D01*
X220000Y229829D01*
X218500Y231329D01*
X218500Y232000D01*
X218000Y232500D01*
G01X247680Y221870D02*
X246130Y223420D01*
X230580Y223420D01*
X230000Y224000D01*
X219500Y224000D01*
X218000Y225500D01*
X218000Y229000D01*
G01X255300Y243600D02*
X255300Y241600D01*
X255430Y241470D01*
X255430Y237019D01*
X254331Y235920D01*
X243929Y235920D01*
X243080Y235071D01*
X243080Y234119D01*
X241861Y232900D01*
X234500Y232900D01*
X232930Y234470D01*
X231930Y234470D01*
G01X222500Y239500D02*
X219000Y239500D01*
G01X234000Y267000D02*
X234000Y271500D01*
G01X219474Y262644D02*
X219470Y262640D01*
X219640Y262640D01*
X221500Y264500D01*
G01X234000Y263000D02*
X231950Y263000D01*
X229000Y260050D01*
G01X223000Y286500D02*
X223000Y284950D01*
X224450Y283500D01*
G01X236750Y295900D02*
X238650Y294000D01*
X246760Y294000D01*
X249500Y296740D01*
X249500Y304500D01*
X251250Y306250D01*
X251250Y308725D01*
X250225Y309750D01*
X247750Y309750D01*
X246750Y308750D01*
X234565Y308750D01*
X232500Y310815D01*
X232500Y317000D01*
X231250Y318250D01*
X231250Y328750D01*
X232500Y330000D01*
X232500Y332500D01*
G01X222500Y292000D02*
X228000Y292000D01*
G01X228000Y292000D02*
X228238Y292238D01*
X228238Y294762D01*
X227000Y296000D01*
G01X226500Y361500D02*
X226500Y358000D01*
G01X226500Y358000D02*
X232500Y352000D01*
X246000Y352000D01*
X248000Y350000D01*
X248000Y345000D01*
X244000Y341000D01*
X244000Y333500D01*
X240410Y329910D01*
X240410Y321090D01*
X245000Y316500D01*
X246915Y316500D01*
X257915Y305500D01*
X274025Y305500D01*
X274775Y306250D01*
X276225Y306250D01*
X276975Y305500D01*
X295025Y305500D01*
X295775Y306250D01*
X297250Y306250D01*
X299000Y304500D01*
X299000Y303500D01*
X297500Y302000D01*
X287468Y302000D01*
X284984Y299516D01*
G01X230000Y361500D02*
X230000Y358000D01*
G01X230000Y361500D02*
X236500Y361500D01*
X238500Y363500D01*
G01X223000Y361500D02*
X223000Y358000D01*
G01X227500Y372000D02*
X231500Y372000D01*
G01X220000Y372000D02*
X223500Y372000D01*
G01X253400Y462300D02*
X256950Y462300D01*
X257250Y462000D01*
X262000Y462000D01*
X274000Y450000D01*
X274000Y387500D01*
X272000Y385500D01*
X272000Y381000D01*
X271500Y380500D01*
X251500Y380500D01*
X246500Y375500D01*
X231500Y375500D01*
G01X227500Y375500D02*
X231500Y375500D01*
G01X220000Y375500D02*
X223500Y375500D01*
G01X293700Y18751D02*
X291950Y18751D01*
X290351Y20350D01*
X254650Y20350D01*
X249650Y25350D01*
X249650Y29575D01*
G01X251980Y50130D02*
X255760Y46350D01*
X315970Y46350D01*
X319220Y49600D01*
X319220Y59070D01*
X322720Y62570D01*
X354070Y62570D01*
X355000Y63500D01*
G01X247680Y190380D02*
X250060Y188000D01*
X252111Y188000D01*
X255430Y184681D01*
X255430Y183430D01*
X254780Y182780D01*
X254780Y179720D01*
X256200Y178300D01*
X256200Y170200D01*
X254750Y168750D01*
X254750Y149250D01*
X252000Y146500D01*
X252000Y139000D01*
X247000Y134000D01*
G01X258490Y142490D02*
X258490Y142510D01*
X256500Y144500D01*
X256500Y159500D01*
X256000Y160000D01*
X256000Y168585D01*
X257200Y169785D01*
X257200Y178715D01*
X255680Y180235D01*
X255680Y181531D01*
X256649Y182500D01*
X257601Y182500D01*
X258580Y183479D01*
X258580Y184681D01*
X256261Y187000D01*
X255309Y187000D01*
X252280Y190029D01*
X252280Y190981D01*
X251431Y191830D01*
X250479Y191830D01*
X249130Y193179D01*
X249130Y195230D01*
X247680Y196680D01*
G01X242470Y143510D02*
X245490Y143510D01*
X246500Y142500D01*
G01X244530Y193530D02*
X244530Y193470D01*
X246000Y192000D01*
X246000Y189500D01*
X249000Y186500D01*
X251500Y186500D01*
X252500Y185500D01*
X252500Y181000D01*
X248750Y177250D01*
X248750Y171250D01*
X253750Y166250D01*
X253750Y154946D01*
X253700Y154896D01*
X253700Y149700D01*
X252275Y148275D01*
X252250Y148275D01*
X251225Y147250D01*
X251150Y147250D01*
X249000Y145100D01*
X249000Y141500D01*
X247880Y140380D01*
X245880Y140380D01*
X244740Y141520D01*
X242470Y141520D01*
G01X242470Y145490D02*
X246990Y145490D01*
X250500Y149000D01*
G01X242470Y147480D02*
X244980Y147480D01*
X246500Y149000D01*
G01X245977Y153204D02*
X244739Y151966D01*
X244739Y149979D01*
X244220Y149460D01*
X242470Y149460D01*
G01X242470Y151800D02*
X242470Y153277D01*
X241168Y154579D01*
G01X250830Y196680D02*
X252500Y195010D01*
X252500Y192959D01*
X253459Y192000D01*
X254411Y192000D01*
X255500Y190911D01*
X255500Y189959D01*
X257459Y188000D01*
X258411Y188000D01*
X261730Y184681D01*
X261730Y183479D01*
X260751Y182500D01*
X259799Y182500D01*
X258580Y181281D01*
X258580Y170885D01*
X258250Y170555D01*
X258250Y169420D01*
X257000Y168170D01*
X257000Y161085D01*
X260500Y157585D01*
X260500Y144500D01*
X262500Y142500D01*
G01X266000Y142500D02*
X261500Y147000D01*
X261500Y158000D01*
X258000Y161500D01*
X258000Y167755D01*
X259250Y169005D01*
X259250Y170140D01*
X260500Y171390D01*
X260500Y178500D01*
X264880Y182880D01*
X264880Y184681D01*
X260631Y188930D01*
X259679Y188930D01*
X258580Y190029D01*
X258580Y194131D01*
X257731Y194980D01*
X255680Y194980D01*
X253980Y196680D01*
G01X239900Y160500D02*
X239900Y158080D01*
X240480Y157500D01*
G01X245500Y171500D02*
X245500Y169750D01*
X246400Y168850D01*
X246400Y165704D01*
X246000Y165304D01*
X246000Y162064D01*
X243900Y160500D01*
G01X250000Y164000D02*
X247500Y166500D01*
X247500Y178000D01*
X249380Y179880D01*
X249380Y184620D01*
X248000Y186000D01*
X245500Y186000D01*
X243080Y188420D01*
X243080Y197281D01*
X243929Y198130D01*
X255870Y198130D01*
X257130Y196870D01*
X257130Y196680D01*
G01X255300Y247600D02*
X255300Y251050D01*
G01X250600Y247600D02*
X250600Y251050D01*
G01X241363Y240787D02*
X247787Y240787D01*
X250600Y243600D01*
G01X321850Y324500D02*
X319849Y326501D01*
X278501Y326501D01*
X270500Y318500D01*
X246500Y318500D01*
X242750Y322250D01*
X242750Y325500D01*
G01X253500Y304000D02*
X273250Y304000D01*
X273750Y304500D01*
X275500Y304500D01*
G01X253000Y359500D02*
X253000Y347000D01*
X247000Y341000D01*
X247000Y331000D01*
X251000Y327000D01*
X259594Y327000D01*
X263500Y323094D01*
X263500Y322594D01*
X265453Y320641D01*
G01X259850Y50130D02*
X263720Y54000D01*
X285000Y54000D01*
X286720Y55720D01*
X286720Y59347D01*
X286500Y59567D01*
X286500Y64000D01*
X289500Y67000D01*
X289500Y115500D01*
X290500Y116500D01*
X290500Y122500D01*
X288400Y124600D01*
X288400Y135480D01*
G01X275600Y58000D02*
X282000Y64400D01*
X282000Y88500D01*
X286574Y93074D01*
X286574Y114401D01*
X271182Y129793D01*
X268732Y129793D01*
X267250Y131275D01*
X267250Y133538D01*
X269500Y135788D01*
X269500Y136415D01*
X270500Y137415D01*
X270500Y139575D01*
X271675Y140750D01*
X274225Y140750D01*
X276250Y142775D01*
X276250Y150775D01*
X262840Y164185D01*
X262515Y164185D01*
X261100Y165600D01*
G01X278370Y112170D02*
X268830Y112170D01*
X267000Y114000D01*
G01X267000Y109000D02*
X268500Y110500D01*
X279850Y110500D01*
X281520Y112170D01*
G01X327000Y104000D02*
X323770Y104000D01*
X289540Y138230D01*
X287260Y138230D01*
X282280Y133250D01*
X271775Y133250D01*
X270750Y134275D01*
X270750Y135725D01*
X272025Y137000D01*
X272875Y137000D01*
X277250Y141375D01*
X277250Y156750D01*
X268532Y165468D01*
X268532Y170443D01*
X268000Y170975D01*
X268000Y173500D01*
G01X314250Y149500D02*
X301625Y136875D01*
X293455Y136875D01*
X291100Y139230D01*
X286845Y139230D01*
X285845Y138230D01*
X282230Y138230D01*
X279500Y135500D01*
X273000Y135500D01*
X272500Y135000D01*
G01X269000Y132000D02*
X282445Y132000D01*
X287675Y137230D01*
X289125Y137230D01*
X324105Y102250D01*
X327750Y102250D01*
X330500Y105000D01*
X346500Y105000D01*
G01X263430Y196680D02*
X261980Y195230D01*
X261980Y189779D01*
X265780Y185979D01*
X265780Y182280D01*
X261980Y178480D01*
X261980Y171455D01*
X260250Y169725D01*
X260250Y168500D01*
X259100Y167350D01*
X259100Y161900D01*
X267752Y153248D01*
X267752Y136515D01*
G01X270500Y142500D02*
X271500Y143500D01*
X274500Y143500D01*
G01X264000Y173500D02*
X264000Y171000D01*
X264500Y170500D01*
X266000Y170500D01*
X266500Y170000D01*
G01X280250Y146500D02*
X281750Y148000D01*
X287975Y148000D01*
X299250Y159275D01*
X299250Y160725D01*
X291975Y168000D01*
X284025Y168000D01*
X278500Y173525D01*
X278500Y179000D01*
X277720Y179780D01*
X277720Y185850D01*
X280870Y189000D01*
X280870Y198380D01*
X282320Y199830D01*
G01X261100Y165600D02*
X261100Y167100D01*
X262500Y168500D01*
G01X265100Y165600D02*
X265500Y165200D01*
X265500Y164500D01*
X266782Y163218D01*
G01X279500Y165500D02*
X277171Y165500D01*
X270000Y172671D01*
X270000Y178329D01*
X269720Y178609D01*
X269720Y184080D01*
G01X279500Y161500D02*
X275500Y161500D01*
X270500Y166500D01*
G01X272500Y173500D02*
X276000Y173500D01*
G01X276000Y173500D02*
X276000Y177500D01*
G01X272500Y177500D02*
X274470Y179470D01*
X274470Y185680D01*
X279170Y190380D01*
G01X264000Y177500D02*
X267000Y180500D01*
X267000Y186810D01*
X263430Y190380D01*
G01X268000Y177500D02*
X268000Y188660D01*
X269720Y190380D01*
G01X274000Y258000D02*
X266500Y250500D01*
X266500Y240690D01*
X263430Y237620D01*
G01X278000Y258000D02*
X268170Y248170D01*
X268170Y239170D01*
X269720Y237620D01*
G01X272870Y237620D02*
X271420Y239070D01*
X271420Y247671D01*
X272369Y248620D01*
X272620Y248620D01*
X282000Y258000D01*
G01X276020Y237620D02*
X274570Y239070D01*
X274570Y247671D01*
X283899Y257000D01*
X285000Y257000D01*
X286000Y258000D01*
G01X269000Y262000D02*
X270415Y260585D01*
X270415Y257015D01*
X262050Y248650D01*
X262050Y248357D01*
X261980Y248287D01*
X261980Y242480D01*
X260280Y240780D01*
X260280Y237620D01*
G01X276020Y247070D02*
X282000Y253050D01*
X282000Y253329D01*
X284671Y256000D01*
X288000Y256000D01*
X290000Y258000D01*
G01X268600Y258050D02*
X267362Y259288D01*
X267362Y259638D01*
X265000Y262000D01*
G01X274000Y262000D02*
X274000Y265500D01*
G01X274000Y269500D02*
X274000Y265500D01*
G01X278000Y262000D02*
X278000Y265500D01*
G01X278000Y269500D02*
X278000Y265500D01*
G01X275500Y304500D02*
X296500Y304500D01*
G01X299220Y58000D02*
X306470Y65250D01*
X364825Y65250D01*
X371985Y72410D01*
X395300Y72410D01*
G01X295500Y138625D02*
X295500Y140970D01*
X299250Y144720D01*
X299250Y144725D01*
X300275Y145750D01*
X300280Y145750D01*
X302250Y147720D01*
X302250Y159750D01*
X302750Y160250D01*
X302750Y162000D01*
G01X283490Y142500D02*
X289750Y142500D01*
X290250Y143000D01*
X292000Y143000D01*
G01X282320Y196680D02*
X283770Y195230D01*
X283770Y192731D01*
X284501Y192000D01*
X286000Y192000D01*
X287000Y191000D01*
X287000Y183500D01*
X288000Y182500D01*
X291500Y182500D01*
X294500Y179500D01*
X294500Y173500D01*
X301000Y167000D01*
X301000Y150000D01*
X297250Y146250D01*
X283750Y146250D01*
G01X292000Y171500D02*
X296000Y167500D01*
X296500Y167500D01*
G01X288500Y171500D02*
X286000Y171500D01*
X284500Y170000D01*
G01X292000Y175500D02*
X292000Y178500D01*
X291020Y179480D01*
X284869Y179480D01*
X284020Y180329D01*
X284020Y190731D01*
X282320Y192431D01*
X282320Y193530D01*
G01X282320Y190380D02*
X282500Y190200D01*
X282500Y188000D01*
X280870Y186370D01*
X280870Y180329D01*
X282689Y178510D01*
X282739Y178500D01*
X284000Y178500D01*
X284500Y178000D01*
X288000Y178000D01*
X288500Y177500D01*
X288500Y175500D01*
G01X284500Y165500D02*
X279500Y165500D01*
G01X284500Y161500D02*
X296000Y161500D01*
X297500Y160000D01*
G01X309000Y188000D02*
X308500Y187500D01*
X301759Y187500D01*
X299520Y189739D01*
X299520Y198480D01*
X298170Y199830D01*
X298070Y199830D01*
G01X299200Y185500D02*
X295551Y185500D01*
X295521Y185530D01*
X290070Y185530D01*
X288620Y184080D01*
G01X291700Y194300D02*
X292027Y194627D01*
X293823Y194627D01*
X294920Y193530D01*
G01X305500Y207000D02*
X299500Y207000D01*
X299000Y207500D01*
X298950Y207500D01*
X298720Y207730D01*
X283870Y207730D01*
X282320Y209280D01*
G01X408500Y84650D02*
X404650Y88500D01*
X381525Y88500D01*
X358025Y112000D01*
X344025Y112000D01*
X321500Y134525D01*
X321500Y159800D01*
X315700Y165600D01*
X315700Y170800D01*
X310750Y175750D01*
X310750Y191475D01*
X299245Y202980D01*
X298070Y202980D01*
G01X285470Y221870D02*
X285470Y221530D01*
X286830Y220170D01*
X295521Y220170D01*
X295691Y220000D01*
X299690Y220000D01*
X300784Y221094D01*
X304906Y221094D01*
X308000Y218000D01*
G01X294920Y225020D02*
X293470Y226470D01*
X293470Y241438D01*
X294252Y242220D01*
X300658Y242220D01*
X301228Y241650D01*
G01X282320Y237620D02*
X283770Y239070D01*
X283770Y244271D01*
X285119Y245620D01*
X289221Y245620D01*
X293860Y250259D01*
X293860Y250538D01*
X307436Y264114D01*
X314971Y264114D01*
X319585Y259500D01*
X353301Y259500D01*
X358901Y265100D01*
G01X311100Y253750D02*
X309862Y254988D01*
X299725Y254988D01*
X294860Y250123D01*
X294860Y249061D01*
X290320Y244521D01*
X290320Y243569D01*
X286920Y240169D01*
X286920Y236000D01*
X285470Y234550D01*
X285470Y234470D01*
G01X282320Y243920D02*
X280870Y242470D01*
X280870Y224352D01*
X281652Y223570D01*
X295588Y223570D01*
X296370Y224352D01*
X296370Y238107D01*
X297933Y239670D01*
X302047Y239670D01*
X303250Y240873D01*
X305000Y240873D01*
G01X309250Y272500D02*
X302750Y266000D01*
X302750Y261765D01*
X289505Y248520D01*
X286920Y248520D01*
X285470Y247070D01*
G01X282000Y262000D02*
X282000Y265500D01*
G01X282000Y269500D02*
X282000Y265500D01*
G01X297500Y265000D02*
X297500Y275975D01*
X300025Y278500D01*
X308000Y278500D01*
G01X293500Y289000D02*
X287000Y282500D01*
X287000Y270000D01*
X286000Y269000D01*
X286000Y262000D01*
G01X290000Y262000D02*
X290000Y265500D01*
G01X295000Y295000D02*
X300500Y289500D01*
X303500Y289500D01*
X309500Y283500D01*
X316000Y283500D01*
G01X308000Y288500D02*
X316000Y296500D01*
X316000Y307900D01*
X320105Y312005D01*
X324350Y312005D01*
X327200Y314855D01*
X327200Y321625D01*
X309075Y339750D01*
X284250Y339750D01*
X283500Y339000D01*
G01X288500Y395000D02*
X288500Y397500D01*
X288580Y397580D01*
X288580Y398500D01*
G01X285000Y395000D02*
X285000Y398330D01*
X284830Y398500D01*
G01X280500Y395000D02*
X280500Y397920D01*
X281080Y398500D01*
G01X281000Y406500D02*
X284500Y406500D01*
G01X292500Y406500D02*
X289000Y406500D01*
G01X305470Y41000D02*
X372340Y41000D01*
X372590Y40750D01*
X374340Y40750D01*
G01X307000Y85500D02*
X315000Y85500D01*
X317500Y88000D01*
X346500Y88000D01*
X350000Y91500D01*
G01X307000Y82000D02*
X310525Y82000D01*
X314525Y78000D01*
X338975Y78000D01*
X351750Y90775D01*
X351750Y93250D01*
X349500Y95500D01*
G01X343000Y109000D02*
X323500Y109000D01*
X314250Y118250D01*
G01X308000Y126000D02*
X308000Y139500D01*
X316000Y147500D01*
X316000Y150225D01*
X314225Y152000D01*
X308775Y152000D01*
X305750Y155025D01*
X305750Y170750D01*
X309000Y174000D01*
X309000Y188000D01*
G01X308750Y154500D02*
X316751Y154500D01*
X319751Y151500D01*
X319751Y130258D01*
X323259Y126750D01*
G01X312944Y168474D02*
X312940Y168470D01*
X312940Y168560D01*
X310500Y171000D01*
G01X310116Y165646D02*
X310120Y165650D01*
X310120Y165620D01*
X307500Y163000D01*
G01X322500Y169000D02*
X316100Y175400D01*
X316100Y177900D01*
X312000Y182000D01*
X312000Y193500D01*
X305500Y200000D01*
X305500Y203000D01*
G01X308000Y218000D02*
X308000Y214500D01*
G01X311000Y216600D02*
X309600Y218000D01*
X308000Y218000D01*
G01X316500Y233500D02*
X313000Y233500D01*
G01X316500Y237000D02*
X316500Y233500D01*
G01X313000Y227500D02*
X314500Y226000D01*
X316500Y226000D01*
G01X316500Y229500D02*
X316500Y226000D01*
G01X310909Y250000D02*
X315109Y254200D01*
X318535Y254200D01*
X322085Y257750D01*
X355250Y257750D01*
X363850Y266350D01*
X381375Y266350D01*
X381775Y266750D01*
X383225Y266750D01*
X383625Y266350D01*
X386350Y266350D01*
X392100Y260600D01*
X392100Y170891D01*
X383350Y162141D01*
X383141Y162141D01*
X381500Y160500D01*
X381500Y156500D01*
G01X313854Y259286D02*
X313850Y259290D01*
X313850Y259150D01*
X316500Y256500D01*
G01X311026Y262114D02*
X311030Y262110D01*
X310610Y262110D01*
X308500Y260000D01*
G01X343000Y269900D02*
X343000Y265000D01*
X339500Y261500D01*
X323000Y261500D01*
X321500Y263000D01*
X321500Y268500D01*
X316500Y273500D01*
G01X400630Y281500D02*
X389630Y270500D01*
X356500Y270500D01*
X346500Y260500D01*
X322585Y260500D01*
X316000Y267085D01*
X316000Y268225D01*
X307725Y276500D01*
X300500Y276500D01*
G01X332500Y16000D02*
X332500Y18000D01*
X333000Y18500D01*
X333000Y19500D01*
G01X335500Y12000D02*
X335500Y16000D01*
G01X330500Y12000D02*
X335500Y12000D01*
G01X333000Y23500D02*
X329000Y23500D01*
G01X325500Y23500D02*
X329000Y23500D01*
G01X325500Y19500D02*
X325500Y16000D01*
G01X322840Y50130D02*
X326960Y54250D01*
X406370Y54250D01*
X413870Y61750D01*
X413870Y124770D01*
X410370Y128270D01*
X378750Y128270D01*
X374750Y132270D01*
X374750Y161800D01*
X375200Y162250D01*
X375200Y213700D01*
X386000Y224500D01*
X386000Y241025D01*
X385750Y241275D01*
X385750Y242725D01*
X386000Y242975D01*
X386000Y247700D01*
X384250Y249450D01*
X365750Y249450D01*
X364250Y250950D01*
X364250Y255750D01*
X362000Y258000D01*
G01X352000Y109000D02*
X349750Y106750D01*
X345775Y106750D01*
X345525Y106500D01*
X325000Y106500D01*
G01X351000Y160000D02*
X345000Y154000D01*
X332000Y154000D01*
X326250Y148250D01*
X326250Y148000D01*
G01X342000Y164750D02*
X326250Y164750D01*
G01X358000Y7940D02*
X358000Y16000D01*
G01X359039Y6901D02*
X358000Y7940D01*
G01X408500Y68910D02*
X403870Y64280D01*
X369280Y64280D01*
X367500Y62500D01*
X358840Y62500D01*
X354340Y58000D01*
G01X400630Y76780D02*
X366780Y76780D01*
X361000Y71000D01*
X348500Y71000D01*
G01X350750Y129500D02*
X352750Y131500D01*
X352750Y179975D01*
X342500Y190225D01*
X342500Y204900D01*
G01X377000Y116500D02*
X345250Y116500D01*
X344250Y117500D01*
X342500Y117500D01*
G01X364500Y225750D02*
X362250Y228000D01*
X350500Y228000D01*
X342761Y235739D01*
X342761Y254483D01*
G01X400630Y226390D02*
X404000Y229760D01*
X404000Y290630D01*
X401750Y292880D01*
X384500Y292880D01*
X383380Y294000D01*
X376000Y294000D01*
X369900Y287900D01*
X346650Y287900D01*
X343250Y284500D01*
G01X342000Y303500D02*
X341500Y303000D01*
X341500Y292025D01*
X343275Y290250D01*
X370550Y290250D01*
X380800Y300500D01*
X401977Y300500D01*
X405120Y297357D01*
X405120Y253390D01*
X408500Y250010D01*
G01X381000Y95500D02*
X377000Y95500D01*
G01X381000Y106000D02*
X377000Y106000D01*
G01X381000Y113000D02*
X377000Y113000D01*
G01X381000Y99000D02*
X377000Y99000D01*
G01X381000Y102500D02*
X377000Y102500D01*
G01X381000Y109500D02*
X377000Y109500D01*
G01X366000Y251950D02*
X369050Y255000D01*
X383350Y255000D01*
X390500Y247850D01*
X390500Y173591D01*
X375750Y158841D01*
X375750Y133750D01*
X377500Y132000D01*
G01X381500Y132000D02*
X377500Y132000D01*
G01X381000Y116500D02*
X377000Y116500D01*
G01X381000Y120000D02*
X377000Y120000D01*
G01X381500Y153000D02*
X377500Y153000D01*
G01X381500Y146000D02*
X377500Y146000D01*
G01X381500Y149500D02*
X377500Y149500D01*
G01X381500Y139000D02*
X377500Y139000D01*
G01X381500Y142500D02*
X377500Y142500D01*
G01X381500Y135500D02*
X377500Y135500D01*
G01X381500Y156500D02*
X377500Y156500D01*
G01X381000Y173000D02*
X377000Y173000D01*
G01X381000Y190500D02*
X377000Y190500D01*
G01X381000Y187000D02*
X377000Y187000D01*
G01X381000Y180000D02*
X377000Y180000D01*
G01X381000Y176500D02*
X377000Y176500D01*
G01X381000Y194000D02*
X377000Y194000D01*
G01X381000Y183500D02*
X377000Y183500D01*
G01X381000Y197500D02*
X377000Y197500D01*
G01X408500Y226390D02*
X411870Y229760D01*
X411870Y306630D01*
X409067Y309433D01*
X376500Y309433D01*
G01X387000Y7000D02*
X385560Y8440D01*
G01X385560Y8440D02*
X385560Y16000D01*
G01X391500Y267500D02*
X391500Y262950D01*
X393350Y261100D01*
X393350Y173714D01*
X397000Y170064D01*
X397000Y167714D01*
G01X408500Y210640D02*
X414370Y216510D01*
X414370Y313250D01*
X401120Y326500D01*
X398952Y326500D01*
X395952Y329500D01*
G01X421500Y418500D02*
X417500Y418500D01*
G01X421000Y428500D02*
X417000Y428500D01*
G01X421500Y438500D02*
X417500Y438500D01*
G01X428000Y408500D02*
X428000Y403700D01*
G01X15150Y-132500D02*
X15150Y-145000D01*
G01X11585Y-132500D02*
X18715Y-132500D01*
G01X23520Y-145000D02*
X23520Y-132500D01*
X27550Y-142917D01*
X31580Y-132500D01*
X31580Y-145000D01*
G01X36695Y-143334D02*
X37935Y-144375D01*
X39330Y-145000D01*
X40570Y-145000D01*
X41810Y-144375D01*
X42740Y-143334D01*
X43205Y-141875D01*
X42895Y-140417D01*
X42120Y-139167D01*
X40725Y-138333D01*
X38865Y-137917D01*
X37780Y-137083D01*
X37315Y-135625D01*
X37625Y-134167D01*
X38400Y-133125D01*
X39485Y-132500D01*
X40570Y-132500D01*
X41655Y-132917D01*
X42585Y-133958D01*
G01X61340Y-143125D02*
X62270Y-144167D01*
X63355Y-144792D01*
X64750Y-145000D01*
X66145Y-144583D01*
X67230Y-143750D01*
X68005Y-142292D01*
X68160Y-140625D01*
X67850Y-138958D01*
X67075Y-137917D01*
X65990Y-137083D01*
X64905Y-136875D01*
X63820Y-137083D01*
X62425Y-137917D01*
X62890Y-132500D01*
X67075Y-132500D01*
G01X76840Y-145000D02*
X77150Y-142292D01*
X77615Y-140000D01*
X78235Y-137917D01*
X79010Y-135625D01*
X80250Y-132500D01*
X74050Y-132500D01*
G01X89550Y-132500D02*
X88310Y-132917D01*
X87380Y-133958D01*
X86760Y-135208D01*
X86295Y-136875D01*
X86140Y-138750D01*
X86295Y-140625D01*
X86760Y-142292D01*
X87380Y-143542D01*
X88310Y-144583D01*
X89550Y-145000D01*
X90790Y-144583D01*
X91720Y-143542D01*
X92340Y-142292D01*
X92805Y-140625D01*
X92960Y-138750D01*
X92805Y-136875D01*
X92340Y-135208D01*
X91720Y-133958D01*
X90790Y-132917D01*
X89550Y-132500D01*
G01X98850Y-132500D02*
X98850Y-145000D01*
X105050Y-145000D01*
G01X111095Y-143334D02*
X112335Y-144375D01*
X113730Y-145000D01*
X114970Y-145000D01*
X116210Y-144375D01*
X117140Y-143334D01*
X117605Y-141875D01*
X117295Y-140417D01*
X116520Y-139167D01*
X115125Y-138333D01*
X113265Y-137917D01*
X112180Y-137083D01*
X111715Y-135625D01*
X112025Y-134167D01*
X112800Y-133125D01*
X113885Y-132500D01*
X114970Y-132500D01*
X116055Y-132917D01*
X116985Y-133958D01*
G01X123340Y-142500D02*
X124270Y-143959D01*
X125510Y-144792D01*
X126905Y-145000D01*
X128145Y-144792D01*
X129385Y-143750D01*
X130160Y-142500D01*
X130315Y-141250D01*
X130005Y-139792D01*
X128920Y-138750D01*
X127835Y-138333D01*
X126440Y-138333D01*
G01X127835Y-138333D02*
X128765Y-137708D01*
X129540Y-136667D01*
X129850Y-135417D01*
X129540Y-134167D01*
X128765Y-133125D01*
X127370Y-132500D01*
X125975Y-132708D01*
X124580Y-133542D01*
G01X136825Y-136667D02*
X141475Y-145000D01*
G01X141475Y-136667D02*
X136825Y-145000D01*
G01X148760Y-145417D02*
X154340Y-132500D01*
G01X160850Y-145000D02*
X160850Y-132500D01*
X164725Y-132500D01*
X165965Y-133125D01*
X166740Y-133958D01*
X167050Y-135625D01*
X166740Y-137292D01*
X165810Y-138333D01*
X164725Y-138958D01*
X160850Y-138958D01*
G01X164725Y-138958D02*
X167050Y-145000D01*
G01X172320Y-145000D02*
X172320Y-132500D01*
X176350Y-142917D01*
X180380Y-132500D01*
X180380Y-145000D01*
G01X185340Y-143125D02*
X186270Y-144167D01*
X187355Y-144792D01*
X188750Y-145000D01*
X190145Y-144583D01*
X191230Y-143750D01*
X192005Y-142292D01*
X192160Y-140625D01*
X191850Y-138958D01*
X191075Y-137917D01*
X189990Y-137083D01*
X188905Y-136875D01*
X187820Y-137083D01*
X186425Y-137917D01*
X186890Y-132500D01*
X191075Y-132500D01*
G01X198825Y-136667D02*
X203475Y-145000D01*
G01X203475Y-136667D02*
X198825Y-145000D01*
G01X229360Y-133542D02*
X228430Y-132917D01*
X227345Y-132500D01*
X226105Y-132500D01*
X224710Y-133125D01*
X223625Y-134167D01*
X222850Y-135417D01*
X222230Y-137500D01*
X222075Y-139375D01*
X222385Y-141250D01*
X222850Y-142500D01*
X223780Y-143750D01*
X224865Y-144583D01*
X225950Y-145000D01*
X227035Y-145000D01*
X228120Y-144583D01*
X229050Y-143959D01*
X229825Y-143125D01*
G01X235250Y-145000D02*
X235250Y-132500D01*
X238970Y-132500D01*
X240210Y-133125D01*
X241140Y-134583D01*
X241450Y-136250D01*
X241140Y-137917D01*
X240365Y-139167D01*
X238970Y-139792D01*
X235250Y-139792D01*
G01X247340Y-132500D02*
X247340Y-141458D01*
X247960Y-143334D01*
X249200Y-144583D01*
X250750Y-145000D01*
X252300Y-144583D01*
X253540Y-143334D01*
X254160Y-141458D01*
X254160Y-132500D01*
G01X278960Y-133542D02*
X278030Y-132917D01*
X276945Y-132500D01*
X275705Y-132500D01*
X274310Y-133125D01*
X273225Y-134167D01*
X272450Y-135417D01*
X271830Y-137500D01*
X271675Y-139375D01*
X271985Y-141250D01*
X272450Y-142500D01*
X273380Y-143750D01*
X274465Y-144583D01*
X275550Y-145000D01*
X276635Y-145000D01*
X277720Y-144583D01*
X278650Y-143959D01*
X279425Y-143125D01*
G01X284075Y-145000D02*
X287950Y-132500D01*
X291825Y-145000D01*
G01X290430Y-140625D02*
X285470Y-140625D01*
G01X297250Y-145000D02*
X297250Y-132500D01*
X301125Y-132500D01*
X302365Y-133125D01*
X303140Y-133958D01*
X303450Y-135625D01*
X303140Y-137292D01*
X302210Y-138333D01*
X301125Y-138958D01*
X297250Y-138958D01*
G01X301125Y-138958D02*
X303450Y-145000D01*
G01X309340Y-145000D02*
X309340Y-132500D01*
X312440Y-132500D01*
X313680Y-133125D01*
X314610Y-133958D01*
X315385Y-135208D01*
X316005Y-136667D01*
X316160Y-138750D01*
X316005Y-140833D01*
X315385Y-142292D01*
X314610Y-143542D01*
X313680Y-144375D01*
X312440Y-145000D01*
X309340Y-145000D01*
G01X334450Y-145000D02*
X334450Y-132500D01*
X338325Y-132500D01*
X339565Y-133125D01*
X340340Y-133958D01*
X340650Y-135625D01*
X340340Y-137292D01*
X339410Y-138333D01*
X338325Y-138958D01*
X334450Y-138958D01*
G01X338325Y-138958D02*
X340650Y-145000D01*
G01X353050Y-145000D02*
X346850Y-145000D01*
X346850Y-132500D01*
X353050Y-132500D01*
G01X350570Y-138542D02*
X346850Y-138542D01*
G01X358475Y-132500D02*
X362350Y-145000D01*
X366225Y-132500D01*
G01X390250Y-145000D02*
X384050Y-145000D01*
X384050Y-132500D01*
X390250Y-132500D01*
G01X387770Y-138542D02*
X384050Y-138542D01*
G01X411950Y-132500D02*
X410710Y-132917D01*
X409780Y-133958D01*
X409160Y-135208D01*
X408695Y-136875D01*
X408540Y-138750D01*
X408695Y-140625D01*
X409160Y-142292D01*
X409780Y-143542D01*
X410710Y-144583D01*
X411950Y-145000D01*
X413190Y-144583D01*
X414120Y-143542D01*
X414740Y-142292D01*
X415205Y-140625D01*
X415360Y-138750D01*
X415205Y-136875D01*
X414740Y-135208D01*
X414120Y-133958D01*
X413190Y-132917D01*
X411950Y-132500D01*
G01X424350Y-145000D02*
X424350Y-132500D01*
X422490Y-135000D01*
G01X422490Y-145000D02*
X426210Y-145000D01*
G01X433960Y-145417D02*
X439540Y-132500D01*
G01X446205Y-134583D02*
X447135Y-133334D01*
X448220Y-132708D01*
X449460Y-132500D01*
X451010Y-132917D01*
X452095Y-133958D01*
X452405Y-135208D01*
X452250Y-136459D01*
X451630Y-137500D01*
X448530Y-139583D01*
X447135Y-141042D01*
X446205Y-143125D01*
X445895Y-145000D01*
X452405Y-145000D01*
G01X461550Y-132500D02*
X460310Y-132917D01*
X459380Y-133958D01*
X458760Y-135208D01*
X458295Y-136875D01*
X458140Y-138750D01*
X458295Y-140625D01*
X458760Y-142292D01*
X459380Y-143542D01*
X460310Y-144583D01*
X461550Y-145000D01*
X462790Y-144583D01*
X463720Y-143542D01*
X464340Y-142292D01*
X464805Y-140625D01*
X464960Y-138750D01*
X464805Y-136875D01*
X464340Y-135208D01*
X463720Y-133958D01*
X462790Y-132917D01*
X461550Y-132500D01*
G01X471160Y-145417D02*
X476740Y-132500D01*
G01X483405Y-134583D02*
X484335Y-133334D01*
X485420Y-132708D01*
X486660Y-132500D01*
X488210Y-132917D01*
X489295Y-133958D01*
X489605Y-135208D01*
X489450Y-136459D01*
X488830Y-137500D01*
X485730Y-139583D01*
X484335Y-141042D01*
X483405Y-143125D01*
X483095Y-145000D01*
X489605Y-145000D01*
G01X498750Y-132500D02*
X497510Y-132917D01*
X496580Y-133958D01*
X495960Y-135208D01*
X495495Y-136875D01*
X495340Y-138750D01*
X495495Y-140625D01*
X495960Y-142292D01*
X496580Y-143542D01*
X497510Y-144583D01*
X498750Y-145000D01*
X499990Y-144583D01*
X500920Y-143542D01*
X501540Y-142292D01*
X502005Y-140625D01*
X502160Y-138750D01*
X502005Y-136875D01*
X501540Y-135208D01*
X500920Y-133958D01*
X499990Y-132917D01*
X498750Y-132500D01*
G01X511150Y-145000D02*
X511150Y-132500D01*
X509290Y-135000D01*
G01X509290Y-145000D02*
X513010Y-145000D01*
G01X520605Y-134583D02*
X521535Y-133334D01*
X522620Y-132708D01*
X523860Y-132500D01*
X525410Y-132917D01*
X526495Y-133958D01*
X526805Y-135208D01*
X526650Y-136459D01*
X526030Y-137500D01*
X522930Y-139583D01*
X521535Y-141042D01*
X520605Y-143125D01*
X520295Y-145000D01*
X526805Y-145000D01*
G01X14650Y-111500D02*
X14650Y-124000D01*
G01X11085Y-111500D02*
X18215Y-111500D01*
G01X24725Y-118375D02*
X29685Y-118375D01*
X29220Y-116917D01*
X28445Y-116083D01*
X27360Y-115667D01*
X26275Y-115875D01*
X25345Y-116500D01*
X24725Y-117958D01*
X24415Y-119209D01*
X24415Y-120458D01*
X24725Y-121708D01*
X25500Y-122959D01*
X26430Y-123792D01*
X27515Y-124000D01*
X28600Y-123583D01*
X29685Y-122334D01*
G01X37125Y-115667D02*
X41775Y-124000D01*
G01X41775Y-115667D02*
X37125Y-124000D01*
G01X54640Y-124000D02*
X54640Y-115667D01*
G01X54640Y-117125D02*
X54020Y-116292D01*
X53090Y-115875D01*
X52005Y-115667D01*
X50920Y-116083D01*
X49990Y-116917D01*
X49370Y-118167D01*
X49060Y-119833D01*
X49370Y-121500D01*
X49990Y-122750D01*
X50920Y-123583D01*
X52005Y-124000D01*
X53090Y-123792D01*
X54020Y-123167D01*
X54640Y-122334D01*
G01X61925Y-122542D02*
X62700Y-123375D01*
X63785Y-124000D01*
X64715Y-124000D01*
X65645Y-123583D01*
X66265Y-122959D01*
X66575Y-122125D01*
X66420Y-120875D01*
X65800Y-120250D01*
X63010Y-119000D01*
X62390Y-117542D01*
X62700Y-116500D01*
X63320Y-115875D01*
X64250Y-115667D01*
X65180Y-115875D01*
X66110Y-116500D01*
G01X87190Y-111500D02*
X90910Y-111500D01*
G01X89050Y-111500D02*
X89050Y-124000D01*
G01X87190Y-124000D02*
X90910Y-124000D01*
G01X98815Y-124000D02*
X98815Y-115667D01*
G01X98815Y-117750D02*
X99435Y-116708D01*
X100365Y-115875D01*
X101605Y-115667D01*
X102690Y-115875D01*
X103620Y-116708D01*
X104085Y-118167D01*
X104085Y-124000D01*
G01X111525Y-122542D02*
X112300Y-123375D01*
X113385Y-124000D01*
X114315Y-124000D01*
X115245Y-123583D01*
X115865Y-122959D01*
X116175Y-122125D01*
X116020Y-120875D01*
X115400Y-120250D01*
X112610Y-119000D01*
X111990Y-117542D01*
X112300Y-116500D01*
X112920Y-115875D01*
X113850Y-115667D01*
X114780Y-115875D01*
X115710Y-116500D01*
G01X126250Y-111500D02*
X126250Y-124000D01*
G01X124080Y-115667D02*
X128420Y-115667D01*
G01X136480Y-124000D02*
X136480Y-115667D01*
G01X136480Y-117333D02*
X137255Y-116500D01*
X138030Y-115875D01*
X139115Y-115667D01*
X139890Y-115875D01*
X140820Y-116500D01*
G01X148415Y-115667D02*
X148415Y-121500D01*
X149035Y-122959D01*
X149965Y-123792D01*
X151050Y-124000D01*
X152135Y-123792D01*
X153065Y-122959D01*
X153685Y-121500D01*
G01X153685Y-124000D02*
X153685Y-115667D01*
G01X158800Y-124000D02*
X158800Y-115667D01*
G01X158800Y-117958D02*
X159265Y-116917D01*
X160040Y-116083D01*
X161125Y-115667D01*
X162210Y-116083D01*
X162985Y-116917D01*
X163450Y-117958D01*
X163450Y-124000D01*
G01X163450Y-117958D02*
X163915Y-116917D01*
X164690Y-116083D01*
X165775Y-115667D01*
X166860Y-116083D01*
X167635Y-116917D01*
X168100Y-118167D01*
X168100Y-124000D01*
G01X173525Y-118375D02*
X178485Y-118375D01*
X178020Y-116917D01*
X177245Y-116083D01*
X176160Y-115667D01*
X175075Y-115875D01*
X174145Y-116500D01*
X173525Y-117958D01*
X173215Y-119209D01*
X173215Y-120458D01*
X173525Y-121708D01*
X174300Y-122959D01*
X175230Y-123792D01*
X176315Y-124000D01*
X177400Y-123583D01*
X178485Y-122334D01*
G01X185615Y-124000D02*
X185615Y-115667D01*
G01X185615Y-117750D02*
X186235Y-116708D01*
X187165Y-115875D01*
X188405Y-115667D01*
X189490Y-115875D01*
X190420Y-116708D01*
X190885Y-118167D01*
X190885Y-124000D01*
G01X200650Y-111500D02*
X200650Y-124000D01*
G01X198480Y-115667D02*
X202820Y-115667D01*
G01X210725Y-122542D02*
X211500Y-123375D01*
X212585Y-124000D01*
X213515Y-124000D01*
X214445Y-123583D01*
X215065Y-122959D01*
X215375Y-122125D01*
X215220Y-120875D01*
X214600Y-120250D01*
X211810Y-119000D01*
X211190Y-117542D01*
X211500Y-116500D01*
X212120Y-115875D01*
X213050Y-115667D01*
X213980Y-115875D01*
X214910Y-116500D01*
G01X235990Y-111500D02*
X239710Y-111500D01*
G01X237850Y-111500D02*
X237850Y-124000D01*
G01X235990Y-124000D02*
X239710Y-124000D01*
G01X247615Y-124000D02*
X247615Y-115667D01*
G01X247615Y-117750D02*
X248235Y-116708D01*
X249165Y-115875D01*
X250405Y-115667D01*
X251490Y-115875D01*
X252420Y-116708D01*
X252885Y-118167D01*
X252885Y-124000D01*
G01X265130Y-116708D02*
X264045Y-115875D01*
X263115Y-115667D01*
X261875Y-116083D01*
X260945Y-116917D01*
X260325Y-118375D01*
X260170Y-119833D01*
X260325Y-121292D01*
X260945Y-122542D01*
X261875Y-123583D01*
X263115Y-124000D01*
X264200Y-123583D01*
X265130Y-122750D01*
G01X275050Y-124417D02*
X274740Y-124208D01*
X274740Y-123792D01*
X275050Y-123583D01*
X275360Y-123792D01*
X275360Y-124208D01*
X275050Y-124417D01*
G01X0Y0D02*
X0Y492120D01*
X433070Y492120D01*
X433070Y0D01*
X0Y0D01*
G01X13395Y-188334D02*
X14635Y-189375D01*
X16030Y-190000D01*
X17270Y-190000D01*
X18510Y-189375D01*
X19440Y-188334D01*
X19905Y-186875D01*
X19595Y-185417D01*
X18820Y-184167D01*
X17425Y-183333D01*
X15565Y-182917D01*
X14480Y-182083D01*
X14015Y-180625D01*
X14325Y-179167D01*
X15100Y-178125D01*
X16185Y-177500D01*
X17270Y-177500D01*
X18355Y-177917D01*
X19285Y-178958D01*
G01X25795Y-190000D02*
X25795Y-177500D01*
G01X32305Y-177500D02*
X32305Y-190000D01*
G01X32305Y-183750D02*
X25795Y-183750D01*
G01X44550Y-190000D02*
X38350Y-190000D01*
X38350Y-177500D01*
X44550Y-177500D01*
G01X42070Y-183542D02*
X38350Y-183542D01*
G01X56950Y-190000D02*
X50750Y-190000D01*
X50750Y-177500D01*
X56950Y-177500D01*
G01X54470Y-183542D02*
X50750Y-183542D01*
G01X66250Y-177500D02*
X66250Y-190000D01*
G01X62685Y-177500D02*
X69815Y-177500D01*
G01X91050Y-190000D02*
X92135Y-189792D01*
X93375Y-189167D01*
X94150Y-188125D01*
X94460Y-186667D01*
X94150Y-185209D01*
X93220Y-183958D01*
X91825Y-183333D01*
X90275Y-183333D01*
X89345Y-182917D01*
X88570Y-181875D01*
X88260Y-180417D01*
X88725Y-178958D01*
X89810Y-177917D01*
X91050Y-177500D01*
X92290Y-177917D01*
X93375Y-178958D01*
X93840Y-180417D01*
X93530Y-181875D01*
X92755Y-182917D01*
X91825Y-183333D01*
X90275Y-183333D01*
X88880Y-183958D01*
X87950Y-185209D01*
X87640Y-186667D01*
X87950Y-188125D01*
X88725Y-189167D01*
X89965Y-189792D01*
X91050Y-190000D01*
G01X115850Y-190000D02*
X114610Y-189792D01*
X113525Y-188959D01*
X112595Y-187708D01*
X111975Y-186250D01*
X111665Y-184583D01*
X111665Y-182917D01*
X111975Y-181250D01*
X112595Y-179792D01*
X113525Y-178542D01*
X114610Y-177708D01*
X115850Y-177500D01*
X117090Y-177708D01*
X118175Y-178542D01*
X119105Y-179792D01*
X119725Y-181250D01*
X120035Y-182917D01*
X120035Y-184583D01*
X119725Y-186250D01*
X119105Y-187708D01*
X118175Y-188959D01*
X117090Y-189792D01*
X115850Y-190000D01*
G01X125305Y-190000D02*
X125305Y-177500D01*
X131195Y-177500D01*
G01X129025Y-183542D02*
X125305Y-183542D01*
G01X153050Y-190000D02*
X153050Y-177500D01*
X151190Y-180000D01*
G01X151190Y-190000D02*
X154910Y-190000D01*
G01X167310Y-190000D02*
X167310Y-177500D01*
X161575Y-186458D01*
X169325Y-186458D01*
G01X14550Y-154000D02*
X14550Y-166500D01*
X20750Y-166500D01*
G01X26175Y-166500D02*
X30050Y-154000D01*
X33925Y-166500D01*
G01X32530Y-162125D02*
X27570Y-162125D01*
G01X42450Y-166500D02*
X42450Y-160875D01*
X39350Y-154000D01*
G01X45550Y-154000D02*
X42450Y-160875D01*
G01X57950Y-166500D02*
X51750Y-166500D01*
X51750Y-154000D01*
X57950Y-154000D01*
G01X55470Y-160042D02*
X51750Y-160042D01*
G01X64150Y-166500D02*
X64150Y-154000D01*
X68025Y-154000D01*
X69265Y-154625D01*
X70040Y-155458D01*
X70350Y-157125D01*
X70040Y-158792D01*
X69110Y-159833D01*
X68025Y-160458D01*
X64150Y-160458D01*
G01X68025Y-160458D02*
X70350Y-166500D01*
G01X92050Y-166500D02*
X93135Y-166292D01*
X94375Y-165667D01*
X95150Y-164625D01*
X95460Y-163167D01*
X95150Y-161709D01*
X94220Y-160458D01*
X92825Y-159833D01*
X91275Y-159833D01*
X90345Y-159417D01*
X89570Y-158375D01*
X89260Y-156917D01*
X89725Y-155458D01*
X90810Y-154417D01*
X92050Y-154000D01*
X93290Y-154417D01*
X94375Y-155458D01*
X94840Y-156917D01*
X94530Y-158375D01*
X93755Y-159417D01*
X92825Y-159833D01*
X91275Y-159833D01*
X89880Y-160458D01*
X88950Y-161709D01*
X88640Y-163167D01*
X88950Y-164625D01*
X89725Y-165667D01*
X90965Y-166292D01*
X92050Y-166500D01*
G01X116850Y-166500D02*
X115610Y-166292D01*
X114525Y-165459D01*
X113595Y-164208D01*
X112975Y-162750D01*
X112665Y-161083D01*
X112665Y-159417D01*
X112975Y-157750D01*
X113595Y-156292D01*
X114525Y-155042D01*
X115610Y-154208D01*
X116850Y-154000D01*
X118090Y-154208D01*
X119175Y-155042D01*
X120105Y-156292D01*
X120725Y-157750D01*
X121035Y-159417D01*
X121035Y-161083D01*
X120725Y-162750D01*
X120105Y-164208D01*
X119175Y-165459D01*
X118090Y-166292D01*
X116850Y-166500D01*
G01X126305Y-166500D02*
X126305Y-154000D01*
X132195Y-154000D01*
G01X130025Y-160042D02*
X126305Y-160042D01*
G01X154050Y-166500D02*
X155135Y-166292D01*
X156375Y-165667D01*
X157150Y-164625D01*
X157460Y-163167D01*
X157150Y-161709D01*
X156220Y-160458D01*
X154825Y-159833D01*
X153275Y-159833D01*
X152345Y-159417D01*
X151570Y-158375D01*
X151260Y-156917D01*
X151725Y-155458D01*
X152810Y-154417D01*
X154050Y-154000D01*
X155290Y-154417D01*
X156375Y-155458D01*
X156840Y-156917D01*
X156530Y-158375D01*
X155755Y-159417D01*
X154825Y-159833D01*
X153275Y-159833D01*
X151880Y-160458D01*
X150950Y-161709D01*
X150640Y-163167D01*
X150950Y-164625D01*
X151725Y-165667D01*
X152965Y-166292D01*
X154050Y-166500D01*
G01X178075Y-170667D02*
X176525Y-168583D01*
X175750Y-166500D01*
X175750Y-158167D01*
X176525Y-156083D01*
X178075Y-154000D01*
G01X192490Y-159833D02*
X193110Y-159208D01*
X193575Y-158167D01*
X193885Y-156708D01*
X193575Y-155458D01*
X192955Y-154625D01*
X191870Y-154000D01*
X187685Y-154000D01*
X187685Y-166500D01*
X192800Y-166500D01*
X193885Y-165667D01*
X194505Y-164417D01*
X194815Y-162958D01*
X194505Y-161500D01*
X193575Y-160250D01*
X192490Y-159833D01*
X187685Y-159833D01*
G01X203650Y-166500D02*
X202410Y-166292D01*
X201325Y-165459D01*
X200395Y-164208D01*
X199775Y-162750D01*
X199465Y-161083D01*
X199465Y-159417D01*
X199775Y-157750D01*
X200395Y-156292D01*
X201325Y-155042D01*
X202410Y-154208D01*
X203650Y-154000D01*
X204890Y-154208D01*
X205975Y-155042D01*
X206905Y-156292D01*
X207525Y-157750D01*
X207835Y-159417D01*
X207835Y-161083D01*
X207525Y-162750D01*
X206905Y-164208D01*
X205975Y-165459D01*
X204890Y-166292D01*
X203650Y-166500D01*
G01X216050Y-154000D02*
X216050Y-166500D01*
G01X212485Y-154000D02*
X219615Y-154000D01*
G01X228450Y-154000D02*
X228450Y-166500D01*
G01X224885Y-154000D02*
X232015Y-154000D01*
G01X240850Y-166500D02*
X239610Y-166292D01*
X238525Y-165459D01*
X237595Y-164208D01*
X236975Y-162750D01*
X236665Y-161083D01*
X236665Y-159417D01*
X236975Y-157750D01*
X237595Y-156292D01*
X238525Y-155042D01*
X239610Y-154208D01*
X240850Y-154000D01*
X242090Y-154208D01*
X243175Y-155042D01*
X244105Y-156292D01*
X244725Y-157750D01*
X245035Y-159417D01*
X245035Y-161083D01*
X244725Y-162750D01*
X244105Y-164208D01*
X243175Y-165459D01*
X242090Y-166292D01*
X240850Y-166500D01*
G01X249220Y-166500D02*
X249220Y-154000D01*
X253250Y-164417D01*
X257280Y-154000D01*
X257280Y-166500D01*
G01X274795Y-164834D02*
X276035Y-165875D01*
X277430Y-166500D01*
X278670Y-166500D01*
X279910Y-165875D01*
X280840Y-164834D01*
X281305Y-163375D01*
X280995Y-161917D01*
X280220Y-160667D01*
X278825Y-159833D01*
X276965Y-159417D01*
X275880Y-158583D01*
X275415Y-157125D01*
X275725Y-155667D01*
X276500Y-154625D01*
X277585Y-154000D01*
X278670Y-154000D01*
X279755Y-154417D01*
X280685Y-155458D01*
G01X288590Y-154000D02*
X292310Y-154000D01*
G01X290450Y-154000D02*
X290450Y-166500D01*
G01X288590Y-166500D02*
X292310Y-166500D01*
G01X299440Y-166500D02*
X299440Y-154000D01*
X302540Y-154000D01*
X303780Y-154625D01*
X304710Y-155458D01*
X305485Y-156708D01*
X306105Y-158167D01*
X306260Y-160250D01*
X306105Y-162333D01*
X305485Y-163792D01*
X304710Y-165042D01*
X303780Y-165875D01*
X302540Y-166500D01*
X299440Y-166500D01*
G01X318350Y-166500D02*
X312150Y-166500D01*
X312150Y-154000D01*
X318350Y-154000D01*
G01X315870Y-160042D02*
X312150Y-160042D01*
G01X328425Y-170667D02*
X329975Y-168583D01*
X330750Y-166500D01*
X330750Y-158167D01*
X329975Y-156083D01*
X328425Y-154000D01*
G54D34*
X221000Y414000D03*
X213600Y462300D03*
X226000Y424000D03*
X241000Y414000D03*
X236000Y424000D03*
X231000Y414000D03*
X223600Y468300D03*
X256000Y424000D03*
X251000Y414000D03*
X246000Y424000D03*
X253400Y462300D03*
X263400Y468300D03*
G54D25*
X159060Y16000D03*
X145280Y16000D03*
X385560Y16000D03*
X371780Y16000D03*
G54D16*
X39000Y36000D03*
X81000Y90500D03*
X81500Y200000D03*
X216000Y449000D03*
X261000Y449000D03*
X388000Y47000D03*
X417500Y391500D03*
G54D43*
X336500Y450690D03*
G54D53*
G01X203450Y149527D02*
X202479Y149527D01*
X201853Y150153D01*
X171149Y150153D01*
X169551Y151751D01*
X160549Y151751D01*
X160547Y151749D01*
X148751Y151749D01*
X147000Y153500D01*
G01X203000Y152500D02*
X201853Y151353D01*
X171647Y151353D01*
X170049Y152951D01*
X160549Y152951D01*
X155000Y158500D01*
G01X171615Y378288D02*
X170503Y379400D01*
X166501Y379400D01*
X166000Y378899D01*
X166000Y378000D01*
G01X166000Y382000D02*
X166000Y386000D01*
G01X171615Y381711D02*
X170504Y380600D01*
X166501Y380600D01*
X166000Y381101D01*
X166000Y382000D01*
G01X187688Y168000D02*
X189911Y170223D01*
X189911Y171106D01*
X195505Y176700D01*
X196700Y176700D01*
X197500Y177500D01*
G01X191111Y168000D02*
X191111Y170608D01*
X194503Y174000D01*
X197500Y174000D01*
G01X201500Y174000D02*
X202655Y175155D01*
X204345Y175155D01*
X205500Y174000D01*
G01X201500Y177500D02*
X202645Y176355D01*
X204345Y176355D01*
X205500Y177510D01*
G01X260500Y268500D02*
X260951Y268951D01*
X260951Y272597D01*
X258048Y275500D01*
X241000Y275500D01*
X240000Y276500D01*
X235000Y276500D01*
X234000Y277500D01*
X234000Y278800D01*
X234700Y279500D01*
X236000Y279500D01*
G01X255000Y268000D02*
X255114Y268000D01*
X256363Y269249D01*
X257275Y269249D01*
G01X257550Y269249D02*
X258725Y269249D01*
X259751Y270275D01*
X259751Y272099D01*
X257550Y274300D01*
X240200Y274300D01*
X239500Y275000D01*
X234800Y275000D01*
X232800Y277000D01*
X232800Y278700D01*
X232000Y279500D01*
G01X236500Y388000D02*
X236500Y390001D01*
X236100Y390401D01*
X236100Y392300D01*
G01X233000Y388000D02*
X233000Y390459D01*
X233090Y390549D01*
X233090Y392300D01*
G01X240000Y388000D02*
X240000Y390001D01*
X240090Y390091D01*
X240090Y392090D01*
G01X243100Y392300D02*
X243100Y390401D01*
X243500Y390001D01*
X243500Y388000D01*
G54D26*
X146000Y299500D03*
X152000Y299500D03*
X293000Y113000D03*
X299000Y113000D03*
X282500Y332500D03*
X288500Y332500D03*
X353000Y357500D03*
X347000Y357500D03*
X421500Y438500D03*
X427500Y438500D03*
G54D17*
X66710Y14020D03*
X70290Y14020D03*
X66710Y20980D03*
X70290Y20980D03*
X70520Y39790D03*
X70520Y36210D03*
X77480Y39790D03*
X77480Y36210D03*
X157710Y189020D03*
X161290Y189020D03*
X157710Y195980D03*
X161290Y195980D03*
G54D35*
X207700Y437000D03*
X269200Y437000D03*
G54D44*
X350100Y194000D03*
X361900Y194000D03*
X348100Y214500D03*
X359900Y214500D03*
G54D36*
X248500Y112500D03*
X248500Y118500D03*
X351500Y309500D03*
X351500Y315500D03*
G54D18*
X66710Y18490D03*
X66710Y16510D03*
X70290Y16510D03*
X70290Y18490D03*
X172530Y175020D03*
X172530Y173040D03*
X172530Y182960D03*
X172530Y178990D03*
X172530Y180980D03*
X172530Y177010D03*
X157710Y193490D03*
X157710Y191510D03*
X161290Y191510D03*
X161290Y193490D03*
X178470Y173040D03*
X178470Y175020D03*
X178470Y182960D03*
X178470Y180980D03*
X178470Y178990D03*
X178470Y177010D03*
X225470Y149460D03*
X225470Y147480D03*
X225470Y145490D03*
X219530Y149460D03*
X219530Y145490D03*
X219530Y147480D03*
X225470Y139540D03*
X225470Y141520D03*
X225470Y143510D03*
X219530Y143510D03*
X219530Y141520D03*
X219530Y139540D03*
X236530Y149460D03*
X236530Y145490D03*
X236530Y147480D03*
X236530Y143510D03*
X236530Y141520D03*
X236530Y139540D03*
X242470Y149460D03*
X242470Y147480D03*
X242470Y145490D03*
X242470Y139540D03*
X242470Y141520D03*
X242470Y143510D03*
G54D27*
X149500Y389000D03*
X175000Y367500D03*
G54D45*
X355000Y438090D03*
G54D37*
X319000Y194200D03*
X319000Y201800D03*
X326300Y438600D03*
X326300Y431000D03*
G54D19*
X73010Y39790D03*
X73010Y36210D03*
X74990Y39790D03*
X74990Y36210D03*
G54D28*
X159660Y419810D03*
X159660Y447370D03*
X182340Y419810D03*
X182340Y447370D03*
X283160Y417810D03*
X283160Y445370D03*
X305840Y417810D03*
X305840Y445370D03*
G54D46*
X355000Y462500D03*
G54D47*
G01X256330Y83830D02*
X256500Y83660D01*
X256500Y81000D01*
G01X275000Y93300D02*
X275000Y90000D01*
G01X275000Y90000D02*
X275000Y86800D01*
G01X262630Y83830D02*
X263670Y83830D01*
X264000Y83500D01*
X265900Y83500D01*
G01X262630Y90130D02*
X263000Y90500D01*
X265900Y90500D01*
G01X275000Y96500D02*
X274800Y96700D01*
X274800Y99500D01*
G01X262500Y96560D02*
X262630Y96430D01*
G54D29*
X147230Y450900D03*
X194630Y450900D03*
G54D38*
X322000Y305500D03*
X322000Y317500D03*
X327000Y276500D03*
X327000Y264500D03*
G54D48*
G01X190500Y177000D02*
X192000Y178500D01*
X192000Y186600D01*
G01X326750Y249500D02*
X318500Y249500D01*
G01X356900Y424300D02*
X356900Y422200D01*
G54D39*
X329500Y82500D03*
X366000Y298000D03*
G54D49*
G01X272500Y356500D02*
X272500Y353500D01*
G01X272500Y360500D02*
X270500Y360500D01*
X269500Y359500D01*
M02*
