G04 ================== begin FILE IDENTIFICATION RECORD ==================*
G04 Layout Name:  tms570_hdk_reve.brd*
G04 Film Name:    BSM*
G04 File Format:  Gerber RS274X*
G04 File Origin:  Cadence Allegro 16.3-p003*
G04 Origin Date:  Sun Jan 22 16:28:02 2012*
G04 *
G04 Layer:  VIA CLASS/SOLDERMASK_BOTTOM*
G04 Layer:  PIN/SOLDERMASK_BOTTOM*
G04 Layer:  BOARD GEOMETRY/TOOLING_CORNERS*
G04 Layer:  BOARD GEOMETRY/SOLDERMASK_BOTTOM*
G04 *
G04 Offset:    (0.00 0.00)*
G04 Mirror:    No*
G04 Mode:      Positive*
G04 Rotation:  0*
G04 FullContactRelief:  No*
G04 UndefLineWidth:     5.00*
G04 ================== end FILE IDENTIFICATION RECORD ====================*
%FSLAX55Y55*MOIN*%
%IR0*IPPOS*OFA0.00000B0.00000*MIA0B0*SFA1.00000B1.00000*%
%ADD30R,.11X.06*%
%ADD44R,.06X.11*%
%ADD46O,.15X.07*%
%ADD43O,.07X.15*%
%ADD45O,.17X.07*%
%ADD23C,.021*%
%ADD42R,.07X.118*%
%ADD13C,.06*%
%ADD11C,.015*%
%ADD22C,.08*%
%ADD26C,.036*%
%ADD12C,.064*%
%ADD15C,.029*%
%ADD33C,.084*%
%ADD20C,.075*%
%ADD27C,.085*%
%ADD17R,.024X.024*%
%ADD14R,.06X.06*%
%ADD40R,.069X.129*%
%ADD21R,.08X.08*%
%ADD39R,.064X.064*%
%ADD29R,.024X.021*%
%ADD19R,.014X.024*%
%ADD18R,.024X.014*%
%ADD24R,.039X.02*%
%ADD34C,.105*%
%ADD28C,.15*%
%ADD38O,.074X.044*%
%ADD41O,.044X.074*%
%ADD16C,.125*%
%ADD37O,.064X.039*%
%ADD35C,.005*%
%ADD32C,.136*%
%ADD31O,.039X.064*%
%ADD10C,.254*%
%ADD36O,.049X.039*%
%ADD25O,.039X.049*%
%ADD47C,.03*%
%ADD48C,.025*%
G75*
%LPD*%
G75*
G54D10*
X20000Y20000D03*
X20000Y340000D03*
X20000Y472100D03*
X413100Y20000D03*
X413100Y340000D03*
X413100Y472100D03*
G54D20*
X81000Y115500D03*
X81000Y135500D03*
X81000Y125500D03*
X81000Y155500D03*
X81000Y145500D03*
X81500Y235000D03*
X81500Y225000D03*
X81500Y255000D03*
X81500Y245000D03*
X81500Y265000D03*
G54D11*
X3500Y378500D03*
X3500Y416000D03*
X16031Y36999D03*
X16000Y361500D03*
X22500Y360000D03*
X30000Y362000D03*
X21500Y378000D03*
X25000Y378000D03*
X14000Y369500D03*
X22000Y402000D03*
X32000Y397000D03*
X26000Y401000D03*
X33000Y404000D03*
X20500Y424000D03*
X24400Y433498D03*
X30200Y441450D03*
X20000Y428300D03*
X27500Y430450D03*
X53000Y128000D03*
X48500Y138000D03*
X48500Y152000D03*
X53000Y148000D03*
X45250Y142749D03*
X48500Y141000D03*
X52000Y209000D03*
X52000Y225000D03*
X53122Y218878D03*
X51000Y221000D03*
X42619Y277500D03*
X51900Y297250D03*
X51892Y314538D03*
X44000Y316250D03*
X50500Y339500D03*
X44000Y333500D03*
X39500Y327000D03*
X44000Y323000D03*
X39500Y323000D03*
X40700Y352800D03*
X48300Y352300D03*
X33500Y381500D03*
X49500Y381500D03*
X45750Y385750D03*
X49000Y393000D03*
X40500Y404170D03*
X37000Y404000D03*
X42000Y386000D03*
X46000Y403700D03*
X34020Y416500D03*
X34088Y424483D03*
X41500Y409500D03*
X33950Y421000D03*
X53300Y424300D03*
X37750Y408750D03*
X63000Y10000D03*
X70290Y10210D03*
X63000Y25000D03*
X63000Y20000D03*
X63000Y15000D03*
X74000Y15000D03*
X74000Y20000D03*
X70290Y24210D03*
X71500Y32500D03*
X66500Y32500D03*
X67290Y39790D03*
X71500Y43090D03*
X64870Y65309D03*
X61755Y69235D03*
X62000Y98000D03*
X58500Y128000D03*
X58500Y133000D03*
X62000Y123000D03*
X62000Y118000D03*
X73500Y122500D03*
X58500Y123000D03*
X62000Y133000D03*
X62000Y128000D03*
X62000Y143000D03*
X58500Y138000D03*
X62000Y138000D03*
X54500Y139500D03*
X62000Y164500D03*
X62000Y158000D03*
X58500Y170897D03*
X64000Y196670D03*
X62000Y182500D03*
X67500Y190000D03*
X55500Y211048D03*
X62500Y222500D03*
X59000Y227500D03*
X62500Y237500D03*
X73000Y237000D03*
X59000Y237500D03*
X73000Y233500D03*
X62500Y232500D03*
X73000Y226500D03*
X55500Y232500D03*
X62500Y227500D03*
X59000Y257500D03*
X59000Y247500D03*
X59000Y242500D03*
X62500Y242500D03*
X59000Y252500D03*
X62500Y247500D03*
X62500Y252500D03*
X62500Y257500D03*
X62500Y267500D03*
X62500Y262500D03*
X74000Y275750D03*
X59000Y262500D03*
X59000Y267500D03*
X61500Y273500D03*
X67328Y292518D03*
X62853Y283500D03*
X54750Y284351D03*
X63957Y317750D03*
X60750Y304360D03*
X67000Y309000D03*
X57200Y311300D03*
X69500Y318000D03*
X59000Y338550D03*
X74000Y358000D03*
X73000Y348000D03*
X55500Y358000D03*
X55500Y343000D03*
X55500Y348000D03*
X55100Y379700D03*
X55500Y383000D03*
X55500Y373000D03*
X56000Y368000D03*
X55500Y403000D03*
X55500Y393000D03*
X56000Y388000D03*
X56000Y398000D03*
X54000Y418000D03*
X58500Y419900D03*
X55500Y413000D03*
X73165Y464800D03*
X64504Y465200D03*
X60173Y464400D03*
X68835Y466600D03*
X81500Y32500D03*
X76000Y32000D03*
X88750Y40749D03*
X88750Y33213D03*
X74990Y43090D03*
X81290Y39790D03*
X92000Y77000D03*
X75517Y154000D03*
X86251Y173897D03*
X91750Y176000D03*
X85000Y168000D03*
X78500Y176023D03*
X90500Y189000D03*
X92768Y185274D03*
X94312Y189438D03*
X92500Y205000D03*
X82000Y216750D03*
X93500Y210750D03*
X76000Y219000D03*
X88750Y233750D03*
X90500Y242750D03*
X87750Y254250D03*
X75700Y260500D03*
X77500Y273500D03*
X87900Y270838D03*
X86465Y294550D03*
X79050Y327450D03*
X74500Y328000D03*
X75000Y398000D03*
X75000Y390000D03*
X94200Y403000D03*
X75122Y385500D03*
X94500Y413000D03*
X75500Y413000D03*
X81827Y465300D03*
X77496Y466600D03*
X114490Y36100D03*
X103500Y66120D03*
X101000Y63500D03*
X105500Y128000D03*
X108500Y119000D03*
X100500Y118000D03*
X104500Y133000D03*
X100500Y133000D03*
X109000Y126500D03*
X100500Y138000D03*
X104500Y143000D03*
X104500Y138000D03*
X100500Y143000D03*
X105400Y158000D03*
X100500Y158000D03*
X99751Y183500D03*
X98500Y198000D03*
X114000Y205750D03*
X104000Y200500D03*
X98750Y218250D03*
X103500Y209750D03*
X101000Y232500D03*
X105000Y232500D03*
X105000Y227500D03*
X101100Y222500D03*
X105000Y237500D03*
X101000Y227500D03*
X105000Y257500D03*
X112238Y239962D03*
X105000Y247500D03*
X105000Y242500D03*
X101000Y242500D03*
X105000Y252500D03*
X101000Y252500D03*
X101000Y257500D03*
X104750Y274500D03*
X110500Y261500D03*
X113800Y261500D03*
X103000Y279901D03*
X101000Y262500D03*
X101000Y267500D03*
X105000Y262500D03*
X105000Y267500D03*
X115189Y268115D03*
X113000Y295000D03*
X104000Y284000D03*
X102262Y337000D03*
X99300Y333100D03*
X95500Y323000D03*
X95500Y333000D03*
X111000Y339500D03*
X115000Y340500D03*
X114440Y351060D03*
X114440Y345940D03*
X107500Y355000D03*
X95500Y343000D03*
X95500Y353000D03*
X95500Y363000D03*
X99500Y344500D03*
X98500Y348500D03*
X113000Y382500D03*
X95500Y379000D03*
X95500Y373000D03*
X111300Y369000D03*
X100500Y365000D03*
X95500Y383000D03*
X111000Y374600D03*
X112000Y395500D03*
X114000Y392550D03*
X113400Y403798D03*
X110000Y392550D03*
X95500Y393000D03*
X97891Y403799D03*
X105800Y403600D03*
X101600Y403500D03*
X109900Y404000D03*
X109500Y417950D03*
X106000Y418490D03*
X112800Y418000D03*
X96300Y417500D03*
X113000Y436500D03*
X102800Y441000D03*
X111970Y431800D03*
X108030Y431970D03*
X125000Y93500D03*
X135500Y77000D03*
X133650Y113200D03*
X134000Y118500D03*
X116400Y134600D03*
X115951Y118500D03*
X136000Y135047D03*
X136000Y141000D03*
X136000Y144500D03*
X127000Y149000D03*
X127000Y142500D03*
X136000Y168000D03*
X123530Y167530D03*
X136000Y171500D03*
X118000Y175500D03*
X132155Y164155D03*
X130000Y174500D03*
X136000Y162047D03*
X135000Y192000D03*
X136000Y196000D03*
X118939Y195498D03*
X122362Y195498D03*
X136000Y181500D03*
X129000Y191500D03*
X133650Y208350D03*
X117162Y208138D03*
X135210Y202395D03*
X119712Y210688D03*
X136000Y199500D03*
X129900Y208600D03*
X131900Y199900D03*
X119500Y232000D03*
X117539Y221629D03*
X119500Y236000D03*
X131259Y221884D03*
X134541Y221884D03*
X123798Y225000D03*
X120150Y224800D03*
X126050Y260000D03*
X119500Y244500D03*
X116920Y246500D03*
X119000Y259800D03*
X131000Y258700D03*
X127500Y255500D03*
X123500Y272500D03*
X130150Y275050D03*
X119000Y280500D03*
X129500Y280500D03*
X118612Y268115D03*
X121001Y291800D03*
X129500Y288500D03*
X125500Y289000D03*
X121000Y288500D03*
X129500Y284500D03*
X129500Y298000D03*
X129500Y295000D03*
X124000Y317000D03*
X129500Y310500D03*
X129640Y303360D03*
X132800Y333800D03*
X123000Y341500D03*
X121000Y326000D03*
X133600Y326200D03*
X126500Y358500D03*
X131940Y345940D03*
X116510Y353510D03*
X121936Y359714D03*
X116500Y348500D03*
X131940Y351060D03*
X128768Y356535D03*
X117000Y383400D03*
X126516Y382815D03*
X129749Y382751D03*
X122500Y386000D03*
X123000Y389500D03*
X122600Y404500D03*
X129500Y392000D03*
X129500Y396500D03*
X122500Y423000D03*
X130100Y411600D03*
X134500Y424000D03*
X117400Y417900D03*
X123200Y408700D03*
X122500Y427000D03*
X131000Y434050D03*
X125920Y433630D03*
X125000Y436000D03*
X120682Y453500D03*
X117500Y453500D03*
X154760Y73500D03*
X139000Y73500D03*
X142940Y73500D03*
X146880Y73500D03*
X150820Y73500D03*
X154660Y77000D03*
X138900Y77100D03*
X142840Y77000D03*
X146780Y77000D03*
X150720Y77000D03*
X142840Y113400D03*
X138689Y114848D03*
X154660Y113400D03*
X150720Y113400D03*
X146780Y113400D03*
X142940Y117000D03*
X154760Y117000D03*
X147000Y126500D03*
X150820Y117000D03*
X146602Y118500D03*
X143500Y126500D03*
X155000Y131500D03*
X140000Y126500D03*
X150500Y126500D03*
X147500Y138000D03*
X148750Y149000D03*
X147000Y153500D03*
X155000Y155500D03*
X137000Y153750D03*
X150500Y153500D03*
X147500Y165000D03*
X155000Y158500D03*
X145500Y176000D03*
X147500Y193000D03*
X147000Y181500D03*
X155000Y186500D03*
X143500Y181500D03*
X155000Y183500D03*
X140000Y181500D03*
X150500Y181500D03*
X138000Y203500D03*
X152410Y207794D03*
X149000Y203641D03*
X155500Y213000D03*
X155500Y200000D03*
X145500Y203592D03*
X153000Y203500D03*
X141500Y203500D03*
X153500Y227500D03*
X155137Y224150D03*
X137500Y226500D03*
X142000Y255500D03*
X137000Y274950D03*
X148640Y266140D03*
X142000Y260500D03*
X148500Y278000D03*
X146670Y260170D03*
X144700Y266200D03*
X153500Y278000D03*
X152800Y260749D03*
X140500Y287500D03*
X140500Y295500D03*
X140420Y299420D03*
X140450Y291550D03*
X156500Y299500D03*
X140500Y283670D03*
X154000Y281500D03*
X154000Y285500D03*
X142750Y311640D03*
X148000Y309500D03*
X156500Y304000D03*
X140500Y308500D03*
X144000Y308500D03*
X139500Y311590D03*
X152500Y311000D03*
X140480Y303250D03*
X152580Y322500D03*
X150500Y339500D03*
X145000Y339500D03*
X140000Y339500D03*
X140000Y327550D03*
X150000Y327550D03*
X145000Y327550D03*
X155000Y327550D03*
X144000Y362000D03*
X150000Y348500D03*
X140000Y348500D03*
X155000Y348500D03*
X140400Y363100D03*
X150480Y381020D03*
X154500Y368000D03*
X146500Y374788D03*
X150000Y368000D03*
X152000Y398500D03*
X148520Y401980D03*
X137000Y400500D03*
X146000Y399000D03*
X155500Y395500D03*
X136500Y420000D03*
X140316Y416500D03*
X144500Y424000D03*
X144500Y412000D03*
X147000Y434000D03*
X143500Y475500D03*
X174810Y38000D03*
X174460Y73500D03*
X170520Y73500D03*
X166580Y73500D03*
X162640Y73500D03*
X158700Y73500D03*
X166500Y67000D03*
X174360Y77000D03*
X170420Y77000D03*
X166480Y77000D03*
X162540Y77000D03*
X158600Y77000D03*
X158600Y113400D03*
X174360Y113400D03*
X170420Y113400D03*
X166480Y113400D03*
X162540Y113400D03*
X165500Y96500D03*
X174000Y123000D03*
X168670Y122500D03*
X158700Y117000D03*
X174460Y117000D03*
X170520Y117000D03*
X166580Y117000D03*
X162640Y117000D03*
X162500Y142500D03*
X165000Y150000D03*
X170500Y155000D03*
X159000Y158000D03*
X164500Y167953D03*
X177524Y167477D03*
X177000Y198000D03*
X162000Y185000D03*
X165293Y190596D03*
X164500Y198000D03*
X164500Y193490D03*
X161000Y180000D03*
X172500Y190988D03*
X166000Y213000D03*
X160000Y200000D03*
X170750Y213000D03*
X159000Y213000D03*
X162500Y213000D03*
X175500Y224000D03*
X160800Y223597D03*
X172500Y254500D03*
X175912Y243413D03*
X173000Y278000D03*
X169000Y278000D03*
X171500Y260500D03*
X158480Y277980D03*
X168500Y266500D03*
X166500Y280250D03*
X165000Y260500D03*
X172500Y266000D03*
X158750Y283500D03*
X166000Y294500D03*
X174000Y297450D03*
X173500Y282500D03*
X174000Y289000D03*
X174000Y292500D03*
X160000Y288000D03*
X160500Y300000D03*
X170000Y294500D03*
X170500Y289000D03*
X166000Y299500D03*
X159250Y291500D03*
X174000Y300700D03*
X159400Y295250D03*
X170400Y282442D03*
X166250Y289500D03*
X158480Y311640D03*
X171500Y311500D03*
X174500Y310000D03*
X161500Y305500D03*
X168000Y311500D03*
X166900Y306361D03*
X172500Y341500D03*
X173540Y322602D03*
X167000Y327702D03*
X171500Y329000D03*
X165000Y341500D03*
X177000Y322500D03*
X170510Y359000D03*
X167500Y347500D03*
X159500Y345000D03*
X165500Y369000D03*
X165500Y374000D03*
X159000Y373500D03*
X162000Y374500D03*
X169500Y373500D03*
X171615Y378288D03*
X171615Y381711D03*
X164000Y401000D03*
X171270Y389230D03*
X167520Y389520D03*
X158000Y389500D03*
X175020Y389500D03*
X167500Y408500D03*
X172500Y408500D03*
X195000Y3950D03*
X185000Y3950D03*
X185000Y16000D03*
X193500Y16000D03*
X197000Y16000D03*
X190000Y16000D03*
X195000Y38500D03*
X190000Y38500D03*
X185000Y38000D03*
X178300Y73500D03*
X194000Y73500D03*
X182240Y73500D03*
X186180Y73500D03*
X190000Y73500D03*
X184220Y76500D03*
X180280Y76500D03*
X190120Y77000D03*
X194060Y77000D03*
X194060Y113440D03*
X180280Y113500D03*
X190500Y96500D03*
X190120Y113400D03*
X186180Y113400D03*
X182240Y117000D03*
X197500Y133500D03*
X190000Y117000D03*
X178300Y117000D03*
X194000Y117000D03*
X186000Y117000D03*
X197104Y153104D03*
X186888Y153500D03*
X190311Y153500D03*
X187688Y168000D03*
X191111Y168000D03*
X195000Y162500D03*
X189500Y161000D03*
X197000Y170000D03*
X182500Y176500D03*
X182500Y168500D03*
X182500Y173500D03*
X187500Y181500D03*
X182500Y180000D03*
X181750Y188500D03*
X178470Y192000D03*
X182500Y183000D03*
X178000Y211058D03*
X195751Y205950D03*
X184000Y201000D03*
X196000Y217500D03*
X188800Y217300D03*
X197500Y226000D03*
X192000Y232000D03*
X180000Y230000D03*
X190500Y229000D03*
X198000Y232500D03*
X193500Y237500D03*
X179300Y235400D03*
X185500Y244000D03*
X180000Y247500D03*
X190000Y251000D03*
X193250Y244700D03*
X189585Y246085D03*
X180000Y252000D03*
X193500Y256250D03*
X194666Y248259D03*
X193700Y251100D03*
X178000Y275500D03*
X181000Y261000D03*
X194000Y276000D03*
X193500Y267500D03*
X193000Y280360D03*
X185500Y275500D03*
X186000Y279500D03*
X181999Y267500D03*
X183000Y273500D03*
X185390Y287610D03*
X190293Y284491D03*
X194800Y297000D03*
X185687Y282790D03*
X185490Y296430D03*
X185500Y292500D03*
X192000Y289000D03*
X180961Y322000D03*
X196000Y312500D03*
X185200Y306300D03*
X188000Y322000D03*
X198000Y306500D03*
X194000Y339500D03*
X187500Y327500D03*
X196349Y328600D03*
X187700Y339300D03*
X192500Y324500D03*
X196900Y324500D03*
X186500Y359000D03*
X177789Y346984D03*
X181212Y346984D03*
X192300Y364700D03*
X196000Y372500D03*
X184000Y370000D03*
X185500Y378811D03*
X185500Y375388D03*
X188000Y371500D03*
X184500Y363500D03*
X194500Y402000D03*
X188500Y389500D03*
X187000Y394000D03*
X183000Y402000D03*
X194000Y427000D03*
X190000Y427000D03*
X205500Y12000D03*
X200000Y16000D03*
X200000Y38000D03*
X206000Y63000D03*
X199500Y79000D03*
X214000Y74500D03*
X217000Y77500D03*
X208000Y111500D03*
X205000Y112000D03*
X210000Y127500D03*
X217500Y131000D03*
X214500Y145500D03*
X214500Y141500D03*
X215000Y151800D03*
X203450Y149527D03*
X203000Y152500D03*
X211000Y168012D03*
X214000Y174500D03*
X210500Y160000D03*
X205500Y174000D03*
X205500Y177510D03*
X210500Y173000D03*
X205502Y159481D03*
X205500Y166000D03*
X201050Y186500D03*
X210000Y180000D03*
X211000Y192500D03*
X215000Y192500D03*
X206000Y187500D03*
X205000Y195500D03*
X201000Y193500D03*
X214800Y187500D03*
X206000Y192500D03*
X202300Y212200D03*
X205147Y211251D03*
X205900Y205800D03*
X203000Y201500D03*
X201000Y226000D03*
X204500Y232500D03*
X211000Y232500D03*
X211000Y237500D03*
X211000Y229000D03*
X207400Y229000D03*
X204000Y239000D03*
X202400Y221200D03*
X201000Y254500D03*
X215000Y247500D03*
X207500Y251000D03*
X214500Y258000D03*
X201000Y247500D03*
X204750Y247500D03*
X211500Y246000D03*
X212500Y279500D03*
X199000Y279000D03*
X201000Y265000D03*
X201000Y272000D03*
X213950Y273000D03*
X204500Y261500D03*
X207000Y277500D03*
X211500Y268000D03*
X216500Y279500D03*
X198297Y296250D03*
X205000Y296500D03*
X208710Y296420D03*
X216500Y296000D03*
X216500Y283500D03*
X198870Y283500D03*
X202800Y283500D03*
X212640Y283500D03*
X213500Y307500D03*
X204770Y312350D03*
X218000Y311500D03*
X214800Y311750D03*
X208710Y311500D03*
X204770Y309350D03*
X218200Y307250D03*
X211000Y342000D03*
X208500Y325000D03*
X202000Y328500D03*
X198500Y341950D03*
X218550Y324500D03*
X203250Y324500D03*
X214750Y339000D03*
X201000Y337500D03*
X202500Y342000D03*
X210500Y331500D03*
X201500Y332500D03*
X209000Y358670D03*
X204000Y358500D03*
X212000Y354500D03*
X203000Y353500D03*
X207000Y352000D03*
X212500Y351000D03*
X209000Y364580D03*
X204000Y365500D03*
X209000Y370480D03*
X209000Y374000D03*
X214460Y383960D03*
X200000Y397000D03*
X200500Y420500D03*
X206000Y460000D03*
X225000Y11000D03*
X231980Y29500D03*
X228970Y18030D03*
X236000Y30500D03*
X225488Y65750D03*
X221500Y65500D03*
X237000Y93250D03*
X235750Y90500D03*
X239000Y89500D03*
X223500Y81000D03*
X237500Y79000D03*
X236500Y100500D03*
X236500Y97000D03*
X235500Y115000D03*
X238073Y113456D03*
X219500Y104500D03*
X223000Y104500D03*
X235000Y119500D03*
X222500Y126000D03*
X219530Y134000D03*
X222500Y131000D03*
X224500Y134000D03*
X229500Y135000D03*
X222480Y147480D03*
X222500Y151500D03*
X229500Y155000D03*
X225470Y155000D03*
X229500Y151500D03*
X229550Y143500D03*
X229500Y140000D03*
X229549Y147387D03*
X236500Y157050D03*
X236500Y168050D03*
X221500Y162500D03*
X229250Y158651D03*
X238500Y177500D03*
X224000Y197500D03*
X227500Y194500D03*
X232000Y181500D03*
X220000Y192500D03*
X220500Y181500D03*
X220000Y189000D03*
X224000Y201500D03*
X224000Y205500D03*
X226200Y211058D03*
X221850Y228500D03*
X221450Y232500D03*
X228300Y228500D03*
X221000Y222000D03*
X226227Y235456D03*
X219000Y239500D03*
X238350Y260000D03*
X234000Y257500D03*
X225500Y260050D03*
X229000Y260050D03*
X236000Y279500D03*
X226000Y279500D03*
X229000Y271050D03*
X238350Y264000D03*
X232000Y279500D03*
X234000Y271500D03*
X221500Y264500D03*
X236500Y299500D03*
X222700Y296250D03*
X229500Y283500D03*
X231500Y295889D03*
X224450Y283500D03*
X236750Y295900D03*
X227000Y296000D03*
X237000Y304500D03*
X232500Y304430D03*
X227000Y306000D03*
X227500Y301500D03*
X234290Y311500D03*
X230360Y311500D03*
X238230Y311500D03*
X223000Y311250D03*
X238500Y332500D03*
X233000Y325000D03*
X236472Y326039D03*
X228000Y324500D03*
X232500Y332500D03*
X223000Y338000D03*
X220170Y347500D03*
X226500Y358000D03*
X226080Y347500D03*
X227500Y344000D03*
X238500Y358500D03*
X219827Y360590D03*
X234000Y344500D03*
X230000Y358000D03*
X233950Y347500D03*
X237000Y347500D03*
X233500Y358000D03*
X223000Y358000D03*
X231500Y372000D03*
X229000Y380500D03*
X220000Y372000D03*
X231500Y375500D03*
X220000Y365500D03*
X229940Y368740D03*
X226440Y368740D03*
X222940Y368740D03*
X220000Y375500D03*
X225000Y380500D03*
X233000Y380500D03*
X236500Y380500D03*
X238500Y363500D03*
X225000Y392500D03*
X220000Y395500D03*
X220000Y392500D03*
X236100Y392300D03*
X231500Y403000D03*
X235500Y403000D03*
X233090Y392300D03*
X227500Y403500D03*
X249650Y29575D03*
X251772Y25750D03*
X246550Y29000D03*
X251222Y36750D03*
X249100Y39250D03*
X242600Y37750D03*
X243500Y71500D03*
X247000Y71500D03*
X249500Y74000D03*
X253500Y71000D03*
X255500Y66500D03*
X249500Y68500D03*
X247000Y76500D03*
X250500Y90000D03*
X252500Y95238D03*
X240000Y96500D03*
X257000Y135480D03*
X247000Y134000D03*
X253500Y118500D03*
X254500Y146250D03*
X254500Y142500D03*
X258500Y146500D03*
X258490Y142490D03*
X246500Y142500D03*
X250500Y149000D03*
X246500Y149000D03*
X245977Y153204D03*
X241168Y154579D03*
X240480Y157500D03*
X245500Y171500D03*
X240500Y168050D03*
X244500Y168050D03*
X254450Y172000D03*
X253440Y178440D03*
X255300Y251050D03*
X250600Y251050D03*
X244500Y268000D03*
X244000Y271000D03*
X254500Y278500D03*
X248000Y268000D03*
X251500Y268000D03*
X258000Y271000D03*
X240500Y271000D03*
X247500Y271000D03*
X251000Y278500D03*
X255000Y268000D03*
X259547Y299047D03*
X254000Y294000D03*
X246000Y283000D03*
X242160Y296420D03*
X246100Y296420D03*
X249500Y308000D03*
X246500Y302000D03*
X241000Y305000D03*
X254500Y316000D03*
X259500Y307500D03*
X259500Y312000D03*
X246500Y305000D03*
X253500Y304000D03*
X257500Y332000D03*
X259500Y335000D03*
X255000Y335000D03*
X249000Y334000D03*
X242750Y325500D03*
X258500Y349000D03*
X253000Y359500D03*
X246000Y347050D03*
X255000Y362500D03*
X241830Y358500D03*
X259000Y345000D03*
X242000Y348010D03*
X247500Y355500D03*
X256000Y374500D03*
X253000Y382500D03*
X252920Y374420D03*
X256000Y378500D03*
X253000Y378500D03*
X240000Y368000D03*
X241000Y371500D03*
X252980Y370480D03*
X240000Y380500D03*
X253000Y367000D03*
X258500Y364500D03*
X240090Y392090D03*
X239500Y403000D03*
X243500Y402500D03*
X248000Y402000D03*
X256000Y400500D03*
X250500Y389200D03*
X250500Y392500D03*
X247000Y384000D03*
X243100Y392300D03*
X275400Y29250D03*
X261600Y29500D03*
X275000Y18000D03*
X270970Y39250D03*
X275000Y34000D03*
X261000Y70500D03*
X276000Y75250D03*
X273500Y77500D03*
X269500Y78000D03*
X263500Y79000D03*
X266500Y78500D03*
X271000Y89000D03*
X267000Y114000D03*
X267000Y109000D03*
X272500Y135000D03*
X269000Y132000D03*
X279500Y119000D03*
X266500Y126500D03*
X262500Y142500D03*
X266000Y142500D03*
X267752Y136515D03*
X280250Y146500D03*
X272400Y139000D03*
X274500Y143500D03*
X274000Y147500D03*
X266500Y170000D03*
X262500Y168500D03*
X279500Y169500D03*
X266550Y158000D03*
X266782Y163218D03*
X270500Y166500D03*
X276000Y177500D03*
X264900Y258400D03*
X262000Y260000D03*
X268600Y258050D03*
X262000Y264000D03*
X260500Y268500D03*
X278000Y277050D03*
X274000Y277050D03*
X274000Y265500D03*
X267000Y271500D03*
X278000Y265500D03*
X271000Y292000D03*
X263484Y299016D03*
X261000Y296000D03*
X275500Y299000D03*
X271000Y297000D03*
X280000Y281000D03*
X262500Y310000D03*
X269000Y320500D03*
X261516Y320484D03*
X265453Y320641D03*
X270276Y310276D03*
X276000Y316000D03*
X266000Y312000D03*
X266000Y307500D03*
X275500Y304500D03*
X271000Y324500D03*
X267000Y324500D03*
X272500Y331500D03*
X274500Y334000D03*
X262000Y332000D03*
X264661Y334661D03*
X278000Y332500D03*
X278000Y339000D03*
X269780Y334720D03*
X268500Y344000D03*
X261500Y349500D03*
X279000Y348500D03*
X279000Y355500D03*
X272500Y353500D03*
X269500Y359500D03*
X264661Y354161D03*
X260500Y354500D03*
X264000Y370500D03*
X275000Y383500D03*
X264000Y367000D03*
X269100Y383000D03*
X270500Y363500D03*
X274500Y363500D03*
X276000Y402500D03*
X262500Y395000D03*
X276500Y391000D03*
X276000Y405500D03*
X276500Y419000D03*
X276000Y460000D03*
X274000Y453500D03*
X286500Y12000D03*
X293700Y18751D03*
X301000Y33000D03*
X287000Y18500D03*
X297000Y26500D03*
X287000Y22500D03*
X297000Y39500D03*
X291500Y89000D03*
X295500Y74500D03*
X298000Y76500D03*
X294000Y79000D03*
X291900Y93000D03*
X287500Y89000D03*
X291900Y97000D03*
X291900Y100500D03*
X291900Y107500D03*
X291900Y104000D03*
X297700Y117500D03*
X288400Y135480D03*
X294300Y117500D03*
X288000Y119000D03*
X295500Y138625D03*
X288500Y144500D03*
X292000Y143000D03*
X283490Y142500D03*
X283750Y146250D03*
X301000Y144000D03*
X296500Y167500D03*
X284500Y170000D03*
X297500Y160000D03*
X300500Y215500D03*
X285500Y250500D03*
X295500Y258000D03*
X288990Y250480D03*
X301228Y241650D03*
X295000Y277000D03*
X282000Y265500D03*
X297500Y265000D03*
X300500Y276500D03*
X301000Y265000D03*
X294000Y265000D03*
X282000Y277050D03*
X290000Y265500D03*
X293000Y300000D03*
X281047Y299547D03*
X284984Y299516D03*
X295000Y295000D03*
X297000Y285500D03*
X283016Y296516D03*
X293500Y289000D03*
X288921Y299579D03*
X286953Y296547D03*
X284000Y310000D03*
X301000Y320500D03*
X297224Y315724D03*
X281000Y312000D03*
X281000Y307500D03*
X287500Y307500D03*
X287500Y312000D03*
X296500Y304500D03*
X288500Y338000D03*
X299500Y332500D03*
X283500Y339000D03*
X284830Y380000D03*
X299000Y372600D03*
X288580Y380080D03*
X281080Y380080D03*
X299000Y397400D03*
X292500Y398500D03*
X288580Y398500D03*
X284830Y398500D03*
X292500Y391000D03*
X281080Y398500D03*
X281000Y406500D03*
X292500Y406500D03*
X316841Y12125D03*
X320500Y3950D03*
X309000Y18500D03*
X320500Y16000D03*
X303000Y28500D03*
X311000Y28200D03*
X305470Y41000D03*
X320500Y38000D03*
X303000Y77500D03*
X307000Y77500D03*
X309500Y90000D03*
X307000Y85500D03*
X307000Y82000D03*
X310000Y76000D03*
X303000Y93000D03*
X314000Y103500D03*
X303000Y97079D03*
X303000Y100500D03*
X302700Y104000D03*
X302700Y107500D03*
X308000Y126000D03*
X314250Y118250D03*
X303000Y141000D03*
X314250Y149500D03*
X308750Y154500D03*
X302750Y162000D03*
X310500Y171000D03*
X308750Y160000D03*
X318500Y160000D03*
X307500Y163000D03*
X316000Y187000D03*
X301960Y193440D03*
X309000Y188000D03*
X301950Y190060D03*
X307000Y184000D03*
X308750Y191000D03*
X313500Y209300D03*
X311000Y216600D03*
X316500Y209000D03*
X305080Y228430D03*
X317200Y220200D03*
X308700Y228490D03*
X321300Y221600D03*
X313000Y233500D03*
X313000Y227500D03*
X308500Y260000D03*
X320500Y240550D03*
X310909Y250000D03*
X316500Y256500D03*
X311100Y253750D03*
X305000Y240873D03*
X310000Y241000D03*
X313000Y275000D03*
X308000Y278500D03*
X316500Y273500D03*
X321000Y276500D03*
X319000Y267500D03*
X309250Y272500D03*
X312000Y300030D03*
X302047Y300047D03*
X307953Y300047D03*
X309500Y296000D03*
X316000Y283500D03*
X320500Y301000D03*
X308000Y288500D03*
X302250Y281500D03*
X305000Y310000D03*
X305984Y320484D03*
X313000Y310500D03*
X302000Y312000D03*
X302000Y307500D03*
X308000Y307500D03*
X308000Y312000D03*
X309921Y320421D03*
X320000Y321500D03*
X302500Y323500D03*
X306500Y323500D03*
X316000Y337500D03*
X302286Y331385D03*
X310500Y335000D03*
X321850Y324500D03*
X314500Y329000D03*
X321000Y359000D03*
X312000Y350000D03*
X311500Y362000D03*
X318500Y362000D03*
X318000Y350000D03*
X321000Y353000D03*
X317000Y372600D03*
X308000Y382500D03*
X317000Y397400D03*
X308000Y387000D03*
X311000Y425000D03*
X316762Y472000D03*
X330500Y3950D03*
X338700Y30749D03*
X329000Y16000D03*
X340500Y13000D03*
X332500Y16000D03*
X335500Y16000D03*
X325500Y16000D03*
X330901Y45000D03*
X330500Y38050D03*
X325500Y38050D03*
X335500Y38000D03*
X324500Y76000D03*
X325000Y95000D03*
X327000Y104000D03*
X325000Y98579D03*
X331143Y102500D03*
X328500Y114500D03*
X331000Y99500D03*
X325000Y106500D03*
X325000Y113000D03*
X327025Y125000D03*
X334238Y132238D03*
X330500Y128000D03*
X342500Y117500D03*
X323259Y126750D03*
X326250Y148000D03*
X330500Y148000D03*
X330906Y170389D03*
X333000Y157500D03*
X326250Y164750D03*
X342000Y164750D03*
X322500Y187000D03*
X330790Y197790D03*
X331000Y189500D03*
X327000Y198000D03*
X330804Y179662D03*
X335500Y185800D03*
X325863Y179483D03*
X342500Y204900D03*
X335500Y205000D03*
X322320Y208680D03*
X338500Y214500D03*
X338500Y223100D03*
X324100Y230400D03*
X324000Y233500D03*
X333000Y223000D03*
X334757Y229058D03*
X341900Y232100D03*
X336000Y225000D03*
X338500Y219000D03*
X336250Y252733D03*
X325000Y240000D03*
X334250Y277080D03*
X322500Y295540D03*
X325500Y295500D03*
X331500Y295500D03*
X337000Y295500D03*
X337000Y284000D03*
X325500Y284000D03*
X331500Y284000D03*
X329500Y308000D03*
X333500Y308000D03*
X342000Y303500D03*
X338500Y321500D03*
X324000Y321500D03*
X340000Y336000D03*
X325600Y327000D03*
X335500Y336000D03*
X328850Y326000D03*
X325600Y345000D03*
X335000Y350000D03*
X331500Y359000D03*
X340000Y350000D03*
X326000Y362000D03*
X326000Y350000D03*
X340000Y362500D03*
X331500Y353000D03*
X325000Y367000D03*
X333000Y367000D03*
X340500Y367500D03*
X340500Y381500D03*
X323780Y397720D03*
X323540Y390040D03*
X323500Y402000D03*
X325000Y385500D03*
X338050Y393090D03*
X338050Y399000D03*
X338050Y404910D03*
X327000Y422000D03*
X329500Y425000D03*
X332000Y422000D03*
X326300Y445300D03*
X360340Y44250D03*
X345000Y67500D03*
X355000Y63500D03*
X348500Y71000D03*
X360840Y84401D03*
X350000Y91500D03*
X354750Y102499D03*
X358500Y98500D03*
X343000Y109000D03*
X362000Y97500D03*
X352000Y109000D03*
X346500Y105000D03*
X358122Y104621D03*
X349500Y95500D03*
X350750Y129500D03*
X361000Y136750D03*
X346500Y146250D03*
X351000Y160000D03*
X343500Y172000D03*
X345000Y191500D03*
X345000Y197000D03*
X343500Y178000D03*
X343000Y211000D03*
X343000Y218000D03*
X347000Y227200D03*
X359900Y223900D03*
X347000Y249500D03*
X347000Y254000D03*
X347000Y245000D03*
X362000Y258000D03*
X358200Y255000D03*
X342761Y254483D03*
X355300Y279000D03*
X347000Y274500D03*
X343000Y277250D03*
X343000Y269900D03*
X362000Y261500D03*
X358901Y265100D03*
X353951Y283350D03*
X348750Y296000D03*
X350500Y281500D03*
X348500Y292000D03*
X343250Y292750D03*
X343250Y284500D03*
X346000Y307500D03*
X343000Y321500D03*
X350400Y327000D03*
X360000Y340000D03*
X360000Y333000D03*
X360500Y327500D03*
X354000Y327500D03*
X347000Y327500D03*
X350500Y322500D03*
X350400Y345000D03*
X347000Y347500D03*
X354000Y347500D03*
X360000Y347500D03*
X353500Y365000D03*
X359000Y365000D03*
X348000Y367500D03*
X360500Y375000D03*
X352500Y387000D03*
X343950Y399000D03*
X343950Y393090D03*
X343950Y404910D03*
X363000Y393500D03*
X360200Y432700D03*
X353600Y432700D03*
X356900Y432700D03*
X374340Y40750D03*
X368750Y88991D03*
X371250Y112750D03*
X377000Y95500D03*
X377000Y106000D03*
X377000Y113000D03*
X377000Y99000D03*
X377000Y102500D03*
X377000Y109500D03*
X371250Y124749D03*
X377500Y132000D03*
X377500Y135500D03*
X377000Y116500D03*
X377000Y120000D03*
X377500Y156500D03*
X377500Y153000D03*
X377500Y146000D03*
X377500Y149500D03*
X377500Y139000D03*
X377500Y142500D03*
X367800Y170100D03*
X369500Y166750D03*
X377000Y176500D03*
X377000Y173000D03*
X368218Y179673D03*
X377000Y190500D03*
X377000Y187000D03*
X372000Y180500D03*
X377000Y180000D03*
X377000Y194000D03*
X377000Y197500D03*
X368500Y189500D03*
X377000Y183500D03*
X370074Y217269D03*
X368500Y199000D03*
X366597Y217508D03*
X369800Y222600D03*
X373600Y237050D03*
X370500Y227000D03*
X370500Y230500D03*
X366000Y231000D03*
X369000Y235000D03*
X365500Y235000D03*
X363500Y233000D03*
X379950Y234550D03*
X376618Y231129D03*
X364500Y225750D03*
X366000Y251950D03*
X368500Y257500D03*
X382500Y245500D03*
X379000Y245500D03*
X375500Y245500D03*
X370100Y245500D03*
X370000Y251500D03*
X365900Y247414D03*
X376000Y272500D03*
X382000Y261000D03*
X379000Y261000D03*
X366500Y261500D03*
X382500Y265000D03*
X379839Y281839D03*
X382600Y287700D03*
X370000Y285000D03*
X373000Y287000D03*
X372000Y282000D03*
X367500Y282000D03*
X364500Y282000D03*
X377500Y291500D03*
X376500Y309433D03*
X373500Y306501D03*
X367500Y340000D03*
X367500Y333000D03*
X367500Y327500D03*
X365000Y357500D03*
X367500Y347500D03*
X380000Y350500D03*
X375000Y350500D03*
X365000Y365000D03*
X372000Y421400D03*
X366000Y429500D03*
X395300Y72410D03*
X390850Y90741D03*
X388500Y104500D03*
X388500Y111500D03*
X388500Y97500D03*
X389000Y134000D03*
X388500Y118500D03*
X389000Y141000D03*
X389000Y148000D03*
X389000Y155000D03*
X388500Y175000D03*
X388601Y163891D03*
X397000Y167714D03*
X388500Y196000D03*
X388500Y182000D03*
X388500Y189000D03*
X387750Y218100D03*
X387750Y225850D03*
X395500Y222000D03*
X389000Y257500D03*
X384000Y251500D03*
X388500Y246000D03*
X385851Y264250D03*
X391500Y267500D03*
X386000Y284000D03*
X388000Y295000D03*
X395952Y329500D03*
X386000Y350500D03*
X391000Y350500D03*
X390000Y430000D03*
X418000Y104650D03*
X413500Y318800D03*
X412500Y422500D03*
X417500Y418500D03*
X404700Y422500D03*
X414000Y407000D03*
X417000Y407000D03*
X408500Y422500D03*
X417000Y428500D03*
X417500Y438500D03*
X428000Y403700D03*
X425500Y414500D03*
X426500Y423000D03*
X427500Y434000D03*
X427500Y443000D03*
G54D21*
X131500Y16000D03*
X358000Y16000D03*
G54D12*
X22500Y47500D03*
X40000Y359500D03*
X113500Y217000D03*
X113500Y226000D03*
X171000Y420880D03*
X171000Y444500D03*
X171000Y436630D03*
X171000Y428750D03*
X166000Y432500D03*
X175850Y432500D03*
X166000Y440370D03*
X175850Y440320D03*
X190500Y177000D03*
X192500Y220500D03*
X212500Y396500D03*
X250000Y156500D03*
X250000Y164000D03*
X294500Y426750D03*
X294500Y418880D03*
X294500Y442500D03*
X294500Y434630D03*
X319500Y82500D03*
X322500Y169000D03*
X318500Y249500D03*
X318000Y477500D03*
X328500Y175000D03*
X327500Y194000D03*
X327000Y224000D03*
X326000Y357000D03*
X360500Y249500D03*
X370500Y175000D03*
X371000Y194000D03*
X368000Y212500D03*
X366000Y308000D03*
X386000Y471500D03*
X412500Y47000D03*
G54D30*
X192000Y198400D03*
X192000Y186600D03*
G54D31*
X209700Y201500D03*
X217300Y201500D03*
X246200Y260000D03*
X253800Y260000D03*
G54D40*
X336750Y175000D03*
X326750Y249500D03*
X362250Y175000D03*
X352250Y249500D03*
G54D22*
X125860Y84500D03*
X159060Y16000D03*
X145280Y16000D03*
X205140Y84500D03*
X385560Y16000D03*
X371780Y16000D03*
G54D13*
X33500Y61030D03*
X25630Y61030D03*
X33500Y68910D03*
X25630Y68910D03*
X33500Y76780D03*
X25630Y76780D03*
X33500Y84650D03*
X25630Y84650D03*
X33500Y92530D03*
X25630Y92530D03*
X33500Y100400D03*
X25630Y100400D03*
X33500Y108280D03*
X25630Y108280D03*
X33500Y116150D03*
X25630Y116150D03*
X33500Y124020D03*
X25630Y124020D03*
X33500Y131900D03*
X25630Y131900D03*
X33500Y139770D03*
X25630Y139770D03*
X33500Y147650D03*
X25630Y147650D03*
X33500Y155520D03*
X25630Y155520D03*
X33500Y163390D03*
X25630Y163390D03*
X33500Y171270D03*
X25630Y171270D03*
X33500Y179140D03*
X25630Y179140D03*
X33500Y187020D03*
X25630Y187020D03*
X33500Y194890D03*
X25630Y194890D03*
X33500Y202760D03*
X25630Y202760D03*
X33500Y210640D03*
X25630Y210640D03*
X33500Y218510D03*
X25630Y218510D03*
X33500Y226390D03*
X25630Y226390D03*
X33500Y234260D03*
X25630Y234260D03*
X33500Y242130D03*
X33500Y250010D03*
X33500Y257880D03*
X25630Y242130D03*
X25630Y250010D03*
X25630Y257880D03*
X33500Y265760D03*
X33500Y273630D03*
X33500Y281500D03*
X25630Y265760D03*
X25630Y273630D03*
X25630Y281500D03*
X33500Y289380D03*
X33500Y297250D03*
X25630Y289380D03*
X25630Y297250D03*
X33500Y305130D03*
X33500Y313000D03*
X25630Y305130D03*
X70870Y50130D03*
X70870Y58000D03*
X63000Y58000D03*
X94500Y50130D03*
X86620Y50130D03*
X78750Y50130D03*
X94500Y58000D03*
X86620Y58000D03*
X78750Y58000D03*
X110240Y50130D03*
X102370Y50130D03*
X110240Y58000D03*
X102370Y58000D03*
X108840Y471540D03*
X133870Y50130D03*
X125990Y50130D03*
X118120Y50130D03*
X133870Y58000D03*
X125990Y58000D03*
X118120Y58000D03*
X126160Y471540D03*
X157490Y50130D03*
X149610Y50130D03*
X141740Y50130D03*
X157490Y58000D03*
X149610Y58000D03*
X141740Y58000D03*
X173240Y50130D03*
X165360Y50130D03*
X173240Y58000D03*
X165360Y58000D03*
X196860Y50130D03*
X188980Y50130D03*
X181110Y50130D03*
X196860Y58000D03*
X188980Y58000D03*
X181110Y58000D03*
X220480Y50130D03*
X212610Y50130D03*
X204730Y50130D03*
X220480Y58000D03*
X212610Y58000D03*
X204730Y58000D03*
X221000Y414000D03*
X213600Y462300D03*
X236230Y50130D03*
X228350Y50130D03*
X236230Y58000D03*
X228350Y58000D03*
X238150Y249350D03*
X226000Y424000D03*
X241000Y414000D03*
X236000Y424000D03*
X231000Y414000D03*
X223600Y468300D03*
X259850Y50130D03*
X251980Y50130D03*
X244100Y50130D03*
X259850Y58000D03*
X251980Y58000D03*
X244100Y58000D03*
X256000Y424000D03*
X251000Y414000D03*
X246000Y424000D03*
X253400Y462300D03*
X275600Y50130D03*
X267720Y50130D03*
X275600Y58000D03*
X267720Y58000D03*
X281860Y175650D03*
X263400Y468300D03*
X299220Y50130D03*
X291350Y50130D03*
X283470Y50130D03*
X299220Y58000D03*
X291350Y58000D03*
X283470Y58000D03*
X322840Y50130D03*
X314970Y50130D03*
X307090Y50130D03*
X322840Y58000D03*
X314970Y58000D03*
X307090Y58000D03*
X338590Y50130D03*
X330720Y50130D03*
X338590Y58000D03*
X330720Y58000D03*
X362210Y50130D03*
X354340Y50130D03*
X346460Y50130D03*
X362210Y58000D03*
X354340Y58000D03*
X346460Y58000D03*
X370090Y50130D03*
X370090Y58000D03*
X400630Y61030D03*
X400630Y68910D03*
X400630Y76780D03*
X400630Y84650D03*
X400630Y92530D03*
X400630Y100400D03*
X400630Y108280D03*
X400630Y116150D03*
X400630Y124020D03*
X400630Y131900D03*
X400630Y139770D03*
X400630Y147650D03*
X400630Y155520D03*
X400630Y163390D03*
X400630Y171270D03*
X400630Y179140D03*
X400630Y187020D03*
X400630Y194890D03*
X400630Y202760D03*
X400630Y210640D03*
X400630Y218510D03*
X400630Y226390D03*
X400630Y234260D03*
X400630Y242130D03*
X400630Y250010D03*
X400630Y257880D03*
X400630Y265760D03*
X400630Y273630D03*
X400630Y281500D03*
X400630Y289380D03*
X400630Y297250D03*
X400630Y305130D03*
X408500Y61030D03*
X408500Y68910D03*
X408500Y76780D03*
X408500Y84650D03*
X408500Y92530D03*
X408500Y100400D03*
X408500Y108280D03*
X408500Y116150D03*
X408500Y124020D03*
X408500Y131900D03*
X408500Y139770D03*
X408500Y147650D03*
X408500Y155520D03*
X408500Y163390D03*
X408500Y171270D03*
X408500Y179140D03*
X408500Y187020D03*
X408500Y194890D03*
X408500Y202760D03*
X408500Y210640D03*
X408500Y218510D03*
X408500Y226390D03*
X408500Y234260D03*
X408500Y242130D03*
X408500Y250010D03*
X408500Y257880D03*
X408500Y265760D03*
X408500Y273630D03*
X408500Y281500D03*
X408500Y289380D03*
X408500Y297250D03*
X408500Y305130D03*
X408500Y313000D03*
G54D32*
X216000Y449000D03*
X261000Y449000D03*
G54D41*
X344000Y315500D03*
X332000Y315500D03*
G54D14*
X25630Y313000D03*
X63000Y50130D03*
X400630Y313000D03*
G54D23*
X136000Y234079D03*
X136000Y238016D03*
X136063Y247858D03*
X136063Y243921D03*
X132563Y247937D03*
X154400Y235100D03*
X143600Y232200D03*
X140563Y238937D03*
X146563Y227437D03*
X150063Y238937D03*
X154400Y238900D03*
X145563Y238937D03*
X140740Y232240D03*
X151500Y232100D03*
X150563Y223937D03*
X142563Y223937D03*
X146563Y223937D03*
X150563Y227437D03*
X142579Y227437D03*
X147300Y232200D03*
X147563Y241437D03*
X140563Y242937D03*
X151563Y245937D03*
X154563Y250937D03*
X147563Y245937D03*
X140900Y245700D03*
X140563Y250937D03*
X154400Y242900D03*
X150563Y254437D03*
X154563Y254437D03*
X154200Y245600D03*
X143600Y245900D03*
X146563Y254437D03*
X146563Y250937D03*
X150563Y250937D03*
X163063Y233937D03*
X159563Y233937D03*
X163063Y247937D03*
X159563Y241937D03*
X159563Y247937D03*
X223597Y187403D03*
X235080Y190380D03*
X231930Y193530D03*
X238230Y187230D03*
X235080Y193530D03*
X233700Y184029D03*
X232500Y187000D03*
X235080Y196680D03*
X235080Y218720D03*
X231930Y209280D03*
X231930Y215800D03*
X232889Y198429D03*
X235080Y206130D03*
X231930Y206130D03*
X235080Y209280D03*
X235080Y212430D03*
X231930Y212430D03*
X235080Y199830D03*
X231930Y218400D03*
X235080Y202980D03*
X231930Y202980D03*
X235080Y237620D03*
X235080Y225020D03*
X231930Y225020D03*
X231930Y228170D03*
X235080Y234470D03*
X231930Y231320D03*
X235080Y231320D03*
X235080Y228170D03*
X229900Y238200D03*
X231930Y234470D03*
X232400Y240300D03*
X234000Y245000D03*
X238230Y243920D03*
X238230Y240770D03*
X259480Y93280D03*
X259480Y90130D03*
X256330Y83830D03*
X259480Y86980D03*
X259480Y109020D03*
X259500Y115000D03*
X256330Y109020D03*
X259480Y105870D03*
X256330Y102720D03*
X256330Y112170D03*
X256330Y105870D03*
X247680Y196680D03*
X250830Y196680D03*
X253980Y196680D03*
X253980Y190380D03*
X257130Y193530D03*
X241380Y190380D03*
X244530Y190380D03*
X257130Y190380D03*
X250830Y184080D03*
X247680Y190380D03*
X253980Y184080D03*
X250830Y190380D03*
X257130Y196680D03*
X257130Y180930D03*
X257130Y184080D03*
X241380Y180930D03*
X244530Y196680D03*
X244530Y193530D03*
X241380Y193530D03*
X241380Y196680D03*
X247680Y184080D03*
X247680Y193530D03*
X250830Y193530D03*
X253980Y193530D03*
X257130Y212430D03*
X250830Y209280D03*
X250830Y212430D03*
X253980Y199830D03*
X257130Y199830D03*
X250830Y199830D03*
X250830Y218720D03*
X250830Y202980D03*
X257130Y206130D03*
X257130Y209280D03*
X257130Y218720D03*
X241380Y215580D03*
X241380Y212430D03*
X241380Y218720D03*
X241380Y209280D03*
X241380Y202980D03*
X241380Y199830D03*
X241380Y206130D03*
X250830Y206130D03*
X247680Y218720D03*
X247680Y212430D03*
X247680Y199830D03*
X247680Y202980D03*
X247680Y206130D03*
X247680Y209280D03*
X244530Y206130D03*
X244530Y202980D03*
X244530Y209280D03*
X244530Y199830D03*
X244530Y212430D03*
X244530Y218720D03*
X253980Y228170D03*
X257130Y228170D03*
X250830Y221870D03*
X250830Y225020D03*
X250830Y228170D03*
X253980Y234470D03*
X257130Y237620D03*
X244530Y237620D03*
X247680Y234470D03*
X257130Y234470D03*
X253980Y237620D03*
X247680Y237620D03*
X257130Y231320D03*
X253980Y231320D03*
X250830Y231320D03*
X247680Y231320D03*
X247680Y228170D03*
X250830Y237620D03*
X250830Y234470D03*
X257130Y221870D03*
X244530Y234470D03*
X241380Y228170D03*
X241380Y225020D03*
X244530Y231320D03*
X241380Y234470D03*
X241380Y237620D03*
X244530Y228170D03*
X241380Y231320D03*
X241380Y221870D03*
X247680Y225020D03*
X247680Y221870D03*
X244530Y225020D03*
X244530Y221870D03*
X247680Y247070D03*
X247680Y243920D03*
X241363Y243937D03*
X241363Y240787D03*
X244530Y243920D03*
X262630Y90130D03*
X262630Y83830D03*
X275000Y90000D03*
X262630Y93280D03*
X262630Y86980D03*
X278370Y90130D03*
X275000Y83500D03*
X262630Y109020D03*
X264200Y115000D03*
X278370Y112170D03*
X278370Y105870D03*
X262630Y105870D03*
X262630Y96430D03*
X275000Y96500D03*
X278370Y109020D03*
X278370Y96430D03*
X266000Y99500D03*
X278370Y102720D03*
X279170Y190380D03*
X263430Y190380D03*
X263430Y196680D03*
X269720Y196680D03*
X272870Y196680D03*
X269720Y190380D03*
X272870Y190380D03*
X276020Y196680D03*
X279170Y196680D03*
X279170Y180930D03*
X260280Y193530D03*
X279170Y184080D03*
X260280Y180930D03*
X276020Y190380D03*
X260280Y190380D03*
X272870Y180930D03*
X276020Y184080D03*
X276020Y180930D03*
X260280Y184080D03*
X272870Y184080D03*
X266580Y190380D03*
X263430Y184080D03*
X269720Y184080D03*
X260280Y196680D03*
X263430Y193530D03*
X269720Y193530D03*
X272870Y193530D03*
X276020Y193530D03*
X279170Y193530D03*
X263430Y199830D03*
X263430Y206130D03*
X269720Y199830D03*
X272870Y212430D03*
X279170Y212430D03*
X260280Y199830D03*
X272870Y199830D03*
X276020Y199830D03*
X279170Y199830D03*
X279170Y202980D03*
X279170Y206130D03*
X279170Y209280D03*
X260280Y206130D03*
X260280Y209280D03*
X260280Y212430D03*
X260280Y218720D03*
X263430Y209280D03*
X263430Y212430D03*
X263430Y218720D03*
X269720Y209280D03*
X269720Y212430D03*
X269720Y218720D03*
X272870Y206130D03*
X272870Y209280D03*
X272870Y218720D03*
X269720Y206130D03*
X279170Y218720D03*
X279170Y237620D03*
X279170Y234470D03*
X279170Y231320D03*
X263430Y221870D03*
X263430Y228170D03*
X269720Y228170D03*
X272870Y228170D03*
X276020Y228170D03*
X279170Y221870D03*
X279170Y225020D03*
X279170Y228170D03*
X263430Y237620D03*
X269720Y237620D03*
X272870Y237620D03*
X263430Y231320D03*
X269720Y231320D03*
X276020Y237620D03*
X272870Y231320D03*
X276020Y231320D03*
X260280Y231320D03*
X260280Y234470D03*
X260280Y221870D03*
X269720Y221870D03*
X272870Y221870D03*
X266580Y237620D03*
X260280Y237620D03*
X260280Y228170D03*
X263430Y234470D03*
X269720Y234470D03*
X272870Y234470D03*
X276020Y234470D03*
X276020Y243920D03*
X269720Y243920D03*
X269720Y247070D03*
X263430Y247070D03*
X260280Y243920D03*
X263430Y243920D03*
X260280Y247070D03*
X276020Y247070D03*
X260575Y249654D03*
X279170Y247070D03*
X279170Y243920D03*
X272870Y247070D03*
X272870Y243920D03*
X284670Y83830D03*
X284670Y86980D03*
X284670Y93280D03*
X281520Y96430D03*
X281520Y102720D03*
X284670Y96430D03*
X281520Y112170D03*
X281520Y105870D03*
X284670Y105870D03*
X281520Y109020D03*
X284670Y109020D03*
X284670Y112170D03*
X285124Y99377D03*
X288620Y196680D03*
X288620Y193530D03*
X285470Y193530D03*
X294920Y190380D03*
X288620Y190380D03*
X285470Y190380D03*
X285470Y184080D03*
X298070Y193530D03*
X282320Y180930D03*
X282320Y184080D03*
X282320Y196680D03*
X282320Y193530D03*
X282320Y190380D03*
X294920Y196680D03*
X291770Y187230D03*
X298070Y196680D03*
X288620Y180930D03*
X298070Y190380D03*
X291770Y184080D03*
X294920Y184080D03*
X294920Y187230D03*
X288620Y184080D03*
X285470Y180930D03*
X294920Y193530D03*
X285470Y196680D03*
X294920Y218720D03*
X285470Y218720D03*
X288620Y218720D03*
X285470Y212430D03*
X288620Y212430D03*
X285470Y209280D03*
X288620Y209280D03*
X288620Y206130D03*
X288620Y202980D03*
X288620Y199830D03*
X282320Y212430D03*
X298070Y199830D03*
X282320Y199830D03*
X282320Y202980D03*
X282320Y206130D03*
X294920Y206130D03*
X298070Y206130D03*
X294920Y199830D03*
X294920Y202980D03*
X288620Y215580D03*
X282320Y218720D03*
X282320Y209280D03*
X298070Y202980D03*
X298070Y212430D03*
X285470Y199830D03*
X285470Y202980D03*
X285470Y206130D03*
X298070Y225020D03*
X288620Y221870D03*
X282320Y231320D03*
X282320Y228170D03*
X285470Y228170D03*
X285470Y225020D03*
X294920Y221870D03*
X298070Y221870D03*
X282320Y221870D03*
X282320Y225020D03*
X285470Y221870D03*
X298070Y234470D03*
X294920Y225020D03*
X288620Y225020D03*
X288620Y228170D03*
X288620Y234470D03*
X285470Y237620D03*
X288620Y231320D03*
X285470Y231320D03*
X282320Y237620D03*
X282320Y234470D03*
X294920Y237620D03*
X301000Y225000D03*
X285470Y234470D03*
X288620Y237620D03*
X298070Y237620D03*
X298000Y228170D03*
X291770Y243920D03*
X294920Y243920D03*
X294920Y240770D03*
X291770Y240770D03*
X282320Y247070D03*
X285470Y247070D03*
X282320Y243920D03*
X285470Y243920D03*
X288620Y247070D03*
X288620Y243920D03*
X301427Y219544D03*
X305500Y232030D03*
G54D24*
X127940Y351060D03*
X127940Y345940D03*
X120060Y351060D03*
X120060Y348500D03*
X120060Y345940D03*
G54D33*
X207700Y437000D03*
X269200Y437000D03*
G54D15*
X25000Y381500D03*
X29000Y381500D03*
X25000Y404500D03*
X29000Y404500D03*
X27500Y427000D03*
X23500Y427000D03*
X42500Y339500D03*
X46500Y339500D03*
X46000Y381500D03*
X42000Y381500D03*
X46000Y388500D03*
X46000Y392500D03*
X50000Y407000D03*
X50000Y411000D03*
X37500Y412500D03*
X37500Y416500D03*
X46000Y411000D03*
X46000Y407000D03*
X37500Y425000D03*
X37500Y421000D03*
X66500Y137000D03*
X66500Y133000D03*
X66000Y343000D03*
X62000Y343000D03*
X66000Y358000D03*
X62000Y358000D03*
X66000Y348000D03*
X62000Y348000D03*
X66000Y378000D03*
X62000Y378000D03*
X66000Y368000D03*
X62000Y368000D03*
X66000Y373000D03*
X62000Y373000D03*
X66000Y383000D03*
X62000Y383000D03*
X66000Y398000D03*
X62000Y398000D03*
X66000Y388000D03*
X62000Y388000D03*
X66000Y393000D03*
X62000Y393000D03*
X66000Y403000D03*
X62000Y403000D03*
X62000Y413000D03*
X66000Y413000D03*
X70900Y471900D03*
X74900Y471900D03*
X91500Y383000D03*
X91500Y379000D03*
X91500Y387000D03*
X91500Y391000D03*
X109500Y257500D03*
X113500Y257500D03*
X113500Y254000D03*
X109500Y254000D03*
X109500Y250500D03*
X113500Y250500D03*
X111000Y342500D03*
X103500Y342500D03*
X111000Y346500D03*
X103500Y346500D03*
X111500Y351000D03*
X107500Y351000D03*
X113000Y379200D03*
X110000Y389000D03*
X114000Y389000D03*
X97100Y408000D03*
X101100Y408000D03*
X104600Y408000D03*
X108600Y408000D03*
X122500Y256000D03*
X122500Y260000D03*
X122500Y247000D03*
X122500Y251000D03*
X137000Y278500D03*
X123500Y280500D03*
X137000Y282500D03*
X123500Y284500D03*
X136500Y295500D03*
X136500Y291500D03*
X133000Y288500D03*
X133000Y284500D03*
X133000Y302500D03*
X137000Y302500D03*
X129000Y326000D03*
X125000Y326000D03*
X117000Y379200D03*
X137000Y396500D03*
X133000Y396500D03*
X126500Y424000D03*
X130500Y424000D03*
X131000Y430500D03*
X127000Y430500D03*
X139500Y144500D03*
X139500Y140500D03*
X139500Y172000D03*
X139500Y168000D03*
X140000Y195500D03*
X140000Y199500D03*
X143000Y236800D03*
X143000Y240800D03*
X145500Y243800D03*
X149500Y243800D03*
X148500Y270000D03*
X148500Y274000D03*
X154500Y308500D03*
X142500Y315500D03*
X138500Y315500D03*
X154500Y331500D03*
X150500Y331500D03*
X154500Y336000D03*
X150500Y336000D03*
X145000Y331500D03*
X145000Y335500D03*
X140000Y331500D03*
X140000Y335500D03*
X151500Y384000D03*
X147500Y384000D03*
X152000Y395000D03*
X148000Y395000D03*
X144500Y420500D03*
X144500Y416500D03*
X150500Y434000D03*
X150500Y438000D03*
X178000Y279000D03*
X173000Y270000D03*
X173000Y274000D03*
X169000Y270000D03*
X169000Y274000D03*
X178000Y282500D03*
X158500Y308500D03*
X171500Y315500D03*
X167500Y315500D03*
X178000Y310000D03*
X178000Y306000D03*
X171000Y338000D03*
X167000Y338000D03*
X166000Y378000D03*
X162000Y378000D03*
X166000Y382000D03*
X162000Y382000D03*
X169500Y370000D03*
X169500Y366000D03*
X162000Y386000D03*
X166000Y386000D03*
X172500Y405000D03*
X172500Y401000D03*
X167500Y405000D03*
X167500Y401000D03*
X195000Y12000D03*
X195000Y8000D03*
X185000Y12000D03*
X185000Y8000D03*
X190000Y23500D03*
X190000Y19500D03*
X197000Y19500D03*
X197000Y23500D03*
X193500Y23500D03*
X193500Y19500D03*
X190000Y34500D03*
X194000Y34500D03*
X191000Y81000D03*
X195000Y81000D03*
X197500Y177500D03*
X197500Y174000D03*
X182000Y279000D03*
X182000Y282500D03*
X181500Y296500D03*
X181500Y292500D03*
X195000Y287500D03*
X198000Y319500D03*
X187500Y335500D03*
X187500Y331500D03*
X198500Y361500D03*
X194500Y361500D03*
X198500Y345500D03*
X180500Y369000D03*
X180500Y365000D03*
X183000Y394000D03*
X183000Y398000D03*
X193500Y398000D03*
X193500Y394000D03*
X190000Y430500D03*
X190000Y434500D03*
X194000Y430500D03*
X194000Y434500D03*
X200000Y8000D03*
X200000Y12000D03*
X215936Y168384D03*
X218764Y165556D03*
X212500Y178000D03*
X216500Y178000D03*
X201500Y177500D03*
X201500Y174000D03*
X214000Y229000D03*
X218000Y229000D03*
X214000Y236000D03*
X218000Y236000D03*
X214000Y232500D03*
X218000Y232500D03*
X207500Y238500D03*
X207500Y234500D03*
X216646Y259816D03*
X219474Y262644D03*
X199000Y287500D03*
X219000Y286500D03*
X218500Y292000D03*
X202000Y319500D03*
X202500Y345500D03*
X215500Y361500D03*
X214000Y375000D03*
X214000Y371000D03*
X215500Y365500D03*
X239900Y160500D03*
X239900Y164500D03*
X235900Y160500D03*
X235900Y164500D03*
X227500Y191500D03*
X223500Y191500D03*
X224500Y218000D03*
X228500Y218000D03*
X224500Y214000D03*
X228500Y214000D03*
X222500Y239500D03*
X226500Y239500D03*
X228500Y222000D03*
X224500Y222000D03*
X225000Y228500D03*
X225000Y232500D03*
X234000Y263000D03*
X234000Y267000D03*
X223000Y286500D03*
X222500Y292000D03*
X228000Y292000D03*
X232000Y292000D03*
X223000Y361500D03*
X230000Y361500D03*
X226500Y361500D03*
X238000Y355000D03*
X223000Y365500D03*
X230000Y365500D03*
X226500Y365500D03*
X223500Y375500D03*
X227500Y375500D03*
X223500Y372000D03*
X227500Y372000D03*
X240000Y384000D03*
X236500Y384000D03*
X233000Y384000D03*
X229000Y384000D03*
X225000Y384000D03*
X240000Y388000D03*
X236500Y388000D03*
X233000Y388000D03*
X256500Y81000D03*
X260500Y81000D03*
X258500Y99500D03*
X243900Y160500D03*
X243900Y164500D03*
X251000Y176000D03*
X251000Y172000D03*
X253500Y206500D03*
X253500Y210500D03*
X253500Y203000D03*
X257500Y203000D03*
X253500Y218000D03*
X253500Y214000D03*
X258000Y215500D03*
X250500Y215000D03*
X246500Y215000D03*
X256500Y225000D03*
X260500Y225000D03*
X253500Y225000D03*
X253500Y221000D03*
X250600Y247600D03*
X250600Y243600D03*
X255300Y247600D03*
X255300Y243600D03*
X258000Y316000D03*
X242000Y355000D03*
X243500Y384000D03*
X243500Y388000D03*
X254500Y396500D03*
X254500Y392500D03*
X275000Y93300D03*
X279000Y93300D03*
X275000Y86800D03*
X279000Y86800D03*
X265900Y90500D03*
X265900Y94500D03*
X265900Y83500D03*
X265900Y87500D03*
X274800Y99500D03*
X278800Y99500D03*
X262500Y99500D03*
X270500Y142500D03*
X270500Y146500D03*
X268000Y173500D03*
X268000Y177500D03*
X264000Y173500D03*
X264000Y177500D03*
X272500Y173500D03*
X272500Y177500D03*
X261100Y165600D03*
X265100Y165600D03*
X276000Y173500D03*
X276000Y169500D03*
X279500Y161500D03*
X279500Y165500D03*
X266500Y195000D03*
X276100Y202700D03*
X276100Y206700D03*
X272500Y202500D03*
X268500Y202500D03*
X261000Y202500D03*
X265000Y202500D03*
X276100Y217500D03*
X276100Y210000D03*
X276100Y214000D03*
X262000Y215500D03*
X266500Y206000D03*
X266500Y210000D03*
X266000Y217500D03*
X273100Y215000D03*
X269100Y215000D03*
X266500Y199000D03*
X279500Y215400D03*
X263500Y225000D03*
X267500Y225000D03*
X276100Y221500D03*
X270500Y225000D03*
X274500Y225000D03*
X266000Y221500D03*
X266000Y228500D03*
X266000Y232500D03*
X278000Y258000D03*
X274000Y258000D03*
X278000Y262000D03*
X274000Y262000D03*
X269000Y262000D03*
X265000Y262000D03*
X278000Y269500D03*
X278000Y273500D03*
X274000Y269500D03*
X274000Y273500D03*
X262000Y316000D03*
X279500Y316000D03*
X266000Y339500D03*
X270000Y339500D03*
X272500Y360500D03*
X272500Y356500D03*
X268500Y399000D03*
X268500Y395000D03*
X280500Y395000D03*
X280500Y391000D03*
X292000Y171500D03*
X292000Y175500D03*
X288500Y171500D03*
X288500Y175500D03*
X284500Y165500D03*
X284500Y161500D03*
X291700Y194300D03*
X291700Y190300D03*
X299200Y185500D03*
X283500Y215400D03*
X302000Y231000D03*
X302000Y235000D03*
X282000Y258000D03*
X286000Y258000D03*
X290000Y258000D03*
X285500Y254000D03*
X289500Y254000D03*
X282000Y262000D03*
X286000Y262000D03*
X282000Y269500D03*
X282000Y273500D03*
X290000Y262000D03*
X301000Y316500D03*
X283500Y316000D03*
X284500Y402500D03*
X289000Y402500D03*
X285000Y395000D03*
X285000Y391000D03*
X288500Y391000D03*
X288500Y395000D03*
X284500Y406500D03*
X289000Y406500D03*
X320500Y12000D03*
X320500Y8000D03*
X314000Y95000D03*
X314000Y99000D03*
X312944Y168474D03*
X310116Y165646D03*
X303200Y185500D03*
X305500Y193800D03*
X305500Y189800D03*
X308000Y214500D03*
X304000Y214500D03*
X305500Y207000D03*
X305500Y203000D03*
X320500Y226000D03*
X316500Y226000D03*
X316500Y237000D03*
X320500Y237000D03*
X304000Y225000D03*
X308000Y225000D03*
X316500Y233500D03*
X320500Y233500D03*
X316500Y229500D03*
X320500Y229500D03*
X313854Y259286D03*
X311026Y262114D03*
X305000Y316500D03*
X335500Y8000D03*
X335500Y12000D03*
X330500Y12000D03*
X330500Y8000D03*
X325500Y23500D03*
X325500Y19500D03*
X333000Y19500D03*
X333000Y23500D03*
X329000Y23500D03*
X329000Y19500D03*
X325500Y34500D03*
X329500Y34500D03*
X335500Y198000D03*
X333000Y214000D03*
X333000Y218000D03*
X335500Y202000D03*
X329000Y401500D03*
X329000Y397500D03*
X329000Y393000D03*
X329000Y389000D03*
X350500Y278500D03*
X350500Y274500D03*
X356500Y371000D03*
X356500Y375000D03*
X381000Y95500D03*
X381000Y113000D03*
X381000Y109500D03*
X381000Y106000D03*
X381000Y102500D03*
X381000Y99000D03*
X381500Y132000D03*
X381000Y120000D03*
X381000Y116500D03*
X381500Y135500D03*
X381500Y149500D03*
X381500Y139000D03*
X381500Y142500D03*
X381500Y156500D03*
X381500Y153000D03*
X381500Y146000D03*
X381000Y176500D03*
X381000Y173000D03*
X381000Y183500D03*
X381000Y180000D03*
X381000Y197500D03*
X381000Y194000D03*
X381000Y190500D03*
X381000Y187000D03*
X372000Y257500D03*
X376000Y257500D03*
X377500Y284000D03*
X377500Y288000D03*
X385000Y95500D03*
X385000Y113000D03*
X385000Y109500D03*
X385000Y106000D03*
X385000Y102500D03*
X385000Y99000D03*
X385500Y132000D03*
X385000Y120000D03*
X385000Y116500D03*
X385500Y135500D03*
X385500Y149500D03*
X385500Y139000D03*
X385500Y142500D03*
X385500Y156500D03*
X385500Y153000D03*
X385500Y146000D03*
X385000Y176500D03*
X385000Y173000D03*
X385000Y183500D03*
X385000Y180000D03*
X385000Y197500D03*
X385000Y194000D03*
X385000Y190500D03*
X385000Y187000D03*
X408500Y418500D03*
X412500Y418500D03*
X424000Y408500D03*
X425500Y418500D03*
X421500Y418500D03*
X425000Y428500D03*
X421000Y428500D03*
X428000Y408500D03*
G54D42*
X338100Y422200D03*
X356900Y422200D03*
G54D25*
X146000Y299500D03*
X152000Y299500D03*
X293000Y113000D03*
X299000Y113000D03*
X282500Y332500D03*
X288500Y332500D03*
X353000Y357500D03*
X347000Y357500D03*
X421500Y438500D03*
X427500Y438500D03*
G54D16*
X39000Y36000D03*
X81000Y90500D03*
X81500Y200000D03*
X388000Y47000D03*
X417500Y391500D03*
G54D34*
X228150Y175650D03*
X228150Y249350D03*
X301860Y175650D03*
X301860Y249350D03*
G54D43*
X336500Y450690D03*
G54D35*
G01X15150Y-132500D02*
X15150Y-145000D01*
G01X11585Y-132500D02*
X18715Y-132500D01*
G01X23520Y-145000D02*
X23520Y-132500D01*
X27550Y-142917D01*
X31580Y-132500D01*
X31580Y-145000D01*
G01X36695Y-143334D02*
X37935Y-144375D01*
X39330Y-145000D01*
X40570Y-145000D01*
X41810Y-144375D01*
X42740Y-143334D01*
X43205Y-141875D01*
X42895Y-140417D01*
X42120Y-139167D01*
X40725Y-138333D01*
X38865Y-137917D01*
X37780Y-137083D01*
X37315Y-135625D01*
X37625Y-134167D01*
X38400Y-133125D01*
X39485Y-132500D01*
X40570Y-132500D01*
X41655Y-132917D01*
X42585Y-133958D01*
G01X61340Y-143125D02*
X62270Y-144167D01*
X63355Y-144792D01*
X64750Y-145000D01*
X66145Y-144583D01*
X67230Y-143750D01*
X68005Y-142292D01*
X68160Y-140625D01*
X67850Y-138958D01*
X67075Y-137917D01*
X65990Y-137083D01*
X64905Y-136875D01*
X63820Y-137083D01*
X62425Y-137917D01*
X62890Y-132500D01*
X67075Y-132500D01*
G01X76840Y-145000D02*
X77150Y-142292D01*
X77615Y-140000D01*
X78235Y-137917D01*
X79010Y-135625D01*
X80250Y-132500D01*
X74050Y-132500D01*
G01X89550Y-132500D02*
X88310Y-132917D01*
X87380Y-133958D01*
X86760Y-135208D01*
X86295Y-136875D01*
X86140Y-138750D01*
X86295Y-140625D01*
X86760Y-142292D01*
X87380Y-143542D01*
X88310Y-144583D01*
X89550Y-145000D01*
X90790Y-144583D01*
X91720Y-143542D01*
X92340Y-142292D01*
X92805Y-140625D01*
X92960Y-138750D01*
X92805Y-136875D01*
X92340Y-135208D01*
X91720Y-133958D01*
X90790Y-132917D01*
X89550Y-132500D01*
G01X98850Y-132500D02*
X98850Y-145000D01*
X105050Y-145000D01*
G01X111095Y-143334D02*
X112335Y-144375D01*
X113730Y-145000D01*
X114970Y-145000D01*
X116210Y-144375D01*
X117140Y-143334D01*
X117605Y-141875D01*
X117295Y-140417D01*
X116520Y-139167D01*
X115125Y-138333D01*
X113265Y-137917D01*
X112180Y-137083D01*
X111715Y-135625D01*
X112025Y-134167D01*
X112800Y-133125D01*
X113885Y-132500D01*
X114970Y-132500D01*
X116055Y-132917D01*
X116985Y-133958D01*
G01X123340Y-142500D02*
X124270Y-143959D01*
X125510Y-144792D01*
X126905Y-145000D01*
X128145Y-144792D01*
X129385Y-143750D01*
X130160Y-142500D01*
X130315Y-141250D01*
X130005Y-139792D01*
X128920Y-138750D01*
X127835Y-138333D01*
X126440Y-138333D01*
G01X127835Y-138333D02*
X128765Y-137708D01*
X129540Y-136667D01*
X129850Y-135417D01*
X129540Y-134167D01*
X128765Y-133125D01*
X127370Y-132500D01*
X125975Y-132708D01*
X124580Y-133542D01*
G01X136825Y-136667D02*
X141475Y-145000D01*
G01X141475Y-136667D02*
X136825Y-145000D01*
G01X148760Y-145417D02*
X154340Y-132500D01*
G01X160850Y-145000D02*
X160850Y-132500D01*
X164725Y-132500D01*
X165965Y-133125D01*
X166740Y-133958D01*
X167050Y-135625D01*
X166740Y-137292D01*
X165810Y-138333D01*
X164725Y-138958D01*
X160850Y-138958D01*
G01X164725Y-138958D02*
X167050Y-145000D01*
G01X172320Y-145000D02*
X172320Y-132500D01*
X176350Y-142917D01*
X180380Y-132500D01*
X180380Y-145000D01*
G01X185340Y-143125D02*
X186270Y-144167D01*
X187355Y-144792D01*
X188750Y-145000D01*
X190145Y-144583D01*
X191230Y-143750D01*
X192005Y-142292D01*
X192160Y-140625D01*
X191850Y-138958D01*
X191075Y-137917D01*
X189990Y-137083D01*
X188905Y-136875D01*
X187820Y-137083D01*
X186425Y-137917D01*
X186890Y-132500D01*
X191075Y-132500D01*
G01X198825Y-136667D02*
X203475Y-145000D01*
G01X203475Y-136667D02*
X198825Y-145000D01*
G01X229360Y-133542D02*
X228430Y-132917D01*
X227345Y-132500D01*
X226105Y-132500D01*
X224710Y-133125D01*
X223625Y-134167D01*
X222850Y-135417D01*
X222230Y-137500D01*
X222075Y-139375D01*
X222385Y-141250D01*
X222850Y-142500D01*
X223780Y-143750D01*
X224865Y-144583D01*
X225950Y-145000D01*
X227035Y-145000D01*
X228120Y-144583D01*
X229050Y-143959D01*
X229825Y-143125D01*
G01X235250Y-145000D02*
X235250Y-132500D01*
X238970Y-132500D01*
X240210Y-133125D01*
X241140Y-134583D01*
X241450Y-136250D01*
X241140Y-137917D01*
X240365Y-139167D01*
X238970Y-139792D01*
X235250Y-139792D01*
G01X247340Y-132500D02*
X247340Y-141458D01*
X247960Y-143334D01*
X249200Y-144583D01*
X250750Y-145000D01*
X252300Y-144583D01*
X253540Y-143334D01*
X254160Y-141458D01*
X254160Y-132500D01*
G01X278960Y-133542D02*
X278030Y-132917D01*
X276945Y-132500D01*
X275705Y-132500D01*
X274310Y-133125D01*
X273225Y-134167D01*
X272450Y-135417D01*
X271830Y-137500D01*
X271675Y-139375D01*
X271985Y-141250D01*
X272450Y-142500D01*
X273380Y-143750D01*
X274465Y-144583D01*
X275550Y-145000D01*
X276635Y-145000D01*
X277720Y-144583D01*
X278650Y-143959D01*
X279425Y-143125D01*
G01X284075Y-145000D02*
X287950Y-132500D01*
X291825Y-145000D01*
G01X290430Y-140625D02*
X285470Y-140625D01*
G01X297250Y-145000D02*
X297250Y-132500D01*
X301125Y-132500D01*
X302365Y-133125D01*
X303140Y-133958D01*
X303450Y-135625D01*
X303140Y-137292D01*
X302210Y-138333D01*
X301125Y-138958D01*
X297250Y-138958D01*
G01X301125Y-138958D02*
X303450Y-145000D01*
G01X309340Y-145000D02*
X309340Y-132500D01*
X312440Y-132500D01*
X313680Y-133125D01*
X314610Y-133958D01*
X315385Y-135208D01*
X316005Y-136667D01*
X316160Y-138750D01*
X316005Y-140833D01*
X315385Y-142292D01*
X314610Y-143542D01*
X313680Y-144375D01*
X312440Y-145000D01*
X309340Y-145000D01*
G01X334450Y-145000D02*
X334450Y-132500D01*
X338325Y-132500D01*
X339565Y-133125D01*
X340340Y-133958D01*
X340650Y-135625D01*
X340340Y-137292D01*
X339410Y-138333D01*
X338325Y-138958D01*
X334450Y-138958D01*
G01X338325Y-138958D02*
X340650Y-145000D01*
G01X353050Y-145000D02*
X346850Y-145000D01*
X346850Y-132500D01*
X353050Y-132500D01*
G01X350570Y-138542D02*
X346850Y-138542D01*
G01X358475Y-132500D02*
X362350Y-145000D01*
X366225Y-132500D01*
G01X390250Y-145000D02*
X384050Y-145000D01*
X384050Y-132500D01*
X390250Y-132500D01*
G01X387770Y-138542D02*
X384050Y-138542D01*
G01X411950Y-132500D02*
X410710Y-132917D01*
X409780Y-133958D01*
X409160Y-135208D01*
X408695Y-136875D01*
X408540Y-138750D01*
X408695Y-140625D01*
X409160Y-142292D01*
X409780Y-143542D01*
X410710Y-144583D01*
X411950Y-145000D01*
X413190Y-144583D01*
X414120Y-143542D01*
X414740Y-142292D01*
X415205Y-140625D01*
X415360Y-138750D01*
X415205Y-136875D01*
X414740Y-135208D01*
X414120Y-133958D01*
X413190Y-132917D01*
X411950Y-132500D01*
G01X424350Y-145000D02*
X424350Y-132500D01*
X422490Y-135000D01*
G01X422490Y-145000D02*
X426210Y-145000D01*
G01X433960Y-145417D02*
X439540Y-132500D01*
G01X446205Y-134583D02*
X447135Y-133334D01*
X448220Y-132708D01*
X449460Y-132500D01*
X451010Y-132917D01*
X452095Y-133958D01*
X452405Y-135208D01*
X452250Y-136459D01*
X451630Y-137500D01*
X448530Y-139583D01*
X447135Y-141042D01*
X446205Y-143125D01*
X445895Y-145000D01*
X452405Y-145000D01*
G01X461550Y-132500D02*
X460310Y-132917D01*
X459380Y-133958D01*
X458760Y-135208D01*
X458295Y-136875D01*
X458140Y-138750D01*
X458295Y-140625D01*
X458760Y-142292D01*
X459380Y-143542D01*
X460310Y-144583D01*
X461550Y-145000D01*
X462790Y-144583D01*
X463720Y-143542D01*
X464340Y-142292D01*
X464805Y-140625D01*
X464960Y-138750D01*
X464805Y-136875D01*
X464340Y-135208D01*
X463720Y-133958D01*
X462790Y-132917D01*
X461550Y-132500D01*
G01X471160Y-145417D02*
X476740Y-132500D01*
G01X483405Y-134583D02*
X484335Y-133334D01*
X485420Y-132708D01*
X486660Y-132500D01*
X488210Y-132917D01*
X489295Y-133958D01*
X489605Y-135208D01*
X489450Y-136459D01*
X488830Y-137500D01*
X485730Y-139583D01*
X484335Y-141042D01*
X483405Y-143125D01*
X483095Y-145000D01*
X489605Y-145000D01*
G01X498750Y-132500D02*
X497510Y-132917D01*
X496580Y-133958D01*
X495960Y-135208D01*
X495495Y-136875D01*
X495340Y-138750D01*
X495495Y-140625D01*
X495960Y-142292D01*
X496580Y-143542D01*
X497510Y-144583D01*
X498750Y-145000D01*
X499990Y-144583D01*
X500920Y-143542D01*
X501540Y-142292D01*
X502005Y-140625D01*
X502160Y-138750D01*
X502005Y-136875D01*
X501540Y-135208D01*
X500920Y-133958D01*
X499990Y-132917D01*
X498750Y-132500D01*
G01X511150Y-145000D02*
X511150Y-132500D01*
X509290Y-135000D01*
G01X509290Y-145000D02*
X513010Y-145000D01*
G01X520605Y-134583D02*
X521535Y-133334D01*
X522620Y-132708D01*
X523860Y-132500D01*
X525410Y-132917D01*
X526495Y-133958D01*
X526805Y-135208D01*
X526650Y-136459D01*
X526030Y-137500D01*
X522930Y-139583D01*
X521535Y-141042D01*
X520605Y-143125D01*
X520295Y-145000D01*
X526805Y-145000D01*
G01X14650Y-111500D02*
X14650Y-124000D01*
G01X11085Y-111500D02*
X18215Y-111500D01*
G01X24725Y-118375D02*
X29685Y-118375D01*
X29220Y-116917D01*
X28445Y-116083D01*
X27360Y-115667D01*
X26275Y-115875D01*
X25345Y-116500D01*
X24725Y-117958D01*
X24415Y-119209D01*
X24415Y-120458D01*
X24725Y-121708D01*
X25500Y-122959D01*
X26430Y-123792D01*
X27515Y-124000D01*
X28600Y-123583D01*
X29685Y-122334D01*
G01X37125Y-115667D02*
X41775Y-124000D01*
G01X41775Y-115667D02*
X37125Y-124000D01*
G01X54640Y-124000D02*
X54640Y-115667D01*
G01X54640Y-117125D02*
X54020Y-116292D01*
X53090Y-115875D01*
X52005Y-115667D01*
X50920Y-116083D01*
X49990Y-116917D01*
X49370Y-118167D01*
X49060Y-119833D01*
X49370Y-121500D01*
X49990Y-122750D01*
X50920Y-123583D01*
X52005Y-124000D01*
X53090Y-123792D01*
X54020Y-123167D01*
X54640Y-122334D01*
G01X61925Y-122542D02*
X62700Y-123375D01*
X63785Y-124000D01*
X64715Y-124000D01*
X65645Y-123583D01*
X66265Y-122959D01*
X66575Y-122125D01*
X66420Y-120875D01*
X65800Y-120250D01*
X63010Y-119000D01*
X62390Y-117542D01*
X62700Y-116500D01*
X63320Y-115875D01*
X64250Y-115667D01*
X65180Y-115875D01*
X66110Y-116500D01*
G01X87190Y-111500D02*
X90910Y-111500D01*
G01X89050Y-111500D02*
X89050Y-124000D01*
G01X87190Y-124000D02*
X90910Y-124000D01*
G01X98815Y-124000D02*
X98815Y-115667D01*
G01X98815Y-117750D02*
X99435Y-116708D01*
X100365Y-115875D01*
X101605Y-115667D01*
X102690Y-115875D01*
X103620Y-116708D01*
X104085Y-118167D01*
X104085Y-124000D01*
G01X111525Y-122542D02*
X112300Y-123375D01*
X113385Y-124000D01*
X114315Y-124000D01*
X115245Y-123583D01*
X115865Y-122959D01*
X116175Y-122125D01*
X116020Y-120875D01*
X115400Y-120250D01*
X112610Y-119000D01*
X111990Y-117542D01*
X112300Y-116500D01*
X112920Y-115875D01*
X113850Y-115667D01*
X114780Y-115875D01*
X115710Y-116500D01*
G01X126250Y-111500D02*
X126250Y-124000D01*
G01X124080Y-115667D02*
X128420Y-115667D01*
G01X136480Y-124000D02*
X136480Y-115667D01*
G01X136480Y-117333D02*
X137255Y-116500D01*
X138030Y-115875D01*
X139115Y-115667D01*
X139890Y-115875D01*
X140820Y-116500D01*
G01X148415Y-115667D02*
X148415Y-121500D01*
X149035Y-122959D01*
X149965Y-123792D01*
X151050Y-124000D01*
X152135Y-123792D01*
X153065Y-122959D01*
X153685Y-121500D01*
G01X153685Y-124000D02*
X153685Y-115667D01*
G01X158800Y-124000D02*
X158800Y-115667D01*
G01X158800Y-117958D02*
X159265Y-116917D01*
X160040Y-116083D01*
X161125Y-115667D01*
X162210Y-116083D01*
X162985Y-116917D01*
X163450Y-117958D01*
X163450Y-124000D01*
G01X163450Y-117958D02*
X163915Y-116917D01*
X164690Y-116083D01*
X165775Y-115667D01*
X166860Y-116083D01*
X167635Y-116917D01*
X168100Y-118167D01*
X168100Y-124000D01*
G01X173525Y-118375D02*
X178485Y-118375D01*
X178020Y-116917D01*
X177245Y-116083D01*
X176160Y-115667D01*
X175075Y-115875D01*
X174145Y-116500D01*
X173525Y-117958D01*
X173215Y-119209D01*
X173215Y-120458D01*
X173525Y-121708D01*
X174300Y-122959D01*
X175230Y-123792D01*
X176315Y-124000D01*
X177400Y-123583D01*
X178485Y-122334D01*
G01X185615Y-124000D02*
X185615Y-115667D01*
G01X185615Y-117750D02*
X186235Y-116708D01*
X187165Y-115875D01*
X188405Y-115667D01*
X189490Y-115875D01*
X190420Y-116708D01*
X190885Y-118167D01*
X190885Y-124000D01*
G01X200650Y-111500D02*
X200650Y-124000D01*
G01X198480Y-115667D02*
X202820Y-115667D01*
G01X210725Y-122542D02*
X211500Y-123375D01*
X212585Y-124000D01*
X213515Y-124000D01*
X214445Y-123583D01*
X215065Y-122959D01*
X215375Y-122125D01*
X215220Y-120875D01*
X214600Y-120250D01*
X211810Y-119000D01*
X211190Y-117542D01*
X211500Y-116500D01*
X212120Y-115875D01*
X213050Y-115667D01*
X213980Y-115875D01*
X214910Y-116500D01*
G01X235990Y-111500D02*
X239710Y-111500D01*
G01X237850Y-111500D02*
X237850Y-124000D01*
G01X235990Y-124000D02*
X239710Y-124000D01*
G01X247615Y-124000D02*
X247615Y-115667D01*
G01X247615Y-117750D02*
X248235Y-116708D01*
X249165Y-115875D01*
X250405Y-115667D01*
X251490Y-115875D01*
X252420Y-116708D01*
X252885Y-118167D01*
X252885Y-124000D01*
G01X265130Y-116708D02*
X264045Y-115875D01*
X263115Y-115667D01*
X261875Y-116083D01*
X260945Y-116917D01*
X260325Y-118375D01*
X260170Y-119833D01*
X260325Y-121292D01*
X260945Y-122542D01*
X261875Y-123583D01*
X263115Y-124000D01*
X264200Y-123583D01*
X265130Y-122750D01*
G01X275050Y-124417D02*
X274740Y-124208D01*
X274740Y-123792D01*
X275050Y-123583D01*
X275360Y-123792D01*
X275360Y-124208D01*
X275050Y-124417D01*
G01X13895Y-187834D02*
X15135Y-188875D01*
X16530Y-189500D01*
X17770Y-189500D01*
X19010Y-188875D01*
X19940Y-187834D01*
X20405Y-186375D01*
X20095Y-184917D01*
X19320Y-183667D01*
X17925Y-182833D01*
X16065Y-182417D01*
X14980Y-181583D01*
X14515Y-180125D01*
X14825Y-178667D01*
X15600Y-177625D01*
X16685Y-177000D01*
X17770Y-177000D01*
X18855Y-177417D01*
X19785Y-178458D01*
G01X26295Y-189500D02*
X26295Y-177000D01*
G01X32805Y-177000D02*
X32805Y-189500D01*
G01X32805Y-183250D02*
X26295Y-183250D01*
G01X45050Y-189500D02*
X38850Y-189500D01*
X38850Y-177000D01*
X45050Y-177000D01*
G01X42570Y-183042D02*
X38850Y-183042D01*
G01X57450Y-189500D02*
X51250Y-189500D01*
X51250Y-177000D01*
X57450Y-177000D01*
G01X54970Y-183042D02*
X51250Y-183042D01*
G01X66750Y-177000D02*
X66750Y-189500D01*
G01X63185Y-177000D02*
X70315Y-177000D01*
G01X91550Y-189500D02*
X91550Y-177000D01*
X89690Y-179500D01*
G01X89690Y-189500D02*
X93410Y-189500D01*
G01X100540Y-187000D02*
X101470Y-188459D01*
X102710Y-189292D01*
X104105Y-189500D01*
X105345Y-189292D01*
X106585Y-188250D01*
X107360Y-187000D01*
X107515Y-185750D01*
X107205Y-184292D01*
X106120Y-183250D01*
X105035Y-182833D01*
X103640Y-182833D01*
G01X105035Y-182833D02*
X105965Y-182208D01*
X106740Y-181167D01*
X107050Y-179917D01*
X106740Y-178667D01*
X105965Y-177625D01*
X104570Y-177000D01*
X103175Y-177208D01*
X101780Y-178042D01*
G01X128750Y-189500D02*
X127510Y-189292D01*
X126425Y-188459D01*
X125495Y-187208D01*
X124875Y-185750D01*
X124565Y-184083D01*
X124565Y-182417D01*
X124875Y-180750D01*
X125495Y-179292D01*
X126425Y-178042D01*
X127510Y-177208D01*
X128750Y-177000D01*
X129990Y-177208D01*
X131075Y-178042D01*
X132005Y-179292D01*
X132625Y-180750D01*
X132935Y-182417D01*
X132935Y-184083D01*
X132625Y-185750D01*
X132005Y-187208D01*
X131075Y-188459D01*
X129990Y-189292D01*
X128750Y-189500D01*
G01X138205Y-189500D02*
X138205Y-177000D01*
X144095Y-177000D01*
G01X141925Y-183042D02*
X138205Y-183042D01*
G01X165950Y-189500D02*
X165950Y-177000D01*
X164090Y-179500D01*
G01X164090Y-189500D02*
X167810Y-189500D01*
G01X180210Y-189500D02*
X180210Y-177000D01*
X174475Y-185958D01*
X182225Y-185958D01*
G01X202375Y-193667D02*
X200825Y-191583D01*
X200050Y-189500D01*
X200050Y-181167D01*
X200825Y-179083D01*
X202375Y-177000D01*
G01X212295Y-187834D02*
X213535Y-188875D01*
X214930Y-189500D01*
X216170Y-189500D01*
X217410Y-188875D01*
X218340Y-187834D01*
X218805Y-186375D01*
X218495Y-184917D01*
X217720Y-183667D01*
X216325Y-182833D01*
X214465Y-182417D01*
X213380Y-181583D01*
X212915Y-180125D01*
X213225Y-178667D01*
X214000Y-177625D01*
X215085Y-177000D01*
X216170Y-177000D01*
X217255Y-177417D01*
X218185Y-178458D01*
G01X227950Y-189500D02*
X226710Y-189292D01*
X225625Y-188459D01*
X224695Y-187208D01*
X224075Y-185750D01*
X223765Y-184083D01*
X223765Y-182417D01*
X224075Y-180750D01*
X224695Y-179292D01*
X225625Y-178042D01*
X226710Y-177208D01*
X227950Y-177000D01*
X229190Y-177208D01*
X230275Y-178042D01*
X231205Y-179292D01*
X231825Y-180750D01*
X232135Y-182417D01*
X232135Y-184083D01*
X231825Y-185750D01*
X231205Y-187208D01*
X230275Y-188459D01*
X229190Y-189292D01*
X227950Y-189500D01*
G01X237250Y-177000D02*
X237250Y-189500D01*
X243450Y-189500D01*
G01X249340Y-189500D02*
X249340Y-177000D01*
X252440Y-177000D01*
X253680Y-177625D01*
X254610Y-178458D01*
X255385Y-179708D01*
X256005Y-181167D01*
X256160Y-183250D01*
X256005Y-185333D01*
X255385Y-186792D01*
X254610Y-188042D01*
X253680Y-188875D01*
X252440Y-189500D01*
X249340Y-189500D01*
G01X268250Y-189500D02*
X262050Y-189500D01*
X262050Y-177000D01*
X268250Y-177000D01*
G01X265770Y-183042D02*
X262050Y-183042D01*
G01X274450Y-189500D02*
X274450Y-177000D01*
X278325Y-177000D01*
X279565Y-177625D01*
X280340Y-178458D01*
X280650Y-180125D01*
X280340Y-181792D01*
X279410Y-182833D01*
X278325Y-183458D01*
X274450Y-183458D01*
G01X278325Y-183458D02*
X280650Y-189500D01*
G01X285920Y-189500D02*
X285920Y-177000D01*
X289950Y-187417D01*
X293980Y-177000D01*
X293980Y-189500D01*
G01X298475Y-189500D02*
X302350Y-177000D01*
X306225Y-189500D01*
G01X304830Y-185125D02*
X299870Y-185125D01*
G01X311495Y-187834D02*
X312735Y-188875D01*
X314130Y-189500D01*
X315370Y-189500D01*
X316610Y-188875D01*
X317540Y-187834D01*
X318005Y-186375D01*
X317695Y-184917D01*
X316920Y-183667D01*
X315525Y-182833D01*
X313665Y-182417D01*
X312580Y-181583D01*
X312115Y-180125D01*
X312425Y-178667D01*
X313200Y-177625D01*
X314285Y-177000D01*
X315370Y-177000D01*
X316455Y-177417D01*
X317385Y-178458D01*
G01X323740Y-189500D02*
X323740Y-177000D01*
G01X329630Y-177000D02*
X323740Y-184709D01*
G01X330560Y-189500D02*
X326375Y-181167D01*
G01X353190Y-182833D02*
X353810Y-182208D01*
X354275Y-181167D01*
X354585Y-179708D01*
X354275Y-178458D01*
X353655Y-177625D01*
X352570Y-177000D01*
X348385Y-177000D01*
X348385Y-189500D01*
X353500Y-189500D01*
X354585Y-188667D01*
X355205Y-187417D01*
X355515Y-185958D01*
X355205Y-184500D01*
X354275Y-183250D01*
X353190Y-182833D01*
X348385Y-182833D01*
G01X364350Y-189500D02*
X363110Y-189292D01*
X362025Y-188459D01*
X361095Y-187208D01*
X360475Y-185750D01*
X360165Y-184083D01*
X360165Y-182417D01*
X360475Y-180750D01*
X361095Y-179292D01*
X362025Y-178042D01*
X363110Y-177208D01*
X364350Y-177000D01*
X365590Y-177208D01*
X366675Y-178042D01*
X367605Y-179292D01*
X368225Y-180750D01*
X368535Y-182417D01*
X368535Y-184083D01*
X368225Y-185750D01*
X367605Y-187208D01*
X366675Y-188459D01*
X365590Y-189292D01*
X364350Y-189500D01*
G01X376750Y-177000D02*
X376750Y-189500D01*
G01X373185Y-177000D02*
X380315Y-177000D01*
G01X389150Y-177000D02*
X389150Y-189500D01*
G01X385585Y-177000D02*
X392715Y-177000D01*
G01X401550Y-189500D02*
X400310Y-189292D01*
X399225Y-188459D01*
X398295Y-187208D01*
X397675Y-185750D01*
X397365Y-184083D01*
X397365Y-182417D01*
X397675Y-180750D01*
X398295Y-179292D01*
X399225Y-178042D01*
X400310Y-177208D01*
X401550Y-177000D01*
X402790Y-177208D01*
X403875Y-178042D01*
X404805Y-179292D01*
X405425Y-180750D01*
X405735Y-182417D01*
X405735Y-184083D01*
X405425Y-185750D01*
X404805Y-187208D01*
X403875Y-188459D01*
X402790Y-189292D01*
X401550Y-189500D01*
G01X409920Y-189500D02*
X409920Y-177000D01*
X413950Y-187417D01*
X417980Y-177000D01*
X417980Y-189500D01*
G01X435495Y-187834D02*
X436735Y-188875D01*
X438130Y-189500D01*
X439370Y-189500D01*
X440610Y-188875D01*
X441540Y-187834D01*
X442005Y-186375D01*
X441695Y-184917D01*
X440920Y-183667D01*
X439525Y-182833D01*
X437665Y-182417D01*
X436580Y-181583D01*
X436115Y-180125D01*
X436425Y-178667D01*
X437200Y-177625D01*
X438285Y-177000D01*
X439370Y-177000D01*
X440455Y-177417D01*
X441385Y-178458D01*
G01X449290Y-177000D02*
X453010Y-177000D01*
G01X451150Y-177000D02*
X451150Y-189500D01*
G01X449290Y-189500D02*
X453010Y-189500D01*
G01X460140Y-189500D02*
X460140Y-177000D01*
X463240Y-177000D01*
X464480Y-177625D01*
X465410Y-178458D01*
X466185Y-179708D01*
X466805Y-181167D01*
X466960Y-183250D01*
X466805Y-185333D01*
X466185Y-186792D01*
X465410Y-188042D01*
X464480Y-188875D01*
X463240Y-189500D01*
X460140Y-189500D01*
G01X479050Y-189500D02*
X472850Y-189500D01*
X472850Y-177000D01*
X479050Y-177000D01*
G01X476570Y-183042D02*
X472850Y-183042D01*
G01X489125Y-193667D02*
X490675Y-191583D01*
X491450Y-189500D01*
X491450Y-181167D01*
X490675Y-179083D01*
X489125Y-177000D01*
X220120Y344500D03*
G54D17*
X66710Y14020D03*
X70290Y14020D03*
X66710Y20980D03*
X70290Y20980D03*
X70520Y39790D03*
X70520Y36210D03*
X77480Y39790D03*
X77480Y36210D03*
X157710Y189020D03*
X161290Y189020D03*
X157710Y195980D03*
X161290Y195980D03*
G54D26*
X149500Y389000D03*
X175000Y367500D03*
G54D44*
X350100Y194000D03*
X361900Y194000D03*
X348100Y214500D03*
X359900Y214500D03*
G54D36*
X248500Y112500D03*
X248500Y118500D03*
X351500Y309500D03*
X351500Y315500D03*
G54D18*
X66710Y18490D03*
X66710Y16510D03*
X70290Y16510D03*
X70290Y18490D03*
X172530Y175020D03*
X172530Y173040D03*
X172530Y182960D03*
X172530Y178990D03*
X172530Y180980D03*
X172530Y177010D03*
X157710Y193490D03*
X157710Y191510D03*
X161290Y191510D03*
X161290Y193490D03*
X178470Y173040D03*
X178470Y175020D03*
X178470Y182960D03*
X178470Y180980D03*
X178470Y178990D03*
X178470Y177010D03*
X225470Y149460D03*
X225470Y147480D03*
X225470Y145490D03*
X219530Y149460D03*
X219530Y145490D03*
X219530Y147480D03*
X225470Y139540D03*
X225470Y141520D03*
X225470Y143510D03*
X219530Y143510D03*
X219530Y141520D03*
X219530Y139540D03*
X236530Y149460D03*
X236530Y145490D03*
X236530Y147480D03*
X236530Y143510D03*
X236530Y141520D03*
X236530Y139540D03*
X242470Y149460D03*
X242470Y147480D03*
X242470Y145490D03*
X242470Y139540D03*
X242470Y141520D03*
X242470Y143510D03*
G54D27*
X159660Y419810D03*
X159660Y447370D03*
X182340Y419810D03*
X182340Y447370D03*
X283160Y417810D03*
X283160Y445370D03*
X305840Y417810D03*
X305840Y445370D03*
G54D45*
X355000Y438090D03*
G54D37*
X319000Y194200D03*
X319000Y201800D03*
X326300Y438600D03*
X326300Y431000D03*
G54D28*
X147230Y450900D03*
X194630Y450900D03*
G54D19*
X73010Y39790D03*
X73010Y36210D03*
X74990Y39790D03*
X74990Y36210D03*
G54D46*
X355000Y462500D03*
G54D47*
G01X-500Y0D02*
X433000Y0D01*
X433000Y492000D01*
X-500Y492000D01*
X-500Y0D01*
G54D38*
X322000Y305500D03*
X322000Y317500D03*
X327000Y276500D03*
X327000Y264500D03*
G54D29*
X172530Y170700D03*
X172530Y185300D03*
X178470Y170700D03*
X178470Y185300D03*
X225470Y151800D03*
X219530Y151800D03*
X225470Y137200D03*
X219530Y137200D03*
X236530Y151800D03*
X236530Y137200D03*
X242470Y151800D03*
X242470Y137200D03*
G54D48*
G01X0Y0D02*
X433000Y0D01*
X433000Y492500D01*
X0Y492500D01*
X0Y0D01*
G54D39*
X329500Y82500D03*
X366000Y298000D03*
M02*
