G04 ================== begin FILE IDENTIFICATION RECORD ==================*
G04 Layout Name:  tms570_hdk_reve.brd*
G04 Film Name:    GND1*
G04 File Format:  Gerber RS274X*
G04 File Origin:  Cadence Allegro 16.3-p003*
G04 Origin Date:  Sun Jan 22 16:28:00 2012*
G04 *
G04 Layer:  VIA CLASS/GND1*
G04 Layer:  PIN/GND1*
G04 Layer:  ETCH/GND1*
G04 Layer:  BOARD GEOMETRY/OUTLINE*
G04 Layer:  BOARD GEOMETRY/TOOLING_CORNERS*
G04 *
G04 Offset:    (0.00 0.00)*
G04 Mirror:    No*
G04 Mode:      Positive*
G04 Rotation:  0*
G04 FullContactRelief:  No*
G04 UndefLineWidth:     5.00*
G04 ================== end FILE IDENTIFICATION RECORD ====================*
%FSLAX55Y55*MOIN*%
%IR0*IPPOS*OFA0.00000B0.00000*MIA0B0*SFA1.00000B1.00000*%
%ADD19O,.14X.06*%
%ADD18O,.06X.14*%
%ADD10C,.02*%
%ADD12C,.05*%
%ADD11C,.06*%
%ADD15C,.016*%
%ADD14C,.025*%
%ADD13C,.07*%
%ADD16C,.026*%
%ADD17C,.054*%
%ADD20C,.015*%
%ADD21C,.005*%
%ADD23O,.07004X.15004*%
%ADD22O,.15004X.07004*%
%ADD39C,.03004*%
%ADD33C,.06004*%
%ADD32C,.03404*%
%ADD31C,.07004*%
%ADD38C,.03504*%
%ADD37C,.02604*%
%ADD35C,.08004*%
%ADD44C,.09004*%
%ADD34C,.03604*%
%ADD42C,.06404*%
%ADD36C,.05604*%
%ADD45C,.03904*%
%ADD43C,.06604*%
%ADD40C,.08504*%
%ADD27C,.08363*%
%ADD26C,.08369*%
%ADD24C,.11006*%
%ADD41C,.14004*%
%ADD29C,.1261*%
%ADD30C,.26004*%
%ADD25C,.15006*%
%ADD28C,.18206*%
G75*
%LPD*%
G75*
G36*
G01X1501Y1501D02*
X1501Y490499D01*
X431499Y490499D01*
X431499Y1501D01*
X1501Y1501D01*
G37*
%LPC*%
G75*
G36*
G01X119380Y452254D02*
G03X118802Y452254I-289J-276D01*
G02X118802Y454746I-1302J1246D01*
G03X119380Y454746I289J276D01*
G02X119380Y452254I1302J-1246D01*
G37*
G36*
G01X126592Y435398D02*
G03X126689Y435149I187J-71D01*
G02X124328Y434232I-769J-1519D01*
G03X124231Y434481I-187J71D01*
G02X126592Y435398I769J1519D01*
G37*
G36*
G01X174723Y429503D02*
G03X174184Y429087I-141J-374D01*
G02X167822Y429143I-3184J-337D01*
G03X167267Y429559I-397J49D01*
G02X167334Y435411I-1267J2941D01*
G03X167890Y435869I167J363D01*
G02X167821Y437014I3110J762D01*
G03X167266Y437429I-397J47D01*
G02X167334Y443281I-1266J2941D01*
G03X167890Y443739I167J363D01*
G02X174114Y443754I3110J761D01*
G03X174652Y443290I389J-93D01*
G02X174728Y437321I1198J-2970D01*
G03X174190Y436911I-140J-375D01*
G02X174125Y435933I-3190J-279D01*
G03X174664Y435474I390J-87D01*
G02X174723Y429503I1186J-2974D01*
G37*
G36*
G01X110766Y419087D02*
G03X111379Y419108I298J267D01*
G02X111413Y416849I1421J-1108D01*
G03X110800Y416852I-308J-255D01*
G02X110766Y419087I-1300J1098D01*
G37*
G36*
G01X415785Y405808D02*
G03X415215Y405808I-285J-281D01*
G02X415215Y408192I-1215J1192D01*
G03X415785Y408192I285J281D01*
G02X415785Y405808I1215J-1192D01*
G37*
G36*
G01X277319Y404272D02*
G03X277319Y403728I293J-272D01*
G02X274681Y403728I-1319J-1228D01*
G03X274681Y404272I-293J272D01*
G02X277319Y404272I1319J1228D01*
G37*
G36*
G01X221192Y394285D02*
G03X221192Y393715I281J-285D01*
G02X218808Y393715I-1192J-1215D01*
G03X218808Y394285I-281J285D01*
G02X221192Y394285I1192J1215D01*
G37*
G36*
G01X127846Y383876D02*
G03X128462Y383864I313J250D01*
G02X128419Y381690I1287J-1113D01*
G03X127803Y381702I-313J-250D01*
G02X127846Y383876I-1287J1113D01*
G37*
G36*
G01X56372Y381539D02*
G03X56296Y380911I205J-343D01*
G02X54228Y381161I-1196J-1211D01*
G03X54304Y381789I-205J343D01*
G02X56372Y381539I1196J1211D01*
G37*
G36*
G01X254785Y377308D02*
G03X254215Y377308I-285J-281D01*
G02X254215Y379692I-1215J1192D01*
G03X254785Y379692I285J281D01*
G02X254785Y377308I1215J-1192D01*
G37*
G36*
G01X172749Y380310D02*
G03X172749Y379689I251J-311D01*
G02X170481Y379689I-1134J-1401D01*
G03X170481Y380310I-251J311D01*
G02X172749Y380310I1134J1401D01*
G37*
G36*
G01X186634Y377410D02*
G03X186634Y376789I251J-310D01*
G02X184366Y376789I-1134J-1401D01*
G03X184366Y377410I-251J311D01*
G02X186634Y377410I1134J1401D01*
G37*
G36*
G01X254783Y373310D02*
G03X254197Y373295I-286J-280D01*
G02X254137Y375610I-1277J1125D01*
G03X254723Y375625I286J280D01*
G02X254783Y373310I1277J-1125D01*
G37*
G36*
G01X128199Y358605D02*
G03X128630Y358231I399J25D01*
G02X127069Y356430I138J-1696D01*
G03X126638Y356804I-399J-25D01*
G02X128199Y358605I-138J1696D01*
G37*
G36*
G01X260479Y348139D02*
G03X259908Y348043I-240J-320D01*
G02X259521Y350361I-1408J956D01*
G03X260092Y350457I240J320D01*
G02X260479Y348139I1408J-956D01*
G37*
G36*
G01X179811Y345850D02*
G03X179190Y345850I-310J-251D01*
G02X179190Y348118I-1401J1134D01*
G03X179811Y348118I311J251D01*
G02X179811Y345850I1401J-1134D01*
G37*
G36*
G01X116493Y346798D02*
G03X116101Y346311I-2J-400D01*
G02X114447Y347642I-1661J-371D01*
G03X114839Y348129I2J400D01*
G02X114839Y348871I1661J371D01*
G03X114447Y349358I-390J87D01*
G02X116101Y350689I-7J1702D01*
G03X116493Y350202I390J-87D01*
G02X116493Y346798I7J-1702D01*
G37*
G36*
G01X235162Y346305D02*
G03X235172Y345734I285J-281D01*
G02X232788Y345695I-1172J-1234D01*
G03X232778Y346266I-285J281D01*
G02X235185Y348671I1172J1234D01*
G03X235765Y348671I290J276D01*
G02X235765Y346329I1235J-1171D01*
G03X235185Y346329I-290J-276D01*
G02X235162Y346305I-1240J1166D01*
G37*
G36*
G01X221342Y346266D02*
G03X221332Y345695I275J-290D01*
G02X218948Y345734I-1212J-1195D01*
G03X218958Y346305I-275J290D01*
G02X221342Y346266I1212J1195D01*
G37*
G36*
G01X274552Y332299D02*
G03X274171Y331823I12J-400D01*
G02X272448Y333201I-1671J-323D01*
G03X272829Y333677I-12J400D01*
G02X274552Y332299I1671J323D01*
G37*
G36*
G01X352808Y326285D02*
G03X352166Y326169I-280J-286D01*
G02X348685Y326067I-1766J831D01*
G03X348080Y326185I-351J-191D01*
G02X348413Y328449I-1080J1315D01*
G03X349027Y328387I333J222D01*
G02X351873Y328281I1373J-1387D01*
G03X352522Y328345I302J262D01*
G02X352808Y326285I1478J-845D01*
G37*
G36*
G01X302810Y321827D02*
G03X302525Y321256I73J-393D01*
G02X300690Y322173I-1525J-756D01*
G03X300975Y322744I-73J393D01*
G02X302810Y321827I1525J756D01*
G37*
G36*
G01X307442Y322082D02*
G03X307343Y321508I221J-334D01*
G02X305042Y321902I-1360J-1024D01*
G03X305141Y322476I-221J334D01*
G02X307442Y322082I1360J1024D01*
G37*
G36*
G01X216181Y312745D02*
G03X216790Y312697I325J233D01*
G02X216619Y310505I1210J-1197D01*
G03X216010Y310553I-325J-233D01*
G02X216181Y312745I-1210J1197D01*
G37*
G36*
G01X173173Y311810D02*
G03X173744Y311525I393J73D01*
G02X172827Y309690I756J-1525D01*
G03X172256Y309975I-393J-73D01*
G02X173173Y311810I-756J1525D01*
G37*
G36*
G01X205962Y311135D02*
G03X205962Y310565I281J-285D01*
G02X203578Y310565I-1192J-1215D01*
G03X203578Y311135I-281J285D01*
G02X205962Y311135I1192J1215D01*
G37*
G36*
G01X247692Y303785D02*
G03X247692Y303215I281J-285D01*
G02X245308Y303215I-1192J-1215D01*
G03X245308Y303785I-281J285D01*
G02X247692Y303785I1192J1215D01*
G37*
G36*
G01X175080Y299384D02*
G03X175080Y298766I253J-309D01*
G02X172920Y298766I-1080J-1316D01*
G03X172920Y299384I-253J309D01*
G02X175080Y299384I1080J1316D01*
G37*
G36*
G01X261051Y298250D02*
G03X261327Y297670I353J-188D01*
G02X259496Y296797I-327J-1670D01*
G03X259220Y297377I-353J188D01*
G02X261051Y298250I327J1670D01*
G37*
G36*
G01X323730Y296716D02*
G03X324301Y296708I289J276D01*
G02X324270Y294324I1199J-1208D01*
G03X323699Y294332I-289J-276D01*
G02X323730Y296716I-1199J1208D01*
G37*
G36*
G01X130819Y296772D02*
G03X130819Y296228I293J-272D01*
G02X128181Y296228I-1319J-1228D01*
G03X128181Y296772I-293J272D01*
G02X130819Y296772I1319J1228D01*
G37*
G36*
G01X175094Y291068D02*
G03X175094Y290432I242J-318D01*
G02X172518Y287976I-1093J-1432D01*
G03X171867Y287986I-329J-228D01*
G02X171867Y290014I-1367J1014D01*
G03X172518Y290024I322J238D01*
G02X172906Y290432I1484J-1022D01*
G03X172906Y291068I-242J318D01*
G02X175094Y291068I1094J1432D01*
G37*
G36*
G01X122055Y290464D02*
G03X122055Y289836I248J-314D01*
G02X119946Y289836I-1054J-1336D01*
G03X119946Y290464I-248J314D01*
G02X122055Y290464I1055J1336D01*
G37*
G36*
G01X172266Y281327D02*
G03X171677Y281316I-289J-276D01*
G02X171634Y283615I-1277J1126D01*
G03X172223Y283626I289J276D01*
G02X172266Y281327I1277J-1126D01*
G37*
G36*
G01X366285Y280808D02*
G03X365715Y280808I-285J-281D01*
G02X365715Y283192I-1215J1192D01*
G03X366285Y283192I285J281D01*
G02X366285Y280808I1215J-1192D01*
G37*
G36*
G01X168195Y280098D02*
G03X168671Y279670I398J-36D01*
G02X167305Y278152I329J-1670D01*
G03X166829Y278580I-398J36D01*
G02X168195Y280098I-329J1670D01*
G37*
G36*
G01X185177Y273829D02*
G03X184701Y273448I-76J-393D01*
G02X183323Y275171I-1701J52D01*
G03X183799Y275552I76J393D01*
G02X185177Y273829I1701J-52D01*
G37*
G36*
G01X117211Y266981D02*
G03X116590Y266981I-310J-251D01*
G02X116590Y269249I-1401J1134D01*
G03X117211Y269249I310J251D01*
G02X117211Y266981I1401J-1134D01*
G37*
G36*
G01X112464Y260446D02*
G03X111836Y260446I-314J-248D01*
G02X111836Y262554I-1336J1054D01*
G03X112464Y262554I314J248D01*
G02X112464Y260446I1336J-1054D01*
G37*
G36*
G01X380785Y259808D02*
G03X380215Y259808I-285J-281D01*
G02X380215Y262192I-1215J1192D01*
G03X380785Y262192I285J281D01*
G02X380785Y259808I1215J-1192D01*
G37*
G36*
G01X261422Y248414D02*
G03X261326Y247845I225J-331D01*
G02X259435Y248061I-1046J-775D01*
G03X259470Y248636I-259J304D01*
G02X261422Y248414I1104J1018D01*
G37*
G36*
G01X234736Y247601D02*
G03X234000Y247536I-354J-186D01*
G02X234000Y251331I-6008J1897D01*
G03X234736Y251265I382J120D01*
G02X234736Y247601I3493J-1832D01*
G37*
G36*
G01X302923Y243205D02*
G03X302648Y242589I58J-395D01*
G02X300023Y242852I-1420J-939D01*
G03X299875Y243511I-283J283D01*
G02X302923Y243205I2134J5922D01*
G37*
G36*
G01X325189Y232282D02*
G03X325208Y231692I279J-286D01*
G02X322911Y231618I-1108J-1292D01*
G03X322892Y232208I-279J286D01*
G02X325189Y232282I1108J1292D01*
G37*
G36*
G01X192310Y230327D02*
G03X192025Y229756I73J-393D01*
G02X190190Y230673I-1525J-756D01*
G03X190475Y231244I-73J393D01*
G02X192310Y230327I1525J756D01*
G37*
G36*
G01X337697Y225132D02*
G03X338173Y224770I399J31D01*
G02X336803Y222968I327J-1670D01*
G03X336327Y223330I-399J-31D01*
G02X337697Y225132I-327J1670D01*
G37*
G36*
G01X133198Y220682D02*
G03X132602Y220682I-298J-266D01*
G02X132602Y223086I-1343J1202D01*
G03X133198Y223086I298J266D01*
G02X133198Y220682I1343J-1202D01*
G37*
G36*
G01X52702Y220984D02*
G03X53106Y220580I400J-4D01*
G02X51420Y218894I16J-1702D01*
G03X51016Y219298I-400J4D01*
G02X52702Y220984I-16J1702D01*
G37*
G36*
G01X191040Y217317D02*
G03X190479Y217019I-167J-364D01*
G02X188764Y219002I-1679J281D01*
G03X189140Y219514I-8J400D01*
G02X195904Y219676I3360J986D01*
G03X196237Y219185I389J-95D01*
G02X194371Y217008I-237J-1685D01*
G03X193835Y217263I-383J-115D01*
G02X191040Y217317I-1335J3237D01*
G37*
G36*
G01X232770Y217406D02*
G03X232770Y216794I259J-306D01*
G02X231090Y216794I-840J-994D01*
G03X231090Y217406I-259J306D01*
G02X232770Y217406I840J994D01*
G37*
G36*
G01X203830Y212947D02*
G03X204371Y212766I359J175D01*
G02X203617Y210504I776J-1515D01*
G03X203076Y210685I-359J-175D01*
G02X203830Y212947I-776J1515D01*
G37*
G36*
G01X368035Y216598D02*
G03X368335Y215986I338J-214D01*
G02X365903Y215305I-335J-3486D01*
G03X365841Y215983I-240J320D01*
G02X368035Y216598I756J1525D01*
G37*
G36*
G01X120961Y194364D02*
G03X120340Y194364I-310J-251D01*
G02X120340Y196632I-1401J1134D01*
G03X120961Y196632I311J251D01*
G02X120961Y194364I1401J-1134D01*
G37*
G36*
G01X206469Y194640D02*
G03X206659Y194069I345J-202D01*
G02X204531Y193360I-659J-1569D01*
G03X204341Y193931I-345J202D01*
G02X206469Y194640I659J1569D01*
G37*
G36*
G01X330970Y196098D02*
G03X330652Y195526I42J-398D01*
G02X325482Y196862I-3152J-1526D01*
G03X325538Y197128I-115J163D01*
G02X328575Y198645I1462J871D01*
G03X329296Y198605I370J152D01*
G02X330970Y196098I1494J-815D01*
G37*
G36*
G01X165971Y192633D02*
G03X166122Y192083I346J-201D01*
G02X163822Y191453I-829J-1487D01*
G03X163671Y192003I-346J201D01*
G02X165971Y192633I829J1487D01*
G37*
G36*
G01X310035Y189884D02*
G03X310083Y189313I302J-262D01*
G02X307715Y189116I-1083J-1313D01*
G03X307667Y189687I-302J262D01*
G02X310035Y189884I1083J1313D01*
G37*
G36*
G01X156192Y185285D02*
G03X156192Y184715I281J-285D01*
G02X153808Y184715I-1192J-1215D01*
G03X153808Y185285I-281J285D01*
G02X156192Y185285I1192J1215D01*
G37*
G36*
G01X206588Y176074D02*
G03X206588Y175436I242J-319D01*
G02X204412Y175436I-1088J-1436D01*
G03X204412Y176074I-242J319D01*
G02X206588Y176074I1088J1436D01*
G37*
G36*
G01X230075Y181757D02*
G03X230584Y182001I132J378D01*
G02X232949Y180335I1416J-501D01*
G03X232890Y179774I252J-310D01*
G02X230075Y181757I-4898J-3963D01*
G37*
G36*
G01X331131Y172688D02*
G03X331331Y172037I300J-264D01*
G02X329311Y170983I-425J-1648D01*
G03X328891Y171520I-375J140D01*
G02X325755Y177175I-391J3480D01*
G03X325522Y177815I-313J248D01*
G02X327486Y178971I341J1668D01*
G03X327932Y178456I381J-120D01*
G02X328814Y178488I567J-3456D01*
G03X329222Y179034I36J398D01*
G02X331266Y178024I1582J628D01*
G03X331080Y177368I108J-385D01*
G02X331131Y172688I-2580J-2368D01*
G37*
G36*
G01X189710Y166866D02*
G03X189089Y166866I-311J-251D01*
G02X189089Y169134I-1401J1134D01*
G03X189710Y169134I310J251D01*
G02X189710Y166866I1401J-1134D01*
G37*
G36*
G01X309003Y162201D02*
G03X309240Y161630I353J-188D01*
G02X307247Y160799I-490J-1630D01*
G03X307010Y161370I-353J188D01*
G02X309003Y162201I490J1630D01*
G37*
G36*
G01X156262Y157214D02*
G03X156249Y156656I280J-286D01*
G02X153751Y156656I-1249J-1156D01*
G03X153738Y157214I-293J272D01*
G02X156262Y157214I1262J1286D01*
G37*
G36*
G01X241919Y156591D02*
G03X242050Y156035I338J-214D01*
G02X239729Y155488I-882J-1456D01*
G03X239598Y156044I-338J214D01*
G02X241919Y156591I882J1456D01*
G37*
G36*
G01X188910Y152366D02*
G03X188289Y152366I-311J-251D01*
G02X188289Y154634I-1401J1134D01*
G03X188910Y154634I310J251D01*
G02X188910Y152366I1401J-1134D01*
G37*
G36*
G01X149133Y152486D02*
G03X148482Y152476I-322J-238D01*
G02X148482Y154524I-1482J1024D01*
G03X149133Y154514I329J228D01*
G02X149133Y152486I1367J-1014D01*
G37*
G36*
G01X248274Y153453D02*
G03X247677Y153124I-197J-348D01*
G02X246233Y154887I-1700J80D01*
G03X246673Y155407I60J395D01*
G02X248274Y153453I3327J1093D01*
G37*
G36*
G01X204486Y151481D02*
G03X204568Y150941I330J-226D01*
G02X201964Y150546I-1117J-1414D01*
G03X201882Y151086I-330J226D01*
G02X204486Y151481I1117J1414D01*
G37*
G36*
G01X237155Y115397D02*
G03X237645Y115103I389J93D01*
G02X236418Y113059I428J-1647D01*
G03X235928Y113353I-389J-93D01*
G02X237155Y115397I-428J1647D01*
G37*
G36*
G01X206408Y112957D02*
G03X206979Y112861I331J224D01*
G02X206592Y110543I1021J-1362D01*
G03X206021Y110639I-331J-224D01*
G02X206408Y112957I-1021J1362D01*
G37*
G36*
G01X326671Y106177D02*
G03X327052Y105701I393J-76D01*
G02X325329Y104323I-52J-1701D01*
G03X324948Y104799I-393J76D01*
G02X326671Y106177I52J1701D01*
G37*
G36*
G01X332275Y101229D02*
G03X332247Y100658I266J-299D01*
G02X329868Y100771I-1247J-1158D01*
G03X329896Y101342I-266J299D01*
G02X332275Y101229I1247J1158D01*
G37*
G36*
G01X267908Y79457D02*
G03X268479Y79361I331J224D01*
G02X268092Y77043I1021J-1362D01*
G03X267521Y77139I-331J-224D01*
G02X265092Y77543I-1022J1361D01*
G03X264521Y77639I-331J-224D01*
G02X264908Y79957I-1021J1362D01*
G03X265479Y79861I331J224D01*
G02X267908Y79457I1022J-1361D01*
G37*
G36*
G01X308673Y77810D02*
G03X309244Y77525I393J73D01*
G02X308327Y75690I756J-1525D01*
G03X307756Y75975I-393J-73D01*
G02X308673Y77810I-756J1525D01*
G37*
G36*
G01X275195Y77348D02*
G03X275671Y76920I398J-36D01*
G02X274305Y75402I329J-1670D01*
G03X273829Y75830I-398J36D01*
G02X275195Y77348I-329J1670D01*
G37*
G36*
G01X297677Y74829D02*
G03X297201Y74448I-76J-393D01*
G02X295823Y76171I-1701J52D01*
G03X296299Y76552I76J393D01*
G02X297677Y74829I1701J-52D01*
G37*
G36*
G01X250771Y38927D02*
G03X251175Y38451I393J-76D01*
G02X249551Y37073I47J-1701D01*
G03X249147Y37549I-393J76D01*
G02X250771Y38927I-47J1701D01*
G37*
G36*
G01X334285Y14808D02*
G03X333715Y14808I-285J-281D01*
G02X333715Y17192I-1215J1192D01*
G03X334285Y17192I285J281D01*
G02X334285Y14808I1215J-1192D01*
G37*
G36*
G01X198785Y14808D02*
G03X198215Y14808I-285J-281D01*
G02X198215Y17192I-1215J1192D01*
G03X198785Y17192I285J281D01*
G02X198785Y14808I1215J-1192D01*
G37*
G36*
G01X354936Y431646D02*
G02X352398Y433905I-1337J1054D01*
G03X352116Y434588I-282J283D01*
G01X350000Y434588D01*
G02X350000Y441592I0J3502D01*
G01X360000Y441592D01*
G02X361237Y434814I0J-3502D01*
G03X361155Y434109I142J-374D01*
G02X358864Y431646I-955J-1409D01*
G03X358236Y431646I-314J-248D01*
G02X355564Y431646I-1336J1054D01*
G03X354936Y431646I-314J-248D01*
G37*
G36*
G01X112037Y404817D02*
G02X111929Y402942I1363J-1019D01*
G03X111263Y402981I-346J-201D01*
G02X111371Y404856I-1363J1019D01*
G03X112037Y404817I346J201D01*
G37*
G36*
G01X100162Y404411D02*
G02X100035Y402832I1438J-910D01*
G03X99329Y402888I-368J-157D01*
G02X99456Y404467I-1438J910D01*
G03X100162Y404411I368J157D01*
G37*
G36*
G01X282598Y397731D02*
G02X282598Y399269I-1518J769D01*
G03X283312Y399269I357J181D01*
G02X286348Y399269I1518J-769D01*
G03X287062Y399269I357J181D01*
G02X287062Y397731I1518J-769D01*
G03X286348Y397731I-357J-181D01*
G02X283312Y397731I-1518J769D01*
G03X282598Y397731I-357J-181D01*
G37*
G36*
G01X113937Y394251D02*
G02X112443Y393238I63J-1701D01*
G03X112063Y393799I-366J161D01*
G02X113557Y394812I-63J1701D01*
G03X113937Y394251I366J-161D01*
G37*
G36*
G01X241413Y390867D02*
G02X238418Y391419I-1323J1223D01*
G03X237693Y391457I-371J-149D01*
G02X234868Y390985I-1593J843D01*
G03X234322Y390985I-273J-292D01*
G02X234322Y393615I-1232J1315D01*
G03X234868Y393615I273J292D01*
G02X237772Y392971I1232J-1315D01*
G03X238497Y392933I371J149D01*
G02X241230Y393485I1593J-843D01*
G03X241777Y393523I253J310D01*
G02X241960Y390905I1323J-1223D01*
G03X241413Y390867I-253J-310D01*
G37*
G36*
G01X123614Y387287D02*
G02X121791Y387547I-1114J-1287D01*
G03X121886Y388213I-167J364D01*
G02X123709Y387953I1114J1287D01*
G03X123614Y387287I167J-364D01*
G37*
G36*
G01X44283Y386612D02*
G02X44181Y385090I1467J-863D01*
G03X43467Y385138I-369J-155D01*
G02X43569Y386660I-1467J863D01*
G03X44283Y386612I369J155D01*
G37*
G36*
G01X220943Y373417D02*
G02X219057Y373417I-943J-1417D01*
G03X219057Y374083I-221J333D01*
G02X220943Y374083I943J1417D01*
G03X220943Y373417I221J-333D01*
G37*
G36*
G01X209931Y371905D02*
G02X208069Y371905I-931J-1425D01*
G03X208069Y372575I-218J335D01*
G02X209931Y372575I931J1425D01*
G03X209931Y371905I218J-335D01*
G37*
G36*
G01X224357Y367797D02*
G02X224357Y369683I-1417J943D01*
G03X225023Y369683I333J221D01*
G02X227857Y369683I1417J-943D01*
G03X228523Y369683I333J221D01*
G02X229787Y370435I1417J-943D01*
G03X230084Y371055I-36J398D01*
G02X230557Y373417I1416J945D01*
G03X230557Y374083I-221J333D01*
G02X232443Y374083I943J1417D01*
G03X232443Y373417I221J-333D01*
G02X231653Y370305I-943J-1417D01*
G03X231356Y369685I36J-398D01*
G02X228523Y367797I-1416J-944D01*
G03X227857Y367797I-333J-221D01*
G02X225023Y367797I-1417J943D01*
G03X224357Y367797I-333J-221D01*
G37*
G36*
G01X241224Y369183D02*
G02X239586Y369651I-1224J-1183D01*
G03X239776Y370317I-97J388D01*
G02X241414Y369849I1224J1183D01*
G03X241224Y369183I97J-388D01*
G37*
G36*
G01X253947Y368414D02*
G02X252037Y368403I-947J-1414D01*
G03X252033Y369066I-226J330D01*
G02X253943Y369077I947J1414D01*
G03X253947Y368414I226J-330D01*
G37*
G36*
G01X142764Y363170D02*
G02X142321Y361721I1236J-1170D01*
G03X141636Y361930I-395J-66D01*
G02X142079Y363379I-1236J1170D01*
G03X142764Y363170I395J66D01*
G37*
G36*
G01X254538Y360229D02*
G02X253081Y361200I-1538J-729D01*
G03X253462Y361771I20J400D01*
G02X254919Y360800I1538J729D01*
G03X254538Y360229I-20J-400D01*
G37*
G36*
G01X224417Y357057D02*
G02X224417Y358943I-1417J943D01*
G03X225083Y358943I333J221D01*
G02X227917Y358943I1417J-943D01*
G03X228583Y358943I333J221D01*
G02X231417Y358943I1417J-943D01*
G03X232083Y358943I333J221D01*
G02X232083Y357057I1417J-943D01*
G03X231417Y357057I-333J-221D01*
G02X228583Y357057I-1417J943D01*
G03X227917Y357057I-333J-221D01*
G02X225083Y357057I-1417J943D01*
G03X224417Y357057I-333J-221D01*
G37*
G36*
G01X327392Y360214D02*
G02X322503Y357189I-1392J-3214D01*
G03X321894Y357552I-399J22D01*
G02X322646Y359433I-894J1448D01*
G03X323337Y359274I387J101D01*
G02X324608Y360214I2664J-2273D01*
G03X324745Y360851I-158J367D01*
G02X327255Y360851I1255J1149D01*
G03X327392Y360214I295J-270D01*
G37*
G36*
G01X213209Y352547D02*
G02X211386Y352287I-709J-1547D01*
G03X211291Y352953I-262J302D01*
G02X213114Y353213I709J1547D01*
G03X213209Y352547I262J-302D01*
G37*
G36*
G01X227618Y345698D02*
G02X226233Y345136I-118J-1698D01*
G03X225962Y345802I-298J267D01*
G02X227347Y346364I118J1698D01*
G03X227618Y345698I298J-267D01*
G37*
G36*
G01X263614Y332541D02*
G02X262541Y333614I-1614J-541D01*
G03X263047Y334120I127J379D01*
G02X264120Y333047I1614J541D01*
G03X263614Y332541I-127J-379D01*
G37*
G36*
G01X259038Y332729D02*
G02X257581Y333700I-1538J-729D01*
G03X257962Y334271I20J400D01*
G02X259419Y333300I1538J729D01*
G03X259038Y332729I-20J-400D01*
G37*
G36*
G01X234653Y324594D02*
G02X234158Y326247I-1653J406D01*
G03X234819Y326445I272J293D01*
G02X235314Y324792I1653J-406D01*
G03X234653Y324594I-272J-293D01*
G37*
G36*
G01X175628Y323507D02*
G02X175571Y321576I1372J-1007D01*
G03X174912Y321595I-336J-217D01*
G02X174969Y323526I-1372J1007D01*
G03X175628Y323507I336J217D01*
G37*
G36*
G01X321539Y322228D02*
G02X319959Y323202I-1539J-728D01*
G03X320311Y323772I-9J400D01*
G02X323383Y323760I1539J728D01*
G03X323792Y323189I360J-174D01*
G02X322467Y322240I208J-1689D01*
G03X322058Y322811I-360J174D01*
G02X321891Y322798I-215J1688D01*
G03X321539Y322228I9J-400D01*
G37*
G36*
G01X267600Y321468D02*
G02X267528Y319646I1400J-968D01*
G03X266853Y319673I-346J-201D01*
G02X266925Y321495I-1400J968D01*
G03X267600Y321468I346J201D01*
G37*
G36*
G01X235902Y310695D02*
G02X235902Y312305I-1612J805D01*
G03X236618Y312305I358J179D01*
G02X236618Y310695I1612J-805D01*
G03X235902Y310695I-358J-179D01*
G37*
G36*
G01X141917Y307557D02*
G02X142066Y309167I-1417J943D01*
G03X142434Y309167I184J78D01*
G02X142553Y309397I1567J-665D01*
G03X142316Y309994I-340J211D01*
G02X144197Y310743I434J1646D01*
G03X144434Y310146I340J-211D01*
G02X142583Y307557I-434J-1646D01*
G03X141917Y307557I-333J-221D01*
G37*
G36*
G01X284554Y297244D02*
G02X281490Y297270I-1538J-728D01*
G03X281115Y297846I-359J177D01*
G02X282573Y298793I-68J1701D01*
G03X282948Y298217I359J-177D01*
G02X283071Y298217I61J-1701D01*
G03X283446Y298788I13J400D01*
G02X286534Y298813I1538J728D01*
G03X286909Y298248I365J-165D01*
G02X287021Y298248I56J-1701D01*
G03X287395Y298825I16J400D01*
G02X288853Y297878I1526J754D01*
G03X288479Y297301I-16J-400D01*
G02X285403Y297250I-1526J-754D01*
G03X285028Y297815I-365J165D01*
G02X284929Y297815I-50J1701D01*
G03X284554Y297244I-13J-400D01*
G37*
G36*
G01X197069Y297428D02*
G02X196694Y295679I1228J-1178D01*
G03X196028Y295822I-377J-134D01*
G02X196403Y297571I-1228J1178D01*
G03X197069Y297428I377J134D01*
G37*
G36*
G01X237520Y297418D02*
G02X235778Y297297I-770J-1518D01*
G03X235730Y297982I-229J328D01*
G02X237472Y298103I770J1518D01*
G03X237520Y297418I229J-328D01*
G37*
G36*
G01X160569Y289604D02*
G02X158824Y289230I-569J-1604D01*
G03X158681Y289896I-277J289D01*
G02X158544Y293049I569J1604D01*
G03X158573Y293762I-166J364D01*
G02X160106Y293701I827J1488D01*
G03X160077Y292988I166J-364D01*
G02X160426Y290270I-827J-1488D01*
G03X160569Y289604I277J-289D01*
G37*
G36*
G01X371919Y283700D02*
G02X370462Y282729I81J-1700D01*
G03X370081Y283300I-361J171D01*
G02X370729Y286538I-81J1700D01*
G03X371300Y286919I171J361D01*
G02X372271Y285462I1700J81D01*
G03X371700Y285081I-171J-361D01*
G02X371538Y284271I-1700J-81D01*
G03X371919Y283700I361J-171D01*
G37*
G36*
G01X233637Y278746D02*
G02X233637Y280254I-1637J754D01*
G03X234363Y280254I363J167D01*
G02X234363Y278746I1637J-754D01*
G03X233637Y278746I-363J-167D01*
G37*
G36*
G01X252417Y277557D02*
G02X252417Y279443I-1417J943D01*
G03X253083Y279443I333J221D01*
G02X253083Y277557I1417J-943D01*
G03X252417Y277557I-333J-221D01*
G37*
G36*
G01X154614Y279287D02*
G02X152791Y279547I-1114J-1287D01*
G03X152886Y280213I-167J364D01*
G02X154709Y279953I1114J1287D01*
G03X154614Y279287I167J-364D01*
G37*
G36*
G01X260152Y270268D02*
G02X258732Y268848I348J-1768D01*
G03X258275Y269320I-392J77D01*
G02X259680Y270725I-275J1680D01*
G03X260152Y270268I395J-65D01*
G37*
G36*
G01X253518Y269024D02*
G02X253518Y266976I1482J-1024D01*
G03X252867Y266986I-329J-228D01*
G02X250083Y267057I-1367J1014D01*
G03X249417Y267057I-333J-221D01*
G02X246583Y267057I-1417J943D01*
G03X245917Y267057I-333J-221D01*
G02X243139Y269021I-1417J943D01*
G03X243043Y269592I-320J240D01*
G02X242583Y270057I958J1407D01*
G03X241917Y270057I-333J-221D01*
G02X241917Y271943I-1417J943D01*
G03X242583Y271943I333J221D01*
G02X245417Y271943I1417J-943D01*
G03X246083Y271943I333J221D01*
G02X248861Y269979I1417J-943D01*
G03X248957Y269408I320J-240D01*
G02X249417Y268943I-958J-1407D01*
G03X250083Y268943I333J221D01*
G02X252867Y269014I1417J-943D01*
G03X253518Y269024I322J238D01*
G37*
G36*
G01X60417Y266557D02*
G02X60417Y268443I-1417J943D01*
G03X61083Y268443I333J221D01*
G02X61083Y266557I1417J-943D01*
G03X60417Y266557I-333J-221D01*
G37*
G36*
G01X295417Y264057D02*
G02X295417Y265943I-1417J943D01*
G03X296083Y265943I333J221D01*
G02X298917Y265943I1417J-943D01*
G03X299583Y265943I333J221D01*
G02X299583Y264057I1417J-943D01*
G03X298917Y264057I-333J-221D01*
G02X296083Y264057I-1417J943D01*
G03X295417Y264057I-333J-221D01*
G37*
G36*
G01X60417Y261557D02*
G02X60417Y263443I-1417J943D01*
G03X61083Y263443I333J221D01*
G02X61083Y261557I1417J-943D01*
G03X60417Y261557I-333J-221D01*
G37*
G36*
G01X226917Y259107D02*
G02X226917Y260993I-1417J943D01*
G03X227583Y260993I333J221D01*
G02X227583Y259107I1417J-943D01*
G03X226917Y259107I-333J-221D01*
G37*
G36*
G01X267177Y258984D02*
G02X267027Y257400I1423J-934D01*
G03X266323Y257466I-369J-153D01*
G02X263220Y258130I-1423J934D01*
G03X262668Y258434I-395J-64D01*
G02X263680Y260270I-668J1565D01*
G03X264232Y259966I395J64D01*
G02X266473Y259050I668J-1566D01*
G03X267177Y258984I369J153D01*
G37*
G36*
G01X60417Y251557D02*
G02X60417Y253443I-1417J943D01*
G03X61083Y253443I333J221D01*
G02X61083Y251557I1417J-943D01*
G03X60417Y251557I-333J-221D01*
G37*
G36*
G01X311751Y251479D02*
G02X310222Y251557I-842J-1479D01*
G03X310258Y252271I-161J366D01*
G02X311787Y252193I842J1479D01*
G03X311751Y251479I161J-366D01*
G37*
G36*
G01X195403Y249793D02*
G02X193146Y249025I-737J-1534D01*
G03X192963Y249566I-357J181D01*
G02X192224Y250253I737J1534D01*
G03X191520Y250234I-347J-199D01*
G02X191476Y251847I-1520J766D01*
G03X192180Y251866I347J199D01*
G02X195220Y250334I1520J-766D01*
G03X195403Y249793I357J-181D01*
G37*
G36*
G01X202518Y246731D02*
G02X202518Y248269I-1518J769D01*
G03X203232Y248269I357J181D01*
G02X203232Y246731I1518J-769D01*
G03X202518Y246731I-357J-181D01*
G37*
G36*
G01X60417Y246557D02*
G02X60417Y248443I-1417J943D01*
G03X61083Y248443I333J221D01*
G02X61083Y246557I1417J-943D01*
G03X60417Y246557I-333J-221D01*
G37*
G36*
G01X376917Y244557D02*
G02X376917Y246443I-1417J943D01*
G03X377583Y246443I333J221D01*
G02X380417Y246443I1417J-943D01*
G03X381083Y246443I333J221D01*
G02X381083Y244557I1417J-943D01*
G03X380417Y244557I-333J-221D01*
G02X377583Y244557I-1417J943D01*
G03X376917Y244557I-333J-221D01*
G37*
G36*
G01X141436Y243903D02*
G02X139948Y244085I-873J-966D01*
G03X140027Y244734I-189J352D01*
G02X141874Y246564I873J966D01*
G03X142509Y246611I300J265D01*
G02X142626Y245036I1091J-711D01*
G03X141991Y244989I-300J-265D01*
G02X141515Y244552I-1091J711D01*
G03X141436Y243903I189J-352D01*
G37*
G36*
G01X155111Y243991D02*
G02X153536Y243874I-711J-1091D01*
G03X153489Y244509I-265J300D01*
G02X155064Y244626I711J1091D01*
G03X155111Y243991I265J-300D01*
G37*
G36*
G01X60417Y241557D02*
G02X60417Y243443I-1417J943D01*
G03X61083Y243443I333J221D01*
G02X61083Y241557I1417J-943D01*
G03X60417Y241557I-333J-221D01*
G37*
G36*
G01X60417Y236557D02*
G02X60417Y238443I-1417J943D01*
G03X61083Y238443I333J221D01*
G02X61083Y236557I1417J-943D01*
G03X60417Y236557I-333J-221D01*
G37*
G36*
G01X73943Y234917D02*
G02X72057Y234917I-943J-1417D01*
G03X72057Y235583I-221J333D01*
G02X73943Y235583I943J1417D01*
G03X73943Y234917I221J-333D01*
G37*
G36*
G01X365456Y232613D02*
G02X364299Y230948I544J-1613D01*
G03X363823Y231329I-400J-12D01*
G02X363419Y234700I-323J1671D01*
G03X363800Y235081I-19J400D01*
G02X366917Y235943I1700J-81D01*
G03X367583Y235943I333J221D01*
G02X367583Y234057I1417J-943D01*
G03X366917Y234057I-333J-221D01*
G02X365581Y233300I-1417J943D01*
G03X365200Y232919I19J-400D01*
G02X365193Y232823I-1700J76D01*
G03X365456Y232613I199J-21D01*
G37*
G36*
G01X208857Y228121D02*
G02X208857Y229879I-1457J879D01*
G03X209543Y229879I343J207D01*
G02X210057Y230417I1458J-878D01*
G03X210057Y231083I-221J333D01*
G02X211943Y231083I943J1417D01*
G03X211943Y230417I221J-333D01*
G02X209543Y228121I-943J-1417D01*
G03X208857Y228121I-343J-207D01*
G37*
G36*
G01X152226Y228295D02*
G02X152261Y226651I1274J-795D01*
G03X151610Y226663I-330J-226D01*
G02X151575Y228256I-1047J774D01*
G03X152226Y228295I312J251D01*
G37*
G36*
G01X60417Y226557D02*
G02X60417Y228443I-1417J943D01*
G03X61083Y228443I333J221D01*
G02X61083Y226557I1417J-943D01*
G03X60417Y226557I-333J-221D01*
G37*
G36*
G01X371443Y228417D02*
G02X369557Y228417I-943J-1417D01*
G03X369557Y229083I-221J333D01*
G02X371443Y229083I943J1417D01*
G03X371443Y228417I221J-333D01*
G37*
G36*
G01X198917Y225057D02*
G02X198917Y226943I-1417J943D01*
G03X199583Y226943I333J221D01*
G02X199583Y225057I1417J-943D01*
G03X198917Y225057I-333J-221D01*
G37*
G36*
G01X299752Y225835D02*
G02X299740Y224182I1248J-836D01*
G03X299091Y224212I-335J-218D01*
G02X299102Y225814I-1021J808D01*
G03X299752Y225835I317J243D01*
G37*
G36*
G01X121673Y224040D02*
G02X121581Y225722I-1523J760D01*
G03X122275Y225760I336J216D01*
G02X122367Y224078I1523J-760D01*
G03X121673Y224040I-336J-216D01*
G37*
G36*
G01X156917Y212057D02*
G02X156917Y213943I-1417J943D01*
G03X157583Y213943I333J221D01*
G02X160417Y213943I1417J-943D01*
G03X161083Y213943I333J221D01*
G02X163917Y213943I1417J-943D01*
G03X164583Y213943I333J221D01*
G02X164583Y212057I1417J-943D01*
G03X163917Y212057I-333J-221D01*
G02X161083Y212057I-1417J943D01*
G03X160417Y212057I-333J-221D01*
G02X157583Y212057I-1417J943D01*
G03X156917Y212057I-333J-221D01*
G37*
G36*
G01X132183Y209212D02*
G02X132081Y207690I1467J-863D01*
G03X131367Y207738I-369J-155D01*
G02X131469Y209260I-1467J863D01*
G03X132183Y209212I369J155D01*
G37*
G36*
G01X118813Y208552D02*
G02X117576Y209789I-1651J-414D01*
G03X118061Y210274I97J388D01*
G02X119298Y209037I1651J414D01*
G03X118813Y208552I-97J-388D01*
G37*
G36*
G01X146930Y202669D02*
G02X146904Y204554I-1430J923D01*
G03X147570Y204564I330J227D01*
G02X147596Y202679I1430J-923D01*
G03X146930Y202669I-330J-227D01*
G37*
G36*
G01X136778Y201734D02*
G02X135901Y203951I-1568J662D01*
G03X136432Y204161I163J365D01*
G02X139417Y204443I1568J-661D01*
G03X140083Y204443I333J221D01*
G02X140083Y202557I1417J-943D01*
G03X139417Y202557I-333J-221D01*
G02X137309Y201944I-1417J943D01*
G03X136778Y201734I-163J-365D01*
G37*
G36*
G01X234422Y197804D02*
G02X233781Y196772I658J-1124D01*
G03X233266Y197183I-399J28D01*
G02X233274Y199673I-377J1246D01*
G03X233789Y200002I119J382D01*
G02X234695Y198586I1291J-172D01*
G03X234180Y198257I-119J-382D01*
G02X234130Y198036I-1290J176D01*
G03X234422Y197804I191J-60D01*
G37*
G36*
G01X370124Y190010D02*
G02X368075Y191148I-1624J-510D01*
G03X368285Y191788I-100J387D01*
G02X368658Y196604I2715J2212D01*
G03X368411Y197300I-268J297D01*
G02X369913Y198051I89J1700D01*
G03X370322Y197436I332J-223D01*
G02X370556Y190526I677J-3436D01*
G03X370124Y190010I-50J-397D01*
G37*
G36*
G01X141417Y180557D02*
G02X141417Y182443I-1417J943D01*
G03X142083Y182443I333J221D01*
G02X144917Y182443I1417J-943D01*
G03X145583Y182443I333J221D01*
G02X148417Y182443I1417J-943D01*
G03X149083Y182443I333J221D01*
G02X149083Y180557I1417J-943D01*
G03X148417Y180557I-333J-221D01*
G02X145583Y180557I-1417J943D01*
G03X144917Y180557I-333J-221D01*
G02X142083Y180557I-1417J943D01*
G03X141417Y180557I-333J-221D01*
G37*
G36*
G01X189574Y180377D02*
G02X187738Y179153I926J-3377D01*
G03X187438Y179799I-315J246D01*
G02X189094Y180903I62J1701D01*
G03X189574Y180377I375J-140D01*
G37*
G36*
G01X183692Y174715D02*
G02X181308Y174715I-1192J-1215D01*
G03X181308Y175285I-281J285D01*
G02X181557Y177917I1192J1215D01*
G03X181557Y178583I-221J333D01*
G02X181308Y181215I943J1417D01*
G03X181308Y181785I-281J285D01*
G02X183692Y181785I1192J1215D01*
G03X183692Y181215I281J-285D01*
G02X183443Y178583I-1192J-1215D01*
G03X183443Y177917I221J-333D01*
G02X183692Y175285I-943J-1417D01*
G03X183692Y174715I281J-285D01*
G37*
G36*
G01X377943Y174417D02*
G02X376057Y174417I-943J-1417D01*
G03X376057Y175083I-221J333D01*
G02X376057Y177917I943J1417D01*
G03X376057Y178583I-221J333D01*
G02X376057Y181417I943J1417D01*
G03X376057Y182083I-221J333D01*
G02X376057Y184917I943J1417D01*
G03X376057Y185583I-221J333D01*
G02X376057Y188417I943J1417D01*
G03X376057Y189083I-221J333D01*
G02X376057Y191917I943J1417D01*
G03X376057Y192583I-221J333D01*
G02X376057Y195417I943J1417D01*
G03X376057Y196083I-221J333D01*
G02X377943Y196083I943J1417D01*
G03X377943Y195417I221J-333D01*
G02X377943Y192583I-943J-1417D01*
G03X377943Y191917I221J-333D01*
G02X377943Y189083I-943J-1417D01*
G03X377943Y188417I221J-333D01*
G02X377943Y185583I-943J-1417D01*
G03X377943Y184917I221J-333D01*
G02X377943Y182083I-943J-1417D01*
G03X377943Y181417I221J-333D01*
G02X377943Y178583I-943J-1417D01*
G03X377943Y177917I221J-333D01*
G02X377943Y175083I-943J-1417D01*
G03X377943Y174417I221J-333D01*
G37*
G36*
G01X284668Y171694D02*
G02X283082Y170941I-168J-1694D01*
G03X282673Y171555I-333J221D01*
G02X281233Y179289I-744J3863D01*
G03X281434Y179976I-71J394D01*
G02X283062Y179860I886J954D01*
G03X283164Y179152I228J-328D01*
G02X284451Y172399I-1235J-3734D01*
G03X284668Y171694I256J-307D01*
G37*
G36*
G01X245754Y169201D02*
G02X244056Y169693I-1254J-1151D01*
G03X244246Y170349I-105J386D01*
G02X245944Y169857I1254J1151D01*
G03X245754Y169201I105J-386D01*
G37*
G36*
G01X398642Y168164D02*
G02X397483Y169346I-1642J-450D01*
G03X397953Y169911I114J383D01*
G02X399216Y168622I2677J1359D01*
G03X398642Y168164I-188J-353D01*
G37*
G36*
G01X369493Y168452D02*
G02X368130Y167761I6J-1702D01*
G03X367807Y168398I-322J237D01*
G02X367784Y171802I-7J1702D01*
G03X368059Y172489I-4J400D01*
G02X367932Y177381I2441J2511D01*
G03X367749Y178037I-294J272D01*
G02X369797Y179037I469J1636D01*
G03X370202Y178489I371J-149D01*
G02X369681Y171595I298J-3489D01*
G03X369247Y170996I-94J-389D01*
G02X369170Y169089I-1447J-897D01*
G03X369493Y168452I322J-237D01*
G37*
G36*
G01X230443Y152917D02*
G02X228557Y152917I-943J-1417D01*
G03X228557Y153583I-221J333D01*
G02X228563Y156421I943J1417D01*
G03X228516Y157116I-220J334D01*
G02X230187Y157230I735J1535D01*
G03X230234Y156535I220J-334D01*
G02X230443Y153583I-734J-1535D01*
G03X230443Y152917I221J-333D01*
G37*
G36*
G01X284356Y143966D02*
G02X282835Y144071I-865J-1466D01*
G03X282884Y144784I-154J369D01*
G02X282266Y145416I866J1465D01*
G03X281600Y145464I-349J-196D01*
G02X281734Y147334I-1350J1037D01*
G03X282400Y147286I349J196D01*
G02X284405Y144679I1350J-1036D01*
G03X284356Y143966I154J-369D01*
G37*
G36*
G01X263917Y141557D02*
G02X263917Y143443I-1417J943D01*
G03X264583Y143443I333J221D01*
G02X264583Y141557I1417J-943D01*
G03X263917Y141557I-333J-221D01*
G37*
G36*
G01X255269Y144018D02*
G02X253731Y144018I-769J-1518D01*
G03X253731Y144732I-181J357D01*
G02X255269Y144732I769J1518D01*
G03X255269Y144018I181J-357D01*
G37*
G36*
G01X302919Y142700D02*
G02X301462Y141729I81J-1700D01*
G03X301081Y142300I-361J171D01*
G02X302538Y143271I-81J1700D01*
G03X302919Y142700I361J-171D01*
G37*
G36*
G01X230463Y141404D02*
G02X228578Y141430I-962J-1404D01*
G03X228587Y142096I-217J336D01*
G02X230472Y142070I962J1404D01*
G03X230463Y141404I217J-336D01*
G37*
G36*
G01X59917Y137057D02*
G02X59917Y138943I-1417J943D01*
G03X60583Y138943I333J221D01*
G02X60583Y137057I1417J-943D01*
G03X59917Y137057I-333J-221D01*
G37*
G36*
G01X49692Y139215D02*
G02X47308Y139215I-1192J-1215D01*
G03X47308Y139785I-281J285D01*
G02X46798Y140990I1192J1215D01*
G03X46180Y141323I-400J-2D01*
G02X46952Y142759I-930J1426D01*
G03X47570Y142426I400J2D01*
G02X49692Y139785I931J-1425D01*
G03X49692Y139215I281J-285D01*
G37*
G36*
G01X59917Y132057D02*
G02X59917Y133943I-1417J943D01*
G03X60583Y133943I333J221D01*
G02X60583Y132057I1417J-943D01*
G03X59917Y132057I-333J-221D01*
G37*
G36*
G01X378443Y133417D02*
G02X376557Y133417I-943J-1417D01*
G03X376557Y134083I-221J333D01*
G02X376557Y136917I943J1417D01*
G03X376557Y137583I-221J333D01*
G02X376557Y140417I943J1417D01*
G03X376557Y141083I-221J333D01*
G02X376557Y143917I943J1417D01*
G03X376557Y144583I-221J333D01*
G02X376557Y147417I943J1417D01*
G03X376557Y148083I-221J333D01*
G02X376557Y150917I943J1417D01*
G03X376557Y151583I-221J333D01*
G02X376557Y154417I943J1417D01*
G03X376557Y155083I-221J333D01*
G02X378443Y155083I943J1417D01*
G03X378443Y154417I221J-333D01*
G02X378443Y151583I-943J-1417D01*
G03X378443Y150917I221J-333D01*
G02X378443Y148083I-943J-1417D01*
G03X378443Y147417I221J-333D01*
G02X378443Y144583I-943J-1417D01*
G03X378443Y143917I221J-333D01*
G02X378443Y141083I-943J-1417D01*
G03X378443Y140417I221J-333D01*
G02X378443Y137583I-943J-1417D01*
G03X378443Y136917I221J-333D01*
G02X378443Y134083I-943J-1417D01*
G03X378443Y133417I221J-333D01*
G37*
G36*
G01X224038Y131729D02*
G02X222581Y132700I-1538J-729D01*
G03X222962Y133271I20J400D01*
G02X224419Y132300I1538J729D01*
G03X224038Y131729I-20J-400D01*
G37*
G36*
G01X219037Y131730D02*
G02X217606Y132699I-1538J-730D01*
G03X217993Y133270I26J399D01*
G02X219424Y132301I1538J730D01*
G03X219037Y131730I-26J-399D01*
G37*
G36*
G01X59917Y127057D02*
G02X59917Y128943I-1417J943D01*
G03X60583Y128943I333J221D01*
G02X60583Y127057I1417J-943D01*
G03X59917Y127057I-333J-221D01*
G37*
G36*
G01X141417Y125557D02*
G02X141417Y127443I-1417J943D01*
G03X142083Y127443I333J221D01*
G02X144917Y127443I1417J-943D01*
G03X145583Y127443I333J221D01*
G02X148417Y127443I1417J-943D01*
G03X149083Y127443I333J221D01*
G02X149083Y125557I1417J-943D01*
G03X148417Y125557I-333J-221D01*
G02X145583Y125557I-1417J943D01*
G03X144917Y125557I-333J-221D01*
G02X142083Y125557I-1417J943D01*
G03X141417Y125557I-333J-221D01*
G37*
G36*
G01X59917Y122057D02*
G02X59917Y123943I-1417J943D01*
G03X60583Y123943I333J221D01*
G02X60583Y122057I1417J-943D01*
G03X59917Y122057I-333J-221D01*
G37*
G36*
G01X266074Y115183D02*
G02X265534Y113671I926J-1183D01*
G03X264922Y113917I-390J-87D01*
G02X265445Y115381I-722J1083D01*
G03X266074Y115183I382J117D01*
G37*
G36*
G01X194941Y114897D02*
G02X193131Y114866I-880J-1457D01*
G03X193119Y115543I-219J335D01*
G02X194929Y115574I880J1457D01*
G03X194941Y114897I219J-335D01*
G37*
G36*
G01X190949Y114887D02*
G02X189194Y114828I-829J-1487D01*
G03X189171Y115513I-217J336D01*
G02X190926Y115572I829J1487D01*
G03X190949Y114887I217J-336D01*
G37*
G36*
G01X186982Y114901D02*
G02X185232Y114814I-803J-1501D01*
G03X185198Y115499I-222J332D01*
G02X184478Y116239I802J1501D01*
G03X183762Y116239I-358J-179D01*
G02X183762Y117761I-1522J761D01*
G03X184478Y117761I358J179D01*
G02X186948Y115586I1522J-761D01*
G03X186982Y114901I222J-332D01*
G37*
G36*
G01X175278Y114833D02*
G02X173523Y114882I-918J-1433D01*
G03X173542Y115567I-197J348D01*
G02X175297Y115518I918J1433D01*
G03X175278Y114833I197J-348D01*
G37*
G36*
G01X171338Y114833D02*
G02X169583Y114882I-918J-1433D01*
G03X169602Y115567I-197J348D01*
G02X171357Y115518I918J1433D01*
G03X171338Y114833I197J-348D01*
G37*
G36*
G01X167398Y114833D02*
G02X165643Y114882I-918J-1433D01*
G03X165662Y115567I-197J348D01*
G02X167417Y115518I918J1433D01*
G03X167398Y114833I197J-348D01*
G37*
G36*
G01X163458Y114833D02*
G02X161703Y114882I-918J-1433D01*
G03X161722Y115567I-197J348D01*
G02X163477Y115518I918J1433D01*
G03X163458Y114833I197J-348D01*
G37*
G36*
G01X159518Y114833D02*
G02X157763Y114882I-918J-1433D01*
G03X157782Y115567I-197J348D01*
G02X159537Y115518I918J1433D01*
G03X159518Y114833I197J-348D01*
G37*
G36*
G01X155578Y114833D02*
G02X153823Y114882I-918J-1433D01*
G03X153842Y115567I-197J348D01*
G02X155597Y115518I918J1433D01*
G03X155578Y114833I197J-348D01*
G37*
G36*
G01X151638Y114833D02*
G02X149883Y114882I-918J-1433D01*
G03X149902Y115567I-197J348D01*
G02X151657Y115518I918J1433D01*
G03X151638Y114833I197J-348D01*
G37*
G36*
G01X143758Y114833D02*
G02X142003Y114882I-918J-1433D01*
G03X142022Y115567I-197J348D01*
G02X143777Y115518I918J1433D01*
G03X143758Y114833I197J-348D01*
G37*
G36*
G01X220917Y103557D02*
G02X220917Y105443I-1417J943D01*
G03X221583Y105443I333J221D01*
G02X221583Y103557I1417J-943D01*
G03X220917Y103557I-333J-221D01*
G37*
G36*
G01X360817Y98724D02*
G02X360349Y97086I1183J-1224D01*
G03X359683Y97276I-388J-97D01*
G02X360151Y98914I-1183J1224D01*
G03X360817Y98724I388J97D01*
G37*
G36*
G01X303989Y98464D02*
G02X302011Y98464I-989J-1385D01*
G03X302011Y99115I-233J326D01*
G02X301947Y101837I989J1385D01*
G03X301890Y102503I-247J314D01*
G02X301757Y105417I810J1497D01*
G03X301757Y106083I-221J333D01*
G02X303643Y106083I943J1417D01*
G03X303643Y105417I221J-333D01*
G02X303753Y102663I-943J-1417D01*
G03X303810Y101997I247J-314D01*
G02X303989Y99115I-810J-1497D01*
G03X303989Y98464I233J-326D01*
G37*
G36*
G01X292843Y98417D02*
G02X290957Y98417I-943J-1417D01*
G03X290957Y99083I-221J333D01*
G02X292843Y99083I943J1417D01*
G03X292843Y98417I221J-333D01*
G37*
G36*
G01X285464Y97462D02*
G02X284223Y97653I-794J-1032D01*
G03X284330Y98345I-137J376D01*
G02X285571Y98154I794J1032D01*
G03X285464Y97462I137J-376D01*
G37*
G36*
G01X377943Y96917D02*
G02X376057Y96917I-943J-1417D01*
G03X376057Y97583I-221J333D01*
G02X376057Y100417I943J1417D01*
G03X376057Y101083I-221J333D01*
G02X376057Y103917I943J1417D01*
G03X376057Y104583I-221J333D01*
G02X376057Y107417I943J1417D01*
G03X376057Y108083I-221J333D01*
G02X376057Y110917I943J1417D01*
G03X376057Y111583I-221J333D01*
G02X376057Y114417I943J1417D01*
G03X376057Y115083I-221J333D01*
G02X376057Y117917I943J1417D01*
G03X376057Y118583I-221J333D01*
G02X377943Y118583I943J1417D01*
G03X377943Y117917I221J-333D01*
G02X377943Y115083I-943J-1417D01*
G03X377943Y114417I221J-333D01*
G02X377943Y111583I-943J-1417D01*
G03X377943Y110917I221J-333D01*
G02X377943Y108083I-943J-1417D01*
G03X377943Y107417I221J-333D01*
G02X377943Y104583I-943J-1417D01*
G03X377943Y103917I221J-333D01*
G02X377943Y101083I-943J-1417D01*
G03X377943Y100417I221J-333D01*
G02X377943Y97583I-943J-1417D01*
G03X377943Y96917I221J-333D01*
G37*
G36*
G01X325893Y96449D02*
G02X324107Y96449I-893J-1449D01*
G03X324107Y97130I-210J340D01*
G02X325893Y97130I893J1449D01*
G03X325893Y96449I210J-340D01*
G37*
G36*
G01X237979Y90861D02*
G02X237390Y88948I1021J-1362D01*
G03X236771Y89139I-379J-129D01*
G02X235178Y92103I-1022J1361D01*
G03X235416Y92626I-134J377D01*
G02X236062Y94670I1584J624D01*
G03X235967Y95384I-220J334D01*
G02X235557Y98417I533J1616D01*
G03X235557Y99083I-221J333D01*
G02X237443Y99083I943J1417D01*
G03X237443Y98417I221J-333D01*
G02X238047Y97709I-943J-1417D01*
G03X238713Y97614I364J167D01*
G02X238453Y95791I1287J-1114D01*
G03X237787Y95886I-364J-167D01*
G02X237438Y95580I-1286J1115D01*
G03X237533Y94866I220J-334D01*
G02X237572Y91647I-533J-1616D01*
G03X237334Y91124I134J-377D01*
G02X237360Y91052I-1588J-614D01*
G03X237979Y90861I379J129D01*
G37*
G36*
G01X307943Y83417D02*
G02X306057Y83417I-943J-1417D01*
G03X306057Y84083I-221J333D01*
G02X307943Y84083I943J1417D01*
G03X307943Y83417I221J-333D01*
G37*
G36*
G01X194967Y74901D02*
G02X193082Y74933I-967J-1401D01*
G03X193093Y75599I-216J337D01*
G02X194978Y75567I967J1401D01*
G03X194967Y74901I216J-337D01*
G37*
G36*
G01X190990Y74885D02*
G02X189108Y74949I-989J-1385D01*
G03X189130Y75615I-210J340D01*
G02X191012Y75551I989J1385D01*
G03X190990Y74885I210J-340D01*
G37*
G36*
G01X183778Y74228D02*
G02X182305Y75201I-1539J-728D01*
G03X182682Y75772I15J400D01*
G02X185759Y75772I1538J728D01*
G03X186131Y75201I361J-171D01*
G02X184641Y74228I48J-1701D01*
G03X184269Y74799I-361J171D01*
G02X184155Y74799I-57J1701D01*
G03X183778Y74228I-15J-400D01*
G37*
G36*
G01X175361Y74944D02*
G02X173478Y74890I-901J-1444D01*
G03X173459Y75556I-231J327D01*
G02X175342Y75610I901J1444D01*
G03X175361Y74944I231J-327D01*
G37*
G36*
G01X171421Y74944D02*
G02X169538Y74890I-901J-1444D01*
G03X169519Y75556I-231J327D01*
G02X171402Y75610I901J1444D01*
G03X171421Y74944I231J-327D01*
G37*
G36*
G01X167481Y74944D02*
G02X165598Y74890I-901J-1444D01*
G03X165579Y75556I-231J327D01*
G02X167462Y75610I901J1444D01*
G03X167481Y74944I231J-327D01*
G37*
G36*
G01X163541Y74944D02*
G02X161658Y74890I-901J-1444D01*
G03X161639Y75556I-231J327D01*
G02X163522Y75610I901J1444D01*
G03X163541Y74944I231J-327D01*
G37*
G36*
G01X159601Y74944D02*
G02X157718Y74890I-901J-1444D01*
G03X157699Y75556I-231J327D01*
G02X159582Y75610I901J1444D01*
G03X159601Y74944I231J-327D01*
G37*
G36*
G01X155661Y74944D02*
G02X153778Y74890I-901J-1444D01*
G03X153759Y75556I-231J327D01*
G02X155642Y75610I901J1444D01*
G03X155661Y74944I231J-327D01*
G37*
G36*
G01X151721Y74944D02*
G02X149838Y74890I-901J-1444D01*
G03X149819Y75556I-231J327D01*
G02X151702Y75610I901J1444D01*
G03X151721Y74944I231J-327D01*
G37*
G36*
G01X147781Y74944D02*
G02X145898Y74890I-901J-1444D01*
G03X145879Y75556I-231J327D01*
G02X147762Y75610I901J1444D01*
G03X147781Y74944I231J-327D01*
G37*
G36*
G01X143841Y74944D02*
G02X141958Y74890I-901J-1444D01*
G03X141939Y75556I-231J327D01*
G02X143822Y75610I901J1444D01*
G03X143841Y74944I231J-327D01*
G37*
G36*
G01X244917Y70557D02*
G02X244917Y72443I-1417J943D01*
G03X245583Y72443I333J221D01*
G02X247361Y73163I1417J-943D01*
G03X247837Y73639I85J391D01*
G02X247837Y74361I1663J361D01*
G03X247361Y74837I-391J85D01*
G02X248663Y76139I-361J1663D01*
G03X249139Y75663I391J-85D01*
G02X249139Y72337I361J-1663D01*
G03X248663Y71861I-85J-391D01*
G02X245583Y70557I-1663J-361D01*
G03X244917Y70557I-333J-221D01*
G37*
G36*
G01X102638Y63964D02*
G02X101387Y65157I-1637J-465D01*
G03X101862Y65656I90J390D01*
G02X103113Y64463I1637J465D01*
G03X102638Y63964I-90J-390D01*
G37*
G36*
G01X72913Y42141D02*
G02X72913Y44039I-1413J949D01*
G03X73577Y44039I332J223D01*
G02X73577Y42141I1413J-949D01*
G03X72913Y42141I-332J-223D01*
G37*
G54D23*
X336500Y450690D03*
G54D22*
X355000Y462500D03*
G54D39*
X150563Y223937D03*
X142563Y223937D03*
X146563Y223937D03*
X137500Y226500D03*
X150563Y254437D03*
X154563Y254437D03*
X146563Y254437D03*
X223597Y187403D03*
X229900Y238200D03*
X271000Y89000D03*
X267000Y109000D03*
X301427Y219544D03*
X305500Y232030D03*
G54D33*
X33500Y61030D03*
X25630Y61030D03*
X33500Y68910D03*
X25630Y68910D03*
X33500Y76780D03*
X25630Y76780D03*
X33500Y84650D03*
X25630Y84650D03*
X33500Y92530D03*
X25630Y92530D03*
X33500Y100400D03*
X25630Y100400D03*
X33500Y108280D03*
X25630Y108280D03*
X33500Y116150D03*
X25630Y116150D03*
X33500Y124020D03*
X25630Y124020D03*
X33500Y131900D03*
X25630Y131900D03*
X33500Y139770D03*
X25630Y139770D03*
X33500Y147650D03*
X25630Y147650D03*
X33500Y155520D03*
X25630Y155520D03*
X33500Y163390D03*
X25630Y163390D03*
X33500Y171270D03*
X25630Y171270D03*
X33500Y179140D03*
X25630Y179140D03*
X33500Y187020D03*
X25630Y187020D03*
X33500Y194890D03*
X25630Y194890D03*
X33500Y202760D03*
X25630Y202760D03*
X33500Y210640D03*
X25630Y210640D03*
X33500Y218510D03*
X25630Y218510D03*
X33500Y226390D03*
X25630Y226390D03*
X33500Y234260D03*
X25630Y234260D03*
X33500Y242130D03*
X33500Y250010D03*
X33500Y257880D03*
X25630Y242130D03*
X25630Y250010D03*
X25630Y257880D03*
X33500Y265760D03*
X33500Y273630D03*
X33500Y281500D03*
X25630Y265760D03*
X25630Y273630D03*
X25630Y281500D03*
X33500Y289380D03*
X33500Y297250D03*
X25630Y289380D03*
X25630Y297250D03*
X33500Y305130D03*
X33500Y313000D03*
X25630Y305130D03*
X25630Y313000D03*
X70870Y50130D03*
X63000Y50130D03*
X70870Y58000D03*
X63000Y58000D03*
X94500Y50130D03*
X86620Y50130D03*
X78750Y50130D03*
X94500Y58000D03*
X86620Y58000D03*
X78750Y58000D03*
X81000Y115500D03*
X81000Y135500D03*
X81000Y125500D03*
X81000Y155500D03*
X81000Y145500D03*
X81500Y235000D03*
X81500Y225000D03*
X81500Y255000D03*
X81500Y245000D03*
X81500Y265000D03*
X110240Y50130D03*
X102370Y50130D03*
X110240Y58000D03*
X102370Y58000D03*
X133870Y50130D03*
X125990Y50130D03*
X118120Y50130D03*
X133870Y58000D03*
X125990Y58000D03*
X118120Y58000D03*
X157490Y50130D03*
X149610Y50130D03*
X141740Y50130D03*
X157490Y58000D03*
X149610Y58000D03*
X141740Y58000D03*
X173240Y50130D03*
X165360Y50130D03*
X173240Y58000D03*
X165360Y58000D03*
X196860Y50130D03*
X188980Y50130D03*
X181110Y50130D03*
X196860Y58000D03*
X188980Y58000D03*
X181110Y58000D03*
X220480Y50130D03*
X212610Y50130D03*
X204730Y50130D03*
X220480Y58000D03*
X212610Y58000D03*
X204730Y58000D03*
X236230Y50130D03*
X228350Y50130D03*
X236230Y58000D03*
X228350Y58000D03*
X259850Y50130D03*
X251980Y50130D03*
X244100Y50130D03*
X259850Y58000D03*
X251980Y58000D03*
X244100Y58000D03*
X275600Y50130D03*
X267720Y50130D03*
X275600Y58000D03*
X267720Y58000D03*
X299220Y50130D03*
X291350Y50130D03*
X283470Y50130D03*
X299220Y58000D03*
X291350Y58000D03*
X283470Y58000D03*
X322840Y50130D03*
X314970Y50130D03*
X307090Y50130D03*
X322840Y58000D03*
X314970Y58000D03*
X307090Y58000D03*
X338590Y50130D03*
X330720Y50130D03*
X338590Y58000D03*
X330720Y58000D03*
X362210Y50130D03*
X354340Y50130D03*
X346460Y50130D03*
X362210Y58000D03*
X354340Y58000D03*
X346460Y58000D03*
X370090Y50130D03*
X370090Y58000D03*
X400630Y61030D03*
X400630Y68910D03*
X400630Y76780D03*
X400630Y84650D03*
X400630Y92530D03*
X400630Y100400D03*
X400630Y108280D03*
X400630Y116150D03*
X400630Y124020D03*
X400630Y131900D03*
X400630Y139770D03*
X400630Y147650D03*
X400630Y155520D03*
X400630Y163390D03*
X400630Y179140D03*
X400630Y187020D03*
X400630Y194890D03*
X400630Y202760D03*
X400630Y210640D03*
X400630Y218510D03*
X400630Y226390D03*
X400630Y234260D03*
X400630Y242130D03*
X400630Y250010D03*
X400630Y257880D03*
X400630Y265760D03*
X400630Y273630D03*
X400630Y281500D03*
X400630Y289380D03*
X400630Y297250D03*
X400630Y305130D03*
X400630Y313000D03*
X408500Y61030D03*
X408500Y68910D03*
X408500Y76780D03*
X408500Y84650D03*
X408500Y92530D03*
X408500Y100400D03*
X408500Y108280D03*
X408500Y116150D03*
X408500Y124020D03*
X408500Y131900D03*
X408500Y139770D03*
X408500Y147650D03*
X408500Y155520D03*
X408500Y163390D03*
X408500Y171270D03*
X408500Y179140D03*
X408500Y187020D03*
X408500Y194890D03*
X408500Y202760D03*
X408500Y210640D03*
X408500Y218510D03*
X408500Y226390D03*
X408500Y234260D03*
X408500Y242130D03*
X408500Y250010D03*
X408500Y257880D03*
X408500Y265760D03*
X408500Y273630D03*
X408500Y281500D03*
X408500Y289380D03*
X408500Y297250D03*
X408500Y305130D03*
X408500Y313000D03*
G54D32*
X16031Y36999D03*
X16000Y361500D03*
X22500Y360000D03*
X30000Y362000D03*
X21500Y378000D03*
X14000Y369500D03*
X22000Y402000D03*
X33000Y404000D03*
X24400Y433498D03*
X20000Y428300D03*
X27500Y430450D03*
X53000Y128000D03*
X48500Y152000D03*
X53000Y148000D03*
X52000Y209000D03*
X52000Y225000D03*
X42619Y277500D03*
X51900Y297250D03*
X51892Y314538D03*
X44000Y316250D03*
X50500Y339500D03*
X44000Y333500D03*
X39500Y327000D03*
X44000Y323000D03*
X39500Y323000D03*
X40700Y352800D03*
X48300Y352300D03*
X33500Y381500D03*
X37000Y404000D03*
X46000Y403700D03*
X34020Y416500D03*
X34088Y424483D03*
X37750Y408750D03*
X63000Y10000D03*
X63000Y25000D03*
X63000Y20000D03*
X63000Y15000D03*
X71500Y32500D03*
X66500Y32500D03*
X67290Y39790D03*
X64870Y65309D03*
X61755Y69235D03*
X62000Y98000D03*
X62000Y118000D03*
X73500Y122500D03*
X62000Y143000D03*
X54500Y139500D03*
X62000Y164500D03*
X58500Y170897D03*
X64000Y196670D03*
X62000Y182500D03*
X67500Y190000D03*
X55500Y211048D03*
X62500Y222500D03*
X62500Y232500D03*
X73000Y226500D03*
X55500Y232500D03*
X59000Y257500D03*
X74000Y275750D03*
X61500Y273500D03*
X67328Y292518D03*
X62853Y283500D03*
X54750Y284351D03*
X63957Y317750D03*
X60750Y304360D03*
X57200Y311300D03*
X69500Y318000D03*
X59000Y338550D03*
X74000Y358000D03*
X73000Y348000D03*
X55500Y358000D03*
X55500Y343000D03*
X55500Y348000D03*
X55500Y373000D03*
X56000Y368000D03*
X55500Y403000D03*
X55500Y393000D03*
X56000Y388000D03*
X56000Y398000D03*
X54000Y418000D03*
X58500Y419900D03*
X55500Y413000D03*
X73165Y464800D03*
X64504Y465200D03*
X60173Y464400D03*
X68835Y466600D03*
X81500Y32500D03*
X76000Y32000D03*
X88750Y40749D03*
X88750Y33213D03*
X81290Y39790D03*
X92000Y77000D03*
X75517Y154000D03*
X86251Y173897D03*
X91750Y176000D03*
X85000Y168000D03*
X78500Y176023D03*
X94312Y189438D03*
X92768Y185274D03*
X90500Y189000D03*
X92500Y205000D03*
X82000Y216750D03*
X93500Y210750D03*
X76000Y219000D03*
X88750Y233750D03*
X90500Y242750D03*
X87750Y254250D03*
X75700Y260500D03*
X77500Y273500D03*
X87900Y270838D03*
X86465Y294550D03*
X79050Y327450D03*
X74500Y328000D03*
X75000Y398000D03*
X75000Y390000D03*
X75122Y385500D03*
X94500Y413000D03*
X75500Y413000D03*
X81827Y465300D03*
X114490Y36100D03*
X105500Y128000D03*
X108500Y119000D03*
X100500Y118000D03*
X104500Y133000D03*
X100500Y133000D03*
X109000Y126500D03*
X100500Y138000D03*
X104500Y143000D03*
X104500Y138000D03*
X100500Y143000D03*
X105400Y158000D03*
X99751Y183500D03*
X98500Y198000D03*
X114000Y205750D03*
X104000Y200500D03*
X98750Y218250D03*
X103500Y209750D03*
X101000Y232500D03*
X105000Y232500D03*
X105000Y227500D03*
X101100Y222500D03*
X105000Y237500D03*
X101000Y227500D03*
X105000Y257500D03*
X112238Y239962D03*
X105000Y247500D03*
X105000Y242500D03*
X101000Y242500D03*
X105000Y252500D03*
X101000Y252500D03*
X104750Y274500D03*
X103000Y279901D03*
X101000Y262500D03*
X101000Y267500D03*
X105000Y262500D03*
X105000Y267500D03*
X104000Y284000D03*
X102262Y337000D03*
X99300Y333100D03*
X111000Y339500D03*
X115000Y340500D03*
X98500Y348500D03*
X113000Y382500D03*
X95500Y379000D03*
X111300Y369000D03*
X100500Y365000D03*
X95500Y383000D03*
X111000Y374600D03*
X105800Y403600D03*
X96300Y417500D03*
X111970Y431800D03*
X135500Y77000D03*
X133650Y113200D03*
X134000Y118500D03*
X116400Y134600D03*
X115951Y118500D03*
X136000Y135047D03*
X136000Y141000D03*
X127000Y149000D03*
X127000Y142500D03*
X136000Y168000D03*
X123530Y167530D03*
X132155Y164155D03*
X130000Y174500D03*
X136000Y162047D03*
X135000Y192000D03*
X136000Y196000D03*
X136000Y181500D03*
X129000Y191500D03*
X131900Y199900D03*
X119500Y232000D03*
X117539Y221629D03*
X119500Y236000D03*
X126050Y260000D03*
X119500Y244500D03*
X119000Y259800D03*
X131000Y258700D03*
X127500Y255500D03*
X123500Y272500D03*
X130150Y275050D03*
X129500Y288500D03*
X125500Y289000D03*
X129640Y303360D03*
X132800Y333800D03*
X133600Y326200D03*
X131940Y345940D03*
X131940Y351060D03*
X117000Y383400D03*
X122600Y404500D03*
X129500Y392000D03*
X129500Y396500D03*
X122500Y423000D03*
X130100Y411600D03*
X123200Y408700D03*
X131000Y434050D03*
X139000Y73500D03*
X138689Y114848D03*
X146780Y113400D03*
X146602Y118500D03*
X155000Y131500D03*
X148750Y149000D03*
X137000Y153750D03*
X145500Y176000D03*
X152410Y207794D03*
X155500Y200000D03*
X153000Y203500D03*
X155137Y224150D03*
X142000Y255500D03*
X137000Y274950D03*
X148640Y266140D03*
X142000Y260500D03*
X146670Y260170D03*
X144700Y266200D03*
X152800Y260749D03*
X140500Y287500D03*
X140500Y295500D03*
X140420Y299420D03*
X140500Y283670D03*
X154000Y285500D03*
X148000Y309500D03*
X156500Y304000D03*
X152580Y322500D03*
X150500Y339500D03*
X145000Y339500D03*
X140000Y339500D03*
X140000Y327550D03*
X150000Y327550D03*
X145000Y327550D03*
X155000Y327550D03*
X150000Y348500D03*
X140000Y348500D03*
X150480Y381020D03*
X154500Y368000D03*
X146500Y374788D03*
X150000Y368000D03*
X152000Y398500D03*
X148520Y401980D03*
X137000Y400500D03*
X146000Y399000D03*
X155500Y395500D03*
X144500Y424000D03*
X144500Y412000D03*
X174810Y38000D03*
X166500Y67000D03*
X174000Y123000D03*
X168670Y122500D03*
X162500Y142500D03*
X165000Y150000D03*
X170500Y155000D03*
X159000Y158000D03*
X164500Y167953D03*
X177524Y167477D03*
X177000Y198000D03*
X162000Y185000D03*
X164500Y198000D03*
X161000Y180000D03*
X172500Y190988D03*
X160000Y200000D03*
X170750Y213000D03*
X175500Y224000D03*
X160800Y223597D03*
X172500Y254500D03*
X175912Y243413D03*
X173000Y278000D03*
X171500Y260500D03*
X168500Y266500D03*
X165000Y260500D03*
X172500Y266000D03*
X158750Y283500D03*
X166000Y294500D03*
X160500Y300000D03*
X170000Y294500D03*
X166000Y299500D03*
X166250Y289500D03*
X158480Y311640D03*
X161500Y305500D03*
X166900Y306361D03*
X172500Y341500D03*
X167000Y327702D03*
X171500Y329000D03*
X165000Y341500D03*
X170510Y359000D03*
X167500Y347500D03*
X159500Y345000D03*
X165500Y369000D03*
X165500Y374000D03*
X169500Y373500D03*
X167520Y389520D03*
X158000Y389500D03*
X175020Y389500D03*
X167500Y408500D03*
X172500Y408500D03*
X185000Y16000D03*
X190000Y16000D03*
X190000Y38500D03*
X178300Y73500D03*
X197500Y133500D03*
X178300Y117000D03*
X197104Y153104D03*
X195000Y162500D03*
X189500Y161000D03*
X197000Y170000D03*
X182500Y168500D03*
X181750Y188500D03*
X178470Y192000D03*
X178000Y211058D03*
X195751Y205950D03*
X180000Y230000D03*
X198000Y232500D03*
X193500Y237500D03*
X179300Y235400D03*
X185500Y244000D03*
X180000Y247500D03*
X193250Y244700D03*
X189585Y246085D03*
X180000Y252000D03*
X193500Y256250D03*
X178000Y275500D03*
X181000Y261000D03*
X194000Y276000D03*
X193500Y267500D03*
X193000Y280360D03*
X186000Y279500D03*
X181999Y267500D03*
X185390Y287610D03*
X190293Y284491D03*
X185490Y296430D03*
X185500Y292500D03*
X192000Y289000D03*
X180961Y322000D03*
X196000Y312500D03*
X188000Y322000D03*
X198000Y306500D03*
X194000Y339500D03*
X196349Y328600D03*
X187700Y339300D03*
X192500Y324500D03*
X196900Y324500D03*
X186500Y359000D03*
X192300Y364700D03*
X196000Y372500D03*
X184000Y370000D03*
X188000Y371500D03*
X184500Y363500D03*
X194500Y402000D03*
X188500Y389500D03*
X187000Y394000D03*
X183000Y402000D03*
X205500Y12000D03*
X206000Y63000D03*
X199500Y79000D03*
X214000Y74500D03*
X217000Y77500D03*
X210000Y127500D03*
X214500Y145500D03*
X214500Y141500D03*
X215000Y151800D03*
X211000Y168012D03*
X214000Y174500D03*
X210500Y173000D03*
X205502Y159481D03*
X205500Y166000D03*
X201050Y186500D03*
X210000Y180000D03*
X211000Y192500D03*
X215000Y192500D03*
X206000Y187500D03*
X201000Y193500D03*
X214800Y187500D03*
X204500Y232500D03*
X211000Y237500D03*
X204000Y239000D03*
X202400Y221200D03*
X201000Y254500D03*
X215000Y247500D03*
X207500Y251000D03*
X214500Y258000D03*
X211500Y246000D03*
X212500Y279500D03*
X199000Y279000D03*
X201000Y265000D03*
X201000Y272000D03*
X213950Y273000D03*
X204500Y261500D03*
X207000Y277500D03*
X216500Y279500D03*
X205000Y296500D03*
X216500Y283500D03*
X198870Y283500D03*
X202800Y283500D03*
X212640Y283500D03*
X213500Y307500D03*
X218200Y307250D03*
X211000Y342000D03*
X208500Y325000D03*
X202000Y328500D03*
X198500Y341950D03*
X218550Y324500D03*
X203250Y324500D03*
X214750Y339000D03*
X201000Y337500D03*
X202500Y342000D03*
X210500Y331500D03*
X201500Y332500D03*
X209000Y358670D03*
X204000Y358500D03*
X207000Y352000D03*
X209000Y364580D03*
X204000Y365500D03*
X214460Y383960D03*
X200000Y397000D03*
X206000Y460000D03*
X231980Y29500D03*
X228970Y18030D03*
X225488Y65750D03*
X221500Y65500D03*
X223500Y81000D03*
X237500Y79000D03*
X235000Y119500D03*
X222500Y126000D03*
X229500Y135000D03*
X222480Y147480D03*
X222500Y151500D03*
X225470Y155000D03*
X229549Y147387D03*
X236500Y157050D03*
X236500Y168050D03*
X221500Y162500D03*
X238500Y177500D03*
X224000Y197500D03*
X227500Y194500D03*
X220500Y181500D03*
X220000Y189000D03*
X224000Y201500D03*
X224000Y205500D03*
X226200Y211058D03*
X221850Y228500D03*
X221450Y232500D03*
X221000Y222000D03*
X226227Y235456D03*
X219000Y239500D03*
X226000Y279500D03*
X229000Y271050D03*
X234000Y271500D03*
X221500Y264500D03*
X222700Y296250D03*
X231500Y295889D03*
X224450Y283500D03*
X227000Y296000D03*
X237000Y304500D03*
X232500Y304430D03*
X227000Y306000D03*
X227500Y301500D03*
X223000Y311250D03*
X238500Y332500D03*
X228000Y324500D03*
X232500Y332500D03*
X223000Y338000D03*
X229000Y380500D03*
X220000Y365500D03*
X238500Y363500D03*
X225000Y392500D03*
X231500Y403000D03*
X235500Y403000D03*
X249650Y29575D03*
X251772Y25750D03*
X242600Y37750D03*
X253500Y71000D03*
X255500Y66500D03*
X249500Y68500D03*
X250500Y90000D03*
X252500Y95238D03*
X257000Y135480D03*
X247000Y134000D03*
X258500Y146500D03*
X258490Y142490D03*
X246500Y142500D03*
X250500Y149000D03*
X246500Y149000D03*
X240500Y168050D03*
X253440Y178440D03*
X255300Y251050D03*
X250600Y251050D03*
X254000Y294000D03*
X246000Y283000D03*
X249500Y308000D03*
X241000Y305000D03*
X254500Y316000D03*
X253500Y304000D03*
X255000Y335000D03*
X249000Y334000D03*
X242750Y325500D03*
X246000Y347050D03*
X241830Y358500D03*
X242000Y348010D03*
X247500Y355500D03*
X253000Y382500D03*
X258500Y364500D03*
X239500Y403000D03*
X243500Y402500D03*
X248000Y402000D03*
X256000Y400500D03*
X250500Y389200D03*
X275400Y29250D03*
X261600Y29500D03*
X270970Y39250D03*
X275000Y34000D03*
X261000Y70500D03*
X272500Y135000D03*
X269000Y132000D03*
X279500Y119000D03*
X266500Y126500D03*
X267752Y136515D03*
X272400Y139000D03*
X274500Y143500D03*
X274000Y147500D03*
X266500Y170000D03*
X262500Y168500D03*
X279500Y169500D03*
X266782Y163218D03*
X270500Y166500D03*
X276000Y177500D03*
X262000Y264000D03*
X278000Y277050D03*
X274000Y277050D03*
X274000Y265500D03*
X278000Y265500D03*
X271000Y292000D03*
X263484Y299016D03*
X275500Y299000D03*
X271000Y297000D03*
X280000Y281000D03*
X261516Y320484D03*
X270276Y310276D03*
X276000Y316000D03*
X275500Y304500D03*
X271000Y324500D03*
X267000Y324500D03*
X278000Y332500D03*
X269780Y334720D03*
X272500Y353500D03*
X269500Y359500D03*
X264661Y354161D03*
X260500Y354500D03*
X264000Y370500D03*
X270500Y363500D03*
X274500Y363500D03*
X276000Y460000D03*
X286500Y12000D03*
X293700Y18751D03*
X301000Y33000D03*
X287000Y18500D03*
X297000Y39500D03*
X291500Y89000D03*
X294000Y79000D03*
X287500Y89000D03*
X291900Y107500D03*
X297700Y117500D03*
X288400Y135480D03*
X288000Y119000D03*
X295500Y138625D03*
X288500Y144500D03*
X292000Y143000D03*
X296500Y167500D03*
X297500Y160000D03*
X300500Y215500D03*
X285500Y250500D03*
X295500Y258000D03*
X295000Y277000D03*
X282000Y265500D03*
X300500Y276500D03*
X282000Y277050D03*
X290000Y265500D03*
X293000Y300000D03*
X295000Y295000D03*
X297000Y285500D03*
X293500Y289000D03*
X297224Y315724D03*
X296500Y304500D03*
X283500Y339000D03*
X288580Y380080D03*
X281080Y380080D03*
X292500Y391000D03*
X281000Y406500D03*
X292500Y406500D03*
X316841Y12125D03*
X309000Y18500D03*
X320500Y16000D03*
X311000Y28200D03*
X305470Y41000D03*
X303000Y77500D03*
X309500Y90000D03*
X303000Y93000D03*
X308000Y126000D03*
X314250Y118250D03*
X314250Y149500D03*
X308750Y154500D03*
X302750Y162000D03*
X310500Y171000D03*
X316000Y187000D03*
X301960Y193440D03*
X313500Y209300D03*
X311000Y216600D03*
X305080Y228430D03*
X317200Y220200D03*
X313000Y233500D03*
X313000Y227500D03*
X308500Y260000D03*
X316500Y256500D03*
X305000Y240873D03*
X310000Y241000D03*
X313000Y275000D03*
X308000Y278500D03*
X316500Y273500D03*
X309250Y272500D03*
X312000Y300030D03*
X302047Y300047D03*
X307953Y300047D03*
X309500Y296000D03*
X316000Y283500D03*
X308000Y288500D03*
X302250Y281500D03*
X313000Y310500D03*
X309921Y320421D03*
X316000Y337500D03*
X302286Y331385D03*
X310500Y335000D03*
X314500Y329000D03*
X312000Y350000D03*
X311500Y362000D03*
X318500Y362000D03*
X318000Y350000D03*
X321000Y353000D03*
X316762Y472000D03*
X338700Y30749D03*
X340500Y13000D03*
X325500Y16000D03*
X330901Y45000D03*
X325500Y38050D03*
X324500Y76000D03*
X328500Y114500D03*
X325000Y113000D03*
X327025Y125000D03*
X334238Y132238D03*
X330500Y128000D03*
X342500Y117500D03*
X323259Y126750D03*
X326250Y148000D03*
X330500Y148000D03*
X333000Y157500D03*
X326250Y164750D03*
X342000Y164750D03*
X322500Y187000D03*
X331000Y189500D03*
X335500Y185800D03*
X342500Y204900D03*
X338500Y214500D03*
X334757Y229058D03*
X341900Y232100D03*
X338500Y219000D03*
X336250Y252733D03*
X325000Y240000D03*
X334250Y277080D03*
X331500Y295500D03*
X337000Y295500D03*
X337000Y284000D03*
X325500Y284000D03*
X331500Y284000D03*
X329500Y308000D03*
X333500Y308000D03*
X342000Y303500D03*
X338500Y321500D03*
X328850Y326000D03*
X335000Y350000D03*
X331500Y359000D03*
X340000Y350000D03*
X326000Y350000D03*
X340000Y362500D03*
X331500Y353000D03*
X325000Y367000D03*
X333000Y367000D03*
X340500Y367500D03*
X323780Y397720D03*
X323540Y390040D03*
X323500Y402000D03*
X325000Y385500D03*
X327000Y422000D03*
X329500Y425000D03*
X332000Y422000D03*
X360340Y44250D03*
X345000Y67500D03*
X355000Y63500D03*
X348500Y71000D03*
X360840Y84401D03*
X350000Y91500D03*
X354750Y102499D03*
X343000Y109000D03*
X352000Y109000D03*
X346500Y105000D03*
X358122Y104621D03*
X349500Y95500D03*
X350750Y129500D03*
X361000Y136750D03*
X346500Y146250D03*
X351000Y160000D03*
X359900Y223900D03*
X347000Y249500D03*
X347000Y254000D03*
X347000Y245000D03*
X362000Y258000D03*
X358200Y255000D03*
X342761Y254483D03*
X355300Y279000D03*
X347000Y274500D03*
X343000Y277250D03*
X343000Y269900D03*
X358901Y265100D03*
X353951Y283350D03*
X348750Y296000D03*
X343250Y292750D03*
X343250Y284500D03*
X343000Y321500D03*
X360000Y340000D03*
X360000Y333000D03*
X360500Y327500D03*
X350500Y322500D03*
X347000Y347500D03*
X354000Y347500D03*
X360000Y347500D03*
X353500Y365000D03*
X359000Y365000D03*
X348000Y367500D03*
X352500Y387000D03*
X374340Y40750D03*
X368750Y88991D03*
X371250Y112750D03*
X371250Y124749D03*
X372000Y180500D03*
X369800Y222600D03*
X373600Y237050D03*
X379950Y234550D03*
X376618Y231129D03*
X364500Y225750D03*
X366000Y251950D03*
X368500Y257500D03*
X370100Y245500D03*
X370000Y251500D03*
X365900Y247414D03*
X379839Y281839D03*
X382600Y287700D03*
X376500Y309433D03*
X373500Y306501D03*
X367500Y340000D03*
X367500Y333000D03*
X367500Y327500D03*
X365000Y357500D03*
X367500Y347500D03*
X380000Y350500D03*
X375000Y350500D03*
X365000Y365000D03*
X395300Y72410D03*
X390850Y90741D03*
X388601Y163891D03*
X387750Y218100D03*
X387750Y225850D03*
X395500Y222000D03*
X388500Y246000D03*
X385851Y264250D03*
X391500Y267500D03*
X386000Y284000D03*
X388000Y295000D03*
X395952Y329500D03*
X386000Y350500D03*
X391000Y350500D03*
X390000Y430000D03*
X418000Y104650D03*
X413500Y318800D03*
X412500Y422500D03*
X417500Y418500D03*
X408500Y422500D03*
X417000Y428500D03*
X417500Y438500D03*
X428000Y403700D03*
X425500Y414500D03*
X427500Y443000D03*
G54D31*
X22500Y47500D03*
X40000Y359500D03*
X113500Y217000D03*
X113500Y226000D03*
X212500Y396500D03*
X250000Y164000D03*
X319500Y82500D03*
X322500Y169000D03*
X318500Y249500D03*
X318000Y477500D03*
X329500Y82500D03*
X327000Y224000D03*
X360500Y249500D03*
X366000Y298000D03*
X366000Y308000D03*
X386000Y471500D03*
X412500Y47000D03*
G54D38*
X147500Y138000D03*
X147500Y165000D03*
X147500Y193000D03*
X262500Y310000D03*
X268500Y344000D03*
X284000Y310000D03*
X314000Y103500D03*
X305000Y310000D03*
X376000Y272500D03*
G54D37*
X136000Y234079D03*
X136000Y238016D03*
X136063Y247858D03*
X136063Y243921D03*
X132563Y247937D03*
X154400Y235100D03*
X146563Y227437D03*
X150063Y238937D03*
X154400Y238900D03*
X145563Y238937D03*
X140740Y232240D03*
X151500Y232100D03*
X142579Y227437D03*
X147300Y232200D03*
X147563Y241437D03*
X154563Y250937D03*
X147563Y245937D03*
X140563Y250937D03*
X146563Y250937D03*
X150563Y250937D03*
X163063Y233937D03*
X159563Y233937D03*
X163063Y247937D03*
X159563Y241937D03*
X159563Y247937D03*
X235080Y190380D03*
X231930Y193530D03*
X238230Y187230D03*
X235080Y193530D03*
X235080Y218720D03*
X231930Y209280D03*
X235080Y206130D03*
X231930Y206130D03*
X235080Y209280D03*
X235080Y212430D03*
X231930Y212430D03*
X235080Y202980D03*
X231930Y202980D03*
X235080Y237620D03*
X235080Y225020D03*
X231930Y225020D03*
X231930Y228170D03*
X235080Y234470D03*
X231930Y231320D03*
X235080Y231320D03*
X235080Y228170D03*
X231930Y234470D03*
X238230Y240770D03*
X259480Y93280D03*
X259480Y90130D03*
X256330Y83830D03*
X259480Y86980D03*
X259480Y109020D03*
X259500Y115000D03*
X256330Y109020D03*
X259480Y105870D03*
X256330Y102720D03*
X256330Y112170D03*
X256330Y105870D03*
X247680Y196680D03*
X250830Y196680D03*
X253980Y196680D03*
X253980Y190380D03*
X257130Y193530D03*
X241380Y190380D03*
X244530Y190380D03*
X257130Y190380D03*
X250830Y184080D03*
X247680Y190380D03*
X253980Y184080D03*
X250830Y190380D03*
X257130Y196680D03*
X257130Y180930D03*
X257130Y184080D03*
X241380Y180930D03*
X244530Y196680D03*
X244530Y193530D03*
X241380Y193530D03*
X241380Y196680D03*
X247680Y184080D03*
X247680Y193530D03*
X250830Y193530D03*
X253980Y193530D03*
X257130Y212430D03*
X250830Y209280D03*
X250830Y212430D03*
X253980Y199830D03*
X257130Y199830D03*
X250830Y199830D03*
X250830Y218720D03*
X250830Y202980D03*
X241380Y212430D03*
X241380Y218720D03*
X241380Y209280D03*
X241380Y202980D03*
X241380Y199830D03*
X241380Y206130D03*
X250830Y206130D03*
X247680Y218720D03*
X247680Y212430D03*
X247680Y199830D03*
X247680Y202980D03*
X247680Y206130D03*
X247680Y209280D03*
X244530Y206130D03*
X244530Y202980D03*
X244530Y209280D03*
X244530Y199830D03*
X244530Y212430D03*
X244530Y218720D03*
X253980Y228170D03*
X257130Y228170D03*
X250830Y221870D03*
X250830Y225020D03*
X250830Y228170D03*
X253980Y234470D03*
X257130Y237620D03*
X244530Y237620D03*
X247680Y234470D03*
X257130Y234470D03*
X253980Y237620D03*
X247680Y237620D03*
X257130Y231320D03*
X253980Y231320D03*
X250830Y231320D03*
X247680Y231320D03*
X247680Y228170D03*
X250830Y237620D03*
X250830Y234470D03*
X244530Y234470D03*
X241380Y228170D03*
X241380Y225020D03*
X244530Y231320D03*
X241380Y234470D03*
X241380Y237620D03*
X244530Y228170D03*
X241380Y231320D03*
X241380Y221870D03*
X247680Y225020D03*
X247680Y221870D03*
X244530Y225020D03*
X244530Y221870D03*
X247680Y247070D03*
X247680Y243920D03*
X241363Y243937D03*
X241363Y240787D03*
X244530Y243920D03*
X262630Y90130D03*
X262630Y83830D03*
X275000Y90000D03*
X262630Y109020D03*
X278370Y112170D03*
X278370Y105870D03*
X262630Y105870D03*
X262630Y96430D03*
X275000Y96500D03*
X278370Y109020D03*
X266000Y99500D03*
X278370Y102720D03*
X279170Y190380D03*
X263430Y190380D03*
X263430Y196680D03*
X269720Y196680D03*
X272870Y196680D03*
X269720Y190380D03*
X272870Y190380D03*
X276020Y196680D03*
X279170Y196680D03*
X279170Y180930D03*
X260280Y193530D03*
X279170Y184080D03*
X260280Y180930D03*
X276020Y190380D03*
X260280Y190380D03*
X272870Y180930D03*
X276020Y184080D03*
X276020Y180930D03*
X260280Y184080D03*
X272870Y184080D03*
X263430Y184080D03*
X269720Y184080D03*
X260280Y196680D03*
X263430Y193530D03*
X269720Y193530D03*
X272870Y193530D03*
X276020Y193530D03*
X279170Y193530D03*
X263430Y199830D03*
X263430Y206130D03*
X269720Y199830D03*
X272870Y212430D03*
X279170Y212430D03*
X260280Y199830D03*
X272870Y199830D03*
X276020Y199830D03*
X279170Y199830D03*
X279170Y202980D03*
X279170Y206130D03*
X279170Y209280D03*
X279170Y218720D03*
X279170Y237620D03*
X279170Y234470D03*
X279170Y231320D03*
X263430Y221870D03*
X263430Y228170D03*
X269720Y228170D03*
X272870Y228170D03*
X276020Y228170D03*
X279170Y221870D03*
X279170Y225020D03*
X279170Y228170D03*
X263430Y237620D03*
X269720Y237620D03*
X272870Y237620D03*
X263430Y231320D03*
X269720Y231320D03*
X276020Y237620D03*
X272870Y231320D03*
X276020Y231320D03*
X260280Y231320D03*
X260280Y234470D03*
X260280Y237620D03*
X260280Y228170D03*
X263430Y234470D03*
X269720Y234470D03*
X272870Y234470D03*
X276020Y234470D03*
X276020Y243920D03*
X269720Y243920D03*
X269720Y247070D03*
X263430Y247070D03*
X260280Y243920D03*
X263430Y243920D03*
X276020Y247070D03*
X279170Y247070D03*
X279170Y243920D03*
X272870Y247070D03*
X272870Y243920D03*
X284670Y86980D03*
X284670Y93280D03*
X281520Y96430D03*
X281520Y102720D03*
X281520Y112170D03*
X281520Y105870D03*
X284670Y105870D03*
X281520Y109020D03*
X284670Y109020D03*
X288620Y196680D03*
X288620Y193530D03*
X285470Y193530D03*
X294920Y190380D03*
X288620Y190380D03*
X285470Y190380D03*
X285470Y184080D03*
X298070Y193530D03*
X282320Y184080D03*
X282320Y196680D03*
X282320Y193530D03*
X282320Y190380D03*
X294920Y196680D03*
X291770Y187230D03*
X298070Y196680D03*
X288620Y180930D03*
X298070Y190380D03*
X288620Y184080D03*
X285470Y180930D03*
X294920Y193530D03*
X285470Y196680D03*
X294920Y218720D03*
X285470Y218720D03*
X288620Y218720D03*
X285470Y212430D03*
X288620Y212430D03*
X285470Y209280D03*
X288620Y209280D03*
X288620Y206130D03*
X288620Y202980D03*
X288620Y199830D03*
X282320Y212430D03*
X298070Y199830D03*
X282320Y199830D03*
X282320Y202980D03*
X282320Y206130D03*
X294920Y206130D03*
X298070Y206130D03*
X294920Y199830D03*
X294920Y202980D03*
X282320Y218720D03*
X282320Y209280D03*
X298070Y202980D03*
X298070Y212430D03*
X285470Y199830D03*
X285470Y202980D03*
X285470Y206130D03*
X288620Y221870D03*
X282320Y231320D03*
X282320Y228170D03*
X285470Y228170D03*
X285470Y225020D03*
X294920Y221870D03*
X298070Y221870D03*
X282320Y221870D03*
X282320Y225020D03*
X285470Y221870D03*
X294920Y225020D03*
X288620Y225020D03*
X288620Y228170D03*
X288620Y234470D03*
X285470Y237620D03*
X288620Y231320D03*
X285470Y231320D03*
X282320Y237620D03*
X282320Y234470D03*
X294920Y237620D03*
X285470Y234470D03*
X288620Y237620D03*
X298070Y237620D03*
X298000Y228170D03*
X291770Y240770D03*
X282320Y247070D03*
X285470Y247070D03*
X282320Y243920D03*
X285470Y243920D03*
X288620Y247070D03*
X288620Y243920D03*
G54D35*
X131500Y16000D03*
X159060Y16000D03*
X145280Y16000D03*
X358000Y16000D03*
X385560Y16000D03*
X371780Y16000D03*
G54D44*
X207700Y437000D03*
X269200Y437000D03*
G54D34*
X108030Y431970D03*
X149500Y389000D03*
X175000Y367500D03*
X185000Y38000D03*
X200000Y38000D03*
X320500Y38000D03*
X335500Y38000D03*
G54D42*
X171000Y420880D03*
X294500Y426750D03*
X294500Y418880D03*
X294500Y442500D03*
X294500Y434630D03*
G54D36*
X125860Y84500D03*
X205140Y84500D03*
G54D45*
X299000Y397400D03*
X317000Y397400D03*
X308000Y387000D03*
X340000Y336000D03*
X350400Y345000D03*
G54D43*
X221000Y414000D03*
X213600Y462300D03*
X226000Y424000D03*
X241000Y414000D03*
X236000Y424000D03*
X231000Y414000D03*
X223600Y468300D03*
X256000Y424000D03*
X251000Y414000D03*
X246000Y424000D03*
X253400Y462300D03*
X263400Y468300D03*
G54D40*
X159660Y419810D03*
X159660Y447370D03*
X182340Y419810D03*
X182340Y447370D03*
X283160Y417810D03*
X283160Y445370D03*
X305840Y417810D03*
X305840Y445370D03*
G54D27*
X126161Y471539D03*
G54D26*
X108839Y471539D03*
G54D24*
X34500Y370330D03*
G54D41*
X147230Y450900D03*
X194630Y450900D03*
G54D29*
X302008Y175811D03*
G54D30*
X20000Y20000D03*
X20000Y340000D03*
X20000Y472100D03*
X413100Y20000D03*
X413100Y340000D03*
X413100Y472100D03*
G54D25*
X81000Y90500D03*
X81500Y200000D03*
G54D28*
X216000Y449000D03*
X261000Y449000D03*
%LPD*%
G75*
G54D10*
X3500Y378500D03*
X3500Y416000D03*
X25000Y378000D03*
X32000Y397000D03*
X26000Y401000D03*
X20500Y424000D03*
X30200Y441450D03*
X49500Y381500D03*
X49000Y393000D03*
X40500Y404170D03*
X41500Y409500D03*
X33950Y421000D03*
X53300Y424300D03*
X70290Y10210D03*
X74000Y15000D03*
X74000Y20000D03*
X70290Y24210D03*
X62000Y158000D03*
X62500Y257500D03*
X67000Y309000D03*
X94200Y403000D03*
X77496Y466600D03*
X100500Y158000D03*
X101000Y257500D03*
X113000Y295000D03*
X95500Y323000D03*
X95500Y333000D03*
X107500Y355000D03*
X95500Y343000D03*
X95500Y353000D03*
X95500Y363000D03*
X99500Y344500D03*
X95500Y373000D03*
X110000Y392550D03*
X95500Y393000D03*
X106000Y418490D03*
X113000Y436500D03*
X102800Y441000D03*
X125000Y93500D03*
X136000Y144500D03*
X136000Y171500D03*
X118000Y175500D03*
X136000Y199500D03*
X116920Y246500D03*
X119000Y280500D03*
X129500Y280500D03*
X129500Y284500D03*
X124000Y317000D03*
X129500Y310500D03*
X123000Y341500D03*
X121000Y326000D03*
X116510Y353510D03*
X121936Y359714D03*
X134500Y424000D03*
X117400Y417900D03*
X122500Y427000D03*
X138900Y77100D03*
X148500Y278000D03*
X140450Y291550D03*
X156500Y299500D03*
X139500Y311590D03*
X152500Y311000D03*
X140480Y303250D03*
X155000Y348500D03*
X136500Y420000D03*
X140316Y416500D03*
X147000Y434000D03*
X143500Y475500D03*
X165500Y96500D03*
X158480Y277980D03*
X168000Y311500D03*
X159000Y373500D03*
X162000Y374500D03*
X164000Y401000D03*
X171270Y389230D03*
X195000Y3950D03*
X185000Y3950D03*
X193500Y16000D03*
X195000Y38500D03*
X180280Y76500D03*
X180280Y113500D03*
X190500Y96500D03*
X184000Y201000D03*
X185687Y282790D03*
X185200Y306300D03*
X187500Y327500D03*
X194000Y427000D03*
X190000Y427000D03*
X210500Y160000D03*
X205900Y205800D03*
X203000Y201500D03*
X211500Y268000D03*
X208710Y296420D03*
X216500Y296000D03*
X208710Y311500D03*
X203000Y353500D03*
X200500Y420500D03*
X225000Y11000D03*
X236000Y30500D03*
X220000Y192500D03*
X228300Y228500D03*
X238350Y260000D03*
X234000Y257500D03*
X238350Y264000D03*
X229500Y283500D03*
X230360Y311500D03*
X238500Y358500D03*
X219827Y360590D03*
X225000Y380500D03*
X233000Y380500D03*
X236500Y380500D03*
X227500Y403500D03*
X246550Y29000D03*
X253500Y118500D03*
X254450Y172000D03*
X242160Y296420D03*
X246100Y296420D03*
X259500Y307500D03*
X259500Y312000D03*
X259000Y345000D03*
X240000Y380500D03*
X250500Y392500D03*
X247000Y384000D03*
X275000Y18000D03*
X266550Y158000D03*
X267000Y271500D03*
X266000Y312000D03*
X266000Y307500D03*
X278000Y339000D03*
X279000Y348500D03*
X279000Y355500D03*
X275000Y383500D03*
X264000Y367000D03*
X269100Y383000D03*
X262500Y395000D03*
X276500Y391000D03*
X276500Y419000D03*
X274000Y453500D03*
X297000Y26500D03*
X287000Y22500D03*
X291900Y93000D03*
X291900Y104000D03*
X294300Y117500D03*
X288990Y250480D03*
X281000Y312000D03*
X281000Y307500D03*
X287500Y307500D03*
X287500Y312000D03*
X288500Y338000D03*
X299500Y332500D03*
X284830Y380000D03*
X292500Y398500D03*
X320500Y3950D03*
X303000Y28500D03*
X318500Y160000D03*
X301950Y190060D03*
X307000Y184000D03*
X316500Y209000D03*
X308700Y228490D03*
X321300Y221600D03*
X320500Y240550D03*
X321000Y276500D03*
X319000Y267500D03*
X320500Y301000D03*
X302000Y312000D03*
X302000Y307500D03*
X308000Y307500D03*
X308000Y312000D03*
X311000Y425000D03*
X330500Y3950D03*
X329000Y16000D03*
X330500Y38050D03*
X335500Y205000D03*
X322320Y208680D03*
X333000Y223000D03*
X340500Y381500D03*
X326300Y445300D03*
X343500Y172000D03*
X345000Y191500D03*
X345000Y197000D03*
X343500Y178000D03*
X343000Y211000D03*
X343000Y218000D03*
X347000Y227200D03*
X362000Y261500D03*
X350500Y281500D03*
X348500Y292000D03*
X346000Y307500D03*
X360500Y375000D03*
X363000Y393500D03*
X370074Y217269D03*
X366500Y261500D03*
X382500Y265000D03*
X377500Y291500D03*
X372000Y421400D03*
X366000Y429500D03*
X388500Y104500D03*
X388500Y111500D03*
X388500Y97500D03*
X389000Y134000D03*
X388500Y118500D03*
X389000Y141000D03*
X389000Y148000D03*
X389000Y155000D03*
X388500Y175000D03*
X388500Y196000D03*
X388500Y182000D03*
X388500Y189000D03*
X389000Y257500D03*
X384000Y251500D03*
X404700Y422500D03*
X426500Y423000D03*
X427500Y434000D03*
G54D20*
G01X22500Y43798D02*
X22500Y47500D01*
G01X22500Y47500D02*
X22500Y51202D01*
G01X18798Y47500D02*
X22500Y47500D01*
G01X22500Y47500D02*
X26202Y47500D01*
G01X30298Y61030D02*
X33500Y61030D01*
G01X25630Y89328D02*
X25630Y92530D01*
G01X25630Y92530D02*
X25630Y95732D01*
G01X22428Y92530D02*
X25630Y92530D01*
G01X25630Y92530D02*
X28832Y92530D01*
G01X30298Y92530D02*
X33500Y92530D01*
G01X25630Y160188D02*
X25630Y163390D01*
G01X25630Y163390D02*
X25630Y166592D01*
G01X22428Y163390D02*
X25630Y163390D01*
G01X25630Y163390D02*
X28832Y163390D01*
G01X30298Y163390D02*
X33500Y163390D01*
G01X25630Y199558D02*
X25630Y202760D01*
G01X25630Y202760D02*
X25630Y205962D01*
G01X22428Y202760D02*
X25630Y202760D01*
G01X25630Y202760D02*
X28832Y202760D01*
G01X30298Y202760D02*
X33500Y202760D01*
G01X30298Y313000D02*
X33500Y313000D01*
G01X33500Y57828D02*
X33500Y61030D01*
G01X33500Y61030D02*
X33500Y64232D01*
G01X33500Y61030D02*
X36702Y61030D01*
G01X33500Y89328D02*
X33500Y92530D01*
G01X33500Y92530D02*
X33500Y95732D01*
G01X33500Y92530D02*
X36702Y92530D01*
G01X33500Y160188D02*
X33500Y163390D01*
G01X33500Y163390D02*
X33500Y166592D01*
G01X33500Y163390D02*
X36702Y163390D01*
G01X33500Y199558D02*
X33500Y202760D01*
G01X33500Y202760D02*
X33500Y205962D01*
G01X33500Y202760D02*
X36702Y202760D01*
G01X33500Y309798D02*
X33500Y313000D01*
G01X33500Y313000D02*
X33500Y316202D01*
G01X33500Y313000D02*
X36702Y313000D01*
G01X40000Y355798D02*
X40000Y359500D01*
G01X40000Y359500D02*
X40000Y363202D01*
G01X36298Y359500D02*
X40000Y359500D01*
G01X40000Y359500D02*
X43702Y359500D01*
G01X63000Y54798D02*
X63000Y58000D01*
G01X63000Y58000D02*
X63000Y61202D01*
G01X59798Y58000D02*
X63000Y58000D01*
G01X63000Y58000D02*
X66202Y58000D01*
G01X70870Y54798D02*
X70870Y58000D01*
G01X70870Y58000D02*
X70870Y61202D01*
G01X67668Y58000D02*
X70870Y58000D01*
G01X70870Y58000D02*
X74072Y58000D01*
G01X81000Y112298D02*
X81000Y115500D01*
G01X81000Y122298D02*
X81000Y125500D01*
G01X81000Y125500D02*
X81000Y128702D01*
G01X77798Y125500D02*
X81000Y125500D01*
G01X81000Y125500D02*
X84202Y125500D01*
G01X81000Y132298D02*
X81000Y135500D01*
G01X81000Y135500D02*
X81000Y138702D01*
G01X77798Y135500D02*
X81000Y135500D01*
G01X81000Y135500D02*
X84202Y135500D01*
G01X81000Y115500D02*
X81000Y118702D01*
G01X77798Y115500D02*
X81000Y115500D01*
G01X81000Y115500D02*
X84202Y115500D01*
G01X81000Y142298D02*
X81000Y145500D01*
G01X81000Y145500D02*
X81000Y148702D01*
G01X77798Y145500D02*
X81000Y145500D01*
G01X81000Y145500D02*
X84202Y145500D01*
G01X81000Y152298D02*
X81000Y155500D01*
G01X81000Y155500D02*
X81000Y158702D01*
G01X77798Y155500D02*
X81000Y155500D01*
G01X81000Y155500D02*
X84202Y155500D01*
G01X81500Y221798D02*
X81500Y225000D01*
G01X81500Y225000D02*
X81500Y228202D01*
G01X78298Y225000D02*
X81500Y225000D01*
G01X81500Y225000D02*
X84702Y225000D01*
G01X81500Y231798D02*
X81500Y235000D01*
G01X81500Y235000D02*
X81500Y238202D01*
G01X78298Y235000D02*
X81500Y235000D01*
G01X81500Y235000D02*
X84702Y235000D01*
G01X81500Y241798D02*
X81500Y245000D01*
G01X81500Y245000D02*
X81500Y248202D01*
G01X78298Y245000D02*
X81500Y245000D01*
G01X81500Y245000D02*
X84702Y245000D01*
G01X81500Y251798D02*
X81500Y255000D01*
G01X81500Y255000D02*
X81500Y258202D01*
G01X78298Y255000D02*
X81500Y255000D01*
G01X81500Y255000D02*
X84702Y255000D01*
G01X81500Y261798D02*
X81500Y265000D01*
G01X81500Y265000D02*
X81500Y268202D01*
G01X78298Y265000D02*
X81500Y265000D01*
G01X81500Y265000D02*
X84702Y265000D01*
G01X145280Y11798D02*
X145280Y16000D01*
G01X145280Y16000D02*
X145280Y20202D01*
G01X141078Y16000D02*
X145280Y16000D01*
G01X145280Y16000D02*
X149482Y16000D01*
G01X147500Y136048D02*
X147500Y138000D01*
G01X147500Y138000D02*
X147500Y139952D01*
G01X145548Y138000D02*
X147500Y138000D01*
G01X147500Y138000D02*
X149452Y138000D01*
G01X147500Y163048D02*
X147500Y165000D01*
G01X147500Y165000D02*
X147500Y166952D01*
G01X145548Y165000D02*
X147500Y165000D01*
G01X147500Y165000D02*
X149452Y165000D01*
G01X147500Y191048D02*
X147500Y193000D01*
G01X147500Y193000D02*
X147500Y194952D01*
G01X145548Y193000D02*
X147500Y193000D01*
G01X147500Y193000D02*
X149452Y193000D01*
G01X149500Y386998D02*
X149500Y389000D01*
G01X149500Y389000D02*
X149500Y391002D01*
G01X147498Y389000D02*
X149500Y389000D01*
G01X149500Y389000D02*
X151502Y389000D01*
G01X175000Y365498D02*
X175000Y367500D01*
G01X175000Y367500D02*
X175000Y369502D01*
G01X172998Y367500D02*
X175000Y367500D01*
G01X175000Y367500D02*
X177002Y367500D01*
G01X171000Y417478D02*
X171000Y420880D01*
G01X171000Y420880D02*
X171000Y424282D01*
G01X167598Y420880D02*
X171000Y420880D01*
G01X171000Y420880D02*
X174402Y420880D01*
G01X166000Y436968D02*
X166000Y440370D01*
G01X166000Y440370D02*
X166000Y443772D01*
G01X162598Y440370D02*
X166000Y440370D01*
G01X196860Y46928D02*
X196860Y50130D01*
G01X196860Y50130D02*
X196860Y53332D01*
G01X193658Y50130D02*
X196860Y50130D01*
G01X196860Y50130D02*
X200062Y50130D01*
G01X196860Y54798D02*
X196860Y58000D01*
G01X196860Y58000D02*
X196860Y61202D01*
G01X193658Y58000D02*
X196860Y58000D01*
G01X196860Y58000D02*
X200062Y58000D01*
G01X262500Y308048D02*
X262500Y310000D01*
G01X262500Y310000D02*
X262500Y311952D01*
G01X260548Y310000D02*
X262500Y310000D01*
G01X262500Y310000D02*
X264452Y310000D01*
G01X268500Y342048D02*
X268500Y344000D01*
G01X268500Y344000D02*
X268500Y345952D01*
G01X266548Y344000D02*
X268500Y344000D01*
G01X268500Y344000D02*
X270452Y344000D01*
G01X284000Y308048D02*
X284000Y310000D01*
G01X284000Y310000D02*
X284000Y311952D01*
G01X282048Y310000D02*
X284000Y310000D01*
G01X284000Y310000D02*
X285952Y310000D01*
G01X294500Y415478D02*
X294500Y418880D01*
G01X294500Y418880D02*
X294500Y422282D01*
G01X291098Y418880D02*
X294500Y418880D01*
G01X294500Y418880D02*
X297902Y418880D01*
G01X314000Y101548D02*
X314000Y103500D01*
G01X314000Y103500D02*
X314000Y105452D01*
G01X312048Y103500D02*
X314000Y103500D01*
G01X314000Y103500D02*
X315952Y103500D01*
G01X305000Y308048D02*
X305000Y310000D01*
G01X305000Y310000D02*
X305000Y311952D01*
G01X303048Y310000D02*
X305000Y310000D01*
G01X305000Y310000D02*
X306952Y310000D01*
G01X330720Y50130D02*
X330720Y53332D01*
G01X327518Y50130D02*
X330720Y50130D01*
G01X330720Y50130D02*
X333922Y50130D01*
G01X336500Y442988D02*
X336500Y450690D01*
G01X336500Y450690D02*
X336500Y458392D01*
G01X332798Y450690D02*
X336500Y450690D01*
G01X336500Y450690D02*
X340202Y450690D01*
G01X355000Y458798D02*
X355000Y462500D01*
G01X355000Y462500D02*
X355000Y466202D01*
G01X347298Y462500D02*
X355000Y462500D01*
G01X355000Y462500D02*
X362702Y462500D01*
G01X371780Y11798D02*
X371780Y16000D01*
G01X371780Y16000D02*
X371780Y20202D01*
G01X367578Y16000D02*
X371780Y16000D01*
G01X371780Y16000D02*
X375982Y16000D01*
G01X370090Y54798D02*
X370090Y58000D01*
G01X370090Y58000D02*
X370090Y61202D01*
G01X366888Y58000D02*
X370090Y58000D01*
G01X370090Y58000D02*
X373292Y58000D01*
G01X376000Y270548D02*
X376000Y272500D01*
G01X376000Y272500D02*
X376000Y274452D01*
G01X374048Y272500D02*
X376000Y272500D01*
G01X376000Y272500D02*
X377952Y272500D01*
G01X382298Y471500D02*
X386000Y471500D01*
G01X400630Y81448D02*
X400630Y84650D01*
G01X400630Y84650D02*
X400630Y87852D01*
G01X397428Y84650D02*
X400630Y84650D01*
G01X400630Y84650D02*
X403832Y84650D01*
G01X400630Y120818D02*
X400630Y124020D01*
G01X400630Y124020D02*
X400630Y127222D01*
G01X397428Y124020D02*
X400630Y124020D01*
G01X400630Y124020D02*
X403832Y124020D01*
G01X400630Y160188D02*
X400630Y163390D01*
G01X400630Y163390D02*
X400630Y166592D01*
G01X397428Y163390D02*
X400630Y163390D01*
G01X400630Y163390D02*
X403832Y163390D01*
G01X400630Y199558D02*
X400630Y202760D01*
G01X400630Y202760D02*
X400630Y205962D01*
G01X397428Y202760D02*
X400630Y202760D01*
G01X400630Y202760D02*
X403832Y202760D01*
G01X400630Y262558D02*
X400630Y265760D01*
G01X400630Y265760D02*
X400630Y268962D01*
G01X397428Y265760D02*
X400630Y265760D01*
G01X400630Y265760D02*
X403832Y265760D01*
G01X386000Y467798D02*
X386000Y471500D01*
G01X386000Y471500D02*
X386000Y475202D01*
G01X386000Y471500D02*
X389702Y471500D01*
G01X412500Y43298D02*
X412500Y47000D01*
G01X412500Y47000D02*
X412500Y50702D01*
G01X408798Y47000D02*
X412500Y47000D01*
G01X412500Y47000D02*
X416202Y47000D01*
G01X408500Y57828D02*
X408500Y61030D01*
G01X408500Y61030D02*
X408500Y64232D01*
G01X405298Y61030D02*
X408500Y61030D01*
G01X408500Y61030D02*
X411702Y61030D01*
G01X408500Y120818D02*
X408500Y124020D01*
G01X408500Y124020D02*
X408500Y127222D01*
G01X405298Y124020D02*
X408500Y124020D01*
G01X408500Y124020D02*
X411702Y124020D01*
G01X408500Y160188D02*
X408500Y163390D01*
G01X408500Y163390D02*
X408500Y166592D01*
G01X405298Y163390D02*
X408500Y163390D01*
G01X408500Y163390D02*
X411702Y163390D01*
G01X408500Y199558D02*
X408500Y202760D01*
G01X408500Y202760D02*
X408500Y205962D01*
G01X405298Y202760D02*
X408500Y202760D01*
G01X408500Y202760D02*
X411702Y202760D01*
G01X408500Y262558D02*
X408500Y265760D01*
G01X408500Y265760D02*
X408500Y268962D01*
G01X405298Y265760D02*
X408500Y265760D01*
G01X408500Y265760D02*
X411702Y265760D01*
G01X408500Y309798D02*
X408500Y313000D01*
G01X408500Y313000D02*
X408500Y316202D01*
G01X405298Y313000D02*
X408500Y313000D01*
G01X408500Y313000D02*
X411702Y313000D01*
G01X408500Y301928D02*
X408500Y305130D01*
G01X408500Y305130D02*
X408500Y308332D01*
G01X405298Y305130D02*
X408500Y305130D01*
G01X408500Y305130D02*
X411702Y305130D01*
G54D11*
X22500Y47500D03*
X40000Y359500D03*
X386000Y471500D03*
X412500Y47000D03*
G54D21*
G01X15150Y-132500D02*
X15150Y-145000D01*
G01X11585Y-132500D02*
X18715Y-132500D01*
G01X23520Y-145000D02*
X23520Y-132500D01*
X27550Y-142917D01*
X31580Y-132500D01*
X31580Y-145000D01*
G01X36695Y-143334D02*
X37935Y-144375D01*
X39330Y-145000D01*
X40570Y-145000D01*
X41810Y-144375D01*
X42740Y-143334D01*
X43205Y-141875D01*
X42895Y-140417D01*
X42120Y-139167D01*
X40725Y-138333D01*
X38865Y-137917D01*
X37780Y-137083D01*
X37315Y-135625D01*
X37625Y-134167D01*
X38400Y-133125D01*
X39485Y-132500D01*
X40570Y-132500D01*
X41655Y-132917D01*
X42585Y-133958D01*
G01X61340Y-143125D02*
X62270Y-144167D01*
X63355Y-144792D01*
X64750Y-145000D01*
X66145Y-144583D01*
X67230Y-143750D01*
X68005Y-142292D01*
X68160Y-140625D01*
X67850Y-138958D01*
X67075Y-137917D01*
X65990Y-137083D01*
X64905Y-136875D01*
X63820Y-137083D01*
X62425Y-137917D01*
X62890Y-132500D01*
X67075Y-132500D01*
G01X76840Y-145000D02*
X77150Y-142292D01*
X77615Y-140000D01*
X78235Y-137917D01*
X79010Y-135625D01*
X80250Y-132500D01*
X74050Y-132500D01*
G01X89550Y-132500D02*
X88310Y-132917D01*
X87380Y-133958D01*
X86760Y-135208D01*
X86295Y-136875D01*
X86140Y-138750D01*
X86295Y-140625D01*
X86760Y-142292D01*
X87380Y-143542D01*
X88310Y-144583D01*
X89550Y-145000D01*
X90790Y-144583D01*
X91720Y-143542D01*
X92340Y-142292D01*
X92805Y-140625D01*
X92960Y-138750D01*
X92805Y-136875D01*
X92340Y-135208D01*
X91720Y-133958D01*
X90790Y-132917D01*
X89550Y-132500D01*
G01X98850Y-132500D02*
X98850Y-145000D01*
X105050Y-145000D01*
G01X111095Y-143334D02*
X112335Y-144375D01*
X113730Y-145000D01*
X114970Y-145000D01*
X116210Y-144375D01*
X117140Y-143334D01*
X117605Y-141875D01*
X117295Y-140417D01*
X116520Y-139167D01*
X115125Y-138333D01*
X113265Y-137917D01*
X112180Y-137083D01*
X111715Y-135625D01*
X112025Y-134167D01*
X112800Y-133125D01*
X113885Y-132500D01*
X114970Y-132500D01*
X116055Y-132917D01*
X116985Y-133958D01*
G01X123340Y-142500D02*
X124270Y-143959D01*
X125510Y-144792D01*
X126905Y-145000D01*
X128145Y-144792D01*
X129385Y-143750D01*
X130160Y-142500D01*
X130315Y-141250D01*
X130005Y-139792D01*
X128920Y-138750D01*
X127835Y-138333D01*
X126440Y-138333D01*
G01X127835Y-138333D02*
X128765Y-137708D01*
X129540Y-136667D01*
X129850Y-135417D01*
X129540Y-134167D01*
X128765Y-133125D01*
X127370Y-132500D01*
X125975Y-132708D01*
X124580Y-133542D01*
G01X136825Y-136667D02*
X141475Y-145000D01*
G01X141475Y-136667D02*
X136825Y-145000D01*
G01X148760Y-145417D02*
X154340Y-132500D01*
G01X160850Y-145000D02*
X160850Y-132500D01*
X164725Y-132500D01*
X165965Y-133125D01*
X166740Y-133958D01*
X167050Y-135625D01*
X166740Y-137292D01*
X165810Y-138333D01*
X164725Y-138958D01*
X160850Y-138958D01*
G01X164725Y-138958D02*
X167050Y-145000D01*
G01X172320Y-145000D02*
X172320Y-132500D01*
X176350Y-142917D01*
X180380Y-132500D01*
X180380Y-145000D01*
G01X185340Y-143125D02*
X186270Y-144167D01*
X187355Y-144792D01*
X188750Y-145000D01*
X190145Y-144583D01*
X191230Y-143750D01*
X192005Y-142292D01*
X192160Y-140625D01*
X191850Y-138958D01*
X191075Y-137917D01*
X189990Y-137083D01*
X188905Y-136875D01*
X187820Y-137083D01*
X186425Y-137917D01*
X186890Y-132500D01*
X191075Y-132500D01*
G01X198825Y-136667D02*
X203475Y-145000D01*
G01X203475Y-136667D02*
X198825Y-145000D01*
G01X229360Y-133542D02*
X228430Y-132917D01*
X227345Y-132500D01*
X226105Y-132500D01*
X224710Y-133125D01*
X223625Y-134167D01*
X222850Y-135417D01*
X222230Y-137500D01*
X222075Y-139375D01*
X222385Y-141250D01*
X222850Y-142500D01*
X223780Y-143750D01*
X224865Y-144583D01*
X225950Y-145000D01*
X227035Y-145000D01*
X228120Y-144583D01*
X229050Y-143959D01*
X229825Y-143125D01*
G01X235250Y-145000D02*
X235250Y-132500D01*
X238970Y-132500D01*
X240210Y-133125D01*
X241140Y-134583D01*
X241450Y-136250D01*
X241140Y-137917D01*
X240365Y-139167D01*
X238970Y-139792D01*
X235250Y-139792D01*
G01X247340Y-132500D02*
X247340Y-141458D01*
X247960Y-143334D01*
X249200Y-144583D01*
X250750Y-145000D01*
X252300Y-144583D01*
X253540Y-143334D01*
X254160Y-141458D01*
X254160Y-132500D01*
G01X278960Y-133542D02*
X278030Y-132917D01*
X276945Y-132500D01*
X275705Y-132500D01*
X274310Y-133125D01*
X273225Y-134167D01*
X272450Y-135417D01*
X271830Y-137500D01*
X271675Y-139375D01*
X271985Y-141250D01*
X272450Y-142500D01*
X273380Y-143750D01*
X274465Y-144583D01*
X275550Y-145000D01*
X276635Y-145000D01*
X277720Y-144583D01*
X278650Y-143959D01*
X279425Y-143125D01*
G01X284075Y-145000D02*
X287950Y-132500D01*
X291825Y-145000D01*
G01X290430Y-140625D02*
X285470Y-140625D01*
G01X297250Y-145000D02*
X297250Y-132500D01*
X301125Y-132500D01*
X302365Y-133125D01*
X303140Y-133958D01*
X303450Y-135625D01*
X303140Y-137292D01*
X302210Y-138333D01*
X301125Y-138958D01*
X297250Y-138958D01*
G01X301125Y-138958D02*
X303450Y-145000D01*
G01X309340Y-145000D02*
X309340Y-132500D01*
X312440Y-132500D01*
X313680Y-133125D01*
X314610Y-133958D01*
X315385Y-135208D01*
X316005Y-136667D01*
X316160Y-138750D01*
X316005Y-140833D01*
X315385Y-142292D01*
X314610Y-143542D01*
X313680Y-144375D01*
X312440Y-145000D01*
X309340Y-145000D01*
G01X334450Y-145000D02*
X334450Y-132500D01*
X338325Y-132500D01*
X339565Y-133125D01*
X340340Y-133958D01*
X340650Y-135625D01*
X340340Y-137292D01*
X339410Y-138333D01*
X338325Y-138958D01*
X334450Y-138958D01*
G01X338325Y-138958D02*
X340650Y-145000D01*
G01X353050Y-145000D02*
X346850Y-145000D01*
X346850Y-132500D01*
X353050Y-132500D01*
G01X350570Y-138542D02*
X346850Y-138542D01*
G01X358475Y-132500D02*
X362350Y-145000D01*
X366225Y-132500D01*
G01X390250Y-145000D02*
X384050Y-145000D01*
X384050Y-132500D01*
X390250Y-132500D01*
G01X387770Y-138542D02*
X384050Y-138542D01*
G01X411950Y-132500D02*
X410710Y-132917D01*
X409780Y-133958D01*
X409160Y-135208D01*
X408695Y-136875D01*
X408540Y-138750D01*
X408695Y-140625D01*
X409160Y-142292D01*
X409780Y-143542D01*
X410710Y-144583D01*
X411950Y-145000D01*
X413190Y-144583D01*
X414120Y-143542D01*
X414740Y-142292D01*
X415205Y-140625D01*
X415360Y-138750D01*
X415205Y-136875D01*
X414740Y-135208D01*
X414120Y-133958D01*
X413190Y-132917D01*
X411950Y-132500D01*
G01X424350Y-145000D02*
X424350Y-132500D01*
X422490Y-135000D01*
G01X422490Y-145000D02*
X426210Y-145000D01*
G01X433960Y-145417D02*
X439540Y-132500D01*
G01X446205Y-134583D02*
X447135Y-133334D01*
X448220Y-132708D01*
X449460Y-132500D01*
X451010Y-132917D01*
X452095Y-133958D01*
X452405Y-135208D01*
X452250Y-136459D01*
X451630Y-137500D01*
X448530Y-139583D01*
X447135Y-141042D01*
X446205Y-143125D01*
X445895Y-145000D01*
X452405Y-145000D01*
G01X461550Y-132500D02*
X460310Y-132917D01*
X459380Y-133958D01*
X458760Y-135208D01*
X458295Y-136875D01*
X458140Y-138750D01*
X458295Y-140625D01*
X458760Y-142292D01*
X459380Y-143542D01*
X460310Y-144583D01*
X461550Y-145000D01*
X462790Y-144583D01*
X463720Y-143542D01*
X464340Y-142292D01*
X464805Y-140625D01*
X464960Y-138750D01*
X464805Y-136875D01*
X464340Y-135208D01*
X463720Y-133958D01*
X462790Y-132917D01*
X461550Y-132500D01*
G01X471160Y-145417D02*
X476740Y-132500D01*
G01X483405Y-134583D02*
X484335Y-133334D01*
X485420Y-132708D01*
X486660Y-132500D01*
X488210Y-132917D01*
X489295Y-133958D01*
X489605Y-135208D01*
X489450Y-136459D01*
X488830Y-137500D01*
X485730Y-139583D01*
X484335Y-141042D01*
X483405Y-143125D01*
X483095Y-145000D01*
X489605Y-145000D01*
G01X498750Y-132500D02*
X497510Y-132917D01*
X496580Y-133958D01*
X495960Y-135208D01*
X495495Y-136875D01*
X495340Y-138750D01*
X495495Y-140625D01*
X495960Y-142292D01*
X496580Y-143542D01*
X497510Y-144583D01*
X498750Y-145000D01*
X499990Y-144583D01*
X500920Y-143542D01*
X501540Y-142292D01*
X502005Y-140625D01*
X502160Y-138750D01*
X502005Y-136875D01*
X501540Y-135208D01*
X500920Y-133958D01*
X499990Y-132917D01*
X498750Y-132500D01*
G01X511150Y-145000D02*
X511150Y-132500D01*
X509290Y-135000D01*
G01X509290Y-145000D02*
X513010Y-145000D01*
G01X520605Y-134583D02*
X521535Y-133334D01*
X522620Y-132708D01*
X523860Y-132500D01*
X525410Y-132917D01*
X526495Y-133958D01*
X526805Y-135208D01*
X526650Y-136459D01*
X526030Y-137500D01*
X522930Y-139583D01*
X521535Y-141042D01*
X520605Y-143125D01*
X520295Y-145000D01*
X526805Y-145000D01*
G01X14650Y-111500D02*
X14650Y-124000D01*
G01X11085Y-111500D02*
X18215Y-111500D01*
G01X24725Y-118375D02*
X29685Y-118375D01*
X29220Y-116917D01*
X28445Y-116083D01*
X27360Y-115667D01*
X26275Y-115875D01*
X25345Y-116500D01*
X24725Y-117958D01*
X24415Y-119209D01*
X24415Y-120458D01*
X24725Y-121708D01*
X25500Y-122959D01*
X26430Y-123792D01*
X27515Y-124000D01*
X28600Y-123583D01*
X29685Y-122334D01*
G01X37125Y-115667D02*
X41775Y-124000D01*
G01X41775Y-115667D02*
X37125Y-124000D01*
G01X54640Y-124000D02*
X54640Y-115667D01*
G01X54640Y-117125D02*
X54020Y-116292D01*
X53090Y-115875D01*
X52005Y-115667D01*
X50920Y-116083D01*
X49990Y-116917D01*
X49370Y-118167D01*
X49060Y-119833D01*
X49370Y-121500D01*
X49990Y-122750D01*
X50920Y-123583D01*
X52005Y-124000D01*
X53090Y-123792D01*
X54020Y-123167D01*
X54640Y-122334D01*
G01X61925Y-122542D02*
X62700Y-123375D01*
X63785Y-124000D01*
X64715Y-124000D01*
X65645Y-123583D01*
X66265Y-122959D01*
X66575Y-122125D01*
X66420Y-120875D01*
X65800Y-120250D01*
X63010Y-119000D01*
X62390Y-117542D01*
X62700Y-116500D01*
X63320Y-115875D01*
X64250Y-115667D01*
X65180Y-115875D01*
X66110Y-116500D01*
G01X87190Y-111500D02*
X90910Y-111500D01*
G01X89050Y-111500D02*
X89050Y-124000D01*
G01X87190Y-124000D02*
X90910Y-124000D01*
G01X98815Y-124000D02*
X98815Y-115667D01*
G01X98815Y-117750D02*
X99435Y-116708D01*
X100365Y-115875D01*
X101605Y-115667D01*
X102690Y-115875D01*
X103620Y-116708D01*
X104085Y-118167D01*
X104085Y-124000D01*
G01X111525Y-122542D02*
X112300Y-123375D01*
X113385Y-124000D01*
X114315Y-124000D01*
X115245Y-123583D01*
X115865Y-122959D01*
X116175Y-122125D01*
X116020Y-120875D01*
X115400Y-120250D01*
X112610Y-119000D01*
X111990Y-117542D01*
X112300Y-116500D01*
X112920Y-115875D01*
X113850Y-115667D01*
X114780Y-115875D01*
X115710Y-116500D01*
G01X126250Y-111500D02*
X126250Y-124000D01*
G01X124080Y-115667D02*
X128420Y-115667D01*
G01X136480Y-124000D02*
X136480Y-115667D01*
G01X136480Y-117333D02*
X137255Y-116500D01*
X138030Y-115875D01*
X139115Y-115667D01*
X139890Y-115875D01*
X140820Y-116500D01*
G01X148415Y-115667D02*
X148415Y-121500D01*
X149035Y-122959D01*
X149965Y-123792D01*
X151050Y-124000D01*
X152135Y-123792D01*
X153065Y-122959D01*
X153685Y-121500D01*
G01X153685Y-124000D02*
X153685Y-115667D01*
G01X158800Y-124000D02*
X158800Y-115667D01*
G01X158800Y-117958D02*
X159265Y-116917D01*
X160040Y-116083D01*
X161125Y-115667D01*
X162210Y-116083D01*
X162985Y-116917D01*
X163450Y-117958D01*
X163450Y-124000D01*
G01X163450Y-117958D02*
X163915Y-116917D01*
X164690Y-116083D01*
X165775Y-115667D01*
X166860Y-116083D01*
X167635Y-116917D01*
X168100Y-118167D01*
X168100Y-124000D01*
G01X173525Y-118375D02*
X178485Y-118375D01*
X178020Y-116917D01*
X177245Y-116083D01*
X176160Y-115667D01*
X175075Y-115875D01*
X174145Y-116500D01*
X173525Y-117958D01*
X173215Y-119209D01*
X173215Y-120458D01*
X173525Y-121708D01*
X174300Y-122959D01*
X175230Y-123792D01*
X176315Y-124000D01*
X177400Y-123583D01*
X178485Y-122334D01*
G01X185615Y-124000D02*
X185615Y-115667D01*
G01X185615Y-117750D02*
X186235Y-116708D01*
X187165Y-115875D01*
X188405Y-115667D01*
X189490Y-115875D01*
X190420Y-116708D01*
X190885Y-118167D01*
X190885Y-124000D01*
G01X200650Y-111500D02*
X200650Y-124000D01*
G01X198480Y-115667D02*
X202820Y-115667D01*
G01X210725Y-122542D02*
X211500Y-123375D01*
X212585Y-124000D01*
X213515Y-124000D01*
X214445Y-123583D01*
X215065Y-122959D01*
X215375Y-122125D01*
X215220Y-120875D01*
X214600Y-120250D01*
X211810Y-119000D01*
X211190Y-117542D01*
X211500Y-116500D01*
X212120Y-115875D01*
X213050Y-115667D01*
X213980Y-115875D01*
X214910Y-116500D01*
G01X235990Y-111500D02*
X239710Y-111500D01*
G01X237850Y-111500D02*
X237850Y-124000D01*
G01X235990Y-124000D02*
X239710Y-124000D01*
G01X247615Y-124000D02*
X247615Y-115667D01*
G01X247615Y-117750D02*
X248235Y-116708D01*
X249165Y-115875D01*
X250405Y-115667D01*
X251490Y-115875D01*
X252420Y-116708D01*
X252885Y-118167D01*
X252885Y-124000D01*
G01X265130Y-116708D02*
X264045Y-115875D01*
X263115Y-115667D01*
X261875Y-116083D01*
X260945Y-116917D01*
X260325Y-118375D01*
X260170Y-119833D01*
X260325Y-121292D01*
X260945Y-122542D01*
X261875Y-123583D01*
X263115Y-124000D01*
X264200Y-123583D01*
X265130Y-122750D01*
G01X275050Y-124417D02*
X274740Y-124208D01*
X274740Y-123792D01*
X275050Y-123583D01*
X275360Y-123792D01*
X275360Y-124208D01*
X275050Y-124417D01*
G01X0Y0D02*
X0Y492120D01*
X433070Y492120D01*
X433070Y0D01*
X0Y0D01*
G01X13395Y-188334D02*
X14635Y-189375D01*
X16030Y-190000D01*
X17270Y-190000D01*
X18510Y-189375D01*
X19440Y-188334D01*
X19905Y-186875D01*
X19595Y-185417D01*
X18820Y-184167D01*
X17425Y-183333D01*
X15565Y-182917D01*
X14480Y-182083D01*
X14015Y-180625D01*
X14325Y-179167D01*
X15100Y-178125D01*
X16185Y-177500D01*
X17270Y-177500D01*
X18355Y-177917D01*
X19285Y-178958D01*
G01X25795Y-190000D02*
X25795Y-177500D01*
G01X32305Y-177500D02*
X32305Y-190000D01*
G01X32305Y-183750D02*
X25795Y-183750D01*
G01X44550Y-190000D02*
X38350Y-190000D01*
X38350Y-177500D01*
X44550Y-177500D01*
G01X42070Y-183542D02*
X38350Y-183542D01*
G01X56950Y-190000D02*
X50750Y-190000D01*
X50750Y-177500D01*
X56950Y-177500D01*
G01X54470Y-183542D02*
X50750Y-183542D01*
G01X66250Y-177500D02*
X66250Y-190000D01*
G01X62685Y-177500D02*
X69815Y-177500D01*
G01X87640Y-187500D02*
X88570Y-188959D01*
X89810Y-189792D01*
X91205Y-190000D01*
X92445Y-189792D01*
X93685Y-188750D01*
X94460Y-187500D01*
X94615Y-186250D01*
X94305Y-184792D01*
X93220Y-183750D01*
X92135Y-183333D01*
X90740Y-183333D01*
G01X92135Y-183333D02*
X93065Y-182708D01*
X93840Y-181667D01*
X94150Y-180417D01*
X93840Y-179167D01*
X93065Y-178125D01*
X91670Y-177500D01*
X90275Y-177708D01*
X88880Y-178542D01*
G01X115850Y-190000D02*
X114610Y-189792D01*
X113525Y-188959D01*
X112595Y-187708D01*
X111975Y-186250D01*
X111665Y-184583D01*
X111665Y-182917D01*
X111975Y-181250D01*
X112595Y-179792D01*
X113525Y-178542D01*
X114610Y-177708D01*
X115850Y-177500D01*
X117090Y-177708D01*
X118175Y-178542D01*
X119105Y-179792D01*
X119725Y-181250D01*
X120035Y-182917D01*
X120035Y-184583D01*
X119725Y-186250D01*
X119105Y-187708D01*
X118175Y-188959D01*
X117090Y-189792D01*
X115850Y-190000D01*
G01X125305Y-190000D02*
X125305Y-177500D01*
X131195Y-177500D01*
G01X129025Y-183542D02*
X125305Y-183542D01*
G01X153050Y-190000D02*
X153050Y-177500D01*
X151190Y-180000D01*
G01X151190Y-190000D02*
X154910Y-190000D01*
G01X167310Y-190000D02*
X167310Y-177500D01*
X161575Y-186458D01*
X169325Y-186458D01*
G01X14550Y-154000D02*
X14550Y-166500D01*
X20750Y-166500D01*
G01X26175Y-166500D02*
X30050Y-154000D01*
X33925Y-166500D01*
G01X32530Y-162125D02*
X27570Y-162125D01*
G01X42450Y-166500D02*
X42450Y-160875D01*
X39350Y-154000D01*
G01X45550Y-154000D02*
X42450Y-160875D01*
G01X57950Y-166500D02*
X51750Y-166500D01*
X51750Y-154000D01*
X57950Y-154000D01*
G01X55470Y-160042D02*
X51750Y-160042D01*
G01X64150Y-166500D02*
X64150Y-154000D01*
X68025Y-154000D01*
X69265Y-154625D01*
X70040Y-155458D01*
X70350Y-157125D01*
X70040Y-158792D01*
X69110Y-159833D01*
X68025Y-160458D01*
X64150Y-160458D01*
G01X68025Y-160458D02*
X70350Y-166500D01*
G01X88640Y-164000D02*
X89570Y-165459D01*
X90810Y-166292D01*
X92205Y-166500D01*
X93445Y-166292D01*
X94685Y-165250D01*
X95460Y-164000D01*
X95615Y-162750D01*
X95305Y-161292D01*
X94220Y-160250D01*
X93135Y-159833D01*
X91740Y-159833D01*
G01X93135Y-159833D02*
X94065Y-159208D01*
X94840Y-158167D01*
X95150Y-156917D01*
X94840Y-155667D01*
X94065Y-154625D01*
X92670Y-154000D01*
X91275Y-154208D01*
X89880Y-155042D01*
G01X116850Y-166500D02*
X115610Y-166292D01*
X114525Y-165459D01*
X113595Y-164208D01*
X112975Y-162750D01*
X112665Y-161083D01*
X112665Y-159417D01*
X112975Y-157750D01*
X113595Y-156292D01*
X114525Y-155042D01*
X115610Y-154208D01*
X116850Y-154000D01*
X118090Y-154208D01*
X119175Y-155042D01*
X120105Y-156292D01*
X120725Y-157750D01*
X121035Y-159417D01*
X121035Y-161083D01*
X120725Y-162750D01*
X120105Y-164208D01*
X119175Y-165459D01*
X118090Y-166292D01*
X116850Y-166500D01*
G01X126305Y-166500D02*
X126305Y-154000D01*
X132195Y-154000D01*
G01X130025Y-160042D02*
X126305Y-160042D01*
G01X154050Y-166500D02*
X155135Y-166292D01*
X156375Y-165667D01*
X157150Y-164625D01*
X157460Y-163167D01*
X157150Y-161709D01*
X156220Y-160458D01*
X154825Y-159833D01*
X153275Y-159833D01*
X152345Y-159417D01*
X151570Y-158375D01*
X151260Y-156917D01*
X151725Y-155458D01*
X152810Y-154417D01*
X154050Y-154000D01*
X155290Y-154417D01*
X156375Y-155458D01*
X156840Y-156917D01*
X156530Y-158375D01*
X155755Y-159417D01*
X154825Y-159833D01*
X153275Y-159833D01*
X151880Y-160458D01*
X150950Y-161709D01*
X150640Y-163167D01*
X150950Y-164625D01*
X151725Y-165667D01*
X152965Y-166292D01*
X154050Y-166500D01*
G01X178075Y-170667D02*
X176525Y-168583D01*
X175750Y-166500D01*
X175750Y-158167D01*
X176525Y-156083D01*
X178075Y-154000D01*
G01X192180Y-160250D02*
X195280Y-160250D01*
X195280Y-164000D01*
X194350Y-165250D01*
X193265Y-166083D01*
X191715Y-166500D01*
X190165Y-166083D01*
X189080Y-165250D01*
X188150Y-164000D01*
X187530Y-162542D01*
X187220Y-160875D01*
X187220Y-159417D01*
X187530Y-158167D01*
X188150Y-156708D01*
X189080Y-155458D01*
X190010Y-154625D01*
X191250Y-154000D01*
X192335Y-154000D01*
X193575Y-154417D01*
X194505Y-155250D01*
G01X200550Y-166500D02*
X200550Y-154000D01*
X204425Y-154000D01*
X205665Y-154625D01*
X206440Y-155458D01*
X206750Y-157125D01*
X206440Y-158792D01*
X205510Y-159833D01*
X204425Y-160458D01*
X200550Y-160458D01*
G01X204425Y-160458D02*
X206750Y-166500D01*
G01X216050Y-166500D02*
X214810Y-166292D01*
X213725Y-165459D01*
X212795Y-164208D01*
X212175Y-162750D01*
X211865Y-161083D01*
X211865Y-159417D01*
X212175Y-157750D01*
X212795Y-156292D01*
X213725Y-155042D01*
X214810Y-154208D01*
X216050Y-154000D01*
X217290Y-154208D01*
X218375Y-155042D01*
X219305Y-156292D01*
X219925Y-157750D01*
X220235Y-159417D01*
X220235Y-161083D01*
X219925Y-162750D01*
X219305Y-164208D01*
X218375Y-165459D01*
X217290Y-166292D01*
X216050Y-166500D01*
G01X225040Y-154000D02*
X225040Y-162958D01*
X225660Y-164834D01*
X226900Y-166083D01*
X228450Y-166500D01*
X230000Y-166083D01*
X231240Y-164834D01*
X231860Y-162958D01*
X231860Y-154000D01*
G01X237285Y-166500D02*
X237285Y-154000D01*
X244415Y-166500D01*
X244415Y-154000D01*
G01X249840Y-166500D02*
X249840Y-154000D01*
X252940Y-154000D01*
X254180Y-154625D01*
X255110Y-155458D01*
X255885Y-156708D01*
X256505Y-158167D01*
X256660Y-160250D01*
X256505Y-162333D01*
X255885Y-163792D01*
X255110Y-165042D01*
X254180Y-165875D01*
X252940Y-166500D01*
X249840Y-166500D01*
G01X274950Y-166500D02*
X274950Y-154000D01*
X278670Y-154000D01*
X279910Y-154625D01*
X280840Y-156083D01*
X281150Y-157750D01*
X280840Y-159417D01*
X280065Y-160667D01*
X278670Y-161292D01*
X274950Y-161292D01*
G01X287350Y-154000D02*
X287350Y-166500D01*
X293550Y-166500D01*
G01X298975Y-166500D02*
X302850Y-154000D01*
X306725Y-166500D01*
G01X305330Y-162125D02*
X300370Y-162125D01*
G01X311685Y-166500D02*
X311685Y-154000D01*
X318815Y-166500D01*
X318815Y-154000D01*
G01X330750Y-166500D02*
X324550Y-166500D01*
X324550Y-154000D01*
X330750Y-154000D01*
G01X328270Y-160042D02*
X324550Y-160042D01*
G01X338035Y-162333D02*
X342065Y-162333D01*
G01X352450Y-166500D02*
X352450Y-154000D01*
X350590Y-156500D01*
G01X350590Y-166500D02*
X354310Y-166500D01*
G01X365625Y-170667D02*
X367175Y-168583D01*
X367950Y-166500D01*
X367950Y-158167D01*
X367175Y-156083D01*
X365625Y-154000D01*
G54D12*
X33500Y61030D03*
X33500Y92530D03*
X25630Y92530D03*
X33500Y163390D03*
X25630Y163390D03*
X33500Y202760D03*
X25630Y202760D03*
X33500Y313000D03*
X70870Y58000D03*
X63000Y58000D03*
X81000Y115500D03*
X81000Y135500D03*
X81000Y125500D03*
X81000Y155500D03*
X81000Y145500D03*
X81500Y235000D03*
X81500Y225000D03*
X81500Y255000D03*
X81500Y245000D03*
X81500Y265000D03*
X196860Y50130D03*
X196860Y58000D03*
X330720Y50130D03*
X370090Y58000D03*
X400630Y84650D03*
X400630Y124020D03*
X400630Y163390D03*
X400630Y202760D03*
X400630Y265760D03*
X408500Y61030D03*
X408500Y124020D03*
X408500Y163390D03*
X408500Y202760D03*
X408500Y265760D03*
X408500Y305130D03*
X408500Y313000D03*
G54D13*
X145280Y16000D03*
X371780Y16000D03*
G54D14*
X147500Y138000D03*
X147500Y165000D03*
X147500Y193000D03*
X262500Y310000D03*
X268500Y344000D03*
X284000Y310000D03*
X299000Y372600D03*
X314000Y103500D03*
X305000Y310000D03*
X317000Y372600D03*
X308000Y382500D03*
X325600Y327000D03*
X335500Y336000D03*
X325600Y345000D03*
X338050Y393090D03*
X338050Y399000D03*
X338050Y404910D03*
X343950Y399000D03*
X343950Y393090D03*
X343950Y404910D03*
X376000Y272500D03*
G54D15*
X143600Y232200D03*
X140563Y238937D03*
X151563Y245937D03*
X233700Y184029D03*
X232500Y187000D03*
X232400Y240300D03*
X234000Y245000D03*
X238230Y243920D03*
X257130Y206130D03*
X257130Y209280D03*
X257130Y218720D03*
X241380Y215580D03*
X257130Y221870D03*
X262630Y93280D03*
X262630Y86980D03*
X278370Y90130D03*
X275000Y83500D03*
X278370Y96430D03*
X266580Y190380D03*
X260280Y206130D03*
X260280Y209280D03*
X260280Y212430D03*
X260280Y218720D03*
X263430Y209280D03*
X263430Y212430D03*
X263430Y218720D03*
X269720Y209280D03*
X269720Y212430D03*
X269720Y218720D03*
X272870Y206130D03*
X272870Y209280D03*
X272870Y218720D03*
X269720Y206130D03*
X260280Y221870D03*
X269720Y221870D03*
X272870Y221870D03*
X266580Y237620D03*
X284670Y83830D03*
X284670Y112170D03*
X291770Y184080D03*
X294920Y184080D03*
X294920Y187230D03*
X288620Y215580D03*
X298070Y234470D03*
X291770Y243920D03*
X294920Y243920D03*
X294920Y240770D03*
G54D16*
X149500Y389000D03*
X175000Y367500D03*
G54D17*
X171000Y420880D03*
X166000Y440370D03*
X294500Y418880D03*
G54D18*
X336500Y450690D03*
G54D19*
X355000Y462500D03*
M02*
