M48
INCH,TZ
T01C.008
T02C.008
T03C.01
T04C.012
T05C.013
T06C.032
T07C.036
T08C.038
T09C.04
T10C.047
T11C.053
T12C.062
T13C.09
T14C.125
T15C.035
T16C.04
T17C.063
T18C.078
T19C.128
;LEADER: 12 
;HEADER: 
;CODE  : ASCII 
;FILE  : tms570_hdk_reve-1-8.drl for board tms570_hdk_reve.brd ... layers TOP and BOTTOM
;T01 Holesize 1. = 8.000000 Tolerance = +0.000000/-0.000000 PLATED MILS Quantity = 1
;T02 Holesize 2. = 8.000000 Tolerance = +0.000000/-80.000000 PLATED MILS Quantity = 400
;T03 Holesize 3. = 10.000000 Tolerance = +0.000000/-100.000000 PLATED MILS Quantity = 1487
;T04 Holesize 4. = 12.000000 Tolerance = +0.000000/-120.000000 PLATED MILS Quantity = 27
;T05 Holesize 5. = 13.000000 Tolerance = +0.000000/-0.000000 PLATED MILS Quantity = 2
;T06 Holesize 6. = 32.000000 Tolerance = +3.000000/-3.000000 PLATED MILS Quantity = 222
;T07 Holesize 7. = 36.000000 Tolerance = +3.000000/-3.000000 PLATED MILS Quantity = 12
;T08 Holesize 8. = 38.000000 Tolerance = +3.000000/-3.000000 PLATED MILS Quantity = 12
;T09 Holesize 9. = 40.000000 Tolerance = +3.000000/-3.000000 PLATED MILS Quantity = 26
;T10 Holesize 10. = 47.000000 Tolerance = +3.000000/-3.000000 PLATED MILS Quantity = 6
;T11 Holesize 11. = 53.000000 Tolerance = +3.000000/-3.000000 PLATED MILS Quantity = 8
;T12 Holesize 12. = 62.000000 Tolerance = +3.000000/-3.000000 PLATED MILS Quantity = 2
;T13 Holesize 13. = 90.000000 Tolerance = +3.000000/-3.000000 PLATED MILS Quantity = 2
;T14 Holesize 14. = 125.000000 Tolerance = +3.000000/-3.000000 PLATED MILS Quantity = 6
;T15 Holesize 15. = 35.000000 Tolerance = +2.000000/-2.000000 NON_PLATED MILS Quantity = 4
;T16 Holesize 16. = 40.000000 Tolerance = +2.000000/-2.000000 NON_PLATED MILS Quantity = 2
;T17 Holesize 17. = 63.000000 Tolerance = +2.000000/-2.000000 NON_PLATED MILS Quantity = 4
;T18 Holesize 18. = 78.000000 Tolerance = +2.000000/-2.000000 NON_PLATED MILS Quantity = 2
;T19 Holesize 19. = 128.000000 Tolerance = +2.000000/-2.000000 NON_PLATED MILS Quantity = 2
%
G90
T01
X229900Y238200
T02
X256330Y83830
X259480Y86980
X262630Y83830
X262630Y86980
X275000Y83500
X284670Y83830
X284670Y86980
X285124Y99377
X284670Y93280
X284670Y96430
X281520Y96430
X278370Y90130
X278370Y96430
X275000Y90000
X275000Y96500
X266000Y99500
X262630Y93280
X262630Y96430
X262630Y90130
X259480Y93280
X259480Y90130
X256330Y109020
X256330Y102720
X256330Y105870
X259480Y105870
X259480Y109020
X262630Y105870
X262630Y109020
X278370Y105870
X278370Y109020
X278370Y102720
X281520Y102720
X281520Y109020
X281520Y105870
X284670Y105870
R02Y3150
X281520Y112170
X278370Y112170
X264200Y115000
X259500Y115000
X256330Y112170
X294920Y184080
X294920Y187230
X291770Y184080
X291770Y187230
X288620Y180930
X288620Y184080
X285470Y184080
X285470Y180930
X282320Y184080
X282320Y180930
X279170Y180930
X279170Y184080
X276020Y180930
X276020Y184080
X272870Y184080
X272870Y180930
X269720Y184080
X263430Y184080
X260280Y184080
X260280Y180930
X257130Y180930
X257130Y184080
R03X-3150
X241380Y180930
X238230Y187230
X233700Y184029
X232500Y187000
X223597Y187403
X231930Y193530
X232889Y198429
X235080Y196680
X235080Y190380
X235080Y193530
X235080Y199830
X241380Y196680
X241380Y199830
X241380Y193530
X241380Y190380
X244530Y196680
X244530Y190380
X244530Y193530
X244530Y199830
X247680Y199830
X247680Y190380
R02Y3150
X250830Y193530
R02Y3150
X250830Y190380
X253980Y199830
X253980Y196680
X253980Y190380
X253980Y193530
X257130Y199830
X257130Y196680
X257130Y190380
X257130Y193530
X260280Y196680
X260280Y199830
X260280Y193530
X260280Y190380
X263430Y196680
X263430Y199830
X263430Y190380
X263430Y193530
X266580Y190380
X269720Y190380
X269720Y196680
X269720Y199830
X269720Y193530
X272870Y199830
X272870Y190380
X272870Y193530
X272870Y196680
X276020Y199830
X276020Y190380
X276020Y193530
X276020Y196680
X279170Y190380
R03Y3150
X282320Y199830
X282320Y190380
X282320Y196680
X282320Y193530
X285470Y190380
X285470Y199830
X285470Y196680
X285470Y193530
X288620Y196680
X288620Y199830
X288620Y193530
X288620Y190380
X294920Y196680
X294920Y190380
X294920Y199830
X294920Y193530
X298070Y196680
X298070Y190380
X298070Y199830
X298070Y193530
X298070Y202980
X298070Y206130
X294920Y202980
X294920Y206130
X288620Y209280
X288620Y202980
X288620Y206130
X285470Y206130
X285470Y202980
X285470Y209280
X282320Y202980
X282320Y209280
X282320Y206130
X279170Y209280
X279170Y202980
X279170Y206130
X272870Y209280
X272870Y206130
X269720Y206130
X269720Y209280
X263430Y206130
X263430Y209280
X260280Y209280
X260280Y206130
X257130Y209280
X257130Y206130
X250830Y209280
X250830Y202980
X250830Y206130
X247680Y206130
X247680Y209280
X247680Y202980
X244530Y209280
X244530Y202980
X244530Y206130
X241380Y202980
X241380Y209280
X241380Y206130
X235080Y202980
X235080Y209280
X235080Y206130
X231930Y209280
X231930Y202980
X231930Y206130
X231930Y212430
X231930Y218400
X231930Y215800
X235080Y218720
X235080Y212430
X241380Y218720
X241380Y212430
X241380Y215580
X244530Y218720
X244530Y212430
X247680Y218720
X247680Y212430
X250830Y212430
X250830Y218720
X257130Y212430
X257130Y218720
X260280Y218720
X260280Y212430
X263430Y218720
X263430Y212430
X269720Y218720
X269720Y212430
X272870Y218720
X272870Y212430
X279170Y212430
X279170Y218720
X282320Y212430
X282320Y218720
X285470Y212430
X285470Y218720
X288620Y215580
X288620Y218720
X288620Y212430
X294920Y218720
X298070Y212430
X301427Y219544
X301000Y225000
X298070Y225020
X298070Y221870
X298000Y228170
X294920Y221870
X294920Y225020
X288620Y225020
X288620Y228170
X288620Y221870
X285470Y225020
X285470Y221870
X285470Y228170
X282320Y228170
X282320Y221870
X282320Y225020
X279170Y228170
X279170Y221870
X279170Y225020
X276020Y228170
X272870Y221870
X272870Y228170
X269720Y228170
X269720Y221870
X263430Y221870
X263430Y228170
X260280Y221870
X260280Y228170
X257130Y221870
X257130Y228170
R02X-3150
X250830Y221870
X250830Y225020
X247680Y221870
R02Y3150
X244530Y225020
X244530Y221870
X244530Y228170
X241380Y221870
X241380Y228170
X241380Y225020
X235080Y228170
X235080Y225020
X231930Y225020
X231930Y228170
X150563Y227437
X150563Y223937
X146563Y223937
X146563Y227437
X142579Y227437
X142563Y223937
X136000Y234079
X136000Y238016
X140563Y238937
X140740Y232240
X143600Y232200
X145563Y238937
X147300Y232200
X150063Y238937
X151500Y232100
X154400Y238900
X154400Y235100
X159563Y233937
X163063Y233937
X231930Y234470
X231930Y231320
X235080Y234470
X235080Y237620
X235080Y231320
X241380Y234470
X241380Y231320
X241380Y237620
X244530Y231320
X244530Y234470
X244530Y237620
X247680Y231320
X247680Y237620
X247680Y234470
X250830Y231320
X250830Y237620
X250830Y234470
X253980Y234470
X253980Y237620
X253980Y231320
X257130Y231320
X257130Y234470
X257130Y237620
X260280Y237620
R02Y-3150
X263430Y231320
X263430Y237620
X263430Y234470
X266580Y237620
X269720Y234470
X269720Y231320
X269720Y237620
X272870Y231320
X272870Y237620
X272870Y234470
X276020Y234470
X276020Y231320
X276020Y237620
X279170Y237620
X279170Y231320
X279170Y234470
X282320Y237620
X282320Y231320
X282320Y234470
X285470Y234470
X285470Y237620
X285470Y231320
X288620Y234470
X288620Y231320
X288620Y237620
X294920Y237620
X298070Y234470
X298070Y237620
X305500Y232030
X294920Y240770
X294920Y243920
X291770Y240770
X291770Y243920
X288620Y247070
X288620Y243920
X285470Y243920
X285470Y247070
X282320Y243920
X282320Y247070
X279170Y243920
X279170Y247070
X276020Y243920
X276020Y247070
X272870Y243920
X272870Y247070
X269720Y243920
X269720Y247070
X263430Y247070
X263430Y243920
X260575Y249654
X260280Y247070
X260280Y243920
X247680Y247070
X247680Y243920
X244530Y243920
X241363Y240787
X241363Y243937
X238230Y240770
X238230Y243920
X234000Y245000
X232400Y240300
X163063Y247937
X159563Y247937
X159563Y241937
X154400Y242900
X154200Y245600
X151563Y245937
X147563Y245937
X147563Y241437
X143600Y245900
X140900Y245700
X140563Y242937
X136063Y247858
X136063Y243921
X132563Y247937
X140563Y250937
X146563Y250937
X146563Y254437
X150563Y250937
X150563Y254437
X154563Y254437
X154563Y250937
T03
X63000Y15000
X63000Y10000
X70290Y10210
X74000Y15000
X185000Y3950
X185000Y16000
X190000Y16000
X193500Y16000
X195000Y3950
X197000Y16000
X200000Y16000
X205500Y12000
X225000Y11000
X228970Y18030
X275000Y18000
X286500Y12000
X287000Y18500
X293700Y18751
X309000Y18500
X316841Y12125
X320500Y16000
X320500Y3950
X325500Y16000
X329000Y16000
X330500Y3950
X332500Y16000
X335500Y16000
X340500Y13000
X338700Y30749
X335500Y38000
X330500Y38050
X325500Y38050
X320500Y38000
X311000Y28200
X303000Y28500
X301000Y33000
X297000Y39500
X297000Y26500
X287000Y22500
X275400Y29250
X275000Y34000
X270970Y39250
X261600Y29500
X251772Y25750
X251222Y36750
X249650Y29575
X249100Y39250
X246550Y29000
X242600Y37750
X236000Y30500
X231980Y29500
X200000Y38000
X195000Y38500
X190000Y38500
X185000Y38000
X174810Y38000
X114490Y36100
X88750Y33213
X81500Y32500
X81290Y39790
X76000Y32000
X74000Y20000
X71500Y32500
X70290Y24210
X67290Y39790
X66500Y32500
X63000Y20000
X63000Y25000
X16031Y36999
X71500Y43090
X74990Y43090
X88750Y40749
X305470Y41000
X330901Y45000
X360340Y44250
X374340Y40750
X395300Y72410
X355000Y63500
X348500Y71000
X345000Y67500
X324500Y76000
X310000Y76000
X307000Y77500
X303000Y77500
X298000Y76500
X295500Y74500
X294000Y79000
X276000Y75250
X273500Y77500
X269500Y78000
X266500Y78500
X263500Y79000
X261000Y70500
X255500Y66500
X253500Y71000
X249500Y74000
X249500Y68500
X247000Y76500
X247000Y71500
X243500Y71500
X237500Y79000
X225488Y65750
X221500Y65500
X217000Y77500
X214000Y74500
X206000Y63000
X199500Y79000
X194060Y77000
X194000Y73500
X190120Y77000
X190000Y73500
X186180Y73500
X184220Y76500
X182240Y73500
X180280Y76500
X178300Y73500
X174460Y73500
X174360Y77000
X170520Y73500
X170420Y77000
X166580Y73500
X166480Y77000
X166500Y67000
X162640Y73500
X162540Y77000
X158700Y73500
X158600Y77000
X154760Y73500
X154660Y77000
X150820Y73500
X150720Y77000
X146880Y73500
X146780Y77000
X142940Y73500
X142840Y77000
X139000Y73500
X138900Y77100
X135500Y77000
X103500Y66120
X101000Y63500
X92000Y77000
X64870Y65309
X61755Y69235
X62000Y98000
X125000Y93500
X165500Y96500
X190500Y96500
X223500Y81000
X235750Y90500
X236500Y97000
X237000Y93250
X239000Y89500
X240000Y96500
X250500Y90000
X252500Y95238
X271000Y89000
X287500Y89000
X291500Y89000
X291900Y97000
X291900Y93000
X303000Y97079
X303000Y93000
X307000Y85500
X307000Y82000
X309500Y90000
X325000Y98579
X325000Y95000
X331000Y99500
X349500Y95500
X350000Y91500
X358500Y98500
X360840Y84401
X362000Y97500
X368750Y88991
X377000Y95500
X377000Y99000
X388500Y97500
X390850Y90741
X418000Y104650
X388500Y111500
X388500Y104500
X388500Y118500
X377000Y116500
X377000Y113000
X377000Y106000
X377000Y102500
X377000Y109500
X371250Y112750
X358122Y104621
X354750Y102499
X352000Y109000
X346500Y105000
X343000Y109000
X342500Y117500
X331143Y102500
X328500Y114500
X327000Y104000
X325000Y113000
X325000Y106500
X314250Y118250
X303000Y100500
X302700Y107500
X302700Y104000
X297700Y117500
X294300Y117500
X291900Y104000
X291900Y107500
X291900Y100500
X288000Y119000
X279500Y119000
X267000Y114000
X267000Y109000
X253500Y118500
X238073Y113456
X236500Y100500
X235500Y115000
X235000Y119500
X223000Y104500
X219500Y104500
X208000Y111500
X205000Y112000
X194060Y113440
X194000Y117000
X190120Y113400
X190000Y117000
X186180Y113400
X186000Y117000
X182240Y117000
X180280Y113500
X178300Y117000
X174460Y117000
X174360Y113400
X170520Y117000
X170420Y113400
X166580Y117000
X166480Y113400
X162640Y117000
X162540Y113400
X158700Y117000
X158600Y113400
X154760Y117000
X154660Y113400
X150820Y117000
X150720Y113400
X146780Y113400
X146602Y118500
X142940Y117000
X142840Y113400
X138689Y114848
X134000Y118500
X133650Y113200
X115951Y118500
X108500Y119000
X100500Y118000
X62000Y118000
X48500Y138000
X53000Y128000
X54500Y139500
X58500Y133000
X58500Y138000
X58500Y128000
X58500Y123000
X62000Y133000
R02Y-5000
X62000Y138000
X73500Y122500
X100500Y133000
X100500Y138000
X104500Y133000
X104500Y138000
X105500Y128000
X109000Y126500
X116400Y134600
X136000Y135047
X140000Y126500
R03X3500
X155000Y131500
X168670Y122500
X174000Y123000
X197500Y133500
X210000Y127500
X217500Y131000
X219530Y134000
X222500Y131000
X222500Y126000
X224500Y134000
X229500Y135000
X247000Y134000
X257000Y135480
X266500Y126500
X267752Y136515
X269000Y132000
X272400Y139000
X272500Y135000
X288400Y135480
X295500Y138625
X308000Y126000
X323259Y126750
X327025Y125000
X330500Y128000
X334238Y132238
X350750Y129500
X361000Y136750
X371250Y124749
X377000Y120000
X377500Y135500
X377500Y132000
X377500Y139000
X389000Y134000
X389000Y155000
X389000Y148000
X389000Y141000
X377500Y146000
X377500Y156500
X377500Y153000
X377500Y149500
X377500Y142500
X346500Y146250
X333000Y157500
X330500Y148000
X326250Y148000
X314250Y149500
X308750Y154500
X303000Y141000
X301000Y144000
X292000Y143000
X288500Y144500
X283750Y146250
X283490Y142500
X280250Y146500
X274500Y143500
X274000Y147500
X266550Y158000
X266000Y142500
X262500Y142500
X258500Y146500
X258490Y142490
X254500Y146250
X254500Y142500
X250500Y149000
X246500Y149000
X246500Y142500
X245977Y153204
X241168Y154579
X240480Y157500
X236500Y157050
X229550Y143500
X229500Y155000
X229500Y151500
X229500Y140000
X229549Y147387
X229250Y158651
X225470Y155000
X222480Y147480
X222500Y151500
X215000Y151800
X214500Y141500
X214500Y145500
X205502Y159481
X203450Y149527
X203000Y152500
X197104Y153104
X190311Y153500
X186888Y153500
X170500Y155000
X165000Y150000
X162500Y142500
X159000Y158000
X155000Y158500
X155000Y155500
X150500Y153500
X148750Y149000
X147000Y153500
X137000Y153750
X136000Y141000
X136000Y144500
X127000Y142500
X127000Y149000
X105400Y158000
X104500Y143000
X100500Y143000
X100500Y158000
X75517Y154000
X62000Y158000
X62000Y143000
X53000Y148000
X48500Y152000
X48500Y141000
X45250Y142749
X58500Y170897
X62000Y164500
X78500Y176023
X85000Y168000
X86251Y173897
X91750Y176000
X118000Y175500
X123530Y167530
X130000Y174500
X132155Y164155
X136000Y162047
X136000Y168000
X136000Y171500
X145500Y176000
X164500Y167953
X177524Y167477
X182500Y176500
X182500Y173500
X182500Y168500
X187688Y168000
X189500Y161000
X191111Y168000
X195000Y162500
X197000Y170000
X205500Y166000
X205500Y174000
X205500Y177510
X210500Y160000
X210500Y173000
X211000Y168012
X214000Y174500
X221500Y162500
X236500Y168050
X238500Y177500
X240500Y168050
X244500Y168050
X245500Y171500
X253440Y178440
X254450Y172000
X262500Y168500
X266500Y170000
X266782Y163218
X270500Y166500
X276000Y177500
X279500Y169500
X284500Y170000
X296500Y167500
X297500Y160000
X302750Y162000
X307500Y163000
X308750Y160000
X310500Y171000
X318500Y160000
X325863Y179483
X326250Y164750
X330804Y179662
X330906Y170389
X342000Y164750
X343500Y178000
X343500Y172000
X351000Y160000
X367800Y170100
X368218Y179673
X369500Y166750
X377000Y176500
X377000Y173000
X388500Y175000
X388601Y163891
X397000Y167714
X388500Y182000
R02Y7000
X377000Y187000
X377000Y180000
X377000Y194000
X377000Y197500
X377000Y190500
X377000Y183500
X372000Y180500
X368500Y199000
X368500Y189500
X345000Y191500
X345000Y197000
X335500Y185800
X331000Y189500
X330790Y197790
X327000Y198000
X322500Y187000
X316000Y187000
X309000Y188000
X308750Y191000
X307000Y184000
X301960Y193440
X301950Y190060
X232000Y181500
X227500Y194500
X224000Y197500
X220500Y181500
X220000Y192500
X220000Y189000
X215000Y192500
X214800Y187500
X211000Y192500
X210000Y180000
X206000Y192500
X206000Y187500
X205000Y195500
X201050Y186500
X201000Y193500
X187500Y181500
X182500Y183000
X182500Y180000
X181750Y188500
X178470Y192000
X177000Y198000
X172500Y190988
X165293Y190596
X164500Y193490
X164500Y198000
X162000Y185000
X161000Y180000
X155000Y183500
X155000Y186500
X150500Y181500
X147000Y181500
R02X-3500
X136000Y196000
X136000Y181500
X136000Y199500
X135000Y192000
X131900Y199900
X129000Y191500
X122362Y195498
X118939Y195498
X99751Y183500
X98500Y198000
X94312Y189438
X92768Y185274
X90500Y189000
X67500Y190000
X64000Y196670
X62000Y182500
X52000Y209000
X53122Y218878
X55500Y211048
X76000Y219000
X82000Y216750
X92500Y205000
X93500Y210750
X98750Y218250
X103500Y209750
X104000Y200500
X114000Y205750
X117162Y208138
X119712Y210688
X129900Y208600
X133650Y208350
X135210Y202395
X138000Y203500
X141500Y203500
X145500Y203592
X149000Y203641
X152410Y207794
X153000Y203500
X155500Y213000
X155500Y200000
X159000Y213000
X160000Y200000
X162500Y213000
X166000Y213000
X170750Y213000
X178000Y211058
X184000Y201000
X188800Y217300
X195751Y205950
X196000Y217500
X202300Y212200
X203000Y201500
X205147Y211251
X205900Y205800
X224000Y205500
X224000Y201500
X226200Y211058
X300500Y215500
X311000Y216600
X313500Y209300
X316500Y209000
X322320Y208680
X335500Y205000
X338500Y219000
X338500Y214500
X342500Y204900
X343000Y211000
X343000Y218000
X366597Y217508
X370074Y217269
X387750Y218100
X395500Y222000
X387750Y225850
X379950Y234550
X376618Y231129
X373600Y237050
X370500Y227000
X370500Y230500
X369800Y222600
X369000Y235000
X366000Y231000
X365500Y235000
X364500Y225750
X363500Y233000
X359900Y223900
X347000Y227200
X341900Y232100
X338500Y223100
X336000Y225000
X334757Y229058
X333000Y223000
X324100Y230400
X324000Y233500
X321300Y221600
X317200Y220200
X313000Y233500
X313000Y227500
X308700Y228490
X305080Y228430
X228300Y228500
X226227Y235456
X221850Y228500
X221450Y232500
X221000Y222000
X219000Y239500
X211000Y229000
X211000Y237500
X211000Y232500
X207400Y229000
X204500Y232500
X204000Y239000
X202400Y221200
X201000Y226000
X198000Y232500
X197500Y226000
X193500Y237500
X192000Y232000
X190500Y229000
X180000Y230000
X179300Y235400
X175500Y224000
X160800Y223597
X155137Y224150
X153500Y227500
X137500Y226500
X134541Y221884
X131259Y221884
X123798Y225000
X120150Y224800
X119500Y236000
X119500Y232000
X117539Y221629
X105000Y232500
X105000Y227500
X105000Y237500
X101100Y222500
X101000Y227500
X101000Y232500
X88750Y233750
X73000Y237000
X73000Y226500
X73000Y233500
X62500Y227500
X62500Y222500
X62500Y237500
X62500Y232500
X59000Y237500
X59000Y227500
X55500Y232500
X52000Y225000
X51000Y221000
X59000Y252500
X59000Y257500
X59000Y242500
X59000Y247500
X62500Y252500
X62500Y247500
X62500Y257500
X62500Y242500
X87750Y254250
X90500Y242750
X101000Y252500
X101000Y257500
X101000Y242500
X105000Y242500
X105000Y257500
X105000Y252500
X105000Y247500
X112238Y239962
X116920Y246500
X119000Y259800
X119500Y244500
X127500Y255500
X131000Y258700
X142000Y255500
X172500Y254500
X175912Y243413
X180000Y252000
X180000Y247500
X185500Y244000
X189585Y246085
X190000Y251000
X193250Y244700
X193500Y256250
X193700Y251100
X194666Y248259
X201000Y247500
X201000Y254500
X204750Y247500
X207500Y251000
X211500Y246000
X214500Y258000
X215000Y247500
X234000Y257500
X250600Y251050
X255300Y251050
X264900Y258400
X268600Y258050
X285500Y250500
X288990Y250480
X295500Y258000
X301228Y241650
X305000Y240873
X310000Y241000
X310909Y250000
X311100Y253750
X316500Y256500
X320500Y240550
X325000Y240000
X336250Y252733
X342761Y254483
X347000Y245000
X347000Y254000
X347000Y249500
X358200Y255000
X362000Y258000
X365900Y247414
X366000Y251950
X368500Y257500
X370000Y251500
X370100Y245500
X375500Y245500
X379000Y245500
X382500Y245500
X384000Y251500
X388500Y246000
X389000Y257500
X391500Y267500
X385851Y264250
X382500Y265000
X382000Y261000
X379000Y261000
X366500Y261500
X362000Y261500
X358901Y265100
X355300Y279000
X347000Y274500
X343000Y269900
X343000Y277250
X334250Y277080
X321000Y276500
X319000Y267500
X316500Y273500
X313000Y275000
X309250Y272500
X308500Y260000
X308000Y278500
X301000Y265000
X300500Y276500
X297500Y265000
X295000Y277000
X294000Y265000
X290000Y265500
X282000Y265500
X282000Y277050
X278000Y277050
X278000Y265500
X274000Y277050
X274000Y265500
X267000Y271500
X262000Y260000
X262000Y264000
X260500Y268500
X258000Y271000
X255000Y268000
X254500Y278500
X251500Y268000
X251000Y278500
X248000Y268000
X247500Y271000
X244500Y268000
X244000Y271000
X240500Y271000
X238350Y260000
X238350Y264000
X236000Y279500
X234000Y271500
X232000Y279500
X229000Y271050
X229000Y260050
X226000Y279500
X225500Y260050
X221500Y264500
X216500Y279500
X213950Y273000
X212500Y279500
X211500Y268000
X207000Y277500
X204500Y261500
X201000Y272000
X201000Y265000
X199000Y279000
X194000Y276000
X193500Y267500
X186000Y279500
X185500Y275500
X183000Y273500
X181999Y267500
X181000Y261000
X178000Y275500
X173000Y278000
X172500Y266000
X171500Y260500
X169000Y278000
X168500Y266500
X165000Y260500
X158480Y277980
X153500Y278000
X152800Y260749
X148640Y266140
X148500Y278000
X146670Y260170
X144700Y266200
X142000Y260500
X137000Y274950
X130150Y275050
X126050Y260000
X123500Y272500
X118612Y268115
X115189Y268115
X113800Y261500
X110500Y261500
X105000Y262500
X105000Y267500
X104750Y274500
X103000Y279901
X101000Y267500
X101000Y262500
X87900Y270838
X77500Y273500
X75700Y260500
X74000Y275750
X62500Y262500
X62500Y267500
X61500Y273500
X59000Y267500
X59000Y262500
X42619Y277500
X51900Y297250
X54750Y284351
X62853Y283500
X67328Y292518
X86465Y294550
X104000Y284000
X113000Y295000
X119000Y280500
X121001Y291800
X121000Y288500
X125500Y289000
X129500Y288500
X129500Y298000
X129500Y295000
X129500Y280500
X129500Y284500
X140450Y291550
X140420Y299420
X140500Y287500
X140500Y295500
X140500Y283670
X154000Y285500
X154000Y281500
X156500Y299500
X158750Y283500
X159250Y291500
X159400Y295250
X160000Y288000
X166000Y294500
X166000Y299500
X166250Y289500
X166500Y280250
X170000Y294500
X170400Y282442
X170500Y289000
X173500Y282500
X174000Y292500
X174000Y297450
X174000Y289000
X185390Y287610
X185490Y296430
X185500Y292500
X185687Y282790
X190293Y284491
X192000Y289000
X193000Y280360
X194800Y297000
X198297Y296250
X198870Y283500
X202800Y283500
X205000Y296500
X208710Y296420
X212640Y283500
X216500Y296000
X216500Y283500
X222700Y296250
X224450Y283500
X227000Y296000
X229500Y283500
X231500Y295889
X236500Y299500
X236750Y295900
X242160Y296420
X246000Y283000
X246100Y296420
X254000Y294000
X259547Y299047
X261000Y296000
X263484Y299016
X271000Y292000
X271000Y297000
X275500Y299000
X280000Y281000
X281047Y299547
X283016Y296516
X284984Y299516
X286953Y296547
X288921Y299579
X293500Y289000
X295000Y295000
X297000Y285500
X302250Y281500
X308000Y288500
X309500Y296000
X316000Y283500
X322500Y295540
X325500Y295500
X325500Y284000
X331500Y284000
X331500Y295500
X337000Y295500
X337000Y284000
X343250Y292750
X343250Y284500
X348500Y292000
X348750Y296000
X350500Y281500
X353951Y283350
X364500Y282000
X367500Y282000
X370000Y285000
X372000Y282000
X373000Y287000
X377500Y291500
X379839Y281839
X382600Y287700
X386000Y284000
X388000Y295000
X413500Y318800
X376500Y309433
X373500Y306501
X346000Y307500
X342000Y303500
X333500Y308000
X329500Y308000
X320500Y301000
X313000Y310500
X312000Y300030
X307953Y300047
X308000Y312000
X308000Y307500
X302000Y312000
X302047Y300047
X302000Y307500
X297224Y315724
X296500Y304500
X293000Y300000
X287500Y307500
X287500Y312000
X281000Y307500
X281000Y312000
X276000Y316000
X275500Y304500
X270276Y310276
X266000Y312000
X266000Y307500
X259500Y312000
X259500Y307500
X254500Y316000
X253500Y304000
X249500Y308000
X246500Y305000
X246500Y302000
X241000Y305000
X238230Y311500
X237000Y304500
X234290Y311500
X232500Y304430
X230360Y311500
X227500Y301500
X227000Y306000
X223000Y311250
X218200Y307250
X218000Y311500
X214800Y311750
X213500Y307500
X208710Y311500
X204770Y309350
X204770Y312350
X198000Y306500
X196000Y312500
X185200Y306300
X174500Y310000
X174000Y300700
X171500Y311500
X168000Y311500
X166900Y306361
X161500Y305500
X160500Y300000
X158480Y311640
X156500Y304000
X152500Y311000
X148000Y309500
X144000Y308500
X142750Y311640
X140500Y308500
X140480Y303250
X139500Y311590
X129640Y303360
X129500Y310500
X124000Y317000
X69500Y318000
X67000Y309000
X63957Y317750
X60750Y304360
X57200Y311300
X51892Y314538
X44000Y316250
X39500Y327000
X39500Y323000
X44000Y323000
X44000Y333500
X50500Y339500
X59000Y338550
X74500Y328000
X79050Y327450
X95500Y333000
X95500Y323000
X99300Y333100
X102262Y337000
X111000Y339500
X121000Y326000
X132800Y333800
X133600Y326200
X140000Y339500
X140000Y327550
X145000Y327550
X145000Y339500
X150000Y327550
X150500Y339500
X152580Y322500
X155000Y327550
X167000Y327702
X171500Y329000
X173540Y322602
X177000Y322500
X180961Y322000
X187500Y327500
X187700Y339300
X188000Y322000
X192500Y324500
X194000Y339500
X196349Y328600
X196900Y324500
X201000Y337500
X201500Y332500
X202000Y328500
X203250Y324500
X208500Y325000
X210500Y331500
X214750Y339000
X218550Y324500
X223000Y338000
X228000Y324500
X232500Y332500
X233000Y325000
X236472Y326039
X238500Y332500
X242750Y325500
X249000Y334000
X255000Y335000
X257500Y332000
X259500Y335000
X261516Y320484
X262000Y332000
X264661Y334661
X265453Y320641
X267000Y324500
X269000Y320500
X269780Y334720
X271000Y324500
X272500Y331500
X274500Y334000
X278000Y339000
X278000Y332500
X283500Y339000
X288500Y338000
X299500Y332500
X301000Y320500
X302286Y331385
X302500Y323500
X305984Y320484
X306500Y323500
X309921Y320421
X310500Y335000
X314500Y329000
X316000Y337500
X320000Y321500
X321850Y324500
X324000Y321500
X328850Y326000
X338500Y321500
X343000Y321500
X347000Y327500
X350500Y322500
X354000Y327500
X360000Y333000
X360500Y327500
X367500Y327500
X367500Y333000
X395952Y329500
X391000Y350500
X386000Y350500
X380000Y350500
X375000Y350500
X367500Y347500
X367500Y340000
X365000Y357500
X360000Y347500
X360000Y340000
X354000Y347500
X347000Y347500
X340000Y350000
X335000Y350000
X331500Y353000
X331500Y359000
X326000Y350000
X321000Y359000
X321000Y353000
X318000Y350000
X312000Y350000
X279000Y348500
X279000Y355500
X272500Y353500
X269500Y359500
X264661Y354161
X261500Y349500
X260500Y354500
X259000Y345000
X258500Y349000
X253000Y359500
X247500Y355500
X246000Y347050
X242000Y348010
X241830Y358500
X238500Y358500
X237000Y347500
X233950Y347500
X234000Y344500
X233500Y358000
X230000Y358000
X227500Y344000
X226500Y358000
X226080Y347500
X223000Y358000
X220170Y347500
X220120Y344500
X212500Y351000
X212000Y354500
X211000Y342000
X209000Y358670
X207000Y352000
X204000Y358500
X203000Y353500
X202500Y342000
X198500Y341950
X186500Y359000
X181212Y346984
X177789Y346984
X172500Y341500
X170510Y359000
X167500Y347500
X165000Y341500
X159500Y345000
X155000Y348500
X150000Y348500
X140000Y348500
X131940Y345940
X131940Y351060
X128768Y356535
X126500Y358500
X123000Y341500
X121936Y359714
X116500Y348500
X116510Y353510
X115000Y340500
X114440Y345940
X114440Y351060
X107500Y355000
X99500Y344500
X98500Y348500
X95500Y343000
X95500Y353000
X74000Y358000
X73000Y348000
X55500Y348000
X55500Y358000
X55500Y343000
X48300Y352300
X40700Y352800
X3500Y378500
X14000Y369500
X16000Y361500
X21500Y378000
X22500Y360000
X25000Y378000
X30000Y362000
X55100Y379700
X55500Y373000
X56000Y368000
X95500Y379000
X95500Y373000
X95500Y363000
X100500Y365000
X111000Y374600
X111300Y369000
X140400Y363100
X144000Y362000
X146500Y374788
X150000Y368000
X154500Y368000
X159000Y373500
X162000Y374500
X165500Y369000
X165500Y374000
X169500Y373500
X171615Y378288
X184000Y370000
X184500Y363500
X185500Y375388
X185500Y378811
X188000Y371500
X192300Y364700
X196000Y372500
X204000Y365500
X209000Y374000
X209000Y370480
X209000Y364580
X219827Y360590
X220000Y375500
X220000Y372000
X220000Y365500
X222940Y368740
R02X3500
X231500Y375500
X231500Y372000
X238500Y363500
X240000Y368000
X241000Y371500
X252920Y374420
X253000Y367000
X253000Y378500
X252980Y370480
X255000Y362500
X256000Y378500
X256000Y374500
X258500Y364500
X264000Y367000
X264000Y370500
X270500Y363500
X274500Y363500
X311500Y362000
X318500Y362000
X325000Y367000
X326000Y362000
X333000Y367000
X340000Y362500
X340500Y367500
X348000Y367500
X353500Y365000
X359000Y365000
X360500Y375000
X365000Y365000
X363000Y393500
X352500Y387000
X340500Y381500
X325000Y385500
X323780Y397720
X323540Y390040
X292500Y391000
X292500Y398500
X288580Y380080
X288580Y398500
X284830Y380000
X284830Y398500
X281080Y380080
X281080Y398500
X276500Y391000
X275000Y383500
X269100Y383000
X262500Y395000
X253000Y382500
X250500Y389200
X250500Y392500
X247000Y384000
X243100Y392300
X240090Y392090
X240000Y380500
X236500Y380500
X236100Y392300
X233090Y392300
X233000Y380500
X229000Y380500
X225000Y392500
X225000Y380500
X220000Y395500
X220000Y392500
X214460Y383960
X200000Y397000
X188500Y389500
X187000Y394000
X175020Y389500
X171615Y381711
X171270Y389230
X167520Y389520
X158000Y389500
X155500Y395500
X152000Y398500
X150480Y381020
X146000Y399000
X129749Y382751
X129500Y392000
X129500Y396500
X126516Y382815
X123000Y389500
X122500Y386000
X117000Y383400
X114000Y392550
X113000Y382500
X112000Y395500
X110000Y392550
X95500Y393000
X95500Y383000
X75122Y385500
X75000Y398000
X75000Y390000
X56000Y398000
X56000Y388000
X55500Y393000
X55500Y383000
X49500Y381500
X49000Y393000
X45750Y385750
X42000Y386000
X33500Y381500
X32000Y397000
X3500Y416000
X22000Y402000
X26000Y401000
X33000Y404000
X34020Y416500
X37000Y404000
X37750Y408750
X40500Y404170
X41500Y409500
X46000Y403700
X54000Y418000
X55500Y403000
X55500Y413000
X58500Y419900
X75500Y413000
X94200Y403000
X94500Y413000
X96300Y417500
X97891Y403799
X101600Y403500
X105800Y403600
X106000Y418490
X109500Y417950
X109900Y404000
X112800Y418000
X113400Y403798
X117400Y417900
X122600Y404500
X123200Y408700
X130100Y411600
X137000Y400500
X140316Y416500
X144500Y412000
X148520Y401980
X164000Y401000
X167500Y408500
X172500Y408500
X183000Y402000
X194500Y402000
X227500Y403500
X231500Y403000
R02X4000
X243500Y402500
X248000Y402000
X256000Y400500
X276000Y405500
X276000Y402500
X276500Y419000
X281000Y406500
X292500Y406500
X323500Y402000
X414000Y407000
X417000Y407000
X417500Y418500
X425500Y414500
X428000Y403700
X427500Y434000
X426500Y423000
X417500Y438500
X417000Y428500
X412500Y422500
X408500Y422500
X404700Y422500
X390000Y430000
X372000Y421400
X366000Y429500
X360200Y432700
R02X-3300
X332000Y422000
X329500Y425000
X327000Y422000
X311000Y425000
X200500Y420500
X194000Y427000
X190000Y427000
X147000Y434000
X144500Y424000
X136500Y420000
X134500Y424000
X131000Y434050
X125920Y433630
X125000Y436000
X122500Y427000
X122500Y423000
X113000Y436500
X111970Y431800
X108030Y431970
X53300Y424300
X34088Y424483
X33950Y421000
X27500Y430450
X24400Y433498
X20500Y424000
X20000Y428300
X30200Y441450
X102800Y441000
X117500Y453500
X120682Y453500
X274000Y453500
X326300Y445300
X427500Y443000
X316762Y472000
X276000Y460000
X206000Y460000
X143500Y475500
X81827Y465300
X77496Y466600
X73165Y464800
X68835Y466600
X64504Y465200
X60173Y464400
T04
X314000Y103500
X147500Y138000
X147500Y165000
X147500Y193000
X262500Y310000
X268500Y344000
X284000Y310000
X305000Y310000
X325600Y327000
X325600Y345000
X335500Y336000
X340000Y336000
X350400Y327000
X350400Y345000
X376000Y272500
X343950Y393090
X343950Y399000
X343950Y404910
X338050Y393090
X338050Y404910
X338050Y399000
X317000Y372600
X317000Y397400
X308000Y387000
X308000Y382500
X299000Y397400
X299000Y372600
T05
X175000Y367500
X149500Y389000
T06
X25630Y61030
X25630Y68910
X25630Y76780
X25630Y84650
X25630Y92530
X25630Y100400
X25630Y108280
R02Y7870
X25630Y131900
X25630Y139770
X25630Y147650
X25630Y155520
X25630Y163390
X25630Y171270
X25630Y179140
X25630Y187020
X25630Y194890
X25630Y202760
X25630Y210640
X25630Y218510
X25630Y226390
X25630Y234260
X25630Y242130
X25630Y250010
X25630Y257880
X25630Y265760
X25630Y273630
X25630Y281500
X25630Y289380
X25630Y297250
X25630Y305130
X25630Y313000
X33500Y313000
X33500Y305130
X33500Y297250
X33500Y289380
X33500Y281500
R02Y-7870
X33500Y257880
X33500Y250010
X33500Y242130
X33500Y234260
X33500Y226390
X33500Y218510
X33500Y210640
X33500Y202760
X33500Y194890
X33500Y187020
X33500Y179140
X33500Y171270
X33500Y163390
X33500Y155520
X33500Y147650
X33500Y139770
X33500Y131900
X33500Y124020
X33500Y116150
X33500Y108280
X33500Y100400
X33500Y92530
X33500Y84650
R02Y-7870
X33500Y61030
X63000Y50130
X63000Y58000
X70870Y58000
X78750Y58000
X70870Y50130
X78750Y50130
X86620Y50130
X86620Y58000
X81000Y115500
X81000Y125500
R03Y10000
X81500Y225000
R04Y10000
X94500Y58000
X94500Y50130
X102370Y50130
X102370Y58000
X110240Y58000
X118120Y58000
X118120Y50130
X110240Y50130
X125990Y50130
X125990Y58000
X133870Y58000
X133870Y50130
X141740Y50130
X149610Y50130
X149610Y58000
X141740Y58000
X157490Y58000
X157490Y50130
X165360Y50130
X165360Y58000
X173240Y58000
X173240Y50130
X181110Y50130
X188980Y50130
X181110Y58000
X188980Y58000
X196860Y58000
X196860Y50130
X204730Y50130
X204730Y58000
X212610Y50130
X212610Y58000
X220480Y58000
X228350Y58000
X220480Y50130
X228350Y50130
X236230Y50130
X236230Y58000
X244100Y58000
X244100Y50130
X251980Y50130
X259850Y50130
X251980Y58000
R02X7870
X267720Y50130
X275600Y50130
X275600Y58000
X283470Y58000
X283470Y50130
X299220Y50130
X291350Y50130
X291350Y58000
X299220Y58000
X307090Y58000
X307090Y50130
X314970Y50130
X314970Y58000
X322840Y58000
X322840Y50130
X330720Y50130
X338590Y50130
X330720Y58000
X338590Y58000
X346460Y58000
X346460Y50130
X354340Y50130
X354340Y58000
X362210Y58000
X362210Y50130
X370090Y50130
X370090Y58000
X400630Y61030
X408500Y61030
X408500Y68910
X400630Y68910
X400630Y76780
X408500Y76780
X400630Y84650
X408500Y84650
X408500Y92530
X400630Y92530
X400630Y100400
X408500Y100400
X400630Y108280
X408500Y108280
X400630Y116150
X408500Y116150
X408500Y124020
X400630Y124020
X408500Y131900
X400630Y131900
X400630Y139770
X408500Y139770
X408500Y147650
X400630Y147650
X400630Y155520
X408500Y155520
X400630Y163390
X408500Y163390
X408500Y171270
X400630Y171270
X408500Y179140
X400630Y179140
X400630Y187020
X408500Y187020
X408500Y194890
X400630Y194890
X400630Y202760
X408500Y202760
X400630Y210640
X408500Y210640
X400630Y218510
X408500Y218510
X408500Y226390
X400630Y226390
X400630Y234260
X408500Y234260
X400630Y242130
X408500Y242130
X408500Y250010
X400630Y250010
X408500Y257880
X400630Y257880
X408500Y265760
X400630Y265760
X400630Y273630
X408500Y273630
X400630Y281500
X408500Y281500
X400630Y289380
X408500Y289380
X408500Y297250
X400630Y297250
X408500Y305130
X400630Y305130
X408500Y313000
X400630Y313000
T07
X166000Y432500
X166000Y440370
X171000Y444500
X175850Y440320
X171000Y436630
X175850Y432500
X171000Y428750
X171000Y420880
X294500Y418880
X294500Y426750
X294500Y434630
X294500Y442500
T08
X221000Y414000
R03X10000
X256000Y424000
R03X-10000
X213600Y462300
X223600Y468300
X253400Y462300
X263400Y468300
T09
X22500Y47500
X40000Y359500
X113500Y226000
X113500Y217000
X192500Y220500
X190500Y177000
X250000Y156500
X250000Y164000
X212500Y396500
X318000Y477500
X326000Y357000
X318500Y249500
X327000Y224000
X327500Y194000
X328500Y175000
X322500Y169000
X329500Y82500
X319500Y82500
X412500Y47000
X370500Y175000
X371000Y194000
X368000Y212500
X360500Y249500
X366000Y298000
X366000Y308000
X386000Y471500
T10
X131500Y16000
X145280Y16000
X159060Y16000
X358000Y16000
X371780Y16000
X385560Y16000
T11
X159660Y419810
X159660Y447370
X182340Y447370
X182340Y419810
X283160Y417810
X305840Y417810
X305840Y445370
X283160Y445370
T12
X207700Y437000
X269200Y437000
T13
X147230Y450900
X194630Y450900
T14
X20000Y20000
X20000Y340000
X20000Y472100
X413100Y472100
X413100Y340000
X413100Y20000
T15
X281860Y175650
X238150Y249350
X126160Y471540
X108840Y471540
T16
X125860Y84500
X205140Y84500
T17
X228150Y175650
X301860Y175650
X301860Y249350
X228150Y249350
T18
X81000Y90500
X81500Y200000
T19
X216000Y449000
X261000Y449000
M30
