G04 ================== begin FILE IDENTIFICATION RECORD ==================*
G04 Layout Name:  tms570_hdk_reve.brd*
G04 Film Name:    TSM*
G04 File Format:  Gerber RS274X*
G04 File Origin:  Cadence Allegro 16.3-p003*
G04 Origin Date:  Sun Jan 22 16:28:01 2012*
G04 *
G04 Layer:  VIA CLASS/SOLDERMASK_TOP*
G04 Layer:  PIN/SOLDERMASK_TOP*
G04 Layer:  BOARD GEOMETRY/TOOLING_CORNERS*
G04 Layer:  BOARD GEOMETRY/SOLDERMASK_TOP*
G04 *
G04 Offset:    (0.00 0.00)*
G04 Mirror:    No*
G04 Mode:      Positive*
G04 Rotation:  0*
G04 FullContactRelief:  No*
G04 UndefLineWidth:     5.00*
G04 ================== end FILE IDENTIFICATION RECORD ====================*
%FSLAX55Y55*MOIN*%
%IR0*IPPOS*OFA0.00000B0.00000*MIA0B0*SFA1.00000B1.00000*%
%ADD36R,.06X.11*%
%ADD95O,.15X.07*%
%ADD93O,.07X.15*%
%ADD41R,.105X.022*%
%ADD94O,.17X.07*%
%ADD48R,.19X.022*%
%ADD24R,.145X.05*%
%ADD72C,.021*%
%ADD98R,.07X.138*%
%ADD73C,.015*%
%ADD15C,.06*%
%ADD52C,.016*%
%ADD37R,.084X.107*%
%ADD79R,.087X.105*%
%AMMACRO65*
21,1,.039,.01,0.0,0.0,135.*
1,1,.039,.003536,.003536*
1,1,.039,-.003536,-.003536*%
%ADD65MACRO65*%
%ADD40C,.08*%
%ADD71C,.09*%
%ADD55C,.036*%
%ADD14C,.064*%
%ADD89R,.155X.085*%
%ADD70C,.0182*%
%ADD17C,.029*%
%ADD92R,.014X.014*%
%ADD67C,.084*%
%ADD28C,.075*%
%ADD60R,.129X.069*%
%ADD58C,.085*%
%ADD16R,.06X.06*%
%ADD88R,.069X.129*%
%ADD39R,.08X.08*%
%ADD87R,.064X.064*%
%ADD74C,.0197*%
%ADD85R,.113X.107*%
%ADD50R,.033X.011*%
%ADD45R,.022X.022*%
%ADD83R,.107X.113*%
%ADD76R,.021X.024*%
%ADD49R,.011X.033*%
%ADD57R,.015X.022*%
%ADD75R,.014X.024*%
%ADD56R,.022X.015*%
%ADD29R,.033X.014*%
%ADD80R,.014X.033*%
%ADD42R,.018X.012*%
%ADD23R,.054X.021*%
%ADD20R,.031X.043*%
%ADD97R,.177X.102*%
%ADD31R,.039X.02*%
%ADD69C,.105*%
%ADD59C,.15*%
%ADD81O,.074X.044*%
%ADD96R,.052X.028*%
%ADD82O,.044X.074*%
%ADD61O,.016X.084*%
%ADD32R,.016X.036*%
%ADD22R,.054X.034*%
%ADD18C,.125*%
%ADD33R,.0147X.032*%
%ADD26R,.071X.055*%
%ADD19R,.032X.048*%
%ADD91R,.054X.019*%
%ADD66C,.136*%
%ADD44O,.064X.039*%
%ADD27R,.031X.059*%
%ADD13C,.005*%
%ADD62R,.039X.035*%
%ADD47R,.015X.094*%
%ADD35O,.039X.064*%
%ADD10C,.254*%
%ADD86R,.075X.045*%
%ADD78R,.079X.032*%
%ADD68R,.047X.045*%
%ADD63R,.047X.036*%
%ADD30R,.047X.055*%
%ADD90R,.045X.075*%
%AMMACRO64*
21,1,.039,.01,0.0,0.0,45.*
1,1,.039,.003536,-.003536*
1,1,.039,-.003536,.003536*%
%ADD64MACRO64*%
%ADD53R,.0147X.064*%
%ADD51R,.047X.047*%
%ADD46R,.074X.029*%
%ADD34O,.049X.039*%
%ADD12R,.032X.079*%
%ADD84R,.064X.084*%
%ADD43R,.064X.0147*%
%ADD25O,.039X.049*%
%ADD21R,.055X.075*%
%ADD38R,.024X.098*%
%ADD54O,.029X.079*%
%ADD77R,.079X.098*%
%ADD11R,.098X.079*%
%ADD99C,.025*%
G75*
%LPD*%
G75*
G36*
G01X261118Y341815D02*
X265055Y341815D01*
X265055Y341047D01*
X271945Y341047D01*
X271945Y341815D01*
X275882Y341815D01*
X275882Y342720D01*
X271945Y342720D01*
X271945Y345280D01*
X275882Y345280D01*
X275882Y346185D01*
X271945Y346185D01*
X271945Y346953D01*
X265055Y346953D01*
X265055Y346185D01*
X261118Y346185D01*
X261118Y345280D01*
X265055Y345280D01*
X265055Y342720D01*
X261118Y342720D01*
X261118Y341815D01*
G37*
G36*
G01X368618Y270315D02*
X372555Y270315D01*
X372555Y269547D01*
X379445Y269547D01*
X379445Y270315D01*
X383382Y270315D01*
X383382Y271220D01*
X379445Y271220D01*
X379445Y273780D01*
X383382Y273780D01*
X383382Y274685D01*
X379445Y274685D01*
X379445Y275453D01*
X372555Y275453D01*
X372555Y274685D01*
X368618Y274685D01*
X368618Y273780D01*
X372555Y273780D01*
X372555Y271220D01*
X368618Y271220D01*
X368618Y270315D01*
G37*
G36*
G01X142480Y133965D02*
X142480Y142035D01*
X152520Y142035D01*
X152520Y133965D01*
X142480Y133965D01*
G37*
G36*
G01X142480Y160965D02*
X142480Y169035D01*
X152520Y169035D01*
X152520Y160965D01*
X142480Y160965D01*
G37*
G36*
G01X142480Y188965D02*
X142480Y197035D01*
X152520Y197035D01*
X152520Y188965D01*
X142480Y188965D01*
G37*
G36*
G01X257480Y305965D02*
X257480Y314035D01*
X267520Y314035D01*
X267520Y305965D01*
X257480Y305965D01*
G37*
G36*
G01X278980Y305965D02*
X278980Y314035D01*
X289020Y314035D01*
X289020Y305965D01*
X278980Y305965D01*
G37*
G36*
G01X309965Y97496D02*
X309965Y109504D01*
X318035Y109504D01*
X318035Y97496D01*
X309965Y97496D01*
G37*
G36*
G01X299980Y305965D02*
X299980Y314035D01*
X310020Y314035D01*
X310020Y305965D01*
X299980Y305965D01*
G37*
G54D10*
X20000Y20000D03*
X20000Y340000D03*
X20000Y472100D03*
X413100Y20000D03*
X413100Y340000D03*
X413100Y472100D03*
G54D11*
X11500Y386000D03*
X11500Y409000D03*
G54D20*
X42000Y390080D03*
X45750Y390080D03*
X38250Y399920D03*
X38250Y390080D03*
X42000Y399920D03*
X45750Y399920D03*
X41500Y423920D03*
X37750Y423920D03*
X45250Y414080D03*
X45250Y423920D03*
X41500Y414080D03*
X37750Y414080D03*
X171270Y403350D03*
X167520Y403350D03*
X175020Y393510D03*
X175020Y403350D03*
X171270Y393510D03*
X167520Y393510D03*
X288580Y384510D03*
X284830Y384510D03*
X281080Y384510D03*
X284830Y394350D03*
X281080Y394350D03*
X288580Y394350D03*
G54D21*
X37496Y486528D03*
X89268Y482591D03*
G54D12*
X3500Y386000D03*
X3500Y409000D03*
X19500Y386000D03*
X19500Y409000D03*
G54D30*
X115150Y301650D03*
X115150Y310350D03*
X121850Y301650D03*
X121850Y310350D03*
G54D13*
G01X15150Y-132500D02*
X15150Y-145000D01*
G01X11585Y-132500D02*
X18715Y-132500D01*
G01X23520Y-145000D02*
X23520Y-132500D01*
X27550Y-142917D01*
X31580Y-132500D01*
X31580Y-145000D01*
G01X36695Y-143334D02*
X37935Y-144375D01*
X39330Y-145000D01*
X40570Y-145000D01*
X41810Y-144375D01*
X42740Y-143334D01*
X43205Y-141875D01*
X42895Y-140417D01*
X42120Y-139167D01*
X40725Y-138333D01*
X38865Y-137917D01*
X37780Y-137083D01*
X37315Y-135625D01*
X37625Y-134167D01*
X38400Y-133125D01*
X39485Y-132500D01*
X40570Y-132500D01*
X41655Y-132917D01*
X42585Y-133958D01*
G01X61340Y-143125D02*
X62270Y-144167D01*
X63355Y-144792D01*
X64750Y-145000D01*
X66145Y-144583D01*
X67230Y-143750D01*
X68005Y-142292D01*
X68160Y-140625D01*
X67850Y-138958D01*
X67075Y-137917D01*
X65990Y-137083D01*
X64905Y-136875D01*
X63820Y-137083D01*
X62425Y-137917D01*
X62890Y-132500D01*
X67075Y-132500D01*
G01X76840Y-145000D02*
X77150Y-142292D01*
X77615Y-140000D01*
X78235Y-137917D01*
X79010Y-135625D01*
X80250Y-132500D01*
X74050Y-132500D01*
G01X89550Y-132500D02*
X88310Y-132917D01*
X87380Y-133958D01*
X86760Y-135208D01*
X86295Y-136875D01*
X86140Y-138750D01*
X86295Y-140625D01*
X86760Y-142292D01*
X87380Y-143542D01*
X88310Y-144583D01*
X89550Y-145000D01*
X90790Y-144583D01*
X91720Y-143542D01*
X92340Y-142292D01*
X92805Y-140625D01*
X92960Y-138750D01*
X92805Y-136875D01*
X92340Y-135208D01*
X91720Y-133958D01*
X90790Y-132917D01*
X89550Y-132500D01*
G01X98850Y-132500D02*
X98850Y-145000D01*
X105050Y-145000D01*
G01X111095Y-143334D02*
X112335Y-144375D01*
X113730Y-145000D01*
X114970Y-145000D01*
X116210Y-144375D01*
X117140Y-143334D01*
X117605Y-141875D01*
X117295Y-140417D01*
X116520Y-139167D01*
X115125Y-138333D01*
X113265Y-137917D01*
X112180Y-137083D01*
X111715Y-135625D01*
X112025Y-134167D01*
X112800Y-133125D01*
X113885Y-132500D01*
X114970Y-132500D01*
X116055Y-132917D01*
X116985Y-133958D01*
G01X123340Y-142500D02*
X124270Y-143959D01*
X125510Y-144792D01*
X126905Y-145000D01*
X128145Y-144792D01*
X129385Y-143750D01*
X130160Y-142500D01*
X130315Y-141250D01*
X130005Y-139792D01*
X128920Y-138750D01*
X127835Y-138333D01*
X126440Y-138333D01*
G01X127835Y-138333D02*
X128765Y-137708D01*
X129540Y-136667D01*
X129850Y-135417D01*
X129540Y-134167D01*
X128765Y-133125D01*
X127370Y-132500D01*
X125975Y-132708D01*
X124580Y-133542D01*
G01X136825Y-136667D02*
X141475Y-145000D01*
G01X141475Y-136667D02*
X136825Y-145000D01*
G01X148760Y-145417D02*
X154340Y-132500D01*
G01X160850Y-145000D02*
X160850Y-132500D01*
X164725Y-132500D01*
X165965Y-133125D01*
X166740Y-133958D01*
X167050Y-135625D01*
X166740Y-137292D01*
X165810Y-138333D01*
X164725Y-138958D01*
X160850Y-138958D01*
G01X164725Y-138958D02*
X167050Y-145000D01*
G01X172320Y-145000D02*
X172320Y-132500D01*
X176350Y-142917D01*
X180380Y-132500D01*
X180380Y-145000D01*
G01X185340Y-143125D02*
X186270Y-144167D01*
X187355Y-144792D01*
X188750Y-145000D01*
X190145Y-144583D01*
X191230Y-143750D01*
X192005Y-142292D01*
X192160Y-140625D01*
X191850Y-138958D01*
X191075Y-137917D01*
X189990Y-137083D01*
X188905Y-136875D01*
X187820Y-137083D01*
X186425Y-137917D01*
X186890Y-132500D01*
X191075Y-132500D01*
G01X198825Y-136667D02*
X203475Y-145000D01*
G01X203475Y-136667D02*
X198825Y-145000D01*
G01X229360Y-133542D02*
X228430Y-132917D01*
X227345Y-132500D01*
X226105Y-132500D01*
X224710Y-133125D01*
X223625Y-134167D01*
X222850Y-135417D01*
X222230Y-137500D01*
X222075Y-139375D01*
X222385Y-141250D01*
X222850Y-142500D01*
X223780Y-143750D01*
X224865Y-144583D01*
X225950Y-145000D01*
X227035Y-145000D01*
X228120Y-144583D01*
X229050Y-143959D01*
X229825Y-143125D01*
G01X235250Y-145000D02*
X235250Y-132500D01*
X238970Y-132500D01*
X240210Y-133125D01*
X241140Y-134583D01*
X241450Y-136250D01*
X241140Y-137917D01*
X240365Y-139167D01*
X238970Y-139792D01*
X235250Y-139792D01*
G01X247340Y-132500D02*
X247340Y-141458D01*
X247960Y-143334D01*
X249200Y-144583D01*
X250750Y-145000D01*
X252300Y-144583D01*
X253540Y-143334D01*
X254160Y-141458D01*
X254160Y-132500D01*
G01X278960Y-133542D02*
X278030Y-132917D01*
X276945Y-132500D01*
X275705Y-132500D01*
X274310Y-133125D01*
X273225Y-134167D01*
X272450Y-135417D01*
X271830Y-137500D01*
X271675Y-139375D01*
X271985Y-141250D01*
X272450Y-142500D01*
X273380Y-143750D01*
X274465Y-144583D01*
X275550Y-145000D01*
X276635Y-145000D01*
X277720Y-144583D01*
X278650Y-143959D01*
X279425Y-143125D01*
G01X284075Y-145000D02*
X287950Y-132500D01*
X291825Y-145000D01*
G01X290430Y-140625D02*
X285470Y-140625D01*
G01X297250Y-145000D02*
X297250Y-132500D01*
X301125Y-132500D01*
X302365Y-133125D01*
X303140Y-133958D01*
X303450Y-135625D01*
X303140Y-137292D01*
X302210Y-138333D01*
X301125Y-138958D01*
X297250Y-138958D01*
G01X301125Y-138958D02*
X303450Y-145000D01*
G01X309340Y-145000D02*
X309340Y-132500D01*
X312440Y-132500D01*
X313680Y-133125D01*
X314610Y-133958D01*
X315385Y-135208D01*
X316005Y-136667D01*
X316160Y-138750D01*
X316005Y-140833D01*
X315385Y-142292D01*
X314610Y-143542D01*
X313680Y-144375D01*
X312440Y-145000D01*
X309340Y-145000D01*
G01X334450Y-145000D02*
X334450Y-132500D01*
X338325Y-132500D01*
X339565Y-133125D01*
X340340Y-133958D01*
X340650Y-135625D01*
X340340Y-137292D01*
X339410Y-138333D01*
X338325Y-138958D01*
X334450Y-138958D01*
G01X338325Y-138958D02*
X340650Y-145000D01*
G01X353050Y-145000D02*
X346850Y-145000D01*
X346850Y-132500D01*
X353050Y-132500D01*
G01X350570Y-138542D02*
X346850Y-138542D01*
G01X358475Y-132500D02*
X362350Y-145000D01*
X366225Y-132500D01*
G01X390250Y-145000D02*
X384050Y-145000D01*
X384050Y-132500D01*
X390250Y-132500D01*
G01X387770Y-138542D02*
X384050Y-138542D01*
G01X411950Y-132500D02*
X410710Y-132917D01*
X409780Y-133958D01*
X409160Y-135208D01*
X408695Y-136875D01*
X408540Y-138750D01*
X408695Y-140625D01*
X409160Y-142292D01*
X409780Y-143542D01*
X410710Y-144583D01*
X411950Y-145000D01*
X413190Y-144583D01*
X414120Y-143542D01*
X414740Y-142292D01*
X415205Y-140625D01*
X415360Y-138750D01*
X415205Y-136875D01*
X414740Y-135208D01*
X414120Y-133958D01*
X413190Y-132917D01*
X411950Y-132500D01*
G01X424350Y-145000D02*
X424350Y-132500D01*
X422490Y-135000D01*
G01X422490Y-145000D02*
X426210Y-145000D01*
G01X433960Y-145417D02*
X439540Y-132500D01*
G01X446205Y-134583D02*
X447135Y-133334D01*
X448220Y-132708D01*
X449460Y-132500D01*
X451010Y-132917D01*
X452095Y-133958D01*
X452405Y-135208D01*
X452250Y-136459D01*
X451630Y-137500D01*
X448530Y-139583D01*
X447135Y-141042D01*
X446205Y-143125D01*
X445895Y-145000D01*
X452405Y-145000D01*
G01X461550Y-132500D02*
X460310Y-132917D01*
X459380Y-133958D01*
X458760Y-135208D01*
X458295Y-136875D01*
X458140Y-138750D01*
X458295Y-140625D01*
X458760Y-142292D01*
X459380Y-143542D01*
X460310Y-144583D01*
X461550Y-145000D01*
X462790Y-144583D01*
X463720Y-143542D01*
X464340Y-142292D01*
X464805Y-140625D01*
X464960Y-138750D01*
X464805Y-136875D01*
X464340Y-135208D01*
X463720Y-133958D01*
X462790Y-132917D01*
X461550Y-132500D01*
G01X471160Y-145417D02*
X476740Y-132500D01*
G01X483405Y-134583D02*
X484335Y-133334D01*
X485420Y-132708D01*
X486660Y-132500D01*
X488210Y-132917D01*
X489295Y-133958D01*
X489605Y-135208D01*
X489450Y-136459D01*
X488830Y-137500D01*
X485730Y-139583D01*
X484335Y-141042D01*
X483405Y-143125D01*
X483095Y-145000D01*
X489605Y-145000D01*
G01X498750Y-132500D02*
X497510Y-132917D01*
X496580Y-133958D01*
X495960Y-135208D01*
X495495Y-136875D01*
X495340Y-138750D01*
X495495Y-140625D01*
X495960Y-142292D01*
X496580Y-143542D01*
X497510Y-144583D01*
X498750Y-145000D01*
X499990Y-144583D01*
X500920Y-143542D01*
X501540Y-142292D01*
X502005Y-140625D01*
X502160Y-138750D01*
X502005Y-136875D01*
X501540Y-135208D01*
X500920Y-133958D01*
X499990Y-132917D01*
X498750Y-132500D01*
G01X511150Y-145000D02*
X511150Y-132500D01*
X509290Y-135000D01*
G01X509290Y-145000D02*
X513010Y-145000D01*
G01X520605Y-134583D02*
X521535Y-133334D01*
X522620Y-132708D01*
X523860Y-132500D01*
X525410Y-132917D01*
X526495Y-133958D01*
X526805Y-135208D01*
X526650Y-136459D01*
X526030Y-137500D01*
X522930Y-139583D01*
X521535Y-141042D01*
X520605Y-143125D01*
X520295Y-145000D01*
X526805Y-145000D01*
G01X14650Y-111500D02*
X14650Y-124000D01*
G01X11085Y-111500D02*
X18215Y-111500D01*
G01X24725Y-118375D02*
X29685Y-118375D01*
X29220Y-116917D01*
X28445Y-116083D01*
X27360Y-115667D01*
X26275Y-115875D01*
X25345Y-116500D01*
X24725Y-117958D01*
X24415Y-119209D01*
X24415Y-120458D01*
X24725Y-121708D01*
X25500Y-122959D01*
X26430Y-123792D01*
X27515Y-124000D01*
X28600Y-123583D01*
X29685Y-122334D01*
G01X37125Y-115667D02*
X41775Y-124000D01*
G01X41775Y-115667D02*
X37125Y-124000D01*
G01X54640Y-124000D02*
X54640Y-115667D01*
G01X54640Y-117125D02*
X54020Y-116292D01*
X53090Y-115875D01*
X52005Y-115667D01*
X50920Y-116083D01*
X49990Y-116917D01*
X49370Y-118167D01*
X49060Y-119833D01*
X49370Y-121500D01*
X49990Y-122750D01*
X50920Y-123583D01*
X52005Y-124000D01*
X53090Y-123792D01*
X54020Y-123167D01*
X54640Y-122334D01*
G01X61925Y-122542D02*
X62700Y-123375D01*
X63785Y-124000D01*
X64715Y-124000D01*
X65645Y-123583D01*
X66265Y-122959D01*
X66575Y-122125D01*
X66420Y-120875D01*
X65800Y-120250D01*
X63010Y-119000D01*
X62390Y-117542D01*
X62700Y-116500D01*
X63320Y-115875D01*
X64250Y-115667D01*
X65180Y-115875D01*
X66110Y-116500D01*
G01X87190Y-111500D02*
X90910Y-111500D01*
G01X89050Y-111500D02*
X89050Y-124000D01*
G01X87190Y-124000D02*
X90910Y-124000D01*
G01X98815Y-124000D02*
X98815Y-115667D01*
G01X98815Y-117750D02*
X99435Y-116708D01*
X100365Y-115875D01*
X101605Y-115667D01*
X102690Y-115875D01*
X103620Y-116708D01*
X104085Y-118167D01*
X104085Y-124000D01*
G01X111525Y-122542D02*
X112300Y-123375D01*
X113385Y-124000D01*
X114315Y-124000D01*
X115245Y-123583D01*
X115865Y-122959D01*
X116175Y-122125D01*
X116020Y-120875D01*
X115400Y-120250D01*
X112610Y-119000D01*
X111990Y-117542D01*
X112300Y-116500D01*
X112920Y-115875D01*
X113850Y-115667D01*
X114780Y-115875D01*
X115710Y-116500D01*
G01X126250Y-111500D02*
X126250Y-124000D01*
G01X124080Y-115667D02*
X128420Y-115667D01*
G01X136480Y-124000D02*
X136480Y-115667D01*
G01X136480Y-117333D02*
X137255Y-116500D01*
X138030Y-115875D01*
X139115Y-115667D01*
X139890Y-115875D01*
X140820Y-116500D01*
G01X148415Y-115667D02*
X148415Y-121500D01*
X149035Y-122959D01*
X149965Y-123792D01*
X151050Y-124000D01*
X152135Y-123792D01*
X153065Y-122959D01*
X153685Y-121500D01*
G01X153685Y-124000D02*
X153685Y-115667D01*
G01X158800Y-124000D02*
X158800Y-115667D01*
G01X158800Y-117958D02*
X159265Y-116917D01*
X160040Y-116083D01*
X161125Y-115667D01*
X162210Y-116083D01*
X162985Y-116917D01*
X163450Y-117958D01*
X163450Y-124000D01*
G01X163450Y-117958D02*
X163915Y-116917D01*
X164690Y-116083D01*
X165775Y-115667D01*
X166860Y-116083D01*
X167635Y-116917D01*
X168100Y-118167D01*
X168100Y-124000D01*
G01X173525Y-118375D02*
X178485Y-118375D01*
X178020Y-116917D01*
X177245Y-116083D01*
X176160Y-115667D01*
X175075Y-115875D01*
X174145Y-116500D01*
X173525Y-117958D01*
X173215Y-119209D01*
X173215Y-120458D01*
X173525Y-121708D01*
X174300Y-122959D01*
X175230Y-123792D01*
X176315Y-124000D01*
X177400Y-123583D01*
X178485Y-122334D01*
G01X185615Y-124000D02*
X185615Y-115667D01*
G01X185615Y-117750D02*
X186235Y-116708D01*
X187165Y-115875D01*
X188405Y-115667D01*
X189490Y-115875D01*
X190420Y-116708D01*
X190885Y-118167D01*
X190885Y-124000D01*
G01X200650Y-111500D02*
X200650Y-124000D01*
G01X198480Y-115667D02*
X202820Y-115667D01*
G01X210725Y-122542D02*
X211500Y-123375D01*
X212585Y-124000D01*
X213515Y-124000D01*
X214445Y-123583D01*
X215065Y-122959D01*
X215375Y-122125D01*
X215220Y-120875D01*
X214600Y-120250D01*
X211810Y-119000D01*
X211190Y-117542D01*
X211500Y-116500D01*
X212120Y-115875D01*
X213050Y-115667D01*
X213980Y-115875D01*
X214910Y-116500D01*
G01X235990Y-111500D02*
X239710Y-111500D01*
G01X237850Y-111500D02*
X237850Y-124000D01*
G01X235990Y-124000D02*
X239710Y-124000D01*
G01X247615Y-124000D02*
X247615Y-115667D01*
G01X247615Y-117750D02*
X248235Y-116708D01*
X249165Y-115875D01*
X250405Y-115667D01*
X251490Y-115875D01*
X252420Y-116708D01*
X252885Y-118167D01*
X252885Y-124000D01*
G01X265130Y-116708D02*
X264045Y-115875D01*
X263115Y-115667D01*
X261875Y-116083D01*
X260945Y-116917D01*
X260325Y-118375D01*
X260170Y-119833D01*
X260325Y-121292D01*
X260945Y-122542D01*
X261875Y-123583D01*
X263115Y-124000D01*
X264200Y-123583D01*
X265130Y-122750D01*
G01X275050Y-124417D02*
X274740Y-124208D01*
X274740Y-123792D01*
X275050Y-123583D01*
X275360Y-123792D01*
X275360Y-124208D01*
X275050Y-124417D01*
G01X13895Y-187834D02*
X15135Y-188875D01*
X16530Y-189500D01*
X17770Y-189500D01*
X19010Y-188875D01*
X19940Y-187834D01*
X20405Y-186375D01*
X20095Y-184917D01*
X19320Y-183667D01*
X17925Y-182833D01*
X16065Y-182417D01*
X14980Y-181583D01*
X14515Y-180125D01*
X14825Y-178667D01*
X15600Y-177625D01*
X16685Y-177000D01*
X17770Y-177000D01*
X18855Y-177417D01*
X19785Y-178458D01*
G01X26295Y-189500D02*
X26295Y-177000D01*
G01X32805Y-177000D02*
X32805Y-189500D01*
G01X32805Y-183250D02*
X26295Y-183250D01*
G01X45050Y-189500D02*
X38850Y-189500D01*
X38850Y-177000D01*
X45050Y-177000D01*
G01X42570Y-183042D02*
X38850Y-183042D01*
G01X57450Y-189500D02*
X51250Y-189500D01*
X51250Y-177000D01*
X57450Y-177000D01*
G01X54970Y-183042D02*
X51250Y-183042D01*
G01X66750Y-177000D02*
X66750Y-189500D01*
G01X63185Y-177000D02*
X70315Y-177000D01*
G01X91550Y-189500D02*
X91550Y-177000D01*
X89690Y-179500D01*
G01X89690Y-189500D02*
X93410Y-189500D01*
G01X103950Y-177000D02*
X102710Y-177417D01*
X101780Y-178458D01*
X101160Y-179708D01*
X100695Y-181375D01*
X100540Y-183250D01*
X100695Y-185125D01*
X101160Y-186792D01*
X101780Y-188042D01*
X102710Y-189083D01*
X103950Y-189500D01*
X105190Y-189083D01*
X106120Y-188042D01*
X106740Y-186792D01*
X107205Y-185125D01*
X107360Y-183250D01*
X107205Y-181375D01*
X106740Y-179708D01*
X106120Y-178458D01*
X105190Y-177417D01*
X103950Y-177000D01*
G01X128750Y-189500D02*
X127510Y-189292D01*
X126425Y-188459D01*
X125495Y-187208D01*
X124875Y-185750D01*
X124565Y-184083D01*
X124565Y-182417D01*
X124875Y-180750D01*
X125495Y-179292D01*
X126425Y-178042D01*
X127510Y-177208D01*
X128750Y-177000D01*
X129990Y-177208D01*
X131075Y-178042D01*
X132005Y-179292D01*
X132625Y-180750D01*
X132935Y-182417D01*
X132935Y-184083D01*
X132625Y-185750D01*
X132005Y-187208D01*
X131075Y-188459D01*
X129990Y-189292D01*
X128750Y-189500D01*
G01X138205Y-189500D02*
X138205Y-177000D01*
X144095Y-177000D01*
G01X141925Y-183042D02*
X138205Y-183042D01*
G01X165950Y-189500D02*
X165950Y-177000D01*
X164090Y-179500D01*
G01X164090Y-189500D02*
X167810Y-189500D01*
G01X180210Y-189500D02*
X180210Y-177000D01*
X174475Y-185958D01*
X182225Y-185958D01*
G01X202375Y-193667D02*
X200825Y-191583D01*
X200050Y-189500D01*
X200050Y-181167D01*
X200825Y-179083D01*
X202375Y-177000D01*
G01X212295Y-187834D02*
X213535Y-188875D01*
X214930Y-189500D01*
X216170Y-189500D01*
X217410Y-188875D01*
X218340Y-187834D01*
X218805Y-186375D01*
X218495Y-184917D01*
X217720Y-183667D01*
X216325Y-182833D01*
X214465Y-182417D01*
X213380Y-181583D01*
X212915Y-180125D01*
X213225Y-178667D01*
X214000Y-177625D01*
X215085Y-177000D01*
X216170Y-177000D01*
X217255Y-177417D01*
X218185Y-178458D01*
G01X227950Y-189500D02*
X226710Y-189292D01*
X225625Y-188459D01*
X224695Y-187208D01*
X224075Y-185750D01*
X223765Y-184083D01*
X223765Y-182417D01*
X224075Y-180750D01*
X224695Y-179292D01*
X225625Y-178042D01*
X226710Y-177208D01*
X227950Y-177000D01*
X229190Y-177208D01*
X230275Y-178042D01*
X231205Y-179292D01*
X231825Y-180750D01*
X232135Y-182417D01*
X232135Y-184083D01*
X231825Y-185750D01*
X231205Y-187208D01*
X230275Y-188459D01*
X229190Y-189292D01*
X227950Y-189500D01*
G01X237250Y-177000D02*
X237250Y-189500D01*
X243450Y-189500D01*
G01X249340Y-189500D02*
X249340Y-177000D01*
X252440Y-177000D01*
X253680Y-177625D01*
X254610Y-178458D01*
X255385Y-179708D01*
X256005Y-181167D01*
X256160Y-183250D01*
X256005Y-185333D01*
X255385Y-186792D01*
X254610Y-188042D01*
X253680Y-188875D01*
X252440Y-189500D01*
X249340Y-189500D01*
G01X268250Y-189500D02*
X262050Y-189500D01*
X262050Y-177000D01*
X268250Y-177000D01*
G01X265770Y-183042D02*
X262050Y-183042D01*
G01X274450Y-189500D02*
X274450Y-177000D01*
X278325Y-177000D01*
X279565Y-177625D01*
X280340Y-178458D01*
X280650Y-180125D01*
X280340Y-181792D01*
X279410Y-182833D01*
X278325Y-183458D01*
X274450Y-183458D01*
G01X278325Y-183458D02*
X280650Y-189500D01*
G01X285920Y-189500D02*
X285920Y-177000D01*
X289950Y-187417D01*
X293980Y-177000D01*
X293980Y-189500D01*
G01X298475Y-189500D02*
X302350Y-177000D01*
X306225Y-189500D01*
G01X304830Y-185125D02*
X299870Y-185125D01*
G01X311495Y-187834D02*
X312735Y-188875D01*
X314130Y-189500D01*
X315370Y-189500D01*
X316610Y-188875D01*
X317540Y-187834D01*
X318005Y-186375D01*
X317695Y-184917D01*
X316920Y-183667D01*
X315525Y-182833D01*
X313665Y-182417D01*
X312580Y-181583D01*
X312115Y-180125D01*
X312425Y-178667D01*
X313200Y-177625D01*
X314285Y-177000D01*
X315370Y-177000D01*
X316455Y-177417D01*
X317385Y-178458D01*
G01X323740Y-189500D02*
X323740Y-177000D01*
G01X329630Y-177000D02*
X323740Y-184709D01*
G01X330560Y-189500D02*
X326375Y-181167D01*
G01X355360Y-178042D02*
X354430Y-177417D01*
X353345Y-177000D01*
X352105Y-177000D01*
X350710Y-177625D01*
X349625Y-178667D01*
X348850Y-179917D01*
X348230Y-182000D01*
X348075Y-183875D01*
X348385Y-185750D01*
X348850Y-187000D01*
X349780Y-188250D01*
X350865Y-189083D01*
X351950Y-189500D01*
X353035Y-189500D01*
X354120Y-189083D01*
X355050Y-188459D01*
X355825Y-187625D01*
G01X364350Y-189500D02*
X363110Y-189292D01*
X362025Y-188459D01*
X361095Y-187208D01*
X360475Y-185750D01*
X360165Y-184083D01*
X360165Y-182417D01*
X360475Y-180750D01*
X361095Y-179292D01*
X362025Y-178042D01*
X363110Y-177208D01*
X364350Y-177000D01*
X365590Y-177208D01*
X366675Y-178042D01*
X367605Y-179292D01*
X368225Y-180750D01*
X368535Y-182417D01*
X368535Y-184083D01*
X368225Y-185750D01*
X367605Y-187208D01*
X366675Y-188459D01*
X365590Y-189292D01*
X364350Y-189500D01*
G01X372720Y-189500D02*
X372720Y-177000D01*
X376750Y-187417D01*
X380780Y-177000D01*
X380780Y-189500D01*
G01X386050Y-189500D02*
X386050Y-177000D01*
X389770Y-177000D01*
X391010Y-177625D01*
X391940Y-179083D01*
X392250Y-180750D01*
X391940Y-182417D01*
X391165Y-183667D01*
X389770Y-184292D01*
X386050Y-184292D01*
G01X401550Y-189500D02*
X400310Y-189292D01*
X399225Y-188459D01*
X398295Y-187208D01*
X397675Y-185750D01*
X397365Y-184083D01*
X397365Y-182417D01*
X397675Y-180750D01*
X398295Y-179292D01*
X399225Y-178042D01*
X400310Y-177208D01*
X401550Y-177000D01*
X402790Y-177208D01*
X403875Y-178042D01*
X404805Y-179292D01*
X405425Y-180750D01*
X405735Y-182417D01*
X405735Y-184083D01*
X405425Y-185750D01*
X404805Y-187208D01*
X403875Y-188459D01*
X402790Y-189292D01*
X401550Y-189500D01*
G01X410385Y-189500D02*
X410385Y-177000D01*
X417515Y-189500D01*
X417515Y-177000D01*
G01X429450Y-189500D02*
X423250Y-189500D01*
X423250Y-177000D01*
X429450Y-177000D01*
G01X426970Y-183042D02*
X423250Y-183042D01*
G01X435185Y-189500D02*
X435185Y-177000D01*
X442315Y-189500D01*
X442315Y-177000D01*
G01X451150Y-177000D02*
X451150Y-189500D01*
G01X447585Y-177000D02*
X454715Y-177000D01*
G01X472695Y-187834D02*
X473935Y-188875D01*
X475330Y-189500D01*
X476570Y-189500D01*
X477810Y-188875D01*
X478740Y-187834D01*
X479205Y-186375D01*
X478895Y-184917D01*
X478120Y-183667D01*
X476725Y-182833D01*
X474865Y-182417D01*
X473780Y-181583D01*
X473315Y-180125D01*
X473625Y-178667D01*
X474400Y-177625D01*
X475485Y-177000D01*
X476570Y-177000D01*
X477655Y-177417D01*
X478585Y-178458D01*
G01X486490Y-177000D02*
X490210Y-177000D01*
G01X488350Y-177000D02*
X488350Y-189500D01*
G01X486490Y-189500D02*
X490210Y-189500D01*
G01X497340Y-189500D02*
X497340Y-177000D01*
X500440Y-177000D01*
X501680Y-177625D01*
X502610Y-178458D01*
X503385Y-179708D01*
X504005Y-181167D01*
X504160Y-183250D01*
X504005Y-185333D01*
X503385Y-186792D01*
X502610Y-188042D01*
X501680Y-188875D01*
X500440Y-189500D01*
X497340Y-189500D01*
G01X516250Y-189500D02*
X510050Y-189500D01*
X510050Y-177000D01*
X516250Y-177000D01*
G01X513770Y-183042D02*
X510050Y-183042D01*
G01X526325Y-193667D02*
X527875Y-191583D01*
X528650Y-189500D01*
X528650Y-181167D01*
X527875Y-179083D01*
X526325Y-177000D01*
X3500Y378500D03*
X3500Y416000D03*
X16031Y36999D03*
X16000Y361500D03*
X22500Y360000D03*
X30000Y362000D03*
X21500Y378000D03*
X25000Y378000D03*
X14000Y369500D03*
X22000Y402000D03*
X32000Y397000D03*
X26000Y401000D03*
X33000Y404000D03*
X20500Y424000D03*
X24400Y433498D03*
X30200Y441450D03*
X20000Y428300D03*
X27500Y430450D03*
X53000Y128000D03*
X48500Y138000D03*
X48500Y152000D03*
X53000Y148000D03*
X45250Y142749D03*
X48500Y141000D03*
X52000Y209000D03*
X52000Y225000D03*
X53122Y218878D03*
X51000Y221000D03*
X42619Y277500D03*
X51900Y297250D03*
X51892Y314538D03*
X44000Y316250D03*
X50500Y339500D03*
X44000Y333500D03*
X39500Y327000D03*
X44000Y323000D03*
X39500Y323000D03*
X40700Y352800D03*
X48300Y352300D03*
X33500Y381500D03*
X49500Y381500D03*
X45750Y385750D03*
X49000Y393000D03*
X40500Y404170D03*
X37000Y404000D03*
X42000Y386000D03*
X46000Y403700D03*
X34020Y416500D03*
X34088Y424483D03*
X41500Y409500D03*
X33950Y421000D03*
X53300Y424300D03*
X37750Y408750D03*
X63000Y10000D03*
X70290Y10210D03*
X63000Y25000D03*
X63000Y20000D03*
X63000Y15000D03*
X74000Y15000D03*
X74000Y20000D03*
X70290Y24210D03*
X71500Y32500D03*
X66500Y32500D03*
X67290Y39790D03*
X71500Y43090D03*
X64870Y65309D03*
X61755Y69235D03*
X62000Y98000D03*
X58500Y128000D03*
X58500Y133000D03*
X62000Y123000D03*
X62000Y118000D03*
X73500Y122500D03*
X58500Y123000D03*
X62000Y133000D03*
X62000Y128000D03*
X62000Y143000D03*
X58500Y138000D03*
X62000Y138000D03*
X54500Y139500D03*
X62000Y164500D03*
X62000Y158000D03*
X58500Y170897D03*
X64000Y196670D03*
X62000Y182500D03*
X67500Y190000D03*
X55500Y211048D03*
X62500Y222500D03*
X59000Y227500D03*
X62500Y237500D03*
X73000Y237000D03*
X59000Y237500D03*
X73000Y233500D03*
X62500Y232500D03*
X73000Y226500D03*
X55500Y232500D03*
X62500Y227500D03*
X59000Y257500D03*
X59000Y247500D03*
X59000Y242500D03*
X62500Y242500D03*
X59000Y252500D03*
X62500Y247500D03*
X62500Y252500D03*
X62500Y257500D03*
X62500Y267500D03*
X62500Y262500D03*
X74000Y275750D03*
X59000Y262500D03*
X59000Y267500D03*
X61500Y273500D03*
X67328Y292518D03*
X62853Y283500D03*
X54750Y284351D03*
X63957Y317750D03*
X60750Y304360D03*
X67000Y309000D03*
X57200Y311300D03*
X69500Y318000D03*
X59000Y338550D03*
X74000Y358000D03*
X73000Y348000D03*
X55500Y358000D03*
X55500Y343000D03*
X55500Y348000D03*
X55100Y379700D03*
X55500Y383000D03*
X55500Y373000D03*
X56000Y368000D03*
X55500Y403000D03*
X55500Y393000D03*
X56000Y388000D03*
X56000Y398000D03*
X54000Y418000D03*
X58500Y419900D03*
X55500Y413000D03*
X73165Y464800D03*
X64504Y465200D03*
X60173Y464400D03*
X68835Y466600D03*
X81500Y32500D03*
X76000Y32000D03*
X88750Y40749D03*
X88750Y33213D03*
X74990Y43090D03*
X81290Y39790D03*
X92000Y77000D03*
X75517Y154000D03*
X86251Y173897D03*
X91750Y176000D03*
X85000Y168000D03*
X78500Y176023D03*
X90500Y189000D03*
X92768Y185274D03*
X94312Y189438D03*
X92500Y205000D03*
X82000Y216750D03*
X93500Y210750D03*
X76000Y219000D03*
X88750Y233750D03*
X90500Y242750D03*
X87750Y254250D03*
X75700Y260500D03*
X77500Y273500D03*
X87900Y270838D03*
X86465Y294550D03*
X79050Y327450D03*
X74500Y328000D03*
X75000Y398000D03*
X75000Y390000D03*
X94200Y403000D03*
X75122Y385500D03*
X94500Y413000D03*
X75500Y413000D03*
X81827Y465300D03*
X77496Y466600D03*
X114490Y36100D03*
X103500Y66120D03*
X101000Y63500D03*
X105500Y128000D03*
X108500Y119000D03*
X100500Y118000D03*
X104500Y133000D03*
X100500Y133000D03*
X109000Y126500D03*
X100500Y138000D03*
X104500Y143000D03*
X104500Y138000D03*
X100500Y143000D03*
X105400Y158000D03*
X100500Y158000D03*
X99751Y183500D03*
X98500Y198000D03*
X114000Y205750D03*
X104000Y200500D03*
X98750Y218250D03*
X103500Y209750D03*
X101000Y232500D03*
X105000Y232500D03*
X105000Y227500D03*
X101100Y222500D03*
X105000Y237500D03*
X101000Y227500D03*
X105000Y257500D03*
X112238Y239962D03*
X105000Y247500D03*
X105000Y242500D03*
X101000Y242500D03*
X105000Y252500D03*
X101000Y252500D03*
X101000Y257500D03*
X104750Y274500D03*
X110500Y261500D03*
X113800Y261500D03*
X103000Y279901D03*
X101000Y262500D03*
X101000Y267500D03*
X105000Y262500D03*
X105000Y267500D03*
X115189Y268115D03*
X113000Y295000D03*
X104000Y284000D03*
X102262Y337000D03*
X99300Y333100D03*
X95500Y323000D03*
X95500Y333000D03*
X111000Y339500D03*
X115000Y340500D03*
X114440Y351060D03*
X114440Y345940D03*
X107500Y355000D03*
X95500Y343000D03*
X95500Y353000D03*
X95500Y363000D03*
X99500Y344500D03*
X98500Y348500D03*
X113000Y382500D03*
X95500Y379000D03*
X95500Y373000D03*
X111300Y369000D03*
X100500Y365000D03*
X95500Y383000D03*
X111000Y374600D03*
X112000Y395500D03*
X114000Y392550D03*
X113400Y403798D03*
X110000Y392550D03*
X95500Y393000D03*
X97891Y403799D03*
X105800Y403600D03*
X101600Y403500D03*
X109900Y404000D03*
X109500Y417950D03*
X106000Y418490D03*
X112800Y418000D03*
X96300Y417500D03*
X113000Y436500D03*
X102800Y441000D03*
X111970Y431800D03*
X108030Y431970D03*
X125000Y93500D03*
X135500Y77000D03*
X133650Y113200D03*
X134000Y118500D03*
X116400Y134600D03*
X115951Y118500D03*
X136000Y135047D03*
X136000Y141000D03*
X136000Y144500D03*
X127000Y149000D03*
X127000Y142500D03*
X136000Y168000D03*
X123530Y167530D03*
X136000Y171500D03*
X118000Y175500D03*
X132155Y164155D03*
X130000Y174500D03*
X136000Y162047D03*
X135000Y192000D03*
X136000Y196000D03*
X118939Y195498D03*
X122362Y195498D03*
X136000Y181500D03*
X129000Y191500D03*
X133650Y208350D03*
X117162Y208138D03*
X135210Y202395D03*
X119712Y210688D03*
X136000Y199500D03*
X129900Y208600D03*
X131900Y199900D03*
X119500Y232000D03*
X117539Y221629D03*
X119500Y236000D03*
X131259Y221884D03*
X134541Y221884D03*
X123798Y225000D03*
X120150Y224800D03*
X126050Y260000D03*
X119500Y244500D03*
X116920Y246500D03*
X119000Y259800D03*
X131000Y258700D03*
X127500Y255500D03*
X123500Y272500D03*
X130150Y275050D03*
X119000Y280500D03*
X129500Y280500D03*
X118612Y268115D03*
X121001Y291800D03*
X129500Y288500D03*
X125500Y289000D03*
X121000Y288500D03*
X129500Y284500D03*
X129500Y298000D03*
X129500Y295000D03*
X124000Y317000D03*
X129500Y310500D03*
X129640Y303360D03*
X132800Y333800D03*
X123000Y341500D03*
X121000Y326000D03*
X133600Y326200D03*
X126500Y358500D03*
X131940Y345940D03*
X116510Y353510D03*
X121936Y359714D03*
X116500Y348500D03*
X131940Y351060D03*
X128768Y356535D03*
X117000Y383400D03*
X126516Y382815D03*
X129749Y382751D03*
X122500Y386000D03*
X123000Y389500D03*
X122600Y404500D03*
X129500Y392000D03*
X129500Y396500D03*
X122500Y423000D03*
X130100Y411600D03*
X134500Y424000D03*
X117400Y417900D03*
X123200Y408700D03*
X122500Y427000D03*
X131000Y434050D03*
X125920Y433630D03*
X125000Y436000D03*
X120682Y453500D03*
X117500Y453500D03*
X154760Y73500D03*
X139000Y73500D03*
X142940Y73500D03*
X146880Y73500D03*
X150820Y73500D03*
X154660Y77000D03*
X138900Y77100D03*
X142840Y77000D03*
X146780Y77000D03*
X150720Y77000D03*
X142840Y113400D03*
X138689Y114848D03*
X154660Y113400D03*
X150720Y113400D03*
X146780Y113400D03*
X142940Y117000D03*
X154760Y117000D03*
X147000Y126500D03*
X150820Y117000D03*
X146602Y118500D03*
X143500Y126500D03*
X155000Y131500D03*
X140000Y126500D03*
X150500Y126500D03*
X147500Y138000D03*
X148750Y149000D03*
X147000Y153500D03*
X155000Y155500D03*
X137000Y153750D03*
X150500Y153500D03*
X147500Y165000D03*
X155000Y158500D03*
X145500Y176000D03*
X147500Y193000D03*
X147000Y181500D03*
X155000Y186500D03*
X143500Y181500D03*
X155000Y183500D03*
X140000Y181500D03*
X150500Y181500D03*
X138000Y203500D03*
X152410Y207794D03*
X149000Y203641D03*
X155500Y213000D03*
X155500Y200000D03*
X145500Y203592D03*
X153000Y203500D03*
X141500Y203500D03*
X153500Y227500D03*
X155137Y224150D03*
X137500Y226500D03*
X142000Y255500D03*
X137000Y274950D03*
X148640Y266140D03*
X142000Y260500D03*
X148500Y278000D03*
X146670Y260170D03*
X144700Y266200D03*
X153500Y278000D03*
X152800Y260749D03*
X140500Y287500D03*
X140500Y295500D03*
X140420Y299420D03*
X140450Y291550D03*
X156500Y299500D03*
X140500Y283670D03*
X154000Y281500D03*
X154000Y285500D03*
X142750Y311640D03*
X148000Y309500D03*
X156500Y304000D03*
X140500Y308500D03*
X144000Y308500D03*
X139500Y311590D03*
X152500Y311000D03*
X140480Y303250D03*
X152580Y322500D03*
X150500Y339500D03*
X145000Y339500D03*
X140000Y339500D03*
X140000Y327550D03*
X150000Y327550D03*
X145000Y327550D03*
X155000Y327550D03*
X144000Y362000D03*
X150000Y348500D03*
X140000Y348500D03*
X155000Y348500D03*
X140400Y363100D03*
X150480Y381020D03*
X154500Y368000D03*
X146500Y374788D03*
X150000Y368000D03*
X152000Y398500D03*
X148520Y401980D03*
X137000Y400500D03*
X146000Y399000D03*
X155500Y395500D03*
X136500Y420000D03*
X140316Y416500D03*
X144500Y424000D03*
X144500Y412000D03*
X147000Y434000D03*
X143500Y475500D03*
X174810Y38000D03*
X174460Y73500D03*
X170520Y73500D03*
X166580Y73500D03*
X162640Y73500D03*
X158700Y73500D03*
X166500Y67000D03*
X174360Y77000D03*
X170420Y77000D03*
X166480Y77000D03*
X162540Y77000D03*
X158600Y77000D03*
X158600Y113400D03*
X174360Y113400D03*
X170420Y113400D03*
X166480Y113400D03*
X162540Y113400D03*
X165500Y96500D03*
X174000Y123000D03*
X168670Y122500D03*
X158700Y117000D03*
X174460Y117000D03*
X170520Y117000D03*
X166580Y117000D03*
X162640Y117000D03*
X162500Y142500D03*
X165000Y150000D03*
X170500Y155000D03*
X159000Y158000D03*
X164500Y167953D03*
X177524Y167477D03*
X177000Y198000D03*
X162000Y185000D03*
X165293Y190596D03*
X164500Y198000D03*
X164500Y193490D03*
X161000Y180000D03*
X172500Y190988D03*
X166000Y213000D03*
X160000Y200000D03*
X170750Y213000D03*
X159000Y213000D03*
X162500Y213000D03*
X175500Y224000D03*
X160800Y223597D03*
X172500Y254500D03*
X175912Y243413D03*
X173000Y278000D03*
X169000Y278000D03*
X171500Y260500D03*
X158480Y277980D03*
X168500Y266500D03*
X166500Y280250D03*
X165000Y260500D03*
X172500Y266000D03*
X158750Y283500D03*
X166000Y294500D03*
X174000Y297450D03*
X173500Y282500D03*
X174000Y289000D03*
X174000Y292500D03*
X160000Y288000D03*
X160500Y300000D03*
X170000Y294500D03*
X170500Y289000D03*
X166000Y299500D03*
X159250Y291500D03*
X174000Y300700D03*
X159400Y295250D03*
X170400Y282442D03*
X166250Y289500D03*
X158480Y311640D03*
X171500Y311500D03*
X174500Y310000D03*
X161500Y305500D03*
X168000Y311500D03*
X166900Y306361D03*
X172500Y341500D03*
X173540Y322602D03*
X167000Y327702D03*
X171500Y329000D03*
X165000Y341500D03*
X177000Y322500D03*
X170510Y359000D03*
X167500Y347500D03*
X159500Y345000D03*
X165500Y369000D03*
X165500Y374000D03*
X159000Y373500D03*
X162000Y374500D03*
X169500Y373500D03*
X171615Y378288D03*
X171615Y381711D03*
X164000Y401000D03*
X171270Y389230D03*
X167520Y389520D03*
X158000Y389500D03*
X175020Y389500D03*
X167500Y408500D03*
X172500Y408500D03*
X195000Y3950D03*
X185000Y3950D03*
X185000Y16000D03*
X193500Y16000D03*
X197000Y16000D03*
X190000Y16000D03*
X195000Y38500D03*
X190000Y38500D03*
X185000Y38000D03*
X178300Y73500D03*
X194000Y73500D03*
X182240Y73500D03*
X186180Y73500D03*
X190000Y73500D03*
X184220Y76500D03*
X180280Y76500D03*
X190120Y77000D03*
X194060Y77000D03*
X194060Y113440D03*
X180280Y113500D03*
X190500Y96500D03*
X190120Y113400D03*
X186180Y113400D03*
X182240Y117000D03*
X197500Y133500D03*
X190000Y117000D03*
X178300Y117000D03*
X194000Y117000D03*
X186000Y117000D03*
X197104Y153104D03*
X186888Y153500D03*
X190311Y153500D03*
X187688Y168000D03*
X191111Y168000D03*
X195000Y162500D03*
X189500Y161000D03*
X197000Y170000D03*
X182500Y176500D03*
X182500Y168500D03*
X182500Y173500D03*
X187500Y181500D03*
X182500Y180000D03*
X181750Y188500D03*
X178470Y192000D03*
X182500Y183000D03*
X178000Y211058D03*
X195751Y205950D03*
X184000Y201000D03*
X196000Y217500D03*
X188800Y217300D03*
X197500Y226000D03*
X192000Y232000D03*
X180000Y230000D03*
X190500Y229000D03*
X198000Y232500D03*
X193500Y237500D03*
X179300Y235400D03*
X185500Y244000D03*
X180000Y247500D03*
X190000Y251000D03*
X193250Y244700D03*
X189585Y246085D03*
X180000Y252000D03*
X193500Y256250D03*
X194666Y248259D03*
X193700Y251100D03*
X178000Y275500D03*
X181000Y261000D03*
X194000Y276000D03*
X193500Y267500D03*
X193000Y280360D03*
X185500Y275500D03*
X186000Y279500D03*
X181999Y267500D03*
X183000Y273500D03*
X185390Y287610D03*
X190293Y284491D03*
X194800Y297000D03*
X185687Y282790D03*
X185490Y296430D03*
X185500Y292500D03*
X192000Y289000D03*
X180961Y322000D03*
X196000Y312500D03*
X185200Y306300D03*
X188000Y322000D03*
X198000Y306500D03*
X194000Y339500D03*
X187500Y327500D03*
X196349Y328600D03*
X187700Y339300D03*
X192500Y324500D03*
X196900Y324500D03*
X186500Y359000D03*
X177789Y346984D03*
X181212Y346984D03*
X192300Y364700D03*
X196000Y372500D03*
X184000Y370000D03*
X185500Y378811D03*
X185500Y375388D03*
X188000Y371500D03*
X184500Y363500D03*
X194500Y402000D03*
X188500Y389500D03*
X187000Y394000D03*
X183000Y402000D03*
X194000Y427000D03*
X190000Y427000D03*
X205500Y12000D03*
X200000Y16000D03*
X200000Y38000D03*
X206000Y63000D03*
X199500Y79000D03*
X214000Y74500D03*
X217000Y77500D03*
X208000Y111500D03*
X205000Y112000D03*
X210000Y127500D03*
X217500Y131000D03*
X214500Y145500D03*
X214500Y141500D03*
X215000Y151800D03*
X203450Y149527D03*
X203000Y152500D03*
X211000Y168012D03*
X214000Y174500D03*
X210500Y160000D03*
X205500Y174000D03*
X205500Y177510D03*
X210500Y173000D03*
X205502Y159481D03*
X205500Y166000D03*
X201050Y186500D03*
X210000Y180000D03*
X211000Y192500D03*
X215000Y192500D03*
X206000Y187500D03*
X205000Y195500D03*
X201000Y193500D03*
X214800Y187500D03*
X206000Y192500D03*
X202300Y212200D03*
X205147Y211251D03*
X205900Y205800D03*
X203000Y201500D03*
X201000Y226000D03*
X204500Y232500D03*
X211000Y232500D03*
X211000Y237500D03*
X211000Y229000D03*
X207400Y229000D03*
X204000Y239000D03*
X202400Y221200D03*
X201000Y254500D03*
X215000Y247500D03*
X207500Y251000D03*
X214500Y258000D03*
X201000Y247500D03*
X204750Y247500D03*
X211500Y246000D03*
X212500Y279500D03*
X199000Y279000D03*
X201000Y265000D03*
X201000Y272000D03*
X213950Y273000D03*
X204500Y261500D03*
X207000Y277500D03*
X211500Y268000D03*
X216500Y279500D03*
X198297Y296250D03*
X205000Y296500D03*
X208710Y296420D03*
X216500Y296000D03*
X216500Y283500D03*
X198870Y283500D03*
X202800Y283500D03*
X212640Y283500D03*
X213500Y307500D03*
X204770Y312350D03*
X218000Y311500D03*
X214800Y311750D03*
X208710Y311500D03*
X204770Y309350D03*
X218200Y307250D03*
X211000Y342000D03*
X208500Y325000D03*
X202000Y328500D03*
X198500Y341950D03*
X218550Y324500D03*
X203250Y324500D03*
X214750Y339000D03*
X201000Y337500D03*
X202500Y342000D03*
X210500Y331500D03*
X201500Y332500D03*
X209000Y358670D03*
X204000Y358500D03*
X212000Y354500D03*
X203000Y353500D03*
X207000Y352000D03*
X212500Y351000D03*
X209000Y364580D03*
X204000Y365500D03*
X209000Y370480D03*
X209000Y374000D03*
X214460Y383960D03*
X200000Y397000D03*
X200500Y420500D03*
X206000Y460000D03*
X225000Y11000D03*
X231980Y29500D03*
X228970Y18030D03*
X236000Y30500D03*
X225488Y65750D03*
X221500Y65500D03*
X237000Y93250D03*
X235750Y90500D03*
X239000Y89500D03*
X223500Y81000D03*
X237500Y79000D03*
X236500Y100500D03*
X236500Y97000D03*
X235500Y115000D03*
X238073Y113456D03*
X219500Y104500D03*
X223000Y104500D03*
X235000Y119500D03*
X222500Y126000D03*
X219530Y134000D03*
X222500Y131000D03*
X224500Y134000D03*
X229500Y135000D03*
X222480Y147480D03*
X222500Y151500D03*
X229500Y155000D03*
X225470Y155000D03*
X229500Y151500D03*
X229550Y143500D03*
X229500Y140000D03*
X229549Y147387D03*
X236500Y157050D03*
X236500Y168050D03*
X221500Y162500D03*
X229250Y158651D03*
X238500Y177500D03*
X224000Y197500D03*
X227500Y194500D03*
X232000Y181500D03*
X220000Y192500D03*
X220500Y181500D03*
X220000Y189000D03*
X224000Y201500D03*
X224000Y205500D03*
X226200Y211058D03*
X221850Y228500D03*
X221450Y232500D03*
X228300Y228500D03*
X221000Y222000D03*
X226227Y235456D03*
X219000Y239500D03*
X238350Y260000D03*
X234000Y257500D03*
X225500Y260050D03*
X229000Y260050D03*
X236000Y279500D03*
X226000Y279500D03*
X229000Y271050D03*
X238350Y264000D03*
X232000Y279500D03*
X234000Y271500D03*
X221500Y264500D03*
X236500Y299500D03*
X222700Y296250D03*
X229500Y283500D03*
X231500Y295889D03*
X224450Y283500D03*
X236750Y295900D03*
X227000Y296000D03*
X237000Y304500D03*
X232500Y304430D03*
X227000Y306000D03*
X227500Y301500D03*
X234290Y311500D03*
X230360Y311500D03*
X238230Y311500D03*
X223000Y311250D03*
X238500Y332500D03*
X233000Y325000D03*
X236472Y326039D03*
X228000Y324500D03*
X232500Y332500D03*
X223000Y338000D03*
X220170Y347500D03*
X226500Y358000D03*
X226080Y347500D03*
X227500Y344000D03*
X238500Y358500D03*
X219827Y360590D03*
X234000Y344500D03*
X230000Y358000D03*
X233950Y347500D03*
X237000Y347500D03*
X233500Y358000D03*
X223000Y358000D03*
X231500Y372000D03*
X229000Y380500D03*
X220000Y372000D03*
X231500Y375500D03*
X220000Y365500D03*
X229940Y368740D03*
X226440Y368740D03*
X222940Y368740D03*
X220000Y375500D03*
X225000Y380500D03*
X233000Y380500D03*
X236500Y380500D03*
X238500Y363500D03*
X225000Y392500D03*
X220000Y395500D03*
X220000Y392500D03*
X236100Y392300D03*
X231500Y403000D03*
X235500Y403000D03*
X233090Y392300D03*
X227500Y403500D03*
X249650Y29575D03*
X251772Y25750D03*
X246550Y29000D03*
X251222Y36750D03*
X249100Y39250D03*
X242600Y37750D03*
X243500Y71500D03*
X247000Y71500D03*
X249500Y74000D03*
X253500Y71000D03*
X255500Y66500D03*
X249500Y68500D03*
X247000Y76500D03*
X250500Y90000D03*
X252500Y95238D03*
X240000Y96500D03*
X257000Y135480D03*
X247000Y134000D03*
X253500Y118500D03*
X254500Y146250D03*
X254500Y142500D03*
X258500Y146500D03*
X258490Y142490D03*
X246500Y142500D03*
X250500Y149000D03*
X246500Y149000D03*
X245977Y153204D03*
X241168Y154579D03*
X240480Y157500D03*
X245500Y171500D03*
X240500Y168050D03*
X244500Y168050D03*
X254450Y172000D03*
X253440Y178440D03*
X255300Y251050D03*
X250600Y251050D03*
X244500Y268000D03*
X244000Y271000D03*
X254500Y278500D03*
X248000Y268000D03*
X251500Y268000D03*
X258000Y271000D03*
X240500Y271000D03*
X247500Y271000D03*
X251000Y278500D03*
X255000Y268000D03*
X259547Y299047D03*
X254000Y294000D03*
X246000Y283000D03*
X242160Y296420D03*
X246100Y296420D03*
X249500Y308000D03*
X246500Y302000D03*
X241000Y305000D03*
X254500Y316000D03*
X259500Y307500D03*
X259500Y312000D03*
X246500Y305000D03*
X253500Y304000D03*
X257500Y332000D03*
X259500Y335000D03*
X255000Y335000D03*
X249000Y334000D03*
X242750Y325500D03*
X258500Y349000D03*
X253000Y359500D03*
X246000Y347050D03*
X255000Y362500D03*
X241830Y358500D03*
X259000Y345000D03*
X242000Y348010D03*
X247500Y355500D03*
X256000Y374500D03*
X253000Y382500D03*
X252920Y374420D03*
X256000Y378500D03*
X253000Y378500D03*
X240000Y368000D03*
X241000Y371500D03*
X252980Y370480D03*
X240000Y380500D03*
X253000Y367000D03*
X258500Y364500D03*
X240090Y392090D03*
X239500Y403000D03*
X243500Y402500D03*
X248000Y402000D03*
X256000Y400500D03*
X250500Y389200D03*
X250500Y392500D03*
X247000Y384000D03*
X243100Y392300D03*
X275400Y29250D03*
X261600Y29500D03*
X275000Y18000D03*
X270970Y39250D03*
X275000Y34000D03*
X261000Y70500D03*
X276000Y75250D03*
X273500Y77500D03*
X269500Y78000D03*
X263500Y79000D03*
X266500Y78500D03*
X271000Y89000D03*
X267000Y114000D03*
X267000Y109000D03*
X272500Y135000D03*
X269000Y132000D03*
X279500Y119000D03*
X266500Y126500D03*
X262500Y142500D03*
X266000Y142500D03*
X267752Y136515D03*
X280250Y146500D03*
X272400Y139000D03*
X274500Y143500D03*
X274000Y147500D03*
X266500Y170000D03*
X262500Y168500D03*
X279500Y169500D03*
X266550Y158000D03*
X266782Y163218D03*
X270500Y166500D03*
X276000Y177500D03*
X264900Y258400D03*
X262000Y260000D03*
X268600Y258050D03*
X262000Y264000D03*
X260500Y268500D03*
X278000Y277050D03*
X274000Y277050D03*
X274000Y265500D03*
X267000Y271500D03*
X278000Y265500D03*
X271000Y292000D03*
X263484Y299016D03*
X261000Y296000D03*
X275500Y299000D03*
X271000Y297000D03*
X280000Y281000D03*
X262500Y310000D03*
X269000Y320500D03*
X261516Y320484D03*
X265453Y320641D03*
X270276Y310276D03*
X276000Y316000D03*
X266000Y312000D03*
X266000Y307500D03*
X275500Y304500D03*
X271000Y324500D03*
X267000Y324500D03*
X272500Y331500D03*
X274500Y334000D03*
X262000Y332000D03*
X264661Y334661D03*
X278000Y332500D03*
X278000Y339000D03*
X269780Y334720D03*
X268500Y344000D03*
X261500Y349500D03*
X279000Y348500D03*
X279000Y355500D03*
X272500Y353500D03*
X269500Y359500D03*
X264661Y354161D03*
X260500Y354500D03*
X264000Y370500D03*
X275000Y383500D03*
X264000Y367000D03*
X269100Y383000D03*
X270500Y363500D03*
X274500Y363500D03*
X276000Y402500D03*
X262500Y395000D03*
X276500Y391000D03*
X276000Y405500D03*
X276500Y419000D03*
X276000Y460000D03*
X274000Y453500D03*
X286500Y12000D03*
X293700Y18751D03*
X301000Y33000D03*
X287000Y18500D03*
X297000Y26500D03*
X287000Y22500D03*
X297000Y39500D03*
X291500Y89000D03*
X295500Y74500D03*
X298000Y76500D03*
X294000Y79000D03*
X291900Y93000D03*
X287500Y89000D03*
X291900Y97000D03*
X291900Y100500D03*
X291900Y107500D03*
X291900Y104000D03*
X297700Y117500D03*
X288400Y135480D03*
X294300Y117500D03*
X288000Y119000D03*
X295500Y138625D03*
X288500Y144500D03*
X292000Y143000D03*
X283490Y142500D03*
X283750Y146250D03*
X301000Y144000D03*
X296500Y167500D03*
X284500Y170000D03*
X297500Y160000D03*
X300500Y215500D03*
X285500Y250500D03*
X295500Y258000D03*
X288990Y250480D03*
X301228Y241650D03*
X295000Y277000D03*
X282000Y265500D03*
X297500Y265000D03*
X300500Y276500D03*
X301000Y265000D03*
X294000Y265000D03*
X282000Y277050D03*
X290000Y265500D03*
X293000Y300000D03*
X281047Y299547D03*
X284984Y299516D03*
X295000Y295000D03*
X297000Y285500D03*
X283016Y296516D03*
X293500Y289000D03*
X288921Y299579D03*
X286953Y296547D03*
X284000Y310000D03*
X301000Y320500D03*
X297224Y315724D03*
X281000Y312000D03*
X281000Y307500D03*
X287500Y307500D03*
X287500Y312000D03*
X296500Y304500D03*
X288500Y338000D03*
X299500Y332500D03*
X283500Y339000D03*
X284830Y380000D03*
X299000Y372600D03*
X288580Y380080D03*
X281080Y380080D03*
X299000Y397400D03*
X292500Y398500D03*
X288580Y398500D03*
X284830Y398500D03*
X292500Y391000D03*
X281080Y398500D03*
X281000Y406500D03*
X292500Y406500D03*
X316841Y12125D03*
X320500Y3950D03*
X309000Y18500D03*
X320500Y16000D03*
X303000Y28500D03*
X311000Y28200D03*
X305470Y41000D03*
X320500Y38000D03*
X303000Y77500D03*
X307000Y77500D03*
X309500Y90000D03*
X307000Y85500D03*
X307000Y82000D03*
X310000Y76000D03*
X303000Y93000D03*
X314000Y103500D03*
X303000Y97079D03*
X303000Y100500D03*
X302700Y104000D03*
X302700Y107500D03*
X308000Y126000D03*
X314250Y118250D03*
X303000Y141000D03*
X314250Y149500D03*
X308750Y154500D03*
X302750Y162000D03*
X310500Y171000D03*
X308750Y160000D03*
X318500Y160000D03*
X307500Y163000D03*
X316000Y187000D03*
X301960Y193440D03*
X309000Y188000D03*
X301950Y190060D03*
X307000Y184000D03*
X308750Y191000D03*
X313500Y209300D03*
X311000Y216600D03*
X316500Y209000D03*
X305080Y228430D03*
X317200Y220200D03*
X308700Y228490D03*
X321300Y221600D03*
X313000Y233500D03*
X313000Y227500D03*
X308500Y260000D03*
X320500Y240550D03*
X310909Y250000D03*
X316500Y256500D03*
X311100Y253750D03*
X305000Y240873D03*
X310000Y241000D03*
X313000Y275000D03*
X308000Y278500D03*
X316500Y273500D03*
X321000Y276500D03*
X319000Y267500D03*
X309250Y272500D03*
X312000Y300030D03*
X302047Y300047D03*
X307953Y300047D03*
X309500Y296000D03*
X316000Y283500D03*
X320500Y301000D03*
X308000Y288500D03*
X302250Y281500D03*
X305000Y310000D03*
X305984Y320484D03*
X313000Y310500D03*
X302000Y312000D03*
X302000Y307500D03*
X308000Y307500D03*
X308000Y312000D03*
X309921Y320421D03*
X320000Y321500D03*
X302500Y323500D03*
X306500Y323500D03*
X316000Y337500D03*
X302286Y331385D03*
X310500Y335000D03*
X321850Y324500D03*
X314500Y329000D03*
X321000Y359000D03*
X312000Y350000D03*
X311500Y362000D03*
X318500Y362000D03*
X318000Y350000D03*
X321000Y353000D03*
X317000Y372600D03*
X308000Y382500D03*
X317000Y397400D03*
X308000Y387000D03*
X311000Y425000D03*
X316762Y472000D03*
X330500Y3950D03*
X338700Y30749D03*
X329000Y16000D03*
X340500Y13000D03*
X332500Y16000D03*
X335500Y16000D03*
X325500Y16000D03*
X330901Y45000D03*
X330500Y38050D03*
X325500Y38050D03*
X335500Y38000D03*
X324500Y76000D03*
X325000Y95000D03*
X327000Y104000D03*
X325000Y98579D03*
X331143Y102500D03*
X328500Y114500D03*
X331000Y99500D03*
X325000Y106500D03*
X325000Y113000D03*
X327025Y125000D03*
X334238Y132238D03*
X330500Y128000D03*
X342500Y117500D03*
X323259Y126750D03*
X326250Y148000D03*
X330500Y148000D03*
X330906Y170389D03*
X333000Y157500D03*
X326250Y164750D03*
X342000Y164750D03*
X322500Y187000D03*
X330790Y197790D03*
X331000Y189500D03*
X327000Y198000D03*
X330804Y179662D03*
X335500Y185800D03*
X325863Y179483D03*
X342500Y204900D03*
X335500Y205000D03*
X322320Y208680D03*
X338500Y214500D03*
X338500Y223100D03*
X324100Y230400D03*
X324000Y233500D03*
X333000Y223000D03*
X334757Y229058D03*
X341900Y232100D03*
X336000Y225000D03*
X338500Y219000D03*
X336250Y252733D03*
X325000Y240000D03*
X334250Y277080D03*
X322500Y295540D03*
X325500Y295500D03*
X331500Y295500D03*
X337000Y295500D03*
X337000Y284000D03*
X325500Y284000D03*
X331500Y284000D03*
X329500Y308000D03*
X333500Y308000D03*
X342000Y303500D03*
X338500Y321500D03*
X324000Y321500D03*
X340000Y336000D03*
X325600Y327000D03*
X335500Y336000D03*
X328850Y326000D03*
X325600Y345000D03*
X335000Y350000D03*
X331500Y359000D03*
X340000Y350000D03*
X326000Y362000D03*
X326000Y350000D03*
X340000Y362500D03*
X331500Y353000D03*
X325000Y367000D03*
X333000Y367000D03*
X340500Y367500D03*
X340500Y381500D03*
X323780Y397720D03*
X323540Y390040D03*
X323500Y402000D03*
X325000Y385500D03*
X338050Y393090D03*
X338050Y399000D03*
X338050Y404910D03*
X327000Y422000D03*
X329500Y425000D03*
X332000Y422000D03*
X326300Y445300D03*
X360340Y44250D03*
X345000Y67500D03*
X355000Y63500D03*
X348500Y71000D03*
X360840Y84401D03*
X350000Y91500D03*
X354750Y102499D03*
X358500Y98500D03*
X343000Y109000D03*
X362000Y97500D03*
X352000Y109000D03*
X346500Y105000D03*
X358122Y104621D03*
X349500Y95500D03*
X350750Y129500D03*
X361000Y136750D03*
X346500Y146250D03*
X351000Y160000D03*
X343500Y172000D03*
X345000Y191500D03*
X345000Y197000D03*
X343500Y178000D03*
X343000Y211000D03*
X343000Y218000D03*
X347000Y227200D03*
X359900Y223900D03*
X347000Y249500D03*
X347000Y254000D03*
X347000Y245000D03*
X362000Y258000D03*
X358200Y255000D03*
X342761Y254483D03*
X355300Y279000D03*
X347000Y274500D03*
X343000Y277250D03*
X343000Y269900D03*
X362000Y261500D03*
X358901Y265100D03*
X353951Y283350D03*
X348750Y296000D03*
X350500Y281500D03*
X348500Y292000D03*
X343250Y292750D03*
X343250Y284500D03*
X346000Y307500D03*
X343000Y321500D03*
X350400Y327000D03*
X360000Y340000D03*
X360000Y333000D03*
X360500Y327500D03*
X354000Y327500D03*
X347000Y327500D03*
X350500Y322500D03*
X350400Y345000D03*
X347000Y347500D03*
X354000Y347500D03*
X360000Y347500D03*
X353500Y365000D03*
X359000Y365000D03*
X348000Y367500D03*
X360500Y375000D03*
X352500Y387000D03*
X343950Y399000D03*
X343950Y393090D03*
X343950Y404910D03*
X363000Y393500D03*
X360200Y432700D03*
X353600Y432700D03*
X356900Y432700D03*
X374340Y40750D03*
X368750Y88991D03*
X371250Y112750D03*
X377000Y95500D03*
X377000Y106000D03*
X377000Y113000D03*
X377000Y99000D03*
X377000Y102500D03*
X377000Y109500D03*
X371250Y124749D03*
X377500Y132000D03*
X377500Y135500D03*
X377000Y116500D03*
X377000Y120000D03*
X377500Y156500D03*
X377500Y153000D03*
X377500Y146000D03*
X377500Y149500D03*
X377500Y139000D03*
X377500Y142500D03*
X367800Y170100D03*
X369500Y166750D03*
X377000Y176500D03*
X377000Y173000D03*
X368218Y179673D03*
X377000Y190500D03*
X377000Y187000D03*
X372000Y180500D03*
X377000Y180000D03*
X377000Y194000D03*
X377000Y197500D03*
X368500Y189500D03*
X377000Y183500D03*
X370074Y217269D03*
X368500Y199000D03*
X366597Y217508D03*
X369800Y222600D03*
X373600Y237050D03*
X370500Y227000D03*
X370500Y230500D03*
X366000Y231000D03*
X369000Y235000D03*
X365500Y235000D03*
X363500Y233000D03*
X379950Y234550D03*
X376618Y231129D03*
X364500Y225750D03*
X366000Y251950D03*
X368500Y257500D03*
X382500Y245500D03*
X379000Y245500D03*
X375500Y245500D03*
X370100Y245500D03*
X370000Y251500D03*
X365900Y247414D03*
X376000Y272500D03*
X382000Y261000D03*
X379000Y261000D03*
X366500Y261500D03*
X382500Y265000D03*
X379839Y281839D03*
X382600Y287700D03*
X370000Y285000D03*
X373000Y287000D03*
X372000Y282000D03*
X367500Y282000D03*
X364500Y282000D03*
X377500Y291500D03*
X376500Y309433D03*
X373500Y306501D03*
X367500Y340000D03*
X367500Y333000D03*
X367500Y327500D03*
X365000Y357500D03*
X367500Y347500D03*
X380000Y350500D03*
X375000Y350500D03*
X365000Y365000D03*
X372000Y421400D03*
X366000Y429500D03*
X395300Y72410D03*
X390850Y90741D03*
X388500Y104500D03*
X388500Y111500D03*
X388500Y97500D03*
X389000Y134000D03*
X388500Y118500D03*
X389000Y141000D03*
X389000Y148000D03*
X389000Y155000D03*
X388500Y175000D03*
X388601Y163891D03*
X397000Y167714D03*
X388500Y196000D03*
X388500Y182000D03*
X388500Y189000D03*
X387750Y218100D03*
X387750Y225850D03*
X395500Y222000D03*
X389000Y257500D03*
X384000Y251500D03*
X388500Y246000D03*
X385851Y264250D03*
X391500Y267500D03*
X386000Y284000D03*
X388000Y295000D03*
X395952Y329500D03*
X386000Y350500D03*
X391000Y350500D03*
X390000Y430000D03*
X418000Y104650D03*
X413500Y318800D03*
X412500Y422500D03*
X417500Y418500D03*
X404700Y422500D03*
X414000Y407000D03*
X417000Y407000D03*
X408500Y422500D03*
X417000Y428500D03*
X417500Y438500D03*
X428000Y403700D03*
X425500Y414500D03*
X426500Y423000D03*
X427500Y434000D03*
X427500Y443000D03*
G54D22*
X58000Y10000D03*
X58000Y15000D03*
X58000Y20000D03*
X58000Y25000D03*
X88000Y10000D03*
X88000Y25000D03*
X88000Y20000D03*
X88000Y15000D03*
G54D31*
X110940Y345940D03*
X110940Y351060D03*
X103060Y345940D03*
X103060Y348500D03*
X103060Y351060D03*
G54D40*
X125860Y84500D03*
X159060Y16000D03*
X145280Y16000D03*
X205140Y84500D03*
X385560Y16000D03*
X371780Y16000D03*
G54D32*
X114953Y399600D03*
X112984Y399600D03*
X111016Y399600D03*
X109047Y399600D03*
X109047Y387400D03*
X111016Y387400D03*
X112984Y387400D03*
X114953Y387400D03*
G54D23*
X67100Y113000D03*
X67100Y135500D03*
X67100Y133000D03*
X67100Y130500D03*
X67100Y128000D03*
X67100Y125500D03*
X67100Y123000D03*
X67100Y120500D03*
X67100Y118000D03*
X67100Y115500D03*
X67100Y155500D03*
X67100Y153000D03*
X67100Y150500D03*
X67100Y148000D03*
X67100Y145500D03*
X67100Y143000D03*
X67100Y140500D03*
X67100Y138000D03*
X67100Y158000D03*
X67600Y237500D03*
X67600Y235000D03*
X67600Y232500D03*
X67600Y230000D03*
X67600Y227500D03*
X67600Y225000D03*
X67600Y222500D03*
X67600Y257500D03*
X67600Y255000D03*
X67600Y252500D03*
X67600Y250000D03*
X67600Y247500D03*
X67600Y245000D03*
X67600Y242500D03*
X67600Y240000D03*
X67600Y267500D03*
X67600Y265000D03*
X67600Y262500D03*
X67600Y260000D03*
X94900Y113000D03*
X94900Y135500D03*
X94900Y133000D03*
X94900Y130500D03*
X94900Y128000D03*
X94900Y125500D03*
X94900Y123000D03*
X94900Y120500D03*
X94900Y118000D03*
X94900Y115500D03*
X94900Y155500D03*
X94900Y153000D03*
X94900Y150500D03*
X94900Y148000D03*
X94900Y145500D03*
X94900Y143000D03*
X94900Y140500D03*
X94900Y138000D03*
X94900Y158000D03*
X95400Y237500D03*
X95400Y235000D03*
X95400Y232500D03*
X95400Y230000D03*
X95400Y227500D03*
X95400Y225000D03*
X95400Y222500D03*
X95400Y257500D03*
X95400Y255000D03*
X95400Y252500D03*
X95400Y250000D03*
X95400Y247500D03*
X95400Y245000D03*
X95400Y242500D03*
X95400Y240000D03*
X95400Y267500D03*
X95400Y265000D03*
X95400Y262500D03*
X95400Y260000D03*
G54D50*
X155276Y135047D03*
X139724Y135047D03*
X139724Y140953D03*
X155276Y140953D03*
X155276Y162047D03*
X139724Y167953D03*
X139724Y162047D03*
X155276Y167953D03*
X155276Y190047D03*
X139724Y195953D03*
X139724Y190047D03*
X155276Y195953D03*
X254724Y312953D03*
X254724Y307047D03*
X276224Y312953D03*
X276224Y307047D03*
X270276Y307047D03*
X270276Y312953D03*
X297224Y312953D03*
X297224Y307047D03*
X291776Y307047D03*
X291776Y312953D03*
X320791Y96610D03*
X320791Y110390D03*
X307209Y110390D03*
X307209Y96610D03*
X320791Y104484D03*
X320791Y106453D03*
X320791Y108421D03*
X307209Y102516D03*
X307209Y100547D03*
X307209Y98579D03*
X320791Y98579D03*
X320791Y100547D03*
X320791Y102516D03*
X307209Y108421D03*
X307209Y106453D03*
X307209Y104484D03*
X312776Y307047D03*
X312776Y312953D03*
G54D14*
X22500Y47500D03*
X40000Y359500D03*
X113500Y217000D03*
X113500Y226000D03*
X171000Y420880D03*
X171000Y444500D03*
X171000Y436630D03*
X171000Y428750D03*
X166000Y432500D03*
X175850Y432500D03*
X166000Y440370D03*
X175850Y440320D03*
X190500Y177000D03*
X192500Y220500D03*
X212500Y396500D03*
X250000Y156500D03*
X250000Y164000D03*
X294500Y426750D03*
X294500Y418880D03*
X294500Y442500D03*
X294500Y434630D03*
X319500Y82500D03*
X322500Y169000D03*
X318500Y249500D03*
X318000Y477500D03*
X328500Y175000D03*
X327500Y194000D03*
X327000Y224000D03*
X326000Y357000D03*
X360500Y249500D03*
X370500Y175000D03*
X371000Y194000D03*
X368000Y212500D03*
X366000Y308000D03*
X386000Y471500D03*
X412500Y47000D03*
G54D41*
X133750Y95000D03*
X197250Y95000D03*
G54D51*
X146500Y216650D03*
X146500Y208350D03*
X139000Y216650D03*
X139000Y208350D03*
G54D33*
X108030Y421850D03*
X111970Y421850D03*
X108030Y428150D03*
X110000Y428150D03*
X111970Y428150D03*
G54D42*
X132155Y167530D03*
X132155Y169500D03*
X132155Y171470D03*
X126845Y171470D03*
X126845Y167530D03*
G54D60*
X192500Y186750D03*
X192500Y212250D03*
G54D15*
X33500Y61030D03*
X25630Y61030D03*
X33500Y68910D03*
X25630Y68910D03*
X33500Y76780D03*
X25630Y76780D03*
X33500Y84650D03*
X25630Y84650D03*
X33500Y92530D03*
X25630Y92530D03*
X33500Y100400D03*
X25630Y100400D03*
X33500Y108280D03*
X25630Y108280D03*
X33500Y116150D03*
X25630Y116150D03*
X33500Y124020D03*
X25630Y124020D03*
X33500Y131900D03*
X25630Y131900D03*
X33500Y139770D03*
X25630Y139770D03*
X33500Y147650D03*
X25630Y147650D03*
X33500Y155520D03*
X25630Y155520D03*
X33500Y163390D03*
X25630Y163390D03*
X33500Y171270D03*
X25630Y171270D03*
X33500Y179140D03*
X25630Y179140D03*
X33500Y187020D03*
X25630Y187020D03*
X33500Y194890D03*
X25630Y194890D03*
X33500Y202760D03*
X25630Y202760D03*
X33500Y210640D03*
X25630Y210640D03*
X33500Y218510D03*
X25630Y218510D03*
X33500Y226390D03*
X25630Y226390D03*
X33500Y234260D03*
X25630Y234260D03*
X33500Y242130D03*
X33500Y250010D03*
X33500Y257880D03*
X25630Y242130D03*
X25630Y250010D03*
X25630Y257880D03*
X33500Y265760D03*
X33500Y273630D03*
X33500Y281500D03*
X25630Y265760D03*
X25630Y273630D03*
X25630Y281500D03*
X33500Y289380D03*
X33500Y297250D03*
X25630Y289380D03*
X25630Y297250D03*
X33500Y305130D03*
X33500Y313000D03*
X25630Y305130D03*
X70870Y50130D03*
X70870Y58000D03*
X63000Y58000D03*
X94500Y50130D03*
X86620Y50130D03*
X78750Y50130D03*
X94500Y58000D03*
X86620Y58000D03*
X78750Y58000D03*
X110240Y50130D03*
X102370Y50130D03*
X110240Y58000D03*
X102370Y58000D03*
X108840Y471540D03*
X133870Y50130D03*
X125990Y50130D03*
X118120Y50130D03*
X133870Y58000D03*
X125990Y58000D03*
X118120Y58000D03*
X126160Y471540D03*
X157490Y50130D03*
X149610Y50130D03*
X141740Y50130D03*
X157490Y58000D03*
X149610Y58000D03*
X141740Y58000D03*
X173240Y50130D03*
X165360Y50130D03*
X173240Y58000D03*
X165360Y58000D03*
X196860Y50130D03*
X188980Y50130D03*
X181110Y50130D03*
X196860Y58000D03*
X188980Y58000D03*
X181110Y58000D03*
X220480Y50130D03*
X212610Y50130D03*
X204730Y50130D03*
X220480Y58000D03*
X212610Y58000D03*
X204730Y58000D03*
X221000Y414000D03*
X213600Y462300D03*
X236230Y50130D03*
X228350Y50130D03*
X236230Y58000D03*
X228350Y58000D03*
X238150Y249350D03*
X226000Y424000D03*
X241000Y414000D03*
X236000Y424000D03*
X231000Y414000D03*
X223600Y468300D03*
X259850Y50130D03*
X251980Y50130D03*
X244100Y50130D03*
X259850Y58000D03*
X251980Y58000D03*
X244100Y58000D03*
X256000Y424000D03*
X251000Y414000D03*
X246000Y424000D03*
X253400Y462300D03*
X275600Y50130D03*
X267720Y50130D03*
X275600Y58000D03*
X267720Y58000D03*
X281860Y175650D03*
X263400Y468300D03*
X299220Y50130D03*
X291350Y50130D03*
X283470Y50130D03*
X299220Y58000D03*
X291350Y58000D03*
X283470Y58000D03*
X322840Y50130D03*
X314970Y50130D03*
X307090Y50130D03*
X322840Y58000D03*
X314970Y58000D03*
X307090Y58000D03*
X338590Y50130D03*
X330720Y50130D03*
X338590Y58000D03*
X330720Y58000D03*
X362210Y50130D03*
X354340Y50130D03*
X346460Y50130D03*
X362210Y58000D03*
X354340Y58000D03*
X346460Y58000D03*
X370090Y50130D03*
X370090Y58000D03*
X400630Y61030D03*
X400630Y68910D03*
X400630Y76780D03*
X400630Y84650D03*
X400630Y92530D03*
X400630Y100400D03*
X400630Y108280D03*
X400630Y116150D03*
X400630Y124020D03*
X400630Y131900D03*
X400630Y139770D03*
X400630Y147650D03*
X400630Y155520D03*
X400630Y163390D03*
X400630Y171270D03*
X400630Y179140D03*
X400630Y187020D03*
X400630Y194890D03*
X400630Y202760D03*
X400630Y210640D03*
X400630Y218510D03*
X400630Y226390D03*
X400630Y234260D03*
X400630Y242130D03*
X400630Y250010D03*
X400630Y257880D03*
X400630Y265760D03*
X400630Y273630D03*
X400630Y281500D03*
X400630Y289380D03*
X400630Y297250D03*
X400630Y305130D03*
X408500Y61030D03*
X408500Y68910D03*
X408500Y76780D03*
X408500Y84650D03*
X408500Y92530D03*
X408500Y100400D03*
X408500Y108280D03*
X408500Y116150D03*
X408500Y124020D03*
X408500Y131900D03*
X408500Y139770D03*
X408500Y147650D03*
X408500Y155520D03*
X408500Y163390D03*
X408500Y171270D03*
X408500Y179140D03*
X408500Y187020D03*
X408500Y194890D03*
X408500Y202760D03*
X408500Y210640D03*
X408500Y218510D03*
X408500Y226390D03*
X408500Y234260D03*
X408500Y242130D03*
X408500Y250010D03*
X408500Y257880D03*
X408500Y265760D03*
X408500Y273630D03*
X408500Y281500D03*
X408500Y289380D03*
X408500Y297250D03*
X408500Y305130D03*
X408500Y313000D03*
G54D24*
X65250Y323000D03*
X65250Y343000D03*
X65250Y333000D03*
X65250Y363000D03*
X65250Y353000D03*
X65250Y383000D03*
X65250Y373000D03*
X65250Y403000D03*
X65250Y393000D03*
X65250Y413000D03*
X84750Y323000D03*
X84750Y343000D03*
X84750Y333000D03*
X84750Y363000D03*
X84750Y353000D03*
X84750Y383000D03*
X84750Y373000D03*
X84750Y403000D03*
X84750Y393000D03*
X84750Y413000D03*
G54D25*
X72500Y310000D03*
X78500Y310000D03*
X209500Y213200D03*
X215500Y213200D03*
X215000Y241500D03*
X209000Y241500D03*
X296500Y12000D03*
X290500Y12000D03*
X315000Y215500D03*
X321000Y215500D03*
X374000Y251500D03*
X380000Y251500D03*
X421500Y418500D03*
X422000Y408500D03*
X421500Y438500D03*
X421500Y428500D03*
X427500Y418500D03*
X428000Y408500D03*
X427500Y438500D03*
X427500Y428500D03*
G54D43*
X135060Y279740D03*
X135060Y281700D03*
X135060Y283670D03*
X135060Y285640D03*
X135060Y287610D03*
X135060Y289580D03*
X135060Y291550D03*
X135060Y293520D03*
X135060Y295480D03*
X135060Y297450D03*
X135060Y299420D03*
X135060Y301390D03*
X135060Y303360D03*
X135060Y305330D03*
X135060Y307300D03*
X135060Y309260D03*
X179940Y279740D03*
X179940Y299420D03*
X179940Y297450D03*
X179940Y295480D03*
X179940Y293520D03*
X179940Y291550D03*
X179940Y289580D03*
X179940Y287610D03*
X179940Y285640D03*
X179940Y283670D03*
X179940Y281700D03*
X179940Y309260D03*
X179940Y307300D03*
X179940Y305330D03*
X179940Y303360D03*
X179940Y301390D03*
X214460Y358670D03*
X214460Y360640D03*
X214460Y362610D03*
X214460Y364580D03*
X214460Y366550D03*
X214460Y368520D03*
X214460Y370480D03*
X214460Y372450D03*
X214460Y374420D03*
X214460Y376390D03*
X214460Y378360D03*
X214460Y380330D03*
X247540Y360640D03*
X247540Y358670D03*
X247540Y380330D03*
X247540Y378360D03*
X247540Y376390D03*
X247540Y374420D03*
X247540Y372450D03*
X247540Y370480D03*
X247540Y368520D03*
X247540Y366550D03*
X247540Y364580D03*
X247540Y362610D03*
G54D34*
X115600Y414000D03*
X115600Y408000D03*
X100100Y408000D03*
X100100Y414000D03*
X107600Y408000D03*
X107600Y414000D03*
X165000Y331500D03*
X165000Y337500D03*
X193500Y392000D03*
X193500Y398000D03*
X234000Y262000D03*
X234000Y268000D03*
X242000Y29000D03*
X242000Y23000D03*
X255000Y339000D03*
X255000Y345000D03*
X262000Y158500D03*
X262000Y164500D03*
X267000Y268000D03*
X267000Y262000D03*
X303000Y24500D03*
X303000Y18500D03*
X340500Y377000D03*
X340500Y371000D03*
X325000Y371000D03*
X325000Y377000D03*
X333000Y371000D03*
X333000Y377000D03*
X353000Y292000D03*
X353000Y298000D03*
X348000Y377000D03*
X348000Y371000D03*
X355500Y371000D03*
X355500Y377000D03*
G54D61*
X196900Y289700D03*
X194930Y289700D03*
X196900Y318300D03*
X194930Y318300D03*
X198870Y289700D03*
X200840Y289700D03*
X202800Y289700D03*
X204770Y289700D03*
X206740Y289700D03*
X208710Y289700D03*
X210680Y289700D03*
X212640Y289700D03*
X214610Y289700D03*
X216580Y289700D03*
X218550Y289700D03*
X218550Y318300D03*
X216580Y318300D03*
X214610Y318300D03*
X212640Y318300D03*
X210680Y318300D03*
X208710Y318300D03*
X206740Y318300D03*
X204770Y318300D03*
X202800Y318300D03*
X200840Y318300D03*
X198870Y318300D03*
X220520Y289700D03*
X222480Y289700D03*
X224450Y289700D03*
X226420Y289700D03*
X228390Y289700D03*
X230360Y289700D03*
X232320Y289700D03*
X234290Y289700D03*
X236260Y289700D03*
X238230Y289700D03*
X238230Y318300D03*
X236260Y318300D03*
X234290Y318300D03*
X232320Y318300D03*
X230360Y318300D03*
X228390Y318300D03*
X226420Y318300D03*
X224450Y318300D03*
X222480Y318300D03*
X220520Y318300D03*
X240200Y289700D03*
X242160Y289700D03*
X244130Y289700D03*
X246100Y289700D03*
X248070Y289700D03*
X244130Y318300D03*
X242160Y318300D03*
X240200Y318300D03*
X246100Y318300D03*
X248070Y318300D03*
G54D16*
X25630Y313000D03*
X63000Y50130D03*
X400630Y313000D03*
G54D70*
X236650Y195100D03*
X236650Y191950D03*
X236650Y188800D03*
X236650Y185650D03*
X236650Y217150D03*
X236650Y214000D03*
X236650Y210850D03*
X236650Y207700D03*
X236650Y204550D03*
X236650Y201400D03*
X236650Y198250D03*
X236650Y236050D03*
X236650Y232900D03*
X236650Y229750D03*
X236650Y226600D03*
X236650Y223450D03*
X236650Y220300D03*
X236650Y242350D03*
X236650Y239200D03*
X258700Y195100D03*
X258700Y191950D03*
X258700Y188800D03*
X258700Y185650D03*
X255550Y195100D03*
X255550Y191950D03*
X255550Y188800D03*
X255550Y185650D03*
X252400Y195100D03*
X252400Y191950D03*
X252400Y188800D03*
X252400Y185650D03*
X249250Y195100D03*
X249250Y191950D03*
X249250Y188800D03*
X249250Y185650D03*
X246100Y195100D03*
X246100Y191950D03*
X246100Y188800D03*
X246100Y185650D03*
X242950Y195100D03*
X242950Y191950D03*
X242950Y188800D03*
X242950Y185650D03*
X239800Y195100D03*
X239800Y191950D03*
X239800Y188800D03*
X239800Y185650D03*
X258700Y217150D03*
X258700Y214000D03*
X258700Y210850D03*
X258700Y207700D03*
X258700Y201400D03*
X258700Y198250D03*
X255550Y201400D03*
X255550Y198250D03*
X252400Y217150D03*
X252400Y214000D03*
X252400Y210850D03*
X252400Y207700D03*
X252400Y204550D03*
X252400Y201400D03*
X252400Y198250D03*
X249250Y217150D03*
X249250Y214000D03*
X249250Y210850D03*
X249250Y207700D03*
X249250Y204550D03*
X249250Y201400D03*
X249250Y198250D03*
X246100Y217150D03*
X246100Y214000D03*
X246100Y210850D03*
X246100Y207700D03*
X246100Y204550D03*
X246100Y201400D03*
X246100Y198250D03*
X242950Y217150D03*
X242950Y214000D03*
X242950Y210850D03*
X242950Y207700D03*
X242950Y204550D03*
X242950Y201400D03*
X242950Y198250D03*
X239800Y217150D03*
X239800Y214000D03*
X239800Y210850D03*
X239800Y207700D03*
X239800Y204550D03*
X239800Y201400D03*
X239800Y198250D03*
X258700Y236050D03*
X258700Y232900D03*
X258700Y229750D03*
X258700Y226600D03*
X258700Y220300D03*
X255550Y236050D03*
X255550Y232900D03*
X255550Y229750D03*
X255550Y226600D03*
X252400Y236050D03*
X252400Y232900D03*
X252400Y229750D03*
X252400Y226600D03*
X252400Y223450D03*
X252400Y220300D03*
X249250Y236050D03*
X249250Y232900D03*
X249250Y229750D03*
X249250Y226600D03*
X249250Y223450D03*
X249250Y220300D03*
X246100Y236050D03*
X246100Y232900D03*
X246100Y229750D03*
X246100Y226600D03*
X246100Y223450D03*
X246100Y220300D03*
X242950Y236050D03*
X242950Y232900D03*
X242950Y229750D03*
X242950Y226600D03*
X242950Y223450D03*
X242950Y220300D03*
X239800Y236050D03*
X239800Y232900D03*
X239800Y229750D03*
X239800Y226600D03*
X239800Y223450D03*
X239800Y220300D03*
X258700Y242350D03*
X258700Y239200D03*
X255550Y242350D03*
X255550Y239200D03*
X252400Y242350D03*
X252400Y239200D03*
X249250Y242350D03*
X249250Y239200D03*
X246100Y242350D03*
X246100Y239200D03*
X242950Y242350D03*
X242950Y239200D03*
X239800Y242350D03*
X239800Y239200D03*
X277600Y195100D03*
X277600Y191950D03*
X277600Y188800D03*
X277600Y185650D03*
X274450Y195100D03*
X274450Y191950D03*
X274450Y188800D03*
X274450Y185650D03*
X271300Y195100D03*
X271300Y191950D03*
X271300Y188800D03*
X271300Y185650D03*
X268150Y195100D03*
X268150Y191950D03*
X268150Y188800D03*
X268150Y185650D03*
X265000Y195100D03*
X265000Y191950D03*
X265000Y188800D03*
X265000Y185650D03*
X261850Y195100D03*
X261850Y191950D03*
X261850Y188800D03*
X261850Y185650D03*
X277600Y217150D03*
X277600Y214000D03*
X277600Y210850D03*
X277600Y207700D03*
X277600Y204550D03*
X277600Y201400D03*
X277600Y198250D03*
X274450Y201400D03*
X274450Y198250D03*
X271300Y217150D03*
X271300Y214000D03*
X271300Y210850D03*
X271300Y207700D03*
X271300Y201400D03*
X271300Y198250D03*
X268150Y217150D03*
X268150Y214000D03*
X268150Y210850D03*
X268150Y207700D03*
X268150Y201400D03*
X268150Y198250D03*
X265000Y217150D03*
X265000Y214000D03*
X265000Y210850D03*
X265000Y207700D03*
X265000Y201400D03*
X265000Y198250D03*
X261850Y217150D03*
X261850Y214000D03*
X261850Y210850D03*
X261850Y207700D03*
X261850Y201400D03*
X261850Y198250D03*
X277600Y236050D03*
X277600Y232900D03*
X277600Y229750D03*
X277600Y226600D03*
X277600Y223450D03*
X277600Y220300D03*
X274450Y236050D03*
X274450Y232900D03*
X274450Y229750D03*
X274450Y226600D03*
X271300Y236050D03*
X271300Y232900D03*
X271300Y229750D03*
X271300Y226600D03*
X271300Y220300D03*
X268150Y236050D03*
X268150Y232900D03*
X268150Y229750D03*
X268150Y226600D03*
X268150Y220300D03*
X265000Y236050D03*
X265000Y232900D03*
X265000Y229750D03*
X265000Y226600D03*
X265000Y220300D03*
X261850Y236050D03*
X261850Y232900D03*
X261850Y229750D03*
X261850Y226600D03*
X261850Y220300D03*
X277600Y242350D03*
X277600Y239200D03*
X274450Y242350D03*
X274450Y239200D03*
X271300Y242350D03*
X271300Y239200D03*
X268150Y242350D03*
X268150Y239200D03*
X265000Y242350D03*
X265000Y239200D03*
X261850Y242350D03*
X261850Y239200D03*
X293350Y195100D03*
X293350Y191950D03*
X293350Y188800D03*
X293350Y185650D03*
X290200Y195100D03*
X290200Y191950D03*
X290200Y188800D03*
X290200Y185650D03*
X287050Y195100D03*
X287050Y191950D03*
X287050Y188800D03*
X287050Y185650D03*
X283900Y195100D03*
X283900Y191950D03*
X283900Y188800D03*
X283900Y185650D03*
X280750Y195100D03*
X280750Y191950D03*
X280750Y188800D03*
X280750Y185650D03*
X293350Y217150D03*
X293350Y214000D03*
X293350Y210850D03*
X293350Y207700D03*
X293350Y204550D03*
X293350Y201400D03*
X293350Y198250D03*
X290200Y217150D03*
X290200Y214000D03*
X290200Y210850D03*
X290200Y207700D03*
X290200Y204550D03*
X290200Y201400D03*
X290200Y198250D03*
X287050Y217150D03*
X287050Y214000D03*
X287050Y210850D03*
X287050Y207700D03*
X287050Y204550D03*
X287050Y201400D03*
X287050Y198250D03*
X283900Y217150D03*
X283900Y214000D03*
X283900Y210850D03*
X283900Y207700D03*
X283900Y204550D03*
X283900Y201400D03*
X283900Y198250D03*
X280750Y217150D03*
X280750Y214000D03*
X280750Y210850D03*
X280750Y207700D03*
X280750Y204550D03*
X280750Y201400D03*
X280750Y198250D03*
X293350Y236050D03*
X293350Y232900D03*
X293350Y229750D03*
X293350Y226600D03*
X293350Y223450D03*
X293350Y220300D03*
X290200Y236050D03*
X290200Y232900D03*
X290200Y229750D03*
X290200Y226600D03*
X290200Y223450D03*
X290200Y220300D03*
X287050Y236050D03*
X287050Y232900D03*
X287050Y229750D03*
X287050Y226600D03*
X287050Y223450D03*
X287050Y220300D03*
X283900Y236050D03*
X283900Y232900D03*
X283900Y229750D03*
X283900Y226600D03*
X283900Y223450D03*
X283900Y220300D03*
X280750Y236050D03*
X280750Y232900D03*
X280750Y229750D03*
X280750Y226600D03*
X280750Y223450D03*
X280750Y220300D03*
X293350Y242350D03*
X293350Y239200D03*
X290200Y242350D03*
X290200Y239200D03*
X287050Y242350D03*
X287050Y239200D03*
X283900Y242350D03*
X283900Y239200D03*
X280750Y242350D03*
X280750Y239200D03*
G54D52*
X138642Y238016D03*
X142579Y238016D03*
X152421Y238016D03*
X138642Y236047D03*
X142579Y236047D03*
X152421Y236047D03*
X138642Y234079D03*
X142579Y234079D03*
X144547Y234079D03*
X146516Y234079D03*
X148484Y234079D03*
X150453Y234079D03*
X152421Y234079D03*
X138642Y232110D03*
X138642Y230142D03*
X140610Y230142D03*
X142579Y230142D03*
X144547Y230142D03*
X146516Y230142D03*
X148484Y230142D03*
X150453Y230142D03*
X152421Y230142D03*
X154390Y230142D03*
X138642Y247858D03*
X140610Y247858D03*
X142579Y247858D03*
X144547Y247858D03*
X146516Y247858D03*
X148484Y247858D03*
X150453Y247858D03*
X152421Y247858D03*
X154390Y247858D03*
X138642Y245890D03*
X138642Y243921D03*
X142579Y243921D03*
X144547Y243921D03*
X146516Y243921D03*
X148484Y243921D03*
X150453Y243921D03*
X152421Y243921D03*
X138642Y241953D03*
X142579Y241953D03*
X152421Y241953D03*
X138642Y239984D03*
X142579Y239984D03*
X152421Y239984D03*
X156358Y238016D03*
X156358Y236047D03*
X156358Y234079D03*
X156358Y232110D03*
X156358Y230142D03*
X156358Y247858D03*
X156358Y245890D03*
X156358Y243921D03*
X156358Y241953D03*
X156358Y239984D03*
G54D53*
X154550Y272060D03*
X152580Y272060D03*
X150610Y272060D03*
X148640Y272060D03*
X146670Y272060D03*
X144700Y272060D03*
X142740Y272060D03*
X142740Y316940D03*
X144700Y316940D03*
X146670Y316940D03*
X148640Y316940D03*
X150610Y316940D03*
X152580Y316940D03*
X154550Y316940D03*
X172260Y272060D03*
X170300Y272060D03*
X168330Y272060D03*
X166360Y272060D03*
X164390Y272060D03*
X162420Y272060D03*
X160450Y272060D03*
X158480Y272060D03*
X156520Y272060D03*
X156520Y316940D03*
X158480Y316940D03*
X160450Y316940D03*
X162420Y316940D03*
X164390Y316940D03*
X166360Y316940D03*
X168330Y316940D03*
X170300Y316940D03*
X172260Y316940D03*
X237890Y352960D03*
X235920Y352960D03*
X233950Y352960D03*
X231980Y352960D03*
X230020Y352960D03*
X228050Y352960D03*
X226080Y352960D03*
X224110Y352960D03*
X222140Y352960D03*
X220170Y352960D03*
X220170Y386040D03*
X222140Y386040D03*
X224110Y386040D03*
X226080Y386040D03*
X228050Y386040D03*
X230020Y386040D03*
X231980Y386040D03*
X233950Y386040D03*
X235920Y386040D03*
X237890Y386040D03*
X241830Y352960D03*
X239860Y352960D03*
X239860Y386040D03*
X241830Y386040D03*
G54D35*
X97200Y447000D03*
X104800Y447000D03*
X195300Y334000D03*
X187700Y334000D03*
G54D62*
X191300Y346850D03*
X191300Y355150D03*
X198700Y355150D03*
X198700Y346850D03*
G54D44*
X123500Y276700D03*
X123500Y284300D03*
X127000Y333800D03*
X127000Y326200D03*
X256000Y389200D03*
X256000Y396800D03*
G54D26*
X60528Y430819D03*
X82969Y430819D03*
G54D80*
X272339Y338193D03*
X269780Y338193D03*
X267220Y338193D03*
X264661Y338193D03*
X264661Y349807D03*
X267220Y349807D03*
X269780Y349807D03*
X272339Y349807D03*
X372161Y278307D03*
X374720Y278307D03*
X377280Y278307D03*
X379839Y278307D03*
X379839Y266693D03*
X377280Y266693D03*
X374720Y266693D03*
X372161Y266693D03*
G54D17*
X29000Y381500D03*
X25000Y381500D03*
X25000Y386000D03*
X29000Y386000D03*
X29000Y404500D03*
X25000Y404500D03*
X32000Y389500D03*
X32000Y393500D03*
X25000Y409000D03*
X29000Y409000D03*
X23500Y427000D03*
X27500Y427000D03*
X30200Y444900D03*
X30200Y448900D03*
X46000Y381500D03*
X42000Y381500D03*
X50500Y422000D03*
X50500Y426000D03*
X116000Y317000D03*
X115800Y369400D03*
X115900Y374500D03*
X116000Y364400D03*
X121000Y171500D03*
X121000Y175500D03*
X127000Y236000D03*
X123000Y236000D03*
X127000Y228500D03*
X123000Y228500D03*
X127000Y232000D03*
X123000Y232000D03*
X125500Y241500D03*
X125500Y245500D03*
X122000Y295000D03*
X118000Y295000D03*
X120000Y317000D03*
X122500Y350000D03*
X126500Y350000D03*
X132400Y359000D03*
X132400Y355000D03*
X127000Y345500D03*
X123000Y345500D03*
X133600Y378300D03*
X129600Y378300D03*
X133500Y383000D03*
X119800Y369400D03*
X119900Y374500D03*
X120000Y364400D03*
X126100Y404500D03*
X130100Y404500D03*
X137000Y396500D03*
X133000Y396500D03*
X133500Y387500D03*
X133500Y392000D03*
X126100Y408700D03*
X130100Y408700D03*
X128500Y418600D03*
X132500Y418600D03*
X155000Y216400D03*
X155000Y220400D03*
X154500Y371500D03*
X154500Y375500D03*
X150000Y375500D03*
X150000Y371500D03*
X137500Y383000D03*
X140500Y365500D03*
X144500Y365500D03*
X137500Y387500D03*
X137500Y392000D03*
X144500Y415500D03*
X144500Y419500D03*
X143500Y483500D03*
X143500Y479500D03*
X159500Y175500D03*
X163500Y175500D03*
X166000Y216500D03*
X162500Y216500D03*
X158300Y216400D03*
X169500Y216500D03*
X166000Y220500D03*
X162500Y220500D03*
X158300Y220400D03*
X169500Y220500D03*
X167500Y351000D03*
X167500Y355000D03*
X177000Y352000D03*
X177000Y356000D03*
X166000Y382000D03*
X162000Y382000D03*
X166000Y378000D03*
X162000Y378000D03*
X197500Y177500D03*
X197500Y174000D03*
X197500Y166500D03*
X187000Y230000D03*
X183000Y230000D03*
X197000Y230000D03*
X187000Y237000D03*
X183000Y237000D03*
X197000Y237000D03*
X187000Y247500D03*
X183000Y247500D03*
X197000Y244000D03*
X187000Y251000D03*
X183000Y251000D03*
X197000Y258000D03*
X187000Y240500D03*
X183000Y240500D03*
X197000Y251000D03*
X197000Y261500D03*
X197000Y268500D03*
X197000Y275500D03*
X198500Y361500D03*
X194500Y361500D03*
X182000Y352000D03*
X182000Y356000D03*
X197000Y420500D03*
X193000Y420500D03*
X216500Y178000D03*
X212500Y178000D03*
X201500Y177500D03*
X201500Y174000D03*
X201500Y166500D03*
X215500Y208000D03*
X211500Y208000D03*
X214000Y229000D03*
X218000Y229000D03*
X214000Y236000D03*
X218000Y236000D03*
X214000Y232500D03*
X218000Y232500D03*
X201000Y230000D03*
X201000Y237000D03*
X201000Y244000D03*
X201000Y258000D03*
X201000Y251000D03*
X215000Y251000D03*
X211000Y251000D03*
X201000Y261500D03*
X217500Y273000D03*
X201000Y268500D03*
X201000Y275500D03*
X204500Y332500D03*
X204500Y336500D03*
X204000Y372500D03*
X200000Y372500D03*
X205000Y386000D03*
X201000Y386000D03*
X202000Y465500D03*
X202000Y461500D03*
X236000Y22500D03*
X236000Y26500D03*
X229000Y14500D03*
X225000Y14500D03*
X229000Y267500D03*
X229000Y263500D03*
X225500Y267500D03*
X225500Y263500D03*
X221500Y273000D03*
X229500Y336000D03*
X229500Y340000D03*
X238500Y336000D03*
X238500Y340000D03*
X220000Y336000D03*
X220000Y340000D03*
X234000Y336000D03*
X234000Y340000D03*
X239500Y399500D03*
X239500Y395500D03*
X235500Y399500D03*
X235500Y395500D03*
X231500Y399500D03*
X231500Y395500D03*
X227500Y395500D03*
X227500Y399500D03*
X244500Y260500D03*
X258500Y260500D03*
X244500Y264500D03*
X258000Y278500D03*
X258000Y274500D03*
X247500Y278500D03*
X247500Y274500D03*
X240500Y278500D03*
X240500Y274500D03*
X258500Y264500D03*
X257500Y296000D03*
X257500Y292000D03*
X259500Y324500D03*
X243000Y336000D03*
X243000Y340000D03*
X260500Y357500D03*
X256500Y357500D03*
X256500Y367000D03*
X260500Y367000D03*
X256500Y370500D03*
X260500Y370500D03*
X243500Y399500D03*
X243500Y395500D03*
X248000Y399500D03*
X248000Y395500D03*
X265500Y296000D03*
X265500Y292000D03*
X263500Y324500D03*
X276500Y423000D03*
X276500Y427000D03*
X274000Y445500D03*
X276000Y464000D03*
X274000Y449500D03*
X276000Y468000D03*
X297000Y18500D03*
X297000Y22500D03*
X297000Y33000D03*
X293000Y33000D03*
X290500Y18500D03*
X290500Y22500D03*
X297000Y36500D03*
X293000Y36500D03*
X295500Y93000D03*
X299500Y93000D03*
X299500Y97000D03*
X295500Y97000D03*
X299500Y100500D03*
X295500Y100500D03*
X295500Y104000D03*
X299500Y104000D03*
X299500Y107500D03*
X295500Y107500D03*
X297500Y272500D03*
X297500Y268500D03*
X294000Y272500D03*
X294000Y268500D03*
X301000Y272500D03*
X301000Y268500D03*
X300000Y296500D03*
X300000Y292500D03*
X289000Y402500D03*
X284500Y402500D03*
X289000Y406500D03*
X284500Y406500D03*
X322000Y177000D03*
X322000Y181000D03*
X320500Y233500D03*
X316500Y233500D03*
X316500Y237000D03*
X320500Y237000D03*
X316500Y226000D03*
X320500Y226000D03*
X316500Y229500D03*
X320500Y229500D03*
X306000Y296000D03*
X306000Y292000D03*
X313500Y421500D03*
X313500Y417500D03*
X331000Y92000D03*
X331000Y96000D03*
X324500Y153500D03*
X324500Y157500D03*
X330000Y153500D03*
X330000Y157500D03*
X334500Y175000D03*
X338500Y175000D03*
X326000Y213500D03*
X326000Y217500D03*
X324500Y201000D03*
X324500Y205000D03*
X329500Y201000D03*
X329500Y205000D03*
X359500Y397500D03*
X359500Y393500D03*
X359500Y403500D03*
X359500Y407500D03*
X381000Y95500D03*
X381000Y99000D03*
X381000Y102500D03*
X381000Y106000D03*
X381000Y109500D03*
X381000Y113000D03*
X381000Y116500D03*
X381000Y120000D03*
X381500Y135500D03*
X381500Y132000D03*
X381500Y149500D03*
X381500Y146000D03*
X381500Y153000D03*
X381500Y156500D03*
X381500Y142500D03*
X381500Y139000D03*
X381000Y173000D03*
X381000Y176500D03*
X381000Y183500D03*
X381000Y187000D03*
X381000Y194000D03*
X381000Y197500D03*
X381000Y180000D03*
X381000Y190500D03*
X381500Y257500D03*
X376000Y257500D03*
X372000Y257500D03*
X377500Y288000D03*
X377500Y284000D03*
X385000Y95500D03*
X385000Y99000D03*
X385000Y102500D03*
X385000Y106000D03*
X385000Y109500D03*
X385000Y113000D03*
X385000Y116500D03*
X385000Y120000D03*
X385500Y135500D03*
X385500Y132000D03*
X385500Y149500D03*
X385500Y146000D03*
X385500Y153000D03*
X385500Y156500D03*
X385500Y142500D03*
X385500Y139000D03*
X385000Y173000D03*
X385000Y176500D03*
X385000Y183500D03*
X385000Y187000D03*
X385000Y194000D03*
X385000Y197500D03*
X385000Y180000D03*
X385000Y190500D03*
X385500Y257500D03*
G54D71*
X228390Y185650D03*
G54D54*
X155000Y333500D03*
X150000Y333500D03*
X145000Y333500D03*
X140000Y333500D03*
X140000Y355500D03*
X145000Y355500D03*
X150000Y355500D03*
X155000Y355500D03*
X195000Y10000D03*
X190000Y10000D03*
X185000Y10000D03*
X185000Y32000D03*
X190000Y32000D03*
X195000Y32000D03*
X200000Y10000D03*
X200000Y32000D03*
X320500Y10000D03*
X320500Y32000D03*
X335500Y10000D03*
X330500Y10000D03*
X325500Y10000D03*
X325500Y32000D03*
X330500Y32000D03*
X335500Y32000D03*
G54D90*
X336400Y357500D03*
X353600Y357500D03*
G54D63*
X215030Y24700D03*
X215030Y20300D03*
G54D27*
X73165Y471370D03*
X68835Y472157D03*
X64504Y471370D03*
X60173Y469795D03*
X55843Y471370D03*
X86157Y471370D03*
X81827Y471370D03*
X77496Y472157D03*
G54D18*
X39000Y36000D03*
X81000Y90500D03*
X81500Y200000D03*
X388000Y47000D03*
X417500Y391500D03*
G54D81*
X272500Y379500D03*
X272500Y367500D03*
X364500Y265500D03*
X364500Y277500D03*
X353000Y306000D03*
X353000Y318000D03*
G54D45*
X125940Y423840D03*
X128500Y423840D03*
X131060Y423840D03*
X131060Y430160D03*
X128500Y430160D03*
X125940Y430160D03*
G54D72*
X229900Y238200D03*
G54D36*
X113100Y444500D03*
X124900Y444500D03*
X349600Y175000D03*
X361400Y175000D03*
G54D46*
X128500Y427000D03*
G54D64*
X213109Y162729D03*
X217351Y166971D03*
X312289Y261049D03*
X316531Y265291D03*
G54D91*
X329500Y390040D03*
X329500Y392600D03*
X329500Y395160D03*
X329500Y397720D03*
X329500Y400280D03*
X329500Y402840D03*
X329500Y405400D03*
X329500Y407960D03*
X352500Y390040D03*
X352500Y402840D03*
X352500Y400280D03*
X352500Y397720D03*
X352500Y395160D03*
X352500Y392600D03*
X352500Y407960D03*
X352500Y405400D03*
X375500Y212250D03*
X375500Y219750D03*
G54D19*
X44500Y339800D03*
X40700Y348200D03*
X48300Y348200D03*
X134500Y364900D03*
X126900Y364900D03*
X130700Y373300D03*
X404700Y416700D03*
X408500Y408300D03*
X412300Y416700D03*
G54D82*
X294500Y332500D03*
X282500Y332500D03*
X347000Y233000D03*
X359000Y233000D03*
G54D28*
X81000Y115500D03*
X81000Y135500D03*
X81000Y125500D03*
X81000Y155500D03*
X81000Y145500D03*
X81500Y235000D03*
X81500Y225000D03*
X81500Y255000D03*
X81500Y245000D03*
X81500Y265000D03*
G54D55*
X149500Y389000D03*
X175000Y367500D03*
G54D37*
X99980Y461500D03*
X99980Y483150D03*
X135020Y461500D03*
X135020Y483150D03*
G54D73*
X220120Y344500D03*
G54D38*
X111200Y461500D03*
X114350Y461500D03*
X117500Y461500D03*
X120650Y461500D03*
X123800Y461500D03*
G54D47*
X154660Y83720D03*
X152700Y83720D03*
X150720Y83720D03*
X148760Y83720D03*
X146780Y83720D03*
X144820Y83720D03*
X142840Y83720D03*
X140880Y83720D03*
X138900Y83720D03*
X136940Y83720D03*
X154660Y106280D03*
X152700Y106280D03*
X150720Y106280D03*
X148760Y106280D03*
X146780Y106280D03*
X144820Y106280D03*
X142840Y106280D03*
X140880Y106280D03*
X138900Y106280D03*
X136940Y106280D03*
X176340Y83720D03*
X174360Y83720D03*
X172400Y83720D03*
X170420Y83720D03*
X168460Y83720D03*
X166480Y83720D03*
X164520Y83720D03*
X162540Y83720D03*
X160580Y83720D03*
X158600Y83720D03*
X156640Y83720D03*
X176340Y106280D03*
X174360Y106280D03*
X172400Y106280D03*
X170420Y106280D03*
X168460Y106280D03*
X166480Y106280D03*
X164520Y106280D03*
X162540Y106280D03*
X160580Y106280D03*
X158600Y106280D03*
X156640Y106280D03*
X194060Y83720D03*
X192100Y83720D03*
X190120Y83720D03*
X188160Y83720D03*
X186180Y83720D03*
X184220Y83720D03*
X182240Y83720D03*
X180280Y83720D03*
X178300Y83720D03*
X194060Y106280D03*
X192100Y106280D03*
X190120Y106280D03*
X188160Y106280D03*
X186180Y106280D03*
X184220Y106280D03*
X182240Y106280D03*
X180280Y106280D03*
X178300Y106280D03*
G54D29*
X112169Y256559D03*
X112169Y254000D03*
X112169Y251441D03*
X120831Y251441D03*
X120831Y254000D03*
X120831Y256559D03*
G54D56*
X144190Y391950D03*
X144190Y389980D03*
X144190Y388020D03*
X144190Y386050D03*
X154810Y386090D03*
X154810Y388020D03*
X154810Y389980D03*
X154810Y391950D03*
X169690Y370450D03*
X169690Y368480D03*
X169690Y366520D03*
X169690Y364550D03*
X180310Y364550D03*
X180310Y366520D03*
X180310Y368480D03*
X180310Y370450D03*
G54D83*
X286000Y352000D03*
X325500Y336000D03*
X311000Y352000D03*
X341000Y422000D03*
X350500Y336000D03*
X366000Y422000D03*
G54D74*
X257900Y85400D03*
X257900Y88550D03*
X257900Y91700D03*
X257900Y94850D03*
X257900Y98000D03*
X257900Y101150D03*
X257900Y104300D03*
X257900Y107450D03*
X257900Y110600D03*
X279950Y85400D03*
X276800Y85400D03*
X264200Y85400D03*
X261050Y85400D03*
X279950Y88550D03*
X276800Y88550D03*
X264200Y88550D03*
X261050Y88550D03*
X279950Y91700D03*
X276800Y91700D03*
X264200Y91700D03*
X261050Y91700D03*
X279950Y94850D03*
X276800Y94850D03*
X264200Y94850D03*
X261050Y94850D03*
X279950Y98000D03*
X276800Y98000D03*
X264200Y98000D03*
X261050Y98000D03*
X279950Y101150D03*
X276800Y101150D03*
X264200Y101150D03*
X261050Y101150D03*
X279950Y104300D03*
X276800Y104300D03*
X264200Y104300D03*
X261050Y104300D03*
X279950Y107450D03*
X276800Y107450D03*
X264200Y107450D03*
X261050Y107450D03*
X279950Y110600D03*
X276800Y110600D03*
X264200Y110600D03*
X261050Y110600D03*
X283100Y85400D03*
X283100Y88550D03*
X283100Y91700D03*
X283100Y94850D03*
X283100Y98000D03*
X283100Y101150D03*
X283100Y104300D03*
X283100Y107450D03*
X283100Y110600D03*
G54D92*
X341000Y399000D03*
G54D65*
X218061Y261229D03*
X213819Y265471D03*
X315771Y162819D03*
X311529Y167061D03*
G54D84*
X322440Y314410D03*
X340560Y314410D03*
X331500Y314410D03*
G54D66*
X216000Y449000D03*
X261000Y449000D03*
G54D75*
X258490Y132530D03*
X256510Y132530D03*
X254520Y132530D03*
X252540Y132530D03*
X258490Y138470D03*
X252540Y138470D03*
X254520Y138470D03*
X256510Y138470D03*
X279520Y132530D03*
X277540Y132530D03*
X262460Y132530D03*
X260480Y132530D03*
X277540Y138470D03*
X279520Y138470D03*
X262460Y138470D03*
X260480Y138470D03*
X287460Y132530D03*
X283490Y132530D03*
X285480Y132530D03*
X281510Y132530D03*
X287460Y138470D03*
X285480Y138470D03*
X283490Y138470D03*
X281510Y138470D03*
G54D57*
X146550Y383690D03*
X148520Y383690D03*
X150480Y383690D03*
X152450Y383690D03*
X152450Y394310D03*
X150480Y394310D03*
X148520Y394310D03*
X146550Y394310D03*
X172050Y362190D03*
X174020Y362190D03*
X175980Y362190D03*
X175980Y372810D03*
X174020Y372810D03*
X172050Y372810D03*
X177950Y362190D03*
X177910Y372810D03*
G54D39*
X131500Y16000D03*
X358000Y16000D03*
G54D48*
X153000Y95000D03*
X178000Y95000D03*
G54D93*
X336500Y450690D03*
G54D49*
X148484Y131209D03*
X150453Y131209D03*
X152421Y131209D03*
X142579Y131209D03*
X144547Y131209D03*
X146516Y131209D03*
X146516Y144791D03*
X144547Y144791D03*
X142579Y144791D03*
X152421Y144791D03*
X150453Y144791D03*
X148484Y144791D03*
X148484Y158209D03*
X150453Y158209D03*
X152421Y158209D03*
X146516Y171791D03*
X144547Y171791D03*
X142579Y171791D03*
X142579Y158209D03*
X144547Y158209D03*
X146516Y158209D03*
X152421Y171791D03*
X150453Y171791D03*
X148484Y171791D03*
X148484Y186209D03*
X150453Y186209D03*
X152421Y186209D03*
X142579Y186209D03*
X144547Y186209D03*
X146516Y186209D03*
X146516Y199791D03*
X144547Y199791D03*
X142579Y199791D03*
X152421Y199791D03*
X150453Y199791D03*
X148484Y199791D03*
X257579Y316791D03*
X257579Y303209D03*
X279079Y316791D03*
X279079Y303209D03*
X263484Y303209D03*
X265453Y303209D03*
X267421Y303209D03*
X261516Y316791D03*
X259547Y316791D03*
X259547Y303209D03*
X261516Y303209D03*
X267421Y316791D03*
X265453Y316791D03*
X263484Y316791D03*
X300079Y316791D03*
X300079Y303209D03*
X284984Y303209D03*
X286953Y303209D03*
X288921Y303209D03*
X283016Y316791D03*
X281047Y316791D03*
X281047Y303209D03*
X283016Y303209D03*
X288921Y316791D03*
X286953Y316791D03*
X284984Y316791D03*
X311047Y94740D03*
X316953Y94740D03*
X316953Y112260D03*
X311047Y112260D03*
X305984Y303209D03*
X307953Y303209D03*
X309921Y303209D03*
X304016Y316791D03*
X302047Y316791D03*
X302047Y303209D03*
X304016Y303209D03*
X309921Y316791D03*
X307953Y316791D03*
X305984Y316791D03*
G54D76*
X250200Y132530D03*
X250200Y138470D03*
X275200Y132530D03*
X264800Y132530D03*
X275200Y138470D03*
X264800Y138470D03*
X289800Y132530D03*
X289800Y138470D03*
G54D85*
X308000Y372500D03*
X308000Y397500D03*
G54D58*
X159660Y419810D03*
X159660Y447370D03*
X182340Y419810D03*
X182340Y447370D03*
X283160Y417810D03*
X283160Y445370D03*
X305840Y417810D03*
X305840Y445370D03*
G54D67*
X207700Y437000D03*
X269200Y437000D03*
G54D94*
X355000Y438090D03*
G54D77*
X267500Y26000D03*
G54D68*
X228970Y22500D03*
G54D86*
X321000Y411900D03*
X321000Y429100D03*
X377500Y328400D03*
X377500Y345600D03*
X388500Y328400D03*
X388500Y345600D03*
G54D59*
X147230Y450900D03*
X194630Y450900D03*
G54D95*
X355000Y462500D03*
G54D78*
X267500Y18000D03*
X267500Y34000D03*
G54D96*
X375500Y216000D03*
G54D69*
X228150Y175650D03*
X228150Y249350D03*
X301860Y175650D03*
X301860Y249350D03*
G54D87*
X329500Y82500D03*
X366000Y298000D03*
G54D97*
X381500Y363800D03*
X381500Y395200D03*
G54D88*
X336750Y194000D03*
X333250Y214500D03*
X362250Y194000D03*
X358750Y214500D03*
G54D79*
X272820Y158000D03*
X291180Y158000D03*
X380000Y420500D03*
X396000Y420500D03*
G54D89*
X331500Y289590D03*
G54D98*
X382450Y445000D03*
X407550Y445000D03*
G54D99*
G01X0Y0D02*
X433000Y0D01*
X433000Y492500D01*
X0Y492500D01*
X0Y0D01*
M02*
